<svg id="Calque_1" data-name="Calque 1" xmlns="http://www.w3.org/2000/svg" viewBox="0 0 800 800"><defs><style>.cls-1{fill:#fff;stroke:#1a1a16;stroke-miterlimit:10;stroke-width:5px;}</style></defs><title>Spirale blanche avec demi lune et accroche</title><rect class="cls-1" x="225.23" y="164.81" width="350.88" height="496.25"/><line class="cls-1" x1="400.68" y1="151.42" x2="400.68" y2="178.2"/><line class="cls-1" x1="400.68" y1="151.42" x2="400.68" y2="178.2"/><line class="cls-1" x1="400.68" y1="151.42" x2="400.68" y2="178.2"/><line class="cls-1" x1="400.68" y1="151.42" x2="400.68" y2="178.2"/><line class="cls-1" x1="400.68" y1="151.42" x2="400.68" y2="178.2"/><line class="cls-1" x1="400.68" y1="151.42" x2="400.68" y2="178.2"/><line class="cls-1" x1="400.68" y1="151.42" x2="400.68" y2="178.2"/><line class="cls-1" x1="400.68" y1="151.42" x2="400.68" y2="178.2"/><line class="cls-1" x1="400.68" y1="151.42" x2="400.68" y2="178.2"/><line class="cls-1" x1="400.68" y1="151.42" x2="400.68" y2="178.2"/><line class="cls-1" x1="400.68" y1="151.42" x2="400.68" y2="178.2"/><line class="cls-1" x1="400.68" y1="151.42" x2="400.68" y2="178.2"/><path class="cls-1" d="M306.71,155.74h57.58s18.31-7.59,36.39-7.59c18.52,0,35.93,7.59,35.93,7.59h58"/></svg>