<svg id="Calque_1" data-name="Calque 1" xmlns="http://www.w3.org/2000/svg" xmlns:xlink="http://www.w3.org/1999/xlink" viewBox="0 0 800 800"><defs><style>.cls-1{fill:#e7e2da;}.cls-1,.cls-2,.cls-3{stroke:#1a1a16;stroke-miterlimit:10;stroke-width:5px;}.cls-2{opacity:0.73;fill:url(#Dégradé_sans_nom_44);}.cls-3{fill:#fff;}</style><linearGradient id="Dégradé_sans_nom_44" x1="235.5" y1="384.55" x2="555.78" y2="384.55" gradientUnits="userSpaceOnUse"><stop offset="0" stop-color="#d6d6d6"/><stop offset="0.15" stop-color="#dbdbdb"/><stop offset="0.33" stop-color="#ebebeb"/><stop offset="0.49" stop-color="#fff"/><stop offset="0.55" stop-color="#f5f5f5"/><stop offset="0.68" stop-color="#e4e4e4"/><stop offset="0.83" stop-color="#d9d9d9"/><stop offset="1" stop-color="#d6d6d6"/></linearGradient></defs><title>Spirale blanche à gauche - 1er plastifiée et 4eme cartonnée</title><rect class="cls-1" x="235.5" y="145.49" width="350.1" height="509.02"/><polygon class="cls-2" points="555.78 623.62 235.5 654.51 235.5 145.49 555.78 114.6 555.78 623.62"/><line class="cls-3" x1="214.4" y1="187.84" x2="252.54" y2="187.84"/><line class="cls-3" x1="214.4" y1="226.41" x2="252.54" y2="226.41"/><line class="cls-3" x1="214.4" y1="264.99" x2="252.54" y2="264.99"/><line class="cls-3" x1="214.4" y1="303.56" x2="252.54" y2="303.56"/><line class="cls-3" x1="214.4" y1="342.14" x2="252.54" y2="342.14"/><line class="cls-3" x1="214.4" y1="380.71" x2="252.54" y2="380.71"/><line class="cls-3" x1="214.4" y1="419.29" x2="252.54" y2="419.29"/><line class="cls-3" x1="214.4" y1="457.86" x2="252.54" y2="457.86"/><line class="cls-3" x1="214.4" y1="496.44" x2="252.54" y2="496.44"/><line class="cls-3" x1="214.4" y1="535.01" x2="252.54" y2="535.01"/><line class="cls-3" x1="214.4" y1="573.59" x2="252.54" y2="573.59"/><line class="cls-3" x1="214.4" y1="612.16" x2="252.54" y2="612.16"/></svg>