<svg id="Calque_1" data-name="Calque 1" xmlns="http://www.w3.org/2000/svg" viewBox="0 0 800 800"><defs><style>.cls-1{fill:#e7e2da;}.cls-1,.cls-2{stroke:#1a1a16;stroke-miterlimit:10;stroke-width:5px;}.cls-2{fill:#fff;}</style></defs><title>spirale long dos cartonné</title><rect class="cls-1" x="235.5" y="145.49" width="350.1" height="509.02"/><polygon class="cls-2" points="555.78 623.62 235.5 654.51 235.5 145.49 555.78 114.6 555.78 623.62"/><line class="cls-2" x1="214.4" y1="187.84" x2="252.54" y2="187.84"/><line class="cls-2" x1="214.4" y1="226.41" x2="252.54" y2="226.41"/><line class="cls-2" x1="214.4" y1="264.99" x2="252.54" y2="264.99"/><line class="cls-2" x1="214.4" y1="303.56" x2="252.54" y2="303.56"/><line class="cls-2" x1="214.4" y1="342.14" x2="252.54" y2="342.14"/><line class="cls-2" x1="214.4" y1="380.71" x2="252.54" y2="380.71"/><line class="cls-2" x1="214.4" y1="419.29" x2="252.54" y2="419.29"/><line class="cls-2" x1="214.4" y1="457.86" x2="252.54" y2="457.86"/><line class="cls-2" x1="214.4" y1="496.44" x2="252.54" y2="496.44"/><line class="cls-2" x1="214.4" y1="535.01" x2="252.54" y2="535.01"/><line class="cls-2" x1="214.4" y1="573.59" x2="252.54" y2="573.59"/><line class="cls-2" x1="214.4" y1="612.16" x2="252.54" y2="612.16"/></svg>