<svg id="Calque_1" data-name="Calque 1" xmlns="http://www.w3.org/2000/svg" viewBox="0 0 800 800"><defs><style>.cls-1{fill:#fff;stroke-miterlimit:10;}.cls-1,.cls-2{stroke:#1a1a16;stroke-width:5px;}.cls-2{fill:#e7e2da;stroke-linecap:round;stroke-linejoin:round;}</style></defs><title>spirale blanche chevalet</title><polygon class="cls-1" points="153.4 220.76 671.54 190.3 693.54 561.52 178.7 621.99 153.4 220.76"/><polygon class="cls-2" points="106.46 519.8 153.18 220.58 178.9 621.85 106.46 519.8"/><line class="cls-1" x1="625.27" y1="178.01" x2="626.83" y2="202.88"/><line class="cls-1" x1="594.6" y1="179.93" x2="596.16" y2="204.8"/><line class="cls-1" x1="563.93" y1="181.86" x2="565.49" y2="206.72"/><line class="cls-1" x1="533.26" y1="183.78" x2="534.82" y2="208.65"/><line class="cls-1" x1="502.59" y1="185.7" x2="504.15" y2="210.57"/><line class="cls-1" x1="471.92" y1="187.63" x2="473.48" y2="212.49"/><line class="cls-1" x1="441.26" y1="189.55" x2="442.81" y2="214.42"/><line class="cls-1" x1="410.59" y1="191.47" x2="412.15" y2="216.34"/><line class="cls-1" x1="379.92" y1="193.4" x2="381.48" y2="218.26"/><line class="cls-1" x1="349.25" y1="195.32" x2="350.81" y2="220.19"/><line class="cls-1" x1="318.58" y1="197.25" x2="320.14" y2="222.11"/><line class="cls-1" x1="287.91" y1="199.17" x2="289.47" y2="224.04"/><line class="cls-1" x1="257.2" y1="200.33" x2="258.76" y2="225.2"/><line class="cls-1" x1="226.53" y1="202.26" x2="228.09" y2="227.12"/><line class="cls-1" x1="195.86" y1="204.18" x2="197.42" y2="229.05"/></svg>