<svg id="Calque_1" data-name="Calque 1" xmlns="http://www.w3.org/2000/svg" viewBox="0 0 800 800"><defs><style>.cls-1,.cls-3{fill:#978367;}.cls-2{fill:#e7e2da;}.cls-3{font-size:73.82px;font-family:RougeSansBold;letter-spacing:-0.04em;}</style></defs><title>délai rush</title><path class="cls-1" d="M198.33,263.45l-87.57-51.37c-2.39-1.4-3.51-3.92-2.5-5.63s3.75-2,6.13-.56L202,257.26c2.38,1.39,3.51,3.92,2.5,5.63S200.71,264.85,198.33,263.45Z"/><path class="cls-1" d="M260.84,227.3l-54.48-32a3.15,3.15,0,0,1,3.19-5.44l54.48,32a3.15,3.15,0,0,1-3.19,5.44Z"/><path class="cls-1" d="M190.61,326.9l-54.48-32a3.15,3.15,0,0,1,3.19-5.44l54.48,32a3.15,3.15,0,0,1-3.19,5.44Z"/><path class="cls-1" d="M324.78,194.6l-31.14-18.26c-.85-.5-1-1.88-.26-3.08s2-1.78,2.82-1.28l31.14,18.26c.85.5,1,1.88.26,3.09S325.63,195.1,324.78,194.6Z"/><path class="cls-1" d="M192.05,386.83l-31.14-18.27c-.85-.49-1-1.87-.25-3.08s2-1.77,2.81-1.28l31.14,18.27c.85.5,1,1.88.26,3.08S192.9,387.33,192.05,386.83Z"/><polygon class="cls-1" points="295.24 242.16 351.8 209.51 550.62 324.29 550.62 424.98 494.42 457.42 494.42 359.64 295.24 242.16"/><polygon class="cls-2" points="286.63 247.13 225.33 282.53 420.2 395.03 481.51 359.64 286.63 247.13"/><path class="cls-2" d="M619.37,449.05V290L559.23,324.7V427.46a4.32,4.32,0,0,1-2.15,3.73l-64.8,37.42a4.43,4.43,0,0,1-4.32,0,4.3,4.3,0,0,1-2.15-3.73V367.09l-61.31,35.4v225l107.22-61.9a97.82,97.82,0,0,1,87.65-116.55Z"/><polygon class="cls-2" points="615.07 282.53 420.2 170.02 360.41 204.54 555.28 317.04 615.07 282.53"/><polygon class="cls-2" points="221.02 413.99 221.02 417.1 221.02 515 415.89 627.5 415.89 402.49 221.02 289.98 221.02 413.99"/><text class="cls-3" transform="translate(558.24 578.83)">24H</text></svg>