<svg id="Calque_1" data-name="Calque 1" xmlns="http://www.w3.org/2000/svg" viewBox="0 0 800 800"><defs><style>.cls-1{fill:#978367;}.cls-2{fill:#e7e2da;}</style></defs><title>délai standard</title><polygon class="cls-1" points="280.61 242.16 337.17 209.51 535.99 324.29 535.99 424.98 479.79 457.42 479.79 359.64 280.61 242.16"/><path class="cls-2" d="M405.56,170,600.43,282.53,540.65,317,345.78,204.54Zm-4.3,457.48L206.39,515V290L401.26,402.49ZM405.56,395,210.69,282.53,272,247.13,466.87,359.64ZM604.74,515,409.87,627.5v-225l61.31-35.4v97.79a4.3,4.3,0,0,0,2.15,3.73,4.43,4.43,0,0,0,4.32,0l64.79-37.42a4.31,4.31,0,0,0,2.16-3.73V324.7L604.74,290Z"/></svg>