<svg id="Calque_1" data-name="Calque 1" xmlns="http://www.w3.org/2000/svg" xmlns:xlink="http://www.w3.org/1999/xlink" viewBox="0 0 800 800"><defs><style>.cls-1{fill:#fbecd3;}.cls-2{fill:#9daea4;}.cls-3{fill:#799685;}.cls-4{fill:#de8c0c;}.cls-5{fill:#f28c01;}.cls-6{fill:#fdfdfe;}.cls-7{fill:#8c3414;}.cls-8{fill:#cf5516;}.cls-9{fill:#494020;}.cls-10{fill:none;stroke:#1a1916;stroke-width:5px;}.cls-10,.cls-11,.cls-12{stroke-miterlimit:10;}.cls-11{fill:#fff;stroke-width:2px;opacity:0.5;}.cls-11,.cls-12{stroke:#1d1d1b;}.cls-12{opacity:0.84;fill:url(#Dégradé_sans_nom_43);}</style><linearGradient id="Dégradé_sans_nom_43" x1="104.07" y1="414.36" x2="697.43" y2="414.36" gradientUnits="userSpaceOnUse"><stop offset="0" stop-color="#fff" stop-opacity="0"/><stop offset="0.03" stop-color="#fff" stop-opacity="0.07"/><stop offset="0.08" stop-color="#fff" stop-opacity="0.24"/><stop offset="0.15" stop-color="#fff" stop-opacity="0.53"/><stop offset="0.24" stop-color="#fff" stop-opacity="0.92"/><stop offset="0.25" stop-color="#fff"/><stop offset="0.26" stop-color="#fff" stop-opacity="0.96"/><stop offset="0.32" stop-color="#fff" stop-opacity="0.76"/><stop offset="0.38" stop-color="#fff" stop-opacity="0.58"/><stop offset="0.44" stop-color="#fff" stop-opacity="0.42"/><stop offset="0.51" stop-color="#fff" stop-opacity="0.29"/><stop offset="0.58" stop-color="#fff" stop-opacity="0.19"/><stop offset="0.66" stop-color="#fff" stop-opacity="0.1"/><stop offset="0.74" stop-color="#fff" stop-opacity="0.04"/><stop offset="0.84" stop-color="#fff" stop-opacity="0.01"/><stop offset="1" stop-color="#fff" stop-opacity="0"/></linearGradient></defs><title>Plan de travail 1 copie</title><rect class="cls-1" x="121.98" y="138.67" width="558.7" height="558.7"/><rect class="cls-2" x="121.98" y="473.42" width="558.7" height="223.95"/><path class="cls-3" d="M122,528.55s26.88.74,53.7-16.39S223.36,491.3,245,491.3s19.37,6,46.19,0,55.12-9.68,79-8.94,27.56-3,41.72,5.22S481.1,509,499,505.35s22.86,3.83,43.09,9.79,30.66-27,52.26-9.79,26.08,14.26,38,26.92,7.45,14.9,22.34,19.37,26,8.19,26,8.19V473.42H122Z"/><circle class="cls-4" cx="385.74" cy="334.68" r="53.72"/><circle class="cls-3" cx="372.68" cy="547.54" r="39.54"/><path class="cls-5" d="M680.68,297s-15.51-8.94-25-7.82-14,15.64-29.06,19.56-5,11.73-43.58,26-36.58,22.63-70,36S456.43,412.48,405.78,418s-108.37,55.4-108.37,55.4H680.68Z"/><path class="cls-6" d="M401.66,309.57s26.18,2.06,50.31,0,27.06,1.47,34.12,0-8.24-6.76-17.06-8.82-12.36,5.91-21.18,4.87-6.18-3.4-16.48-2.23-10.59,3.53-18.23,3.53S399.88,309.45,401.66,309.57Z"/><path class="cls-6" d="M179.5,372.4a174,174,0,0,0,26.78,0c16.28-1.09,21.71.6,33.65.48s14.84,1.58,18.09,0-8-.85-15.55-3.75-8-6.29-16.29-4.41-4,5.86-14.47,1.52-9.05-8.32-16.65-4.71-3.62,6.16-15.56,6.88-17.36,2.17-14.47,2.89S179.5,372.4,179.5,372.4Z"/><path class="cls-7" d="M122,334.68s4.5,11.17,23.49,15.64,29.68-1.39,48.67,19.84,31.77,33.78,66.4,37.14,3.35.22,58.1,10.72,43.61,1.77,82.69,14.52S503,473.42,542.07,473.42H122Z"/><path class="cls-8" d="M345.45,473.42s14.52-10.26,39.1-14.73,24.36,8.94,69.16-7.26S503.45,426.49,519.1,428s18.62,11.18,37.24,12.67,14.9,7.44,37.25-1.49,29.8-34.46,48.42-35.11,38.67-19.27,38.67-19.27v88.64Z"/><path class="cls-9" d="M122,617.94c10.85-6.35,105.12,9,198.87,43,97,35.14,108.39,25.69,163.13,24.57s196.7,11.9,196.7,11.9H122Z"/><polygon class="cls-9" points="136.74 547.54 121.98 617.94 151.5 617.94 136.74 547.54"/><polygon class="cls-9" points="154.29 559.3 140.69 624.2 167.9 624.2 154.29 559.3"/><polygon class="cls-9" points="172.73 555.09 157.97 625.48 187.49 625.48 172.73 555.09"/><polygon class="cls-9" points="503.81 617.98 489.05 688.38 518.57 688.38 503.81 617.98"/><polygon class="cls-9" points="539.8 625.53 525.04 695.92 554.56 695.92 539.8 625.53"/><polygon class="cls-9" points="221.62 570.33 206.85 640.73 236.38 640.73 221.62 570.33"/><polygon class="cls-9" points="242.29 576.03 228.35 642.48 256.22 642.48 242.29 576.03"/><polygon class="cls-9" points="189.22 582.74 178.84 632.27 199.61 632.27 189.22 582.74"/><polygon class="cls-9" points="202.07 590.28 192.71 634.93 211.43 634.93 202.07 590.28"/><polygon class="cls-9" points="264.37 603.55 253.98 653.09 274.75 653.09 264.37 603.55"/><polygon class="cls-9" points="481.03 639.83 470.64 689.37 491.41 689.37 481.03 639.83"/><polygon class="cls-9" points="280.57 614.88 271.17 659.7 289.96 659.7 280.57 614.88"/><polygon class="cls-9" points="292.22 625.34 283.98 664.63 300.46 664.63 292.22 625.34"/><polygon class="cls-9" points="306.58 638.49 300.46 667.68 312.7 667.68 306.58 638.49"/><polygon class="cls-9" points="521.62 659.7 515.5 688.88 527.74 688.88 521.62 659.7"/><polygon class="cls-9" points="557.79 660.73 551.67 689.91 563.91 689.91 557.79 660.73"/><path class="cls-6" d="M637.72,436.28H612.07c-9.66,0-19.65,1.5-19-1.49s11,.75,18.65-3.36,11-7.85,24-3,23,7.47,16.32,8.22A66,66,0,0,1,637.72,436.28Z"/><rect class="cls-10" x="121.98" y="138.67" width="558.7" height="558.7"/><rect class="cls-11" x="104.07" y="119.94" width="593.36" height="588.84" rx="6.92"/><rect class="cls-12" x="104.07" y="119.94" width="593.36" height="588.84" rx="6.92"/></svg>