<svg id="Calque_1" data-name="Calque 1" xmlns="http://www.w3.org/2000/svg" viewBox="0 0 800 800"><defs><style>.cls-1{fill:#fff;stroke:#f3f0ec;stroke-width:17.89px;}.cls-1,.cls-2{stroke-miterlimit:10;}.cls-2{fill:none;stroke:#060300;stroke-width:5px;}</style></defs><title>découpe à la forme</title><path class="cls-1" d="M258,218.73c-35.43,0-67.85,13.48-91.31,38-26.53,27.68-40.55,68.23-40.55,117.28,0,39.6,13.9,80.75,41.32,122.31,21.61,32.77,51.67,65.9,89.33,98.49C320.6,650,385.36,685.2,386,685.55l4.09,2.21,4.09-2.21c.65-.35,65.41-35.57,129.22-90.79,37.66-32.59,67.71-65.72,89.32-98.49C640.14,454.71,654,413.56,654,374c0-49-14-89.6-40.56-117.28-23.46-24.47-55.9-38-91.33-38a145.1,145.1,0,0,0-87.36,29.63A140.54,140.54,0,0,0,390.09,306a140.61,140.61,0,0,0-44.7-57.63A145.14,145.14,0,0,0,258,218.73h0Z"/><path d="M483.47,202.49a1.33,1.33,0,0,0-.94.39l-35.31,35.31V191.85l12.14-12.13a1.35,1.35,0,0,0,.39-.95,1.34,1.34,0,0,0-2.28-1l-12.53,12.53a1.32,1.32,0,0,0-.4,1v50.12a1.34,1.34,0,0,0,2.29,1l37.59-37.59a1.35,1.35,0,0,0,0-1.9A1.33,1.33,0,0,0,483.47,202.49Z"/><path d="M541,119.35l-26.51,26.51-1.81-.87a9.55,9.55,0,0,0-4.14-1,9.71,9.71,0,0,0-9.7,9.7,9.52,9.52,0,0,0,1,4.14l.87,1.81-5.63,5.63a1.34,1.34,0,0,0,0,1.89,1.32,1.32,0,0,0,1.89,0l5.63-5.62,1.81.86a9.56,9.56,0,0,0,4.15,1,9.7,9.7,0,0,0,9.69-9.69,9.56,9.56,0,0,0-1-4.15l-.86-1.81,26.51-26.51a1.34,1.34,0,1,0-1.9-1.89Zm-32.46,41.37a7,7,0,1,1,7-7A7,7,0,0,1,508.54,160.72Z"/><path d="M569.67,64.65a27.78,27.78,0,0,0-19.75,8.18l-82.37,82.38a9.71,9.71,0,0,0,0,13.71l25.78,25.77a9.69,9.69,0,0,0,13.71,0l69.27-69.27a1.35,1.35,0,0,0,.39-1,1.34,1.34,0,0,0-2.28-1L505.14,192.8a7,7,0,0,1-4.95,2h0a7.05,7.05,0,0,1-5-2L469.45,167a7,7,0,0,1,0-9.92l82.38-82.37A25.24,25.24,0,0,1,590,107.52l-2,2.68L563.78,85.93a1.34,1.34,0,0,0-1.89,0,1.35,1.35,0,0,0-.4.95,1.33,1.33,0,0,0,.4.94L587,112.89a1.34,1.34,0,0,0,1.89,0l.57-.57a27.92,27.92,0,0,0-19.74-47.67Z"/><path class="cls-2" d="M434.79,248.36A140.54,140.54,0,0,0,390.09,306a140.61,140.61,0,0,0-44.7-57.63A145.14,145.14,0,0,0,258,218.73h0c-35.43,0-67.85,13.48-91.31,38-26.53,27.68-40.55,68.23-40.55,117.28,0,39.6,13.9,80.75,41.32,122.31,21.61,32.77,51.67,65.9,89.33,98.49C320.6,650,385.36,685.2,386,685.55l4.09,2.21,4.09-2.21c.65-.35,65.41-35.57,129.22-90.79,37.66-32.59,67.71-65.72,89.32-98.49C640.14,454.71,654,413.56,654,374c0-49-14-89.6-40.56-117.28"/></svg>