<svg id="Calque_1" data-name="Calque 1" xmlns="http://www.w3.org/2000/svg" viewBox="0 0 800 800"><defs><style>.cls-1{fill:#1a1a16;}</style></defs><title>Plan de travail 1 copie 10</title><path class="cls-1" d="M558.46,237.37a229.85,229.85,0,0,0-295.46-25,231.57,231.57,0,0,0-28.59,24A229.82,229.82,0,0,0,529.94,586.61a232.6,232.6,0,0,0,28.47-24.17,229.83,229.83,0,0,0,.05-325.07ZM526.81,574.78a82.71,82.71,0,0,1-7.6,5.7A218.53,218.53,0,0,1,242.86,244.85l10.79-10.67L535.16,567.75Zm24.55-22.12-6.92,7.09L263,226.28l8.14-5.64a218.23,218.23,0,0,1,280.21,332Z"/></svg>