<svg id="Calque_1" data-name="Calque 1" xmlns="http://www.w3.org/2000/svg" viewBox="0 0 800 800"><defs><style>.cls-1{fill:#fff;stroke:#1a1a16;stroke-miterlimit:10;stroke-width:5px;}.cls-2{fill:#e7e2da;}</style></defs><title>coins arrondis</title><rect class="cls-1" x="104.18" y="103.08" width="601.45" height="601.45" rx="123.11"/><path class="cls-2" d="M294.2,207.25c-29.7,0-56.88,11.29-76.54,31.8-22.23,23.2-34,57.19-34,98.31,0,33.19,11.65,67.68,34.63,102.51,18.11,27.46,43.3,55.24,74.87,82.55a686.51,686.51,0,0,0,108.3,76.09l3.43,1.86,3.43-1.86a686.51,686.51,0,0,0,108.3-76.09c31.56-27.31,56.75-55.09,74.87-82.55,23-34.83,34.63-69.32,34.63-102.51,0-41.11-11.75-75.1-34-98.3-19.66-20.52-46.85-31.81-76.55-31.81a121.67,121.67,0,0,0-73.22,24.83,117.78,117.78,0,0,0-37.46,48.3,117.71,117.71,0,0,0-37.47-48.29,121.56,121.56,0,0,0-73.21-24.84h0Z"/><path d="M263.57,665.36a1.33,1.33,0,0,0-.94.39l-35.31,35.31V654.72l12.14-12.14a1.34,1.34,0,0,0-1-2.28,1.35,1.35,0,0,0-.95.39L225,653.22a1.34,1.34,0,0,0-.39.95v50.12a1.34,1.34,0,0,0,2.29,1l37.59-37.6a1.34,1.34,0,0,0-.95-2.28Z"/><path d="M321.1,582.21l-26.51,26.52-1.81-.87a9.56,9.56,0,0,0-4.15-1,9.71,9.71,0,0,0-9.69,9.7,9.55,9.55,0,0,0,1,4.14l.86,1.81-5.62,5.63a1.34,1.34,0,1,0,1.89,1.89l5.63-5.62,1.81.86a9.55,9.55,0,0,0,4.14,1,9.71,9.71,0,0,0,9.7-9.69,9.56,9.56,0,0,0-1-4.15l-.87-1.81L323,584.11a1.31,1.31,0,0,0,.4-1,1.34,1.34,0,0,0-2.29-.95Zm-32.47,41.38a7,7,0,1,1,7-7A7,7,0,0,1,288.63,623.59Z"/><path d="M349.76,527.52A27.74,27.74,0,0,0,330,535.7l-82.37,82.38a9.69,9.69,0,0,0,0,13.7l25.77,25.78a9.69,9.69,0,0,0,13.71,0l69.28-69.27a1.35,1.35,0,0,0,.39-.95,1.34,1.34,0,0,0-2.28-1l-69.28,69.28a7.08,7.08,0,0,1-5,2h0a7,7,0,0,1-5-2l-25.78-25.77a7,7,0,0,1,0-9.92l82.38-82.37a25.24,25.24,0,0,1,38.18,32.79l-2,2.68L343.88,548.8a1.33,1.33,0,0,0-.95-.39,1.35,1.35,0,0,0-1.34,1.34,1.33,1.33,0,0,0,.39.94l25.07,25.06a1.32,1.32,0,0,0,1.89,0l.57-.56a27.92,27.92,0,0,0-19.75-47.67Z"/></svg>