<svg id="Calque_1" data-name="Calque 1" xmlns="http://www.w3.org/2000/svg" viewBox="0 0 800 800"><defs><style>.cls-1{fill:#ebe7e2;stroke-width:5px;}.cls-1,.cls-3{stroke:#1a1916;stroke-miterlimit:10;}.cls-2{fill:#fff;}.cls-3{fill:none;stroke-width:2px;}</style></defs><title>Plan de travail 5</title><rect class="cls-1" x="144.69" y="238.37" width="481.54" height="338.86"/><path d="M576.06,328.41a1.42,1.42,0,0,0-1,.41L537.4,366.47V317.06l12.94-12.94a1.4,1.4,0,0,0,.42-1,1.41,1.41,0,0,0-.42-1,1.41,1.41,0,0,0-2,0L535,315.46a1.42,1.42,0,0,0-.42,1v53.45a1.43,1.43,0,0,0,2.44,1l40.09-40.09a1.42,1.42,0,0,0-1-2.43Z"/><path class="cls-2" d="M675.06,244.32a1.41,1.41,0,0,0-1-.42,1.4,1.4,0,0,0-1,.42l-73.88,73.87a7.5,7.5,0,0,1-5.28,2.15h0a7.52,7.52,0,0,1-5.3-2.15L561.1,290.7a7.47,7.47,0,0,1,0-10.57l87.84-87.85a26.92,26.92,0,0,1,40.72,35l-2.09,2.85L661.7,204.23a1.41,1.41,0,0,0-1-.42,1.43,1.43,0,0,0-1.43,1.43,1.41,1.41,0,0,0,.42,1L686.4,233"/><path d="M637.41,239.74,609.13,268l-1.93-.93a10.19,10.19,0,0,0-4.42-1,10.26,10.26,0,0,0-9.29,14.76l.92,1.93-6,6a1.44,1.44,0,0,0-.42,1,1.43,1.43,0,0,0,1.43,1.43,1.44,1.44,0,0,0,1-.42l6-6,1.93.92A10.25,10.25,0,0,0,612.08,272l-.93-1.93,28.28-28.28a1.42,1.42,0,0,0,.41-1,1.42,1.42,0,0,0-2.43-1Zm-34.63,44.13a7.48,7.48,0,1,1,7.48-7.48A7.49,7.49,0,0,1,602.78,283.87Z"/><path d="M668,181.54a29.58,29.58,0,0,0-21.05,8.72L559.07,278.1a10.36,10.36,0,0,0,0,14.62l27.49,27.49a10.32,10.32,0,0,0,14.61,0l73.88-73.87a1.45,1.45,0,0,0,.42-1,1.44,1.44,0,0,0-.42-1,1.41,1.41,0,0,0-1-.42,1.4,1.4,0,0,0-1,.42l-73.88,73.87a7.5,7.5,0,0,1-5.28,2.15h0a7.52,7.52,0,0,1-5.3-2.15L561.1,290.7a7.47,7.47,0,0,1,0-10.57l87.84-87.85a26.92,26.92,0,0,1,40.72,35l-2.09,2.85L661.7,204.23a1.41,1.41,0,0,0-1-.42,1.43,1.43,0,0,0-1.43,1.43,1.41,1.41,0,0,0,.42,1L686.4,233a1.42,1.42,0,0,0,2,0l.6-.6a29.77,29.77,0,0,0-21-50.83Z"/><path class="cls-3" d="M408.57,356.17s47.36,13.12,47.36,59.09V523.91"/><path class="cls-3" d="M561.57,356.17s-47.36,13.12-47.36,59.09V523.91"/></svg>