<svg id="Calque_1" data-name="Calque 1" xmlns="http://www.w3.org/2000/svg" viewBox="0 0 800 800"><defs><style>.cls-1{fill:#ebe7e2;}.cls-1,.cls-2,.cls-3{stroke:#1a1916;stroke-miterlimit:10;}.cls-1,.cls-3{stroke-width:5px;}.cls-2,.cls-3,.cls-4{fill:#fff;}.cls-2{stroke-width:4px;stroke-dasharray:11.95;}</style></defs><title>Plan de travail 1</title><polygon class="cls-1" points="389.42 121.36 235.09 121.36 235.09 722.82 536.4 722.82 536.4 121.36 427.16 121.36 389.42 121.36"/><line class="cls-2" x1="536.4" y1="630.31" x2="237.01" y2="630.31"/><circle class="cls-3" cx="385.74" cy="216.35" r="45.46"/><path d="M467,188.39a1.31,1.31,0,0,0-1,.4l-35.31,35.3V177.76l12.14-12.14a1.32,1.32,0,0,0,0-1.89,1.32,1.32,0,0,0-1.89,0l-12.53,12.53a1.29,1.29,0,0,0-.39.94v50.12a1.33,1.33,0,0,0,2.28,1l37.59-37.59a1.32,1.32,0,0,0,0-1.89A1.31,1.31,0,0,0,467,188.39Z"/><path class="cls-4" d="M559.81,109.54a1.34,1.34,0,0,0-1.89,0l-69.28,69.27a7,7,0,0,1-4.95,2h0a7,7,0,0,1-5-2L453,153a7,7,0,0,1,0-9.92l82.38-82.38a25.24,25.24,0,0,1,38.18,32.8l-2,2.67L547.28,72a1.32,1.32,0,0,0-1.89,0,1.34,1.34,0,0,0,0,1.89L570.45,98.9"/><path d="M524.5,105.25,498,131.76l-1.81-.86a9.52,9.52,0,0,0-4.14-1,9.71,9.71,0,0,0-9.7,9.69,9.56,9.56,0,0,0,1,4.15l.87,1.81-5.63,5.63a1.34,1.34,0,0,0,1.89,1.89l5.63-5.63,1.81.87a9.56,9.56,0,0,0,4.15,1,9.71,9.71,0,0,0,9.69-9.7,9.52,9.52,0,0,0-1-4.14l-.86-1.81,26.51-26.52a1.34,1.34,0,0,0,0-1.89A1.35,1.35,0,0,0,524.5,105.25ZM492,146.63a7,7,0,1,1,7-7A7,7,0,0,1,492,146.63Z"/><path d="M553.17,50.67a27.7,27.7,0,0,0-19.74,8.18l-82.38,82.37a9.72,9.72,0,0,0,0,13.71l25.78,25.78a9.69,9.69,0,0,0,13.71,0l69.27-69.28a1.32,1.32,0,0,0,0-1.89,1.34,1.34,0,0,0-1.89,0l-69.28,69.27a7,7,0,0,1-4.95,2h0a7,7,0,0,1-5-2L453,153a7,7,0,0,1,0-9.92l82.38-82.38a25.24,25.24,0,0,1,38.18,32.8l-2,2.67L547.28,72a1.32,1.32,0,0,0-1.89,0,1.34,1.34,0,0,0,0,1.89L570.45,98.9a1.34,1.34,0,0,0,1.89,0l.57-.57a27.92,27.92,0,0,0-19.74-47.66Z"/></svg>