<svg id="Calque_1" data-name="Calque 1" xmlns="http://www.w3.org/2000/svg" viewBox="0 0 800 800"><defs><style>.cls-1{fill:#e7e2da;stroke-width:5px;}.cls-1,.cls-2,.cls-3{stroke:#1a1a16;stroke-miterlimit:10;}.cls-2{fill:#fff;}.cls-2,.cls-3{stroke-width:4px;}.cls-3{fill:none;}.cls-4{font-size:48.41px;fill:#1a1a16;font-family:Affogato-Bold, Affogato;font-weight:700;}</style></defs><title>oeillets tous les 50cm</title><rect class="cls-1" x="128.3" y="128.3" width="543.39" height="543.39"/><circle class="cls-2" cx="177.77" cy="179.22" r="16"/><circle class="cls-2" cx="177.77" cy="289.61" r="16"/><circle class="cls-2" cx="177.77" cy="512.03" r="16"/><circle class="cls-2" cx="288.88" cy="179.22" r="16"/><circle class="cls-2" cx="177.77" cy="400" r="16"/><circle class="cls-2" cx="400" cy="179.22" r="16"/><circle class="cls-2" cx="510.66" cy="179.22" r="16"/><circle class="cls-2" cx="621.31" cy="289.61" r="16"/><circle class="cls-2" cx="621.31" cy="512.03" r="16"/><circle class="cls-2" cx="621.31" cy="179.22" r="16"/><circle class="cls-2" cx="621.31" cy="400" r="16"/><circle class="cls-2" cx="177.77" cy="624.06" r="16"/><circle class="cls-2" cx="288.65" cy="624.06" r="16"/><circle class="cls-2" cx="510.66" cy="624.06" r="16"/><circle class="cls-2" cx="399.54" cy="624.06" r="16"/><circle class="cls-2" cx="621.31" cy="624.06" r="16"/><polyline class="cls-3" points="205.29 289.61 227.37 289.61 227.37 396.52 205.29 396.52"/><polyline class="cls-3" points="205.29 396.52 227.37 396.52 227.37 503.44 205.29 503.44"/><text class="cls-4" transform="translate(253.29 410.22)">50cm</text></svg>