<svg id="Calque_1" data-name="Calque 1" xmlns="http://www.w3.org/2000/svg" viewBox="0 0 800 800"><defs><style>.cls-1{fill:#e7e2da;stroke-width:5px;}.cls-1,.cls-3{stroke:#1a1a16;stroke-miterlimit:10;}.cls-2{fill:#fff;}.cls-3{fill:none;stroke-width:4px;stroke-dasharray:11.96 11.96;}</style></defs><title>perforation copie</title><path class="cls-1" d="M488.23,138H594.36A111.92,111.92,0,0,1,706.28,249.91V627.5A111.92,111.92,0,0,1,594.36,739.43H216.76A111.93,111.93,0,0,1,104.83,627.5V249.91A111.93,111.93,0,0,1,216.76,138H412.89"/><circle class="cls-2" cx="402.83" cy="302.64" r="68.55"/><path class="cls-3" d="M471.38,302.64a68.55,68.55,0,0,0-68.55-68.55c-90.92,3.61-90.9,133.5,0,137.09a68.55,68.55,0,0,0,68.55-68.54Z"/><path d="M413,199.13a1.33,1.33,0,0,0-.95.39l-35.31,35.3V188.49l12.14-12.14a1.32,1.32,0,0,0,0-1.89,1.34,1.34,0,0,0-1.89,0L374.47,187a1.3,1.3,0,0,0-.39.95v50.12a1.32,1.32,0,0,0,.82,1.23,1.34,1.34,0,0,0,1.46-.29L414,201.41a1.34,1.34,0,0,0-.94-2.28Z"/><path class="cls-2" d="M505.84,120.27a1.34,1.34,0,0,0-1.89,0l-69.28,69.28a7,7,0,0,1-4.95,2h0a7,7,0,0,1-5-2L399,163.77a7,7,0,0,1,0-9.92l82.38-82.37a25.24,25.24,0,0,1,38.18,32.79l-1.95,2.67L493.31,82.68a1.34,1.34,0,0,0-1.89,1.89l25.06,25.06"/><path d="M470.53,116,444,142.5l-1.81-.87a9.52,9.52,0,0,0-4.14-1,9.71,9.71,0,0,0-9.7,9.69,9.56,9.56,0,0,0,1,4.15l.87,1.81-5.63,5.63a1.34,1.34,0,0,0,1.89,1.89l5.63-5.63,1.81.87a9.56,9.56,0,0,0,4.15,1,9.71,9.71,0,0,0,9.69-9.7,9.55,9.55,0,0,0-1-4.14l-.86-1.81,26.51-26.51a1.35,1.35,0,0,0,0-1.9A1.35,1.35,0,0,0,470.53,116Zm-32.46,41.38a7,7,0,1,1,7-7A7,7,0,0,1,438.07,157.36Z"/><path d="M499.2,61.4a27.74,27.74,0,0,0-19.74,8.18L397.08,152a9.71,9.71,0,0,0,0,13.7l25.78,25.78a9.69,9.69,0,0,0,13.71,0l69.27-69.28a1.32,1.32,0,0,0,0-1.89,1.34,1.34,0,0,0-1.89,0l-69.28,69.28a7,7,0,0,1-4.95,2h0a7,7,0,0,1-5-2L399,163.77a7,7,0,0,1,0-9.92l82.38-82.37a25.24,25.24,0,0,1,38.18,32.79l-1.95,2.67L493.31,82.68a1.34,1.34,0,0,0-1.89,1.89l25.06,25.06a1.32,1.32,0,0,0,1.89,0l.57-.56A27.92,27.92,0,0,0,499.2,61.4Z"/></svg>