<svg id="Calque_1" data-name="Calque 1" xmlns="http://www.w3.org/2000/svg" viewBox="0 0 800 800"><defs><style>.cls-1,.cls-4,.cls-5{fill:#fff;}.cls-1,.cls-3,.cls-4{stroke:#1a1916;stroke-miterlimit:10;}.cls-1{stroke-width:5px;}.cls-2{fill:#ebe7e2;}.cls-3{fill:none;}.cls-3,.cls-4{stroke-width:4px;stroke-dasharray:11.95;}</style></defs><title>Plan de travail 2</title><polygon class="cls-1" points="407.33 121.36 99.27 121.36 99.27 722.82 700.73 722.82 700.73 121.36 482.67 121.36 407.33 121.36"/><rect class="cls-2" x="328.17" y="137.05" width="143.67" height="184.5"/><rect class="cls-2" x="328.17" y="321.56" width="143.67" height="63.52"/><rect class="cls-2" x="285.95" y="385.07" width="228.11" height="321.54"/><polygon class="cls-3" points="514.05 385.07 514.05 706.62 285.95 706.62 285.95 385.07 328.16 385.07 328.16 137.06 471.83 137.06 471.83 385.07 514.05 385.07"/><circle class="cls-4" cx="400" cy="228.06" r="45.46"/><path d="M511.65,322.25a1.33,1.33,0,0,0-.95.39l-35.3,35.3V311.61l12.13-12.14a1.32,1.32,0,0,0,0-1.89,1.32,1.32,0,0,0-1.89,0l-12.53,12.53a1.33,1.33,0,0,0-.39.94v50.13a1.32,1.32,0,0,0,.82,1.23,1.34,1.34,0,0,0,1.46-.29l37.59-37.59a1.34,1.34,0,0,0-.94-2.28Z"/><path class="cls-5" d="M604.48,243.39a1.34,1.34,0,0,0-1.89,0l-69.28,69.28a7,7,0,0,1-4.95,2h0a7,7,0,0,1-5-2l-25.77-25.77a7,7,0,0,1,0-9.92L580,194.59a25.24,25.24,0,0,1,38.18,32.8l-1.95,2.67L592,205.8a1.34,1.34,0,0,0-1.89,1.89l25.06,25.06"/><path d="M569.18,239.1l-26.52,26.51-1.81-.86a9.52,9.52,0,0,0-4.14-1,9.71,9.71,0,0,0-9.7,9.69,9.56,9.56,0,0,0,1,4.15l.87,1.81-5.63,5.63a1.34,1.34,0,0,0,.95,2.28,1.36,1.36,0,0,0,1-.39l5.62-5.63,1.81.87a9.56,9.56,0,0,0,4.15,1,9.71,9.71,0,0,0,9.69-9.7,9.55,9.55,0,0,0-1-4.14l-.86-1.81L571.07,241a1.35,1.35,0,0,0,.39-.95,1.34,1.34,0,0,0-2.28-1Zm-32.47,41.38a7,7,0,1,1,7-7A7,7,0,0,1,536.71,280.48Z"/><path d="M597.84,184.52a27.74,27.74,0,0,0-19.74,8.18l-82.38,82.37a9.72,9.72,0,0,0,0,13.71l25.78,25.78a9.69,9.69,0,0,0,13.71,0l69.27-69.28a1.32,1.32,0,0,0,0-1.89,1.34,1.34,0,0,0-1.89,0l-69.28,69.28a7,7,0,0,1-4.95,2h0a7,7,0,0,1-5-2l-25.77-25.77a7,7,0,0,1,0-9.92L580,194.59a25.24,25.24,0,0,1,38.18,32.8l-1.95,2.67L592,205.8a1.34,1.34,0,0,0-1.89,1.89l25.06,25.06a1.34,1.34,0,0,0,1.9,0l.56-.56a27.92,27.92,0,0,0-19.74-47.67Z"/></svg>