<svg id="Calque_1" data-name="Calque 1" xmlns="http://www.w3.org/2000/svg" viewBox="0 0 800 800"><defs><style>.cls-1{fill:#fff;stroke:#1a1a16;stroke-miterlimit:10;stroke-width:5px;}.cls-2{fill:#e7e2da;}</style></defs><title>coins carré</title><rect class="cls-1" x="94.38" y="101.98" width="603.65" height="603.65"/><path d="M175.81,665.36a1.33,1.33,0,0,0-.95.39l-35.3,35.31V654.72l12.13-12.14a1.32,1.32,0,0,0,0-1.89,1.34,1.34,0,0,0-1.89,0l-12.53,12.53a1.34,1.34,0,0,0-.39.95v50.12a1.34,1.34,0,0,0,2.28,1l37.6-37.6a1.34,1.34,0,0,0-.95-2.28Z"/><path d="M233.34,582.21l-26.52,26.52-1.81-.87a9.52,9.52,0,0,0-4.14-1,9.7,9.7,0,0,0-9.69,9.7,9.54,9.54,0,0,0,1,4.14l.87,1.81-5.63,5.63a1.34,1.34,0,0,0,0,1.89,1.31,1.31,0,0,0,1,.4,1.33,1.33,0,0,0,.95-.4l5.62-5.62,1.81.86a9.56,9.56,0,0,0,4.15,1,9.7,9.7,0,0,0,9.69-9.69,9.56,9.56,0,0,0-1-4.15l-.86-1.81,26.51-26.51a1.33,1.33,0,0,0,.39-1,1.34,1.34,0,0,0-2.28-.95Zm-32.47,41.38a7,7,0,1,1,7-7A7,7,0,0,1,200.87,623.59Z"/><path d="M262,527.52a27.74,27.74,0,0,0-19.74,8.18l-82.38,82.38a9.71,9.71,0,0,0,0,13.7l25.78,25.78a9.69,9.69,0,0,0,13.71,0l69.27-69.27a1.34,1.34,0,0,0,0-1.9,1.36,1.36,0,0,0-.95-.39,1.33,1.33,0,0,0-.95.39l-69.28,69.28a7.06,7.06,0,0,1-4.95,2h0a7,7,0,0,1-5-2l-25.77-25.77a7,7,0,0,1,0-9.92l82.37-82.37a25.24,25.24,0,0,1,38.18,32.79l-1.95,2.68L256.11,548.8a1.34,1.34,0,0,0-1.89,1.89l25.06,25.06a1.33,1.33,0,0,0,1.9,0l.56-.56A27.92,27.92,0,0,0,262,527.52Z"/><path class="cls-2" d="M285.49,207.25c-29.69,0-56.87,11.29-76.53,31.8-22.24,23.2-34,57.19-34,98.31,0,33.19,11.65,67.68,34.63,102.51,18.12,27.46,43.31,55.24,74.87,82.55,53.49,46.28,107.76,75.8,108.31,76.09l3.42,1.86,3.43-1.86a686.51,686.51,0,0,0,108.3-76.09c31.57-27.31,56.76-55.09,74.87-82.55,23-34.83,34.64-69.32,34.64-102.51,0-41.11-11.76-75.1-34-98.3-19.67-20.52-46.85-31.81-76.55-31.81a121.65,121.65,0,0,0-73.22,24.83,117.88,117.88,0,0,0-37.47,48.3,117.68,117.68,0,0,0-37.46-48.29,121.61,121.61,0,0,0-73.22-24.84h0Z"/></svg>