<svg id="Calque_1" data-name="Calque 1" xmlns="http://www.w3.org/2000/svg" viewBox="0 0 800 800"><defs><style>.cls-1{fill:#e7e2da;stroke-width:5px;}.cls-1,.cls-3{stroke:#1a1a16;stroke-miterlimit:10;}.cls-2{fill:#fff;}.cls-3{fill:none;stroke-width:4px;stroke-dasharray:11.96 11.96;}</style></defs><title>perforation</title><polyline class="cls-1" points="488.23 122.02 706.28 122.02 706.28 723.47 104.83 723.47 104.83 122.02 412.89 122.02"/><path d="M409,186.82a1.31,1.31,0,0,0-.95.4l-35.31,35.3V176.19l12.14-12.14a1.33,1.33,0,0,0,.39-1,1.35,1.35,0,0,0-.39-.95,1.34,1.34,0,0,0-1.89,0l-12.53,12.53a1.32,1.32,0,0,0-.4.95v50.12a1.34,1.34,0,0,0,2.29.95L410,189.11a1.34,1.34,0,0,0,0-1.89A1.31,1.31,0,0,0,409,186.82Z"/><path class="cls-2" d="M501.85,108a1.32,1.32,0,0,0-1.89,0l-69.28,69.27a7,7,0,0,1-4.95,2h0a7.05,7.05,0,0,1-5-2L395,151.46a7,7,0,0,1,0-9.91l82.38-82.38A25.24,25.24,0,0,1,515.54,92l-1.95,2.67L489.32,70.38a1.32,1.32,0,0,0-1.89,0,1.34,1.34,0,0,0,0,1.89l25.06,25.06"/><path d="M466.54,103.68,440,130.19l-1.81-.87A9.63,9.63,0,0,0,424.38,138a9.52,9.52,0,0,0,1,4.14l.87,1.82-5.63,5.62a1.35,1.35,0,0,0-.39.95,1.34,1.34,0,0,0,2.28,1l5.63-5.63,1.81.87A9.63,9.63,0,0,0,443.77,138a9.52,9.52,0,0,0-1-4.14l-.86-1.81,26.51-26.52a1.34,1.34,0,0,0,0-1.89A1.35,1.35,0,0,0,466.54,103.68Zm-32.46,41.37a7,7,0,1,1,7-7A7,7,0,0,1,434.08,145.05Z"/><path d="M495.21,49.1a27.7,27.7,0,0,0-19.74,8.18l-82.38,82.37a9.72,9.72,0,0,0,0,13.71l25.78,25.78a9.69,9.69,0,0,0,13.71,0l69.27-69.28a1.32,1.32,0,0,0,0-1.89,1.32,1.32,0,0,0-1.89,0l-69.28,69.27a7,7,0,0,1-4.95,2h0a7.05,7.05,0,0,1-5-2L395,151.46a7,7,0,0,1,0-9.91l82.38-82.38A25.24,25.24,0,0,1,515.54,92l-1.95,2.67L489.32,70.38a1.32,1.32,0,0,0-1.89,0,1.34,1.34,0,0,0,0,1.89l25.06,25.06a1.34,1.34,0,0,0,1.89,0l.57-.57A27.92,27.92,0,0,0,495.21,49.1Z"/><circle class="cls-2" cx="402.83" cy="286.67" r="68.55"/><path class="cls-3" d="M471.38,286.67a68.56,68.56,0,0,0-68.55-68.55c-90.92,3.62-90.9,133.51,0,137.1a68.55,68.55,0,0,0,68.55-68.55Z"/></svg>