<svg id="Calque_1" data-name="Calque 1" xmlns="http://www.w3.org/2000/svg" viewBox="0 0 800 800"><defs><style>.cls-1{fill:none;stroke:#9d876d;stroke-linecap:round;stroke-linejoin:round;stroke-width:3.16px;}.cls-2,.cls-3,.cls-5{fill:#9d876d;}.cls-3,.cls-5{font-size:36.44px;font-family:Montserrat-Regular, Montserrat;}.cls-3{letter-spacing:0.01em;}.cls-4{letter-spacing:0em;}.cls-6{fill:#ebe7e2;}.cls-6,.cls-7{stroke:#1a1916;stroke-miterlimit:10;stroke-width:5px;}.cls-7{fill:#fff;}</style></defs><title>Plan de travail 135</title><line class="cls-1" x1="500.12" y1="147.43" x2="500.12" y2="642.99"/><polygon class="cls-2" points="480.76 163.12 484.23 166.34 500.12 149.25 516.01 166.34 519.48 163.12 500.12 142.3 480.76 163.12"/><polygon class="cls-2" points="480.76 627.31 484.23 624.08 500.12 641.18 516.01 624.08 519.48 627.31 500.12 648.13 480.76 627.31"/><line class="cls-1" x1="498.09" y1="681.52" x2="225.17" y2="681.52"/><polygon class="cls-2" points="482.41 662.16 479.18 665.63 496.28 681.51 479.18 697.41 482.41 700.87 503.23 681.51 482.41 662.16"/><polygon class="cls-2" points="240.86 662.16 244.09 665.63 226.99 681.51 244.09 697.41 240.86 700.87 220.04 681.51 240.86 662.16"/><text class="cls-3" transform="translate(529.23 405.92) scale(0.98 1)">8<tspan class="cls-4" x="23.61" y="0">,5</tspan></text><text class="cls-5" transform="translate(349.88 728.16) scale(0.98 1)">4</text><rect class="cls-6" x="90.11" y="281.42" width="506.39" height="238.3" transform="translate(743.87 57.26) rotate(90)"/><circle class="cls-7" cx="343.31" cy="187.12" r="17.3"/></svg>