<svg id="Calque_1" data-name="Calque 1" xmlns="http://www.w3.org/2000/svg" viewBox="0 0 800 800"><defs><style>.cls-1{fill:#fff;stroke-miterlimit:10;stroke-width:5px;}.cls-1,.cls-2{stroke:#1a1a16;}.cls-2{fill:none;stroke-linecap:round;stroke-linejoin:round;stroke-width:3px;}.cls-3{fill:#1a1a16;}.cls-4{font-size:77.63px;fill:#978367;font-family:Montserrat-Regular, Montserrat;}.cls-5{letter-spacing:-0.01em;}</style></defs><title>affiche a4</title><rect class="cls-1" x="210.64" y="277.47" width="378.72" height="245.05" transform="translate(800 0) rotate(90)"/><line class="cls-2" x1="506.51" y1="273.67" x2="293.49" y2="273.67"/><polygon class="cls-3" points="491.6 255.26 488.53 258.56 504.78 273.66 488.53 288.77 491.6 292.07 511.39 273.66 491.6 255.26"/><polygon class="cls-3" points="308.4 255.26 311.47 258.56 295.22 273.66 311.47 288.77 308.4 292.07 288.61 273.66 308.4 255.26"/><line class="cls-2" x1="459.68" y1="568.35" x2="459.68" y2="231.65"/><polygon class="cls-3" points="478.08 553.44 474.79 550.37 459.68 566.62 444.58 550.37 441.28 553.44 459.68 573.23 478.08 553.44"/><polygon class="cls-3" points="478.08 246.56 474.79 249.63 459.68 233.38 444.58 249.63 441.28 246.56 459.68 226.77 478.08 246.56"/><text class="cls-4" transform="translate(306.01 559.22)"><tspan class="cls-5">A</tspan><tspan x="54.5" y="0">4</tspan></text></svg>