<svg id="Calque_1" data-name="Calque 1" xmlns="http://www.w3.org/2000/svg" viewBox="0 0 800 800"><defs><style>.cls-1{fill:#fff;stroke-miterlimit:10;stroke-width:5px;}.cls-1,.cls-2{stroke:#1a1a16;}.cls-2{fill:none;stroke-linecap:round;stroke-linejoin:round;stroke-width:2.57px;}.cls-3{fill:#1a1a16;}.cls-4{font-size:77.63px;fill:#978367;font-family:Montserrat-Regular, Montserrat;letter-spacing:-0.01em;}.cls-5{letter-spacing:0em;}</style></defs><title>a6 paysage</title><rect class="cls-1" x="179.34" y="257.22" width="441.31" height="285.56"/><line class="cls-2" x1="252.79" y1="274.39" x2="252.79" y2="525.61"/><polygon class="cls-3" points="237 287.18 239.82 289.81 252.78 275.87 265.75 289.81 268.57 287.18 252.78 270.2 237 287.18"/><polygon class="cls-3" points="237 512.82 239.82 510.19 252.78 524.13 265.75 510.19 268.57 512.82 252.78 529.8 237 512.82"/><line class="cls-2" x1="597.67" y1="330.46" x2="202.33" y2="330.46"/><polygon class="cls-3" points="584.88 314.67 582.25 317.49 596.19 330.45 582.25 343.41 584.88 346.24 601.86 330.45 584.88 314.67"/><polygon class="cls-3" points="215.12 314.67 217.75 317.49 203.81 330.45 217.75 343.41 215.12 346.24 198.14 330.45 215.12 314.67"/><text class="cls-4" transform="translate(479.31 504.69)">A<tspan class="cls-5" x="55.12" y="0">6</tspan></text></svg>