<svg id="Calque_1" data-name="Calque 1" xmlns="http://www.w3.org/2000/svg" viewBox="0 0 800 800"><defs><style>.cls-1{fill:none;stroke:#9d876d;stroke-linecap:round;stroke-linejoin:round;stroke-width:3.16px;}.cls-2,.cls-3,.cls-5{fill:#9d876d;}.cls-3,.cls-5{font-size:36.44px;font-family:Montserrat-Regular, Montserrat;}.cls-3{letter-spacing:0.01em;}.cls-4{letter-spacing:0em;}.cls-6{fill:#ebe7e2;}.cls-6,.cls-7{stroke:#1a1916;stroke-miterlimit:10;stroke-width:5px;}.cls-7{fill:#fff;}</style></defs><title>Plan de travail 65 copie 3</title><line class="cls-1" x1="118.77" y1="282.59" x2="614.33" y2="282.59"/><polygon class="cls-2" points="134.45 301.95 137.68 298.49 120.58 282.6 137.68 266.71 134.45 263.24 113.63 282.6 134.45 301.95"/><polygon class="cls-2" points="598.65 301.95 595.42 298.49 612.51 282.6 595.42 266.71 598.65 263.24 619.46 282.6 598.65 301.95"/><line class="cls-1" x1="647.5" y1="285.6" x2="647.5" y2="558.52"/><polygon class="cls-2" points="628.14 301.28 631.61 304.51 647.5 287.42 663.39 304.51 666.85 301.28 647.5 280.47 628.14 301.28"/><polygon class="cls-2" points="628.14 542.84 631.61 539.61 647.5 556.7 663.39 539.61 666.85 542.84 647.5 563.65 628.14 542.84"/><text class="cls-3" transform="translate(341.19 267.32) scale(0.98 1)">8<tspan class="cls-4" x="23.61" y="0">,5</tspan></text><text class="cls-5" transform="translate(663.13 439.36) scale(0.98 1)">4</text><rect class="cls-6" x="113.35" y="320.26" width="506.39" height="238.3"/><circle class="cls-7" cx="153.1" cy="439.41" r="17.3"/></svg>