<svg id="Calque_1" data-name="Calque 1" xmlns="http://www.w3.org/2000/svg" viewBox="0 0 800 800"><defs><style>.cls-1{fill:#fff;stroke-miterlimit:10;stroke-width:5px;}.cls-1,.cls-2{stroke:#1a1a16;}.cls-2{fill:none;stroke-linecap:round;stroke-linejoin:round;stroke-width:4px;}.cls-3{fill:#1a1a16;}.cls-4{font-size:77.63px;fill:#978367;font-family:Montserrat-Regular, Montserrat;letter-spacing:-0.01em;}.cls-5{letter-spacing:0em;}</style></defs><title>affiche a0</title><rect class="cls-1" x="82.24" y="194.39" width="635.52" height="411.22" transform="translate(800 0) rotate(90)"/><line class="cls-2" x1="580.41" y1="188" x2="219.59" y2="188"/><polygon class="cls-3" points="560.53 163.47 556.44 167.86 578.11 188 556.44 208.14 560.53 212.54 586.92 188 560.53 163.47"/><polygon class="cls-3" points="239.47 163.47 243.56 167.86 221.89 188 243.56 208.14 239.47 212.54 213.08 188 239.47 163.47"/><line class="cls-2" x1="500.15" y1="684.18" x2="500.15" y2="115.82"/><polygon class="cls-3" points="524.69 664.3 520.29 660.21 500.15 681.88 480.01 660.21 475.62 664.3 500.15 690.69 524.69 664.3"/><polygon class="cls-3" points="524.69 135.7 520.29 139.79 500.15 118.12 480.01 139.79 475.62 135.7 500.15 109.31 524.69 135.7"/><text class="cls-4" transform="translate(225.85 682.93)">A<tspan class="cls-5" x="55.12" y="0">0</tspan></text></svg>