<svg id="Calque_1" data-name="Calque 1" xmlns="http://www.w3.org/2000/svg" viewBox="0 0 800 800"><defs><style>.cls-1{fill:#fff;stroke-miterlimit:10;stroke-width:5px;}.cls-1,.cls-2{stroke:#1a1916;}.cls-2{fill:none;stroke-linecap:round;stroke-linejoin:round;stroke-width:3.16px;}.cls-3{fill:#1a1916;}.cls-4{font-size:50px;fill:#9d876d;font-family:Montserrat-Regular, Montserrat;}</style></defs><title>Plan de travail 30 copie</title><rect class="cls-1" x="155.62" y="156.7" width="483.09" height="483.09" transform="translate(795.42 1.08) rotate(90)"/><line class="cls-2" x1="611.63" y1="237.1" x2="182.72" y2="237.1"/><polygon class="cls-3" points="595.94 217.74 592.71 221.21 609.81 237.09 592.71 252.99 595.94 256.45 616.76 237.09 595.94 217.74"/><polygon class="cls-3" points="198.4 217.74 201.63 221.21 184.53 237.09 201.63 252.99 198.4 256.45 177.58 237.09 198.4 217.74"/><line class="cls-2" x1="514.82" y1="614.09" x2="514.82" y2="182.41"/><polygon class="cls-3" points="534.18 598.4 530.72 595.17 514.83 612.27 498.94 595.17 495.47 598.4 514.83 619.22 534.18 598.4"/><polygon class="cls-3" points="534.18 198.1 530.72 201.33 514.83 184.23 498.94 201.33 495.47 198.1 514.83 177.28 534.18 198.1"/><text class="cls-4" transform="translate(177.58 313.87)">100</text><text class="cls-4" transform="translate(401.06 622.22)">100</text></svg>