<svg id="Calque_1" data-name="Calque 1" xmlns="http://www.w3.org/2000/svg" viewBox="0 0 800 800"><defs><style>.cls-1{fill:#ebe7e2;}.cls-1,.cls-2,.cls-3{stroke:#1a1916;}.cls-1,.cls-2{stroke-miterlimit:10;stroke-width:5px;}.cls-2{fill:#fff;}.cls-3{fill:none;stroke-linecap:round;stroke-linejoin:round;stroke-width:3.16px;}.cls-4{fill:#1a1916;}.cls-5{font-size:52.18px;fill:#9d876d;font-family:Montserrat-Regular, Montserrat;}</style></defs><title>Plan de travail 52</title><polygon class="cls-1" points="561.28 644.48 195.93 644.48 195.93 236.75 573.42 199.51 561.28 644.48"/><rect class="cls-2" x="195.93" y="236.75" width="407.73" height="407.73"/><line class="cls-3" x1="533.43" y1="261.91" x2="533.43" y2="615.79"/><polygon class="cls-4" points="514.07 277.59 517.53 280.82 533.42 263.73 549.32 280.82 552.78 277.59 533.42 256.78 514.07 277.59"/><polygon class="cls-4" points="514.07 600.11 517.53 596.88 533.42 613.98 549.32 596.88 552.78 600.11 533.42 620.92 514.07 600.11"/><line class="cls-3" x1="587.24" y1="319.73" x2="217.25" y2="319.73"/><polygon class="cls-4" points="571.56 300.38 568.33 303.84 585.43 319.73 568.33 335.62 571.56 339.09 592.38 319.73 571.56 300.38"/><polygon class="cls-4" points="232.94 300.38 236.17 303.84 219.07 319.73 236.17 335.62 232.94 339.09 212.12 319.73 232.94 300.38"/><text class="cls-5" transform="translate(212.12 398.22)">16</text><text class="cls-5" transform="translate(449.5 622.18)">16</text></svg>