<svg id="Calque_1" data-name="Calque 1" xmlns="http://www.w3.org/2000/svg" viewBox="0 0 800 800"><defs><style>.cls-1{fill:#ebe7e2;}.cls-1,.cls-3,.cls-4{stroke:#1a1916;}.cls-1,.cls-3{stroke-miterlimit:10;stroke-width:5px;}.cls-2{fill:#fff;}.cls-3,.cls-4{fill:none;}.cls-4{stroke-linecap:round;stroke-linejoin:round;stroke-width:3.16px;}.cls-5{fill:#1a1916;}.cls-6{font-size:39.68px;fill:#9d876d;font-family:Montserrat-Regular, Montserrat;letter-spacing:-0.01em;}.cls-7{letter-spacing:0em;}</style></defs><title>Plan de travail 46 copie</title><polygon class="cls-1" points="181.5 527.48 181.5 269.66 588.87 241.25 588.87 542.7 181.5 527.48"/><rect class="cls-2" x="246.44" y="204.71" width="289.09" height="418.98" transform="translate(805.19 23.22) rotate(90)"/><rect class="cls-3" x="246.44" y="204.71" width="289.09" height="418.98" transform="translate(805.19 23.22) rotate(90)"/><line class="cls-4" x1="529.69" y1="290.54" x2="529.69" y2="537.57"/><polygon class="cls-5" points="510.33 306.22 513.8 309.45 529.69 292.35 545.58 309.45 549.05 306.22 529.69 285.4 510.33 306.22"/><polygon class="cls-5" points="510.33 521.88 513.8 518.66 529.69 535.75 545.58 518.66 549.05 521.88 529.69 542.7 510.33 521.88"/><line class="cls-4" x1="199.94" y1="322.84" x2="576.82" y2="322.84"/><polygon class="cls-5" points="215.62 342.2 218.85 338.73 201.75 322.84 218.85 306.95 215.62 303.48 194.8 322.84 215.62 342.2"/><polygon class="cls-5" points="561.14 342.2 557.91 338.73 575.01 322.84 557.91 306.95 561.14 303.48 581.96 322.84 561.14 342.2"/><text class="cls-6" transform="translate(198.1 542.7)">A<tspan class="cls-7" x="28.18" y="0">6</tspan></text></svg>