<svg id="Calque_1" data-name="Calque 1" xmlns="http://www.w3.org/2000/svg" viewBox="0 0 800 800"><defs><style>.cls-1{fill:#e7e2da;}.cls-1,.cls-2{stroke:#1a1a16;stroke-miterlimit:10;stroke-width:5px;}.cls-2{fill:#fff;}</style></defs><title>a4 paysage copie</title><path class="cls-1" d="M324.21,687.05l-3.86,39.06a6,6,0,0,0,6,6.59h10.79a7.05,7.05,0,0,0,7-8.23l-6.3-37.42"/><path class="cls-1" d="M470.2,687.05l-3.87,39.06a6,6,0,0,0,6,6.59h10.78a7.06,7.06,0,0,0,7-8.23l-6.3-37.42"/><rect class="cls-2" x="273.91" y="77.51" width="252.18" height="608.19"/><path class="cls-1" d="M264.84,671.23H535.16a7.28,7.28,0,0,1,7.07,7.48v16.68a7.28,7.28,0,0,1-7.07,7.48H264.84a7.28,7.28,0,0,1-7.07-7.48V678.71A7.28,7.28,0,0,1,264.84,671.23Z"/><path class="cls-1" d="M271.56,67.3H528.44c3.71,0,6.72,1.59,6.72,3.55v7.93c0,2-3,3.55-6.72,3.55H271.56c-3.71,0-6.72-1.59-6.72-3.55V70.85C264.84,68.89,267.85,67.3,271.56,67.3Z"/></svg>