<svg id="Calque_1" data-name="Calque 1" xmlns="http://www.w3.org/2000/svg" viewBox="0 0 800 800"><defs><style>.cls-1{fill:#fff;stroke-miterlimit:10;stroke-width:5px;}.cls-1,.cls-2{stroke:#1a1916;}.cls-2{fill:none;stroke-linecap:round;stroke-linejoin:round;stroke-width:3.16px;}.cls-3{fill:#1a1916;}.cls-4{font-size:60.08px;}.cls-4,.cls-5{fill:#9d876d;font-family:Montserrat-Regular, Montserrat;}.cls-5{font-size:59.25px;}.cls-6{letter-spacing:0em;}</style></defs><title>Plan de travail 18</title><rect class="cls-1" x="61.98" y="248.06" width="681.22" height="340.61"/><line class="cls-2" x1="175.35" y1="268.68" x2="175.35" y2="568.06"/><polygon class="cls-3" points="155.99 284.36 159.46 287.59 175.35 270.49 191.24 287.59 194.71 284.36 175.35 263.54 155.99 284.36"/><polygon class="cls-3" points="155.99 552.37 159.46 549.14 175.35 566.24 191.24 549.14 194.71 552.37 175.35 573.19 155.99 552.37"/><line class="cls-2" x1="709.06" y1="335.41" x2="96.13" y2="335.41"/><polygon class="cls-3" points="693.37 316.05 690.14 319.52 707.24 335.41 690.14 351.3 693.37 354.77 714.19 335.41 693.37 316.05"/><polygon class="cls-3" points="111.81 316.05 115.04 319.52 97.95 335.41 115.04 351.3 111.81 354.77 91 335.41 111.81 316.05"/><text class="cls-4" transform="translate(212.18 573.19)">100</text><text class="cls-5" transform="translate(606.8 418.37) scale(0.98 1)"><tspan class="cls-6">2</tspan><tspan x="33.54" y="0">00 </tspan></text></svg>