<svg id="Calque_1" data-name="Calque 1" xmlns="http://www.w3.org/2000/svg" viewBox="0 0 800 800"><defs><style>.cls-1{fill:#ebe7e2;}.cls-1,.cls-3,.cls-4{stroke:#1a1916;}.cls-1,.cls-3{stroke-miterlimit:10;stroke-width:5px;}.cls-2{fill:#fff;}.cls-3,.cls-4{fill:none;}.cls-4{stroke-linecap:round;stroke-linejoin:round;stroke-width:3.16px;}.cls-5{fill:#1a1916;}.cls-6{font-size:47.04px;fill:#9d876d;font-family:Montserrat-Regular, Montserrat;}</style></defs><title>Plan de travail 46</title><polygon class="cls-1" points="150.67 586.79 150.67 281.16 633.6 247.49 633.6 604.84 150.67 586.79"/><rect class="cls-2" x="227.66" y="204.17" width="342.71" height="496.69" transform="translate(851.52 53.5) rotate(90)"/><rect class="cls-3" x="227.66" y="204.17" width="342.71" height="496.69" transform="translate(851.52 53.5) rotate(90)"/><line class="cls-4" x1="577.15" y1="304.96" x2="577.15" y2="599.71"/><polygon class="cls-5" points="557.79 320.64 561.26 323.87 577.15 306.77 593.04 323.87 596.51 320.64 577.15 299.82 557.79 320.64"/><polygon class="cls-5" points="557.79 584.03 561.26 580.8 577.15 597.89 593.04 580.8 596.51 584.03 577.15 604.84 557.79 584.03"/><line class="cls-4" x1="171.58" y1="344.2" x2="620.27" y2="344.2"/><polygon class="cls-5" points="187.26 363.56 190.49 360.09 173.39 344.21 190.49 328.31 187.26 324.85 166.44 344.21 187.26 363.56"/><polygon class="cls-5" points="604.58 363.56 601.35 360.09 618.45 344.21 601.35 328.31 604.58 324.85 625.4 344.21 604.58 363.56"/><text class="cls-6" transform="translate(171.2 604.84)">A5</text></svg>