<svg id="Calque_1" data-name="Calque 1" xmlns="http://www.w3.org/2000/svg" viewBox="0 0 800 800"><defs><style>.cls-1{fill:#fff;stroke-miterlimit:10;stroke-width:5px;}.cls-1,.cls-2{stroke:#1a1a16;}.cls-2{fill:none;stroke-linecap:round;stroke-linejoin:round;stroke-width:3px;}.cls-3{fill:#1a1a16;}</style></defs><title>cdv 55x85</title><rect class="cls-1" x="133.66" y="227.66" width="532.68" height="344.67" transform="translate(0 800) rotate(-90)"/><line class="cls-2" x1="551.79" y1="400" x2="248.21" y2="400"/><polygon class="cls-3" points="536.88 381.6 533.81 384.89 550.06 400 533.81 415.1 536.88 418.4 556.67 400 536.88 381.6"/><polygon class="cls-3" points="263.12 381.6 266.19 384.89 249.94 400 266.19 415.1 263.12 418.4 243.33 400 263.12 381.6"/><line class="cls-2" x1="400" y1="638.77" x2="400" y2="161.23"/><polygon class="cls-3" points="418.4 623.86 415.11 620.79 400 637.04 384.9 620.79 381.6 623.86 400 643.65 418.4 623.86"/><polygon class="cls-3" points="418.4 176.14 415.11 179.21 400 162.96 384.9 179.21 381.6 176.14 400 156.35 418.4 176.14"/></svg>