<svg id="Calque_1" data-name="Calque 1" xmlns="http://www.w3.org/2000/svg" viewBox="0 0 800 800"><defs><style>.cls-1{fill:#fff;stroke-miterlimit:10;stroke-width:5px;}.cls-1,.cls-2{stroke:#1a1916;}.cls-2{fill:none;stroke-linecap:round;stroke-linejoin:round;stroke-width:3.16px;}.cls-3{fill:#1a1916;}.cls-4{font-size:44.35px;fill:#9d876d;font-family:Montserrat-Regular, Montserrat;}</style></defs><title>Plan de travail 25</title><rect class="cls-1" x="181.04" y="184.01" width="428.49" height="428.49" transform="translate(793.53 2.97) rotate(90)"/><line class="cls-2" x1="584.92" y1="255.31" x2="205.65" y2="255.31"/><polygon class="cls-3" points="569.23 235.96 566 239.42 583.1 255.31 566 271.2 569.23 274.67 590.05 255.31 569.23 235.96"/><polygon class="cls-3" points="221.33 235.96 224.56 239.42 207.46 255.31 224.56 271.2 221.33 274.67 200.51 255.31 221.33 235.96"/><line class="cls-2" x1="499.64" y1="589.11" x2="499.64" y2="207.39"/><polygon class="cls-3" points="519 573.43 515.53 570.2 499.64 587.29 483.75 570.2 480.28 573.43 499.64 594.25 519 573.43"/><polygon class="cls-3" points="519 223.07 515.53 226.3 499.64 209.21 483.75 226.3 480.28 223.07 499.64 202.26 519 223.07"/><text class="cls-4" transform="translate(199.43 323.4)">16 </text><text class="cls-4" transform="translate(430.66 594.25)">16 </text></svg>