<svg id="Calque_1" data-name="Calque 1" xmlns="http://www.w3.org/2000/svg" viewBox="0 0 800 800"><defs><style>.cls-1{fill:#ebe7e2;}.cls-2{fill:#1a1916;}.cls-3{fill:#fff;}.cls-4{fill:none;stroke:#1a1916;stroke-linecap:round;stroke-linejoin:round;stroke-width:3.16px;}.cls-5{font-size:74.59px;fill:#9d876d;font-family:Montserrat-Regular, Montserrat;}.cls-6{letter-spacing:-0.01em;}</style></defs><title>Plan de travail 40</title><polygon class="cls-1" points="144.28 569.23 187.01 217.9 188.23 217.9 218.81 574.74 144.28 569.23"/><path class="cls-2" d="M187.3,236.29,216.07,572l-69-5.1L187.3,236.29m3.23-20.9-5.73,0L141.48,571.53l80.07,5.91-31-362.05Z"/><polygon class="cls-1" points="164.42 575.25 187.35 217.9 188.44 217.9 218.88 575.25 164.42 575.25"/><path class="cls-2" d="M188.17,244.2l28,328.55H167.08L188.17,244.2m2.57-28.81-5.73,0L161.75,577.75H221.6L190.74,215.39Z"/><polygon class="cls-1" points="187.53 217.9 188.44 217.9 219.53 579.87 191.01 580.75 187.53 217.9"/><path class="cls-2" d="M190.55,271.65l26.26,305.8-23.33.72-2.93-306.52m.19-56.26-5.73,0,3.52,367.92,33.71-1.05-31.5-366.89Z"/><polygon class="cls-3" points="214.77 592.42 187.7 217.91 635.72 217.91 662.8 592.42 214.77 592.42"/><path class="cls-2" d="M633.4,220.41l26.72,369.51h-443L190.38,220.41h443m4.65-5H185l27.44,379.51h453L638.05,215.41Z"/><line class="cls-4" x1="615.31" y1="268.6" x2="218.7" y2="268.6"/><polygon class="cls-2" points="599.62 249.24 596.39 252.71 613.49 268.59 596.39 284.49 599.62 287.95 620.44 268.59 599.62 249.24"/><polygon class="cls-2" points="234.38 249.24 237.61 252.71 220.51 268.59 237.61 284.49 234.38 287.95 213.56 268.59 234.38 249.24"/><line class="cls-4" x1="585.46" y1="563.39" x2="558.38" y2="235.34"/><polygon class="cls-2" points="603.46 546.16 599.74 543.23 585.31 561.58 568.07 545.85 564.88 549.35 585.88 568.5 603.46 546.16"/><polygon class="cls-2" points="578.97 249.38 575.78 252.88 558.54 237.15 544.11 255.49 540.38 252.56 557.97 230.22 578.97 249.38"/><text class="cls-5" transform="translate(244.49 569.22)"><tspan class="cls-6">A</tspan><tspan x="52.36" y="0">4</tspan></text><path class="cls-4" d="M388.65,217.81c0-15,10.86-27.17,24.25-27.17s24.25,12.16,24.25,27.17"/><path class="cls-4" d="M199,216.22a10.67,10.67,0,1,1,10.67,10.67"/><path class="cls-4" d="M227.05,216.22a10.67,10.67,0,1,1,10.67,10.67"/><path class="cls-4" d="M255.1,216.22a10.68,10.68,0,1,1,10.67,10.67"/><path class="cls-4" d="M283.16,216.22a10.67,10.67,0,1,1,10.67,10.67"/><path class="cls-4" d="M311.21,216.22a10.67,10.67,0,1,1,10.67,10.67"/><path class="cls-4" d="M339.26,216.22a10.67,10.67,0,1,1,10.67,10.67"/><path class="cls-4" d="M367.31,216.22A10.67,10.67,0,1,1,378,226.89"/><path class="cls-4" d="M436.79,216.22a10.67,10.67,0,1,1,10.67,10.67"/><path class="cls-4" d="M464.84,216.22a10.68,10.68,0,1,1,10.67,10.67"/><path class="cls-4" d="M492.9,216.22a10.67,10.67,0,1,1,10.67,10.67"/><path class="cls-4" d="M521,216.22a10.67,10.67,0,1,1,10.67,10.67"/><path class="cls-4" d="M549,216.22a10.67,10.67,0,1,1,10.67,10.67"/><path class="cls-4" d="M577.05,216.22a10.67,10.67,0,1,1,10.67,10.67"/><path class="cls-4" d="M605.1,216.22a10.67,10.67,0,1,1,10.67,10.67"/></svg>