<svg id="Calque_1" data-name="Calque 1" xmlns="http://www.w3.org/2000/svg" viewBox="0 0 800 800"><defs><style>.cls-1{fill:#fff;stroke-miterlimit:10;stroke-width:5px;}.cls-1,.cls-2{stroke:#1a1916;}.cls-2{fill:none;stroke-linecap:round;stroke-linejoin:round;stroke-width:3.16px;}.cls-3{fill:#1a1916;}.cls-4,.cls-6{font-size:27.62px;fill:#9d876d;font-family:Montserrat-Regular, Montserrat;}.cls-4{letter-spacing:-0.01em;}.cls-5{letter-spacing:0em;}</style></defs><title>Plan de travail 89</title><rect class="cls-1" x="44.97" y="284.76" width="719.29" height="251.75"/><line class="cls-2" x1="743.6" y1="330.85" x2="64.31" y2="330.85"/><polygon class="cls-3" points="731.12 315.44 728.55 318.2 742.15 330.84 728.55 343.49 731.12 346.25 747.68 330.84 731.12 315.44"/><polygon class="cls-3" points="76.79 315.44 79.36 318.2 65.75 330.84 79.36 343.49 76.79 346.25 60.22 330.84 76.79 315.44"/><line class="cls-2" x1="711.91" y1="516.91" x2="711.91" y2="302.95"/><polygon class="cls-3" points="727.31 504.43 724.55 501.86 711.91 515.47 699.27 501.86 696.51 504.43 711.91 521 727.31 504.43"/><polygon class="cls-3" points="727.31 315.43 724.55 317.99 711.91 304.39 699.27 317.99 696.51 315.43 711.91 298.86 727.31 315.43"/><text class="cls-4" transform="translate(650.92 521)">3<tspan class="cls-5" x="15.3" y="0">5</tspan></text><text class="cls-6" transform="translate(60.22 378.49)">100</text></svg>