<svg id="Calque_1" data-name="Calque 1" xmlns="http://www.w3.org/2000/svg" viewBox="0 0 800 800"><defs><style>.cls-1{fill:#fff;stroke-miterlimit:10;stroke-width:5px;}.cls-1,.cls-2{stroke:#1a1a16;}.cls-2{fill:none;stroke-linecap:round;stroke-linejoin:round;stroke-width:3px;}.cls-3{fill:#1a1a16;}</style></defs><title> cdv 85x55</title><rect class="cls-1" x="133.66" y="227.66" width="532.68" height="344.67"/><line class="cls-2" x1="222.31" y1="248.21" x2="222.31" y2="551.79"/><polygon class="cls-3" points="203.9 263.12 207.2 266.19 222.3 249.94 237.41 266.19 240.71 263.12 222.3 243.33 203.9 263.12"/><polygon class="cls-3" points="203.9 536.88 207.2 533.81 222.3 550.06 237.41 533.81 240.71 536.88 222.3 556.67 203.9 536.88"/><line class="cls-2" x1="638.77" y1="316.06" x2="161.23" y2="316.06"/><polygon class="cls-3" points="623.86 297.65 620.79 300.95 637.04 316.05 620.79 331.16 623.86 334.46 643.65 316.05 623.86 297.65"/><polygon class="cls-3" points="176.14 297.65 179.21 300.95 162.96 316.05 179.21 331.16 176.14 334.46 156.35 316.05 176.14 297.65"/></svg>