<svg id="Calque_1" data-name="Calque 1" xmlns="http://www.w3.org/2000/svg" viewBox="0 0 800 800"><defs><style>.cls-1{fill:#ebe7e2;}.cls-1,.cls-3,.cls-4{stroke:#1a1916;}.cls-1,.cls-3{stroke-miterlimit:10;stroke-width:5px;}.cls-2{fill:#fff;}.cls-3,.cls-4{fill:none;}.cls-4{stroke-linecap:round;stroke-linejoin:round;stroke-width:3.16px;}.cls-5{fill:#1a1916;}.cls-6{font-size:55.23px;fill:#9d876d;font-family:Montserrat-Regular, Montserrat;letter-spacing:-0.02em;}.cls-7{letter-spacing:0em;}</style></defs><title>Plan de travail 43</title><polygon class="cls-1" points="557.66 718.59 198.82 718.59 198.82 135.45 577.4 99.42 557.66 718.59"/><rect class="cls-2" x="198.82" y="135.45" width="402.36" height="583.14"/><rect class="cls-3" x="198.82" y="135.45" width="402.36" height="583.14"/><line class="cls-4" x1="577.37" y1="206.13" x2="222.22" y2="206.13"/><polygon class="cls-5" points="561.68 186.77 558.46 190.24 575.55 206.13 558.46 222.02 561.68 225.49 582.5 206.13 561.68 186.77"/><polygon class="cls-5" points="237.9 186.77 241.13 190.24 224.03 206.13 241.13 222.02 237.9 225.49 217.08 206.13 237.9 186.77"/><line class="cls-4" x1="529.34" y1="694.93" x2="529.34" y2="166.36"/><polygon class="cls-5" points="548.7 679.25 545.23 676.02 529.34 693.12 513.45 676.02 509.98 679.25 529.34 700.07 548.7 679.25"/><polygon class="cls-5" points="548.7 182.05 545.23 185.28 529.34 168.18 513.45 185.28 509.98 182.05 529.34 161.23 548.7 182.05"/><text class="cls-6" transform="translate(223.27 700.07)">A<tspan class="cls-7" x="38.77" y="0">4</tspan></text></svg>