<svg id="Calque_1" data-name="Calque 1" xmlns="http://www.w3.org/2000/svg" viewBox="0 0 800 800"><defs><style>.cls-1{fill:#fff;stroke-miterlimit:10;stroke-width:5px;}.cls-1,.cls-2{stroke:#1a1a16;}.cls-2{fill:none;stroke-linecap:round;stroke-linejoin:round;stroke-width:3px;}.cls-3{fill:#1a1a16;}.cls-4{font-size:77.63px;fill:#978367;font-family:Montserrat-Regular, Montserrat;}.cls-5{letter-spacing:-0.04em;}</style></defs><title>affiche a1</title><rect class="cls-1" x="106.18" y="209.88" width="587.63" height="380.23" transform="translate(800) rotate(90)"/><line class="cls-2" x1="567.95" y1="203.98" x2="232.05" y2="203.98"/><polygon class="cls-3" points="553.04 185.57 549.97 188.87 566.23 203.97 549.97 219.08 553.04 222.38 572.83 203.97 553.04 185.57"/><polygon class="cls-3" points="246.96 185.57 250.03 188.87 233.78 203.97 250.03 219.08 246.96 222.38 227.17 203.97 246.96 185.57"/><line class="cls-2" x1="492.6" y1="663.91" x2="492.6" y2="136.09"/><polygon class="cls-3" points="511.01 649 507.71 645.93 492.61 662.18 477.5 645.93 474.2 649 492.61 668.79 511.01 649"/><polygon class="cls-3" points="511.01 151 507.71 154.07 492.61 137.82 477.5 154.07 474.2 151 492.61 131.21 511.01 151"/><text class="cls-4" transform="translate(246.83 666.97)"><tspan class="cls-5">A</tspan><tspan x="52.48" y="0">1</tspan></text></svg>