<svg id="Calque_1" data-name="Calque 1" xmlns="http://www.w3.org/2000/svg" viewBox="0 0 800 800"><defs><style>.cls-1{fill:none;stroke-linecap:round;stroke-linejoin:round;stroke-dasharray:9.81 9.81;}.cls-1,.cls-3{stroke:#1a1a16;stroke-width:5px;}.cls-2{fill:#1a1a16;}.cls-3{fill:#fff;stroke-miterlimit:10;}</style></defs><title>cdv sur mesure</title><line class="cls-1" x1="400" y1="750.41" x2="400" y2="49.59"/><polygon class="cls-2" points="430.67 725.56 425.18 720.44 400.01 747.53 374.83 720.44 369.33 725.56 400.01 758.54 430.67 725.56"/><polygon class="cls-2" points="430.67 74.44 425.18 79.56 400.01 52.47 374.83 79.56 369.33 74.44 400.01 41.45 430.67 74.44"/><line class="cls-1" x1="124.49" y1="400" x2="675.51" y2="400"/><polygon class="cls-2" points="149.34 430.67 154.46 425.18 127.37 400.01 154.46 374.83 149.34 369.33 116.35 400.01 149.34 430.67"/><polygon class="cls-2" points="650.66 430.67 645.54 425.18 672.63 400.01 645.54 374.83 650.66 369.33 683.65 400.01 650.66 430.67"/><rect class="cls-3" x="117.99" y="198.76" width="564.01" height="389.26" transform="translate(6.61 793.39) rotate(-90)"/></svg>