<svg id="Calque_1" data-name="Calque 1" xmlns="http://www.w3.org/2000/svg" viewBox="0 0 800 800"><defs><style>.cls-1{fill:#ebe7e2;}.cls-1,.cls-3,.cls-4{stroke:#1a1916;}.cls-1,.cls-3{stroke-miterlimit:10;stroke-width:5px;}.cls-2{fill:#fff;}.cls-3,.cls-4{fill:none;}.cls-4{stroke-linecap:round;stroke-linejoin:round;stroke-width:3.16px;}.cls-5{fill:#1a1916;}.cls-6{font-size:46.98px;fill:#9d876d;font-family:Montserrat-Regular, Montserrat;}</style></defs><title>Plan de travail 44</title><polygon class="cls-1" points="534.09 672.31 228.9 672.31 228.9 176.34 550.88 145.69 534.09 672.31"/><rect class="cls-2" x="228.9" y="176.35" width="342.21" height="495.96"/><rect class="cls-3" x="228.9" y="176.35" width="342.21" height="495.96"/><line class="cls-4" x1="550.09" y1="236.46" x2="249.56" y2="236.46"/><polygon class="cls-5" points="534.4 217.1 531.17 220.57 548.27 236.45 531.17 252.35 534.4 255.81 555.22 236.45 534.4 217.1"/><polygon class="cls-5" points="265.24 217.1 268.47 220.57 251.38 236.45 268.47 252.35 265.24 255.81 244.43 236.45 265.24 217.1"/><line class="cls-4" x1="505" y1="651.42" x2="505" y2="203.4"/><polygon class="cls-5" points="524.36 635.74 520.89 632.51 505.01 649.61 489.11 632.51 485.65 635.74 505.01 656.56 524.36 635.74"/><polygon class="cls-5" points="524.36 219.09 520.89 222.31 505.01 205.22 489.11 222.31 485.65 219.09 505.01 198.27 524.36 219.09"/><text class="cls-6" transform="translate(251.57 656.56)">A5</text></svg>