<svg id="Calque_1" data-name="Calque 1" xmlns="http://www.w3.org/2000/svg" viewBox="0 0 800 800"><defs><style>.cls-1{fill:#fff;stroke-miterlimit:10;stroke-width:5px;}.cls-1,.cls-2{stroke:#1a1916;}.cls-2{fill:none;stroke-linecap:round;stroke-linejoin:round;stroke-width:3.16px;}.cls-3{fill:#1a1916;}.cls-4{font-size:49.93px;fill:#9d876d;font-family:Montserrat-Regular, Montserrat;}.cls-5{letter-spacing:0.01em;}</style></defs><title>Plan de travail 25 copie</title><rect class="cls-1" x="272.34" y="233.47" width="255.32" height="351.07" transform="translate(809 9) rotate(90)"/><line class="cls-2" x1="554.44" y1="346.35" x2="245.56" y2="346.35"/><polygon class="cls-3" points="538.76 326.99 535.53 330.46 552.63 346.34 535.53 362.24 538.76 365.7 559.58 346.34 538.76 326.99"/><polygon class="cls-3" points="261.24 326.99 264.47 330.46 247.37 346.34 264.47 362.24 261.24 365.7 240.42 346.34 261.24 326.99"/><line class="cls-2" x1="485.5" y1="520.66" x2="485.5" y2="297.35"/><polygon class="cls-3" points="504.86 504.97 501.39 501.74 485.5 518.84 469.61 501.74 466.14 504.97 485.5 525.79 504.86 504.97"/><polygon class="cls-3" points="504.86 313.03 501.39 316.26 485.5 299.17 469.61 316.26 466.14 313.03 485.5 292.21 504.86 313.03"/><text class="cls-4" transform="translate(239.28 409)">11</text><text class="cls-4" transform="translate(388.59 525.79)"><tspan class="cls-5">8</tspan><tspan x="32.36" y="0">.5</tspan></text></svg>