<svg id="Calque_1" data-name="Calque 1" xmlns="http://www.w3.org/2000/svg" viewBox="0 0 800 800"><defs><style>.cls-1{fill:#fff;stroke-miterlimit:10;stroke-width:5px;}.cls-1,.cls-2{stroke:#1a1916;}.cls-2{fill:none;stroke-linecap:round;stroke-linejoin:round;stroke-width:3.16px;}.cls-3{fill:#1a1916;}.cls-4,.cls-6{font-size:27.62px;fill:#9d876d;font-family:Montserrat-Regular, Montserrat;}.cls-4{letter-spacing:-0.01em;}.cls-5{letter-spacing:0em;}.cls-7{letter-spacing:-0.02em;}</style></defs><title>Plan de travail 90</title><rect class="cls-1" x="266.41" y="111.48" width="269.29" height="577.05" transform="translate(801.05 -1.06) rotate(90)"/><line class="cls-2" x1="673.84" y1="314.23" x2="134.55" y2="314.23"/><polygon class="cls-3" points="661.36 298.83 658.79 301.58 672.39 314.23 658.79 326.87 661.36 329.63 677.92 314.23 661.36 298.83"/><polygon class="cls-3" points="147.03 298.83 149.6 301.58 135.99 314.23 149.6 326.87 147.03 329.63 130.46 314.23 147.03 298.83"/><line class="cls-2" x1="642.15" y1="520.3" x2="642.15" y2="286.33"/><polygon class="cls-3" points="657.55 507.82 654.79 505.25 642.15 518.85 629.51 505.25 626.75 507.82 642.15 524.38 657.55 507.82"/><polygon class="cls-3" points="657.55 298.81 654.79 301.38 642.15 287.77 629.51 301.38 626.75 298.81 642.15 282.25 657.55 298.81"/><text class="cls-4" transform="translate(586.92 524.38)">3<tspan class="cls-5" x="15.3" y="0">5</tspan></text><text class="cls-6" transform="translate(130.46 364.07)"><tspan class="cls-7">7</tspan><tspan x="15.75" y="0">5</tspan></text></svg>