<svg id="Calque_1" data-name="Calque 1" xmlns="http://www.w3.org/2000/svg" viewBox="0 0 800 800"><defs><style>.cls-1{fill:#fff;stroke-miterlimit:10;stroke-width:5px;}.cls-1,.cls-2{stroke:#1a1a16;}.cls-2{fill:none;stroke-linecap:round;stroke-linejoin:round;stroke-width:3.16px;}.cls-3{fill:#1a1a16;}.cls-4{font-size:77.63px;fill:#978367;font-family:Montserrat-Regular, Montserrat;}</style></defs><title>a5 portrait</title><rect class="cls-1" x="129.46" y="224.95" width="541.08" height="350.11" transform="translate(800 0) rotate(90)"/><line class="cls-2" x1="554.01" y1="219.51" x2="245.99" y2="219.51"/><polygon class="cls-3" points="538.32 200.15 535.09 203.62 552.19 219.5 535.09 235.4 538.32 238.86 559.14 219.5 538.32 200.15"/><polygon class="cls-3" points="261.68 200.15 264.91 203.62 247.81 219.5 264.91 235.4 261.68 238.86 240.86 219.5 261.68 200.15"/><line class="cls-2" x1="485.27" y1="642.36" x2="485.27" y2="157.64"/><polygon class="cls-3" points="504.63 626.67 501.16 623.45 485.27 640.54 469.38 623.45 465.91 626.67 485.27 647.49 504.63 626.67"/><polygon class="cls-3" points="504.63 173.33 501.16 176.56 485.27 159.46 469.38 176.56 465.91 173.33 485.27 152.51 504.63 173.33"/><text class="cls-4" transform="translate(265.22 632.38)">A5</text></svg>