<svg id="Calque_1" data-name="Calque 1" xmlns="http://www.w3.org/2000/svg" viewBox="0 0 800 800"><defs><style>.cls-1{fill:#fff;stroke-miterlimit:10;stroke-width:5px;}.cls-1,.cls-2{stroke:#1a1916;}.cls-2{fill:none;stroke-linecap:round;stroke-linejoin:round;stroke-width:3.16px;}.cls-3{fill:#1a1916;}.cls-4{font-size:49.93px;fill:#9d876d;font-family:Montserrat-Regular, Montserrat;}.cls-5{letter-spacing:0.01em;}</style></defs><title>Plan de travail 36</title><rect class="cls-1" x="238.87" y="233.47" width="255.32" height="351.07"/><line class="cls-2" x1="303.88" y1="254.56" x2="303.88" y2="563.45"/><polygon class="cls-3" points="284.52 270.24 287.98 273.47 303.87 256.37 319.76 273.47 323.23 270.24 303.87 249.42 284.52 270.24"/><polygon class="cls-3" points="284.52 547.76 287.98 544.53 303.87 561.63 319.76 544.53 323.23 547.76 303.87 568.58 284.52 547.76"/><line class="cls-2" x1="478.18" y1="323.5" x2="254.87" y2="323.5"/><polygon class="cls-3" points="462.5 304.14 459.27 307.61 476.37 323.5 459.27 339.39 462.5 342.86 483.31 323.5 462.5 304.14"/><polygon class="cls-3" points="270.56 304.14 273.79 307.61 256.69 323.5 273.79 339.39 270.56 342.86 249.74 323.5 270.56 304.14"/><text class="cls-4" transform="translate(329.72 568.58)">11</text><text class="cls-4" transform="translate(414.65 387.23)"><tspan class="cls-5">8</tspan><tspan x="32.36" y="0">.5</tspan></text></svg>