<svg id="Calque_1" data-name="Calque 1" xmlns="http://www.w3.org/2000/svg" viewBox="0 0 800 800"><defs><style>.cls-1{fill:#fff;stroke-miterlimit:10;stroke-width:5px;}.cls-1,.cls-2{stroke:#1a1a16;}.cls-2{fill:none;stroke-linecap:round;stroke-linejoin:round;stroke-width:3px;}.cls-3{fill:#1a1a16;}.cls-4{font-size:77.63px;fill:#978367;font-family:Montserrat-Regular, Montserrat;}.cls-5{letter-spacing:0.01em;}</style></defs><title>affiche a3</title><rect class="cls-1" x="179.81" y="257.52" width="440.39" height="284.96" transform="translate(800 0) rotate(90)"/><line class="cls-2" x1="524.65" y1="253.1" x2="275.35" y2="253.1"/><polygon class="cls-3" points="509.74 234.69 506.67 237.99 522.92 253.09 506.67 268.2 509.74 271.5 529.53 253.09 509.74 234.69"/><polygon class="cls-3" points="290.26 234.69 293.33 237.99 277.08 253.09 293.33 268.2 290.26 271.5 270.47 253.09 290.26 234.69"/><line class="cls-2" x1="469.4" y1="596.56" x2="469.4" y2="203.44"/><polygon class="cls-3" points="487.8 581.65 484.51 578.58 469.4 594.83 454.3 578.58 451 581.65 469.4 601.44 487.8 581.65"/><polygon class="cls-3" points="487.8 218.35 484.51 221.42 469.4 205.17 454.3 221.42 451 218.35 469.4 198.56 487.8 218.35"/><text class="cls-4" transform="translate(288.85 595.14)"><tspan class="cls-5">A</tspan><tspan x="56.44" y="0">3</tspan></text></svg>