<svg id="Calque_1" data-name="Calque 1" xmlns="http://www.w3.org/2000/svg" viewBox="0 0 800 800"><defs><style>.cls-1{fill:#fff;stroke-miterlimit:10;stroke-width:5px;}.cls-1,.cls-2{stroke:#1a1a16;}.cls-2{fill:none;stroke-linecap:round;stroke-linejoin:round;stroke-width:3.62px;}.cls-3{fill:#1a1a16;}.cls-4{font-size:77.63px;fill:#978367;font-family:Montserrat-Regular, Montserrat;}.cls-5{letter-spacing:-0.01em;}</style></defs><title>a4 portrait</title><rect class="cls-1" x="89.56" y="199.13" width="620.89" height="401.75" transform="translate(800 0) rotate(90)"/><line class="cls-2" x1="576.72" y1="192.88" x2="223.28" y2="192.88"/><polygon class="cls-3" points="558.73 170.67 555.02 174.65 574.64 192.88 555.02 211.12 558.73 215.09 582.61 192.88 558.73 170.67"/><polygon class="cls-3" points="241.28 170.67 244.98 174.65 225.36 192.88 244.98 211.12 241.28 215.09 217.39 192.88 241.28 170.67"/><line class="cls-2" x1="497.84" y1="678.11" x2="497.84" y2="121.89"/><polygon class="cls-3" points="520.06 660.11 516.08 656.4 497.85 676.02 479.61 656.4 475.63 660.11 497.85 684 520.06 660.11"/><polygon class="cls-3" points="520.06 139.89 516.08 143.6 497.85 123.98 479.61 143.6 475.63 139.89 497.85 116 520.06 139.89"/><text class="cls-4" transform="translate(250.14 664.31)"><tspan class="cls-5">A</tspan><tspan x="54.5" y="0">4</tspan></text></svg>