<svg id="Calque_1" data-name="Calque 1" xmlns="http://www.w3.org/2000/svg" viewBox="0 0 800 800"><defs><style>.cls-1{fill:#ebe7e2;}.cls-1,.cls-2,.cls-3{stroke:#1a1916;}.cls-1,.cls-2{stroke-miterlimit:10;stroke-width:5px;}.cls-2{fill:#fff;}.cls-3{fill:none;stroke-linecap:round;stroke-linejoin:round;stroke-width:3.16px;}.cls-4{fill:#1a1916;}.cls-5{font-size:39.27px;fill:#9d876d;font-family:Montserrat-Regular, Montserrat;}.cls-6{letter-spacing:-0.01em;}</style></defs><title>Plan de travail 49</title><polygon class="cls-1" points="503.36 599.45 228.37 599.45 228.37 292.57 512.5 264.54 503.36 599.45"/><rect class="cls-2" x="228.37" y="292.57" width="306.88" height="306.88"/><line class="cls-3" x1="482.4" y1="312.78" x2="482.4" y2="576.59"/><polygon class="cls-4" points="463.04 328.46 466.5 331.69 482.39 314.59 498.28 331.69 501.75 328.46 482.39 307.64 463.04 328.46"/><polygon class="cls-4" points="463.04 560.9 466.5 557.68 482.39 574.77 498.28 557.68 501.75 560.9 482.39 581.72 463.04 560.9"/><line class="cls-3" x1="521.63" y1="355.03" x2="245.7" y2="355.03"/><polygon class="cls-4" points="505.95 335.67 502.72 339.13 519.82 355.02 502.72 370.92 505.95 374.38 526.76 355.02 505.95 335.67"/><polygon class="cls-4" points="261.38 335.67 264.61 339.13 247.51 355.02 264.61 370.92 261.38 374.38 240.56 355.02 261.38 335.67"/><text class="cls-5" transform="translate(240.56 414.1)">1<tspan class="cls-6" x="14.18" y="0">0</tspan><tspan x="39.74" y="0">.5</tspan></text><text class="cls-5" transform="translate(389.13 582.67)">1<tspan class="cls-6" x="14.18" y="0">0</tspan><tspan x="39.74" y="0">.5</tspan></text></svg>