<svg id="Calque_1" data-name="Calque 1" xmlns="http://www.w3.org/2000/svg" viewBox="0 0 800 800"><defs><style>.cls-1{fill:#fff;stroke-miterlimit:10;stroke-width:5px;}.cls-1,.cls-2{stroke:#1a1916;}.cls-2{fill:none;stroke-linecap:round;stroke-linejoin:round;stroke-width:3.16px;}.cls-3{fill:#1a1916;}.cls-4{font-size:38.16px;fill:#9d876d;font-family:Montserrat-Regular, Montserrat;}.cls-5{letter-spacing:0.02em;}.cls-6{letter-spacing:0.01em;}.cls-7{letter-spacing:0em;}</style></defs><title>Plan de travail 16</title><rect class="cls-1" x="210.94" y="234.05" width="368.68" height="368.68" transform="translate(813.67 23.11) rotate(90)"/><line class="cls-2" x1="557.73" y1="295.4" x2="232.83" y2="295.4"/><polygon class="cls-3" points="542.05 276.04 538.82 279.51 555.91 295.4 538.82 311.29 542.05 314.76 562.87 295.4 542.05 276.04"/><polygon class="cls-3" points="248.52 276.04 251.75 279.51 234.65 295.4 251.75 311.29 248.52 314.76 227.7 295.4 248.52 276.04"/><line class="cls-2" x1="485.07" y1="581.89" x2="485.07" y2="254.88"/><polygon class="cls-3" points="504.43 566.21 500.96 562.98 485.08 580.08 469.18 562.98 465.72 566.21 485.08 587.03 504.43 566.21"/><polygon class="cls-3" points="504.43 270.57 500.96 273.8 485.08 256.7 469.18 273.8 465.72 270.57 485.08 249.75 504.43 270.57"/><text class="cls-4" transform="translate(230.35 353.99)">1<tspan class="cls-5" x="13.78" y="0">4</tspan><tspan class="cls-6" x="39.76" y="0">.</tspan><tspan class="cls-7" x="48.23" y="0">8 </tspan></text><text class="cls-4" transform="translate(385.05 587.03)">1<tspan class="cls-5" x="13.78" y="0">4</tspan><tspan class="cls-6" x="39.76" y="0">.</tspan><tspan class="cls-7" x="48.23" y="0">8 </tspan></text></svg>