<svg id="Calque_1" data-name="Calque 1" xmlns="http://www.w3.org/2000/svg" viewBox="0 0 800 800"><defs><style>.cls-1{fill:#ebe7e2;}.cls-1,.cls-3,.cls-4{stroke:#1a1916;}.cls-1,.cls-3{stroke-miterlimit:10;stroke-width:5px;}.cls-2{fill:#fff;}.cls-3,.cls-4{fill:none;}.cls-4{stroke-linecap:round;stroke-linejoin:round;stroke-width:3.16px;}.cls-5{fill:#1a1916;}.cls-6{font-size:55.23px;fill:#9d876d;font-family:Montserrat-Regular, Montserrat;letter-spacing:-0.02em;}.cls-7{letter-spacing:0em;}</style></defs><title>Plan de travail 45</title><polygon class="cls-1" points="90.41 613.1 90.41 254.26 657.4 214.73 657.4 634.29 90.41 613.1"/><rect class="cls-2" x="180.8" y="163.87" width="402.36" height="583.14" transform="translate(837.42 73.46) rotate(90)"/><rect class="cls-3" x="180.8" y="163.87" width="402.36" height="583.14" transform="translate(837.42 73.46) rotate(90)"/><line class="cls-4" x1="602.87" y1="281.31" x2="602.87" y2="629.15"/><polygon class="cls-5" points="583.51 297 586.98 300.23 602.87 283.13 618.76 300.23 622.22 297 602.87 276.18 583.51 297"/><polygon class="cls-5" points="583.51 613.47 586.98 610.24 602.87 627.34 618.76 610.24 622.22 613.47 602.87 634.29 583.51 613.47"/><line class="cls-4" x1="114.07" y1="328.28" x2="642.64" y2="328.28"/><polygon class="cls-5" points="129.75 347.64 132.98 344.17 115.88 328.29 132.98 312.39 129.75 308.93 108.93 328.29 129.75 347.64"/><polygon class="cls-5" points="626.96 347.64 623.73 344.17 640.82 328.29 623.73 312.39 626.96 308.93 647.77 328.29 626.96 347.64"/><text class="cls-6" transform="translate(112.31 634.29)">A<tspan class="cls-7" x="38.77" y="0">4</tspan></text></svg>