<svg id="Calque_1" data-name="Calque 1" xmlns="http://www.w3.org/2000/svg" viewBox="0 0 800 800"><defs><style>.cls-1{fill:#fff;stroke-miterlimit:10;stroke-width:5px;}.cls-1,.cls-2{stroke:#1a1916;}.cls-2{fill:none;stroke-linecap:round;stroke-linejoin:round;stroke-width:3.16px;}.cls-3{fill:#1a1916;}.cls-4{font-size:32.07px;}.cls-4,.cls-5{fill:#9d876d;font-family:Montserrat-Regular, Montserrat;}.cls-5{font-size:28.64px;}</style></defs><title>Plan de travail 87</title><rect class="cls-1" x="317.72" y="123.08" width="191.7" height="575.11" transform="translate(824.21 -2.93) rotate(90)"/><line class="cls-2" x1="688.23" y1="367.2" x2="149.63" y2="367.2"/><polygon class="cls-3" points="672.54 347.84 669.32 351.31 686.41 367.19 669.32 383.09 672.54 386.55 693.36 367.19 672.54 347.84"/><polygon class="cls-3" points="165.32 347.84 168.55 351.31 151.45 367.19 168.55 383.09 165.32 386.55 144.5 367.19 165.32 347.84"/><line class="cls-2" x1="648.61" y1="483.91" x2="650.49" y2="330.66"/><polygon class="cls-3" points="668.16 468.46 664.73 465.19 648.63 482.09 632.95 464.8 629.45 467.99 648.55 489.04 668.16 468.46"/><polygon class="cls-3" points="669.65 346.58 666.15 349.76 650.47 332.47 634.37 349.37 630.94 346.1 650.55 325.52 669.65 346.58"/><text class="cls-4" transform="translate(144.5 421.71)">30</text><text class="cls-5" transform="translate(596.43 489.31)">10</text></svg>