<svg id="Calque_1" data-name="Calque 1" xmlns="http://www.w3.org/2000/svg" viewBox="0 0 800 800"><defs><style>.cls-1{fill:#fff;stroke-miterlimit:10;stroke-width:5px;}.cls-1,.cls-2{stroke:#1a1916;}.cls-2{fill:none;stroke-linecap:round;stroke-linejoin:round;stroke-width:3.16px;}.cls-3{fill:#1a1916;}.cls-4{font-size:32.07px;fill:#9d876d;font-family:Montserrat-Regular, Montserrat;}</style></defs><title>Plan de travail 86</title><rect class="cls-1" x="312.88" y="232.55" width="212.92" height="425.84" transform="translate(864.81 26.14) rotate(90)"/><line class="cls-2" x1="612.69" y1="382.08" x2="230.29" y2="382.08"/><polygon class="cls-3" points="597 362.72 593.77 366.19 610.87 382.07 593.77 397.96 597 401.43 617.82 382.07 597 362.72"/><polygon class="cls-3" points="245.98 362.72 249.21 366.19 232.11 382.07 249.21 397.96 245.98 401.43 225.16 382.07 245.98 362.72"/><line class="cls-2" x1="580.88" y1="539.01" x2="580.88" y2="351.94"/><polygon class="cls-3" points="600.24 523.33 596.77 520.1 580.88 537.19 564.99 520.1 561.52 523.33 580.88 544.14 600.24 523.33"/><polygon class="cls-3" points="600.24 367.62 596.77 370.85 580.88 353.76 564.99 370.85 561.52 367.62 580.88 346.81 600.24 367.62"/><text class="cls-4" transform="translate(538.23 544.14)">5</text><text class="cls-4" transform="translate(232.21 431.2)">10</text></svg>