<svg id="Calque_1" data-name="Calque 1" xmlns="http://www.w3.org/2000/svg" viewBox="0 0 800 800"><defs><style>.cls-1{fill:#fff;stroke-miterlimit:10;stroke-width:5px;}.cls-1,.cls-2{stroke:#1a1916;}.cls-2{fill:none;stroke-linecap:round;stroke-linejoin:round;stroke-width:3.16px;}.cls-3{fill:#1a1916;}.cls-4{font-size:29.33px;fill:#9d876d;font-family:Montserrat-Regular, Montserrat;}</style></defs><title>Plan de travail 24</title><rect class="cls-1" x="258.31" y="276.7" width="283.38" height="283.38" transform="translate(818.39 18.39) rotate(90)"/><line class="cls-2" x1="523.68" y1="323.86" x2="276.32" y2="323.86"/><polygon class="cls-3" points="507.99 304.5 504.76 307.96 521.86 323.85 504.76 339.74 507.99 343.21 528.81 323.85 507.99 304.5"/><polygon class="cls-3" points="292.01 304.5 295.24 307.96 278.14 323.85 295.24 339.74 292.01 343.21 271.19 323.85 292.01 304.5"/><line class="cls-2" x1="469.01" y1="542.87" x2="469.01" y2="293.9"/><polygon class="cls-3" points="488.37 527.19 484.91 523.96 469.02 541.06 453.13 523.96 449.66 527.19 469.02 548.01 488.37 527.19"/><polygon class="cls-3" points="488.37 309.58 484.91 312.81 469.02 295.72 453.13 312.81 449.66 309.58 469.02 288.77 488.37 309.58"/><text class="cls-4" transform="translate(273.74 368.89)">12</text><text class="cls-4" transform="translate(421.97 548.01)">12</text></svg>