<svg id="Calque_1" data-name="Calque 1" xmlns="http://www.w3.org/2000/svg" viewBox="0 0 800 800"><defs><style>.cls-1{fill:#ebe7e2;}.cls-1,.cls-2,.cls-3{stroke:#1a1916;}.cls-1,.cls-2{stroke-miterlimit:10;stroke-width:5px;}.cls-2{fill:#fff;}.cls-3{fill:none;stroke-linecap:round;stroke-linejoin:round;stroke-width:3.16px;}.cls-4{fill:#1a1916;}.cls-5{font-size:59.22px;fill:#9d876d;font-family:Montserrat-Regular, Montserrat;}</style></defs><title>Plan de travail 53</title><polygon class="cls-1" points="592.97 674.51 178.31 674.51 178.31 211.75 606.74 169.49 592.97 674.51"/><rect class="cls-2" x="178.31" y="211.75" width="462.75" height="462.75"/><line class="cls-3" x1="561.35" y1="239.61" x2="561.35" y2="642.64"/><polygon class="cls-4" points="542 255.3 545.46 258.53 561.35 241.43 577.24 258.53 580.71 255.3 561.35 234.48 542 255.3"/><polygon class="cls-4" points="542 626.95 545.46 623.72 561.35 640.82 577.24 623.72 580.71 626.95 561.35 647.77 542 626.95"/><line class="cls-3" x1="623.13" y1="305.93" x2="201.82" y2="305.93"/><polygon class="cls-4" points="607.44 286.57 604.21 290.04 621.31 305.93 604.21 321.82 607.44 325.29 628.26 305.93 607.44 286.57"/><polygon class="cls-4" points="217.5 286.57 220.73 290.04 203.64 305.93 220.73 321.82 217.5 325.29 196.69 305.93 217.5 286.57"/><text class="cls-5" transform="translate(196.69 395.01)">21</text><text class="cls-5" transform="translate(466.1 649.19)">21</text></svg>