<svg id="Calque_1" data-name="Calque 1" xmlns="http://www.w3.org/2000/svg" viewBox="0 0 800 800"><defs><style>.cls-1{fill:#fff;stroke-miterlimit:10;stroke-width:5px;}.cls-1,.cls-2{stroke:#1a1916;}.cls-2{fill:none;stroke-linecap:round;stroke-linejoin:round;stroke-width:3.16px;}.cls-3{fill:#1a1916;}.cls-4{font-size:27.62px;fill:#9d876d;font-family:Montserrat-Regular, Montserrat;}.cls-5{letter-spacing:-0.02em;}</style></defs><title>Plan de travail 91</title><rect class="cls-1" x="158.68" y="145.91" width="503.69" height="503.69"/><line class="cls-2" x1="651.08" y1="200.01" x2="173.79" y2="200.01"/><polygon class="cls-3" points="638.6 184.61 636.03 187.37 649.64 200.01 636.03 212.65 638.6 215.41 655.17 200.01 638.6 184.61"/><polygon class="cls-3" points="186.27 184.61 188.84 187.37 175.23 200.01 188.84 212.65 186.27 215.41 169.7 200.01 186.27 184.61"/><line class="cls-2" x1="619.39" y1="626.08" x2="619.39" y2="172.11"/><polygon class="cls-3" points="634.79 613.6 632.03 611.03 619.39 624.63 606.75 611.03 603.99 613.6 619.39 630.16 634.79 613.6"/><polygon class="cls-3" points="634.79 184.59 632.03 187.16 619.39 173.56 606.75 187.16 603.99 184.59 619.39 168.03 634.79 184.59"/><text class="cls-4" transform="translate(560.31 630.16)"><tspan class="cls-5">7</tspan><tspan x="15.75" y="0">5</tspan></text></svg>