<svg id="Calque_1" data-name="Calque 1" xmlns="http://www.w3.org/2000/svg" viewBox="0 0 800 800"><defs><style>.cls-1,.cls-4{fill:#fff;}.cls-1,.cls-2{stroke:#1a1916;}.cls-1{stroke-miterlimit:10;stroke-width:5px;}.cls-2{fill:none;stroke-linecap:round;stroke-linejoin:round;stroke-width:3.16px;}.cls-3{fill:#1a1916;}.cls-5{font-size:54.99px;}.cls-5,.cls-6{fill:#9d876d;font-family:Montserrat-Regular, Montserrat;}.cls-6{font-size:54.23px;letter-spacing:0em;}.cls-7{letter-spacing:0em;}</style></defs><title>Plan de travail 20</title><rect class="cls-1" x="93.24" y="340.37" width="623.49" height="155.87"/><line class="cls-2" x1="197" y1="352.59" x2="197" y2="484.02"/><polygon class="cls-3" points="177.65 368.27 181.11 371.5 197 354.4 212.89 371.5 216.36 368.27 197 347.45 177.65 368.27"/><polygon class="cls-3" points="177.65 468.34 181.11 465.11 197 482.2 212.89 465.11 216.36 468.34 197 489.15 177.65 468.34"/><line class="cls-2" x1="685.04" y1="417.73" x2="124.93" y2="417.73"/><polygon class="cls-3" points="669.36 398.38 666.13 401.84 683.22 417.73 666.13 433.62 669.36 437.09 690.17 417.73 669.36 398.38"/><polygon class="cls-3" points="140.62 398.38 143.85 401.84 126.75 417.73 143.85 433.62 140.62 437.09 119.8 417.73 140.62 398.38"/><rect class="cls-4" x="536.51" y="386.05" width="122.68" height="60.74"/><rect class="cls-4" x="213.13" y="386.05" width="98.77" height="60.74"/><text class="cls-5" transform="translate(227.15 433.7)">50</text><text class="cls-6" transform="translate(546.69 433.35) scale(0.98 1)">2<tspan class="cls-7" x="30.69" y="0">00 </tspan></text></svg>