<svg id="Calque_1" data-name="Calque 1" xmlns="http://www.w3.org/2000/svg" viewBox="0 0 800 800"><defs><style>.cls-1{fill:#fff;stroke-miterlimit:10;stroke-width:5px;}.cls-1,.cls-2{stroke:#1a1916;}.cls-2{fill:none;stroke-linecap:round;stroke-linejoin:round;stroke-width:3.16px;}.cls-3{fill:#1a1916;}.cls-4{font-size:53.6px;fill:#9d876d;font-family:Montserrat-Regular, Montserrat;}</style></defs><title>Plan de travail 23</title><rect class="cls-1" x="141.05" y="159.44" width="517.9" height="517.9" transform="translate(818.39 18.39) rotate(90)"/><line class="cls-2" x1="630.28" y1="245.63" x2="169.72" y2="245.63"/><polygon class="cls-3" points="614.59 226.27 611.36 229.73 628.46 245.62 611.36 261.51 614.59 264.98 635.41 245.62 614.59 226.27"/><polygon class="cls-3" points="185.41 226.27 188.64 229.73 171.54 245.62 188.64 261.51 185.41 264.98 164.59 245.62 185.41 226.27"/><line class="cls-2" x1="526.13" y1="650.15" x2="526.13" y2="186.63"/><polygon class="cls-3" points="545.49 634.46 542.02 631.23 526.13 648.33 510.24 631.23 506.78 634.46 526.13 655.28 545.49 634.46"/><polygon class="cls-3" points="545.49 202.31 542.02 205.54 526.13 188.44 510.24 205.54 506.78 202.31 526.13 181.5 545.49 202.31"/><text class="cls-4" transform="translate(181.15 327.92)">100</text><text class="cls-4" transform="translate(398.46 655.28)">100</text></svg>