<svg id="Calque_1" data-name="Calque 1" xmlns="http://www.w3.org/2000/svg" viewBox="0 0 800 800"><defs><style>.cls-1{fill:#fff;stroke-miterlimit:10;stroke-width:5px;}.cls-1,.cls-2{stroke:#1a1a16;}.cls-2{fill:none;stroke-linecap:round;stroke-linejoin:round;stroke-width:2.44px;}.cls-3{fill:#1a1a16;}.cls-4{font-size:77.63px;fill:#978367;font-family:Montserrat-Regular, Montserrat;}</style></defs><title>dl portrait</title><rect class="cls-1" x="303.25" y="193.7" width="193.5" height="412.6" transform="translate(800 800) rotate(180)"/><line class="cls-2" x1="480.5" y1="263.55" x2="319.5" y2="263.55"/><polygon class="cls-3" points="468.39 248.61 465.9 251.28 479.1 263.55 465.9 275.81 468.39 278.49 484.46 263.55 468.39 248.61"/><polygon class="cls-3" points="331.61 248.61 334.1 251.28 320.9 263.55 334.1 275.81 331.61 278.49 315.54 263.55 331.61 248.61"/><line class="cls-2" x1="444.73" y1="589.93" x2="444.73" y2="215.8"/><polygon class="cls-3" points="459.68 577.83 457 575.33 444.74 588.53 432.47 575.33 429.8 577.83 444.74 593.89 459.68 577.83"/><polygon class="cls-3" points="459.68 227.9 457 230.4 444.74 217.2 432.47 230.4 429.8 227.9 444.74 211.84 459.68 227.9"/><text class="cls-4" transform="translate(318.96 564.49)">DL</text></svg>