<svg id="Calque_1" data-name="Calque 1" xmlns="http://www.w3.org/2000/svg" viewBox="0 0 800 800"><defs><style>.cls-1{fill:#fff;}.cls-2{fill:#1a1916;}.cls-3{fill:#ebe7e2;}.cls-4{fill:none;stroke:#1a1916;stroke-linecap:round;stroke-linejoin:round;stroke-width:3.16px;}.cls-5{font-size:80.43px;fill:#9d876d;font-family:Montserrat-Regular, Montserrat;}.cls-6{letter-spacing:-0.01em;}</style></defs><title>Plan de travail 38</title><polygon class="cls-1" points="218.62 562.79 153.54 237.22 636.9 237.22 701.99 562.79 218.62 562.79"/><path class="cls-2" d="M634.85,239.72l64.09,320.57H220.67L156.59,239.72H634.85m4.1-5H150.49l66.08,330.57H705L639,234.72Z"/><polygon class="cls-3" points="97.91 562.78 152.6 237.22 154.61 237.21 219.7 562.78 97.91 562.78"/><path class="cls-2" d="M153.74,245.57l62.91,314.71H100.87l52.87-314.71m2.92-10.86h-6.17L95,565.28H222.75L156.66,234.71Z"/><line class="cls-4" x1="621.92" y1="302.49" x2="203.24" y2="302.49"/><polygon class="cls-2" points="606.24 283.13 603.01 286.6 620.11 302.49 603.01 318.38 606.24 321.85 627.05 302.49 606.24 283.13"/><polygon class="cls-2" points="218.93 283.13 222.16 286.6 205.06 302.49 222.16 318.38 218.93 321.85 198.11 302.49 218.93 283.13"/><line class="cls-4" x1="612.32" y1="545.99" x2="557.78" y2="267.09"/><polygon class="cls-2" points="628.31 526.88 624.29 524.38 611.98 544.21 593.1 530.48 590.32 534.31 613.31 551.03 628.31 526.88"/><polygon class="cls-2" points="579.79 278.76 577 282.6 558.13 268.87 545.82 288.7 541.79 286.19 556.8 262.05 579.79 278.76"/><text class="cls-5" transform="translate(245.65 535.58)"><tspan class="cls-6">A</tspan><tspan x="56.46" y="0">4</tspan></text></svg>