<svg id="Calque_1" data-name="Calque 1" xmlns="http://www.w3.org/2000/svg" viewBox="0 0 800 800"><defs><style>.cls-1{fill:#fff;stroke-miterlimit:10;stroke-width:5px;}.cls-1,.cls-2{stroke:#1a1916;}.cls-2{fill:none;stroke-linecap:round;stroke-linejoin:round;stroke-width:3.16px;}.cls-3{fill:#1a1916;}.cls-4{font-size:35.27px;fill:#9d876d;font-family:Montserrat-Regular, Montserrat;}</style></defs><title>Plan de travail 65 copie</title><rect class="cls-1" x="234.72" y="265.4" width="340.78" height="340.78" transform="translate(840.9 30.68) rotate(90)"/><line class="cls-2" x1="554.88" y1="322.11" x2="255.34" y2="322.11"/><polygon class="cls-3" points="539.19 302.75 535.96 306.22 553.06 322.1 535.96 338 539.19 341.46 560.01 322.1 539.19 302.75"/><polygon class="cls-3" points="271.03 302.75 274.26 306.22 257.16 322.1 274.26 338 271.03 341.46 250.21 322.1 271.03 302.75"/><line class="cls-2" x1="488.1" y1="586.53" x2="488.1" y2="285.04"/><polygon class="cls-3" points="507.46 570.84 504 567.62 488.11 584.71 472.22 567.62 468.75 570.84 488.11 591.66 507.46 570.84"/><polygon class="cls-3" points="507.46 300.73 504 303.96 488.11 286.86 472.22 303.96 468.75 300.73 488.11 279.91 507.46 300.73"/><text class="cls-4" transform="translate(250.21 376.26)">7</text><text class="cls-4" transform="translate(435.28 592.02)">7</text></svg>