<svg id="Calque_1" data-name="Calque 1" xmlns="http://www.w3.org/2000/svg" viewBox="0 0 800 800"><defs><style>.cls-1{fill:#ebe7e2;}.cls-2{fill:#1a1916;}.cls-3{fill:#fff;}.cls-4{fill:none;stroke:#1a1916;stroke-linecap:round;stroke-linejoin:round;stroke-width:3.16px;}.cls-5{font-size:63.72px;fill:#9d876d;font-family:Montserrat-Regular, Montserrat;}</style></defs><title>Plan de travail 41</title><polygon class="cls-1" points="168.74 541.39 205.16 241.99 205.54 241.99 231.59 546.03 168.74 541.39"/><path class="cls-2" d="M205,264.4l23.9,278.93-57.32-4.24L205,264.4m2.88-24.92h-4.89l-37,304.2,68.39,5-26.5-309.26Z"/><polygon class="cls-1" points="185.92 546.5 205.47 241.99 205.72 241.99 231.66 546.5 185.92 546.5"/><path class="cls-2" d="M205.92,273.88l23,270.12H188.59l17.33-270.12m2.09-34.4h-4.89L183.25,549h51.13L208,239.48Z"/><polygon class="cls-1" points="205.65 241.99 205.72 241.99 232.21 550.46 208.6 551.19 205.65 241.99"/><path class="cls-2" d="M208.76,306.67,229.49,548l-18.41.57-2.32-241.94M208,239.48h-4.89l3,314.28,28.8-.89L208,239.48Z"/><polygon class="cls-3" points="228.88 561.17 205.81 241.99 587.78 241.99 610.86 561.17 228.88 561.17"/><path class="cls-2" d="M585.45,244.49l22.72,314.18h-377L208.5,244.49h377m4.65-5h-387l23.44,324.18h387L590.1,239.49Z"/><line class="cls-4" x1="569.93" y1="284.93" x2="232.65" y2="284.93"/><polygon class="cls-2" points="554.25 265.57 551.02 269.04 568.12 284.92 551.02 300.81 554.25 304.28 575.07 284.92 554.25 265.57"/><polygon class="cls-2" points="248.33 265.57 251.56 269.04 234.46 284.92 251.56 300.81 248.33 304.28 227.51 284.92 248.33 265.57"/><line class="cls-4" x1="545.12" y1="535.99" x2="522.12" y2="257.26"/><polygon class="cls-2" points="563.12 518.77 559.4 515.83 544.98 534.18 527.73 518.45 524.54 521.95 545.55 541.11 563.12 518.77"/><polygon class="cls-2" points="542.7 271.3 539.51 274.8 522.27 259.07 507.84 277.42 504.12 274.48 521.7 252.15 542.7 271.3"/><text class="cls-5" transform="translate(256.48 541.72)">A5</text><path class="cls-4" d="M373.61,242.94c0-13.11,9.48-23.74,21.18-23.74S416,229.83,416,242.94"/><path class="cls-4" d="M208,241.55a9.32,9.32,0,1,1,9.32,9.32"/><path class="cls-4" d="M232.46,241.55a9.32,9.32,0,1,1,9.32,9.32"/><path class="cls-4" d="M257,241.55a9.32,9.32,0,1,1,9.32,9.32"/><path class="cls-4" d="M281.46,241.55a9.32,9.32,0,1,1,9.32,9.32"/><path class="cls-4" d="M306,241.55a9.32,9.32,0,1,1,9.32,9.32"/><path class="cls-4" d="M330.47,241.55a9.32,9.32,0,1,1,9.32,9.32"/><path class="cls-4" d="M355,241.55a9.32,9.32,0,1,1,9.32,9.32"/><path class="cls-4" d="M415.66,241.55a9.33,9.33,0,1,1,9.32,9.32"/><path class="cls-4" d="M440.17,241.55a9.32,9.32,0,1,1,9.32,9.32"/><path class="cls-4" d="M464.67,241.55a9.32,9.32,0,1,1,9.32,9.32"/><path class="cls-4" d="M489.17,241.55a9.32,9.32,0,1,1,9.32,9.32"/><path class="cls-4" d="M513.67,241.55a9.32,9.32,0,1,1,9.32,9.32"/><path class="cls-4" d="M538.17,241.55a9.33,9.33,0,1,1,9.32,9.32"/><path class="cls-4" d="M562.68,241.55a9.32,9.32,0,1,1,9.32,9.32"/></svg>