<svg id="Calque_1" data-name="Calque 1" xmlns="http://www.w3.org/2000/svg" viewBox="0 0 800 800"><defs><style>.cls-1{fill:#fff;stroke-miterlimit:10;stroke-width:5px;}.cls-1,.cls-2{stroke:#1a1916;}.cls-2{fill:none;stroke-linecap:round;stroke-linejoin:round;stroke-width:3.16px;}.cls-3{fill:#1a1916;}.cls-4,.cls-6{font-size:39.58px;fill:#9d876d;font-family:Montserrat-Regular, Montserrat;}.cls-4{letter-spacing:0em;}.cls-5{letter-spacing:0em;}.cls-7{letter-spacing:-0.02em;}</style></defs><title>Plan de travail 68</title><rect class="cls-1" x="246" y="104.31" width="282.86" height="662.94" transform="translate(823.21 48.36) rotate(90)"/><line class="cls-2" x1="678.17" y1="346.98" x2="83.51" y2="346.98"/><polygon class="cls-3" points="662.49 327.62 659.26 331.08 676.36 346.97 659.26 362.86 662.49 366.33 683.31 346.97 662.49 327.62"/><polygon class="cls-3" points="99.19 327.62 102.42 331.08 85.33 346.97 102.42 362.86 99.19 366.33 78.38 346.97 99.19 327.62"/><line class="cls-2" x1="636.92" y1="556.57" x2="636.92" y2="308.32"/><polygon class="cls-3" points="656.27 540.89 652.81 537.66 636.92 554.75 621.03 537.66 617.56 540.89 636.92 561.7 656.27 540.89"/><polygon class="cls-3" points="656.27 324.01 652.81 327.24 636.92 310.14 621.03 327.24 617.56 324.01 636.92 303.19 656.27 324.01"/><text class="cls-4" transform="translate(549.54 554.74)">3<tspan class="cls-5" x="22.13" y="0">2</tspan></text><text class="cls-6" transform="translate(79.5 410.64)"><tspan class="cls-7">7</tspan><tspan x="22.56" y="0">5</tspan></text></svg>