<svg id="Calque_1" data-name="Calque 1" xmlns="http://www.w3.org/2000/svg" viewBox="0 0 800 800"><defs><style>.cls-1{fill:#fff;stroke-miterlimit:10;stroke-width:5px;}.cls-1,.cls-2{stroke:#1a1a16;}.cls-2{fill:none;stroke-linecap:round;stroke-linejoin:round;stroke-width:2.57px;}.cls-3{fill:#1a1a16;}.cls-4{font-size:77.63px;fill:#978367;font-family:Montserrat-Regular, Montserrat;letter-spacing:-0.01em;}.cls-5{letter-spacing:0em;}</style></defs><title>a6 portrait</title><rect class="cls-1" x="179.34" y="257.22" width="441.31" height="285.56" transform="translate(800 0) rotate(90)"/><line class="cls-2" x1="525.61" y1="252.79" x2="274.39" y2="252.79"/><polygon class="cls-3" points="512.82 237 510.19 239.82 524.13 252.78 510.19 265.75 512.82 268.57 529.8 252.78 512.82 237"/><polygon class="cls-3" points="287.18 237 289.81 239.82 275.87 252.78 289.81 265.75 287.18 268.57 270.2 252.78 287.18 237"/><line class="cls-2" x1="469.54" y1="597.67" x2="469.54" y2="202.33"/><polygon class="cls-3" points="485.33 584.88 482.51 582.25 469.55 596.19 456.59 582.25 453.76 584.88 469.55 601.86 485.33 584.88"/><polygon class="cls-3" points="485.33 215.12 482.51 217.75 469.55 203.81 456.59 217.75 453.76 215.12 469.55 198.14 485.33 215.12"/><text class="cls-4" transform="translate(295.75 576.51)">A<tspan class="cls-5" x="55.12" y="0">6</tspan></text></svg>