<svg id="Calque_1" data-name="Calque 1" xmlns="http://www.w3.org/2000/svg" viewBox="0 0 800 800"><defs><style>.cls-1{fill:#fff;stroke-miterlimit:10;stroke-width:5px;}.cls-1,.cls-2{stroke:#1a1916;}.cls-2{fill:none;stroke-linecap:round;stroke-linejoin:round;stroke-width:3.16px;}.cls-3{fill:#1a1916;}.cls-4{font-size:60.01px;fill:#9d876d;font-family:Montserrat-Regular, Montserrat;}.cls-5{letter-spacing:0em;}</style></defs><title>Plan de travail 17</title><rect class="cls-1" x="47.23" y="240.29" width="680.4" height="340.2" transform="translate(797.82 22.96) rotate(90)"/><line class="cls-2" x1="536.93" y1="183.42" x2="237.92" y2="183.42"/><polygon class="cls-3" points="521.25 164.06 518.02 167.53 535.11 183.41 518.02 199.31 521.25 202.77 542.06 183.41 521.25 164.06"/><polygon class="cls-3" points="253.61 164.06 256.84 167.53 239.74 183.41 256.84 199.31 253.61 202.77 232.79 183.41 253.61 164.06"/><line class="cls-2" x1="470.28" y1="716.47" x2="470.28" y2="104.3"/><polygon class="cls-3" points="489.64 700.79 486.17 697.56 470.29 714.66 454.39 697.56 450.93 700.79 470.29 721.61 489.64 700.79"/><polygon class="cls-3" points="489.64 119.98 486.17 123.21 470.29 106.12 454.39 123.21 450.93 119.98 470.29 99.17 489.64 119.98"/><text class="cls-4" transform="translate(234.47 273.48)">100</text><text class="cls-4" transform="translate(322.86 721.61)"><tspan class="cls-5">2</tspan><tspan x="33.96" y="0">00 </tspan></text></svg>