<svg id="Calque_1" data-name="Calque 1" xmlns="http://www.w3.org/2000/svg" viewBox="0 0 800 800"><defs><style>.cls-1{fill:#ebe7e2;}.cls-1,.cls-2,.cls-3{stroke:#1a1916;}.cls-1,.cls-2{stroke-miterlimit:10;stroke-width:5px;}.cls-2{fill:#fff;}.cls-3{fill:none;stroke-linecap:round;stroke-linejoin:round;stroke-width:3.16px;}.cls-4{fill:#1a1916;}.cls-5{font-size:46.74px;fill:#9d876d;font-family:Montserrat-Regular, Montserrat;}.cls-6{letter-spacing:0.02em;}.cls-7{letter-spacing:0.01em;}</style></defs><title>Plan de travail 51</title><polygon class="cls-1" points="536.24 621.28 208.97 621.28 208.97 256.06 547.11 222.71 536.24 621.28"/><rect class="cls-2" x="208.97" y="256.07" width="365.22" height="365.22"/><line class="cls-3" x1="511.29" y1="279.14" x2="511.29" y2="595.05"/><polygon class="cls-4" points="491.93 294.82 495.39 298.05 511.28 280.95 527.17 298.05 530.64 294.82 511.28 274 491.93 294.82"/><polygon class="cls-4" points="491.93 579.37 495.39 576.14 511.28 593.23 527.17 576.14 530.64 579.37 511.28 600.18 491.93 579.37"/><line class="cls-3" x1="558.95" y1="330.4" x2="228.61" y2="330.4"/><polygon class="cls-4" points="543.27 311.04 540.04 314.5 557.14 330.39 540.04 346.28 543.27 349.75 564.09 330.39 543.27 311.04"/><polygon class="cls-4" points="244.3 311.04 247.53 314.5 230.43 330.39 247.53 346.28 244.3 349.75 223.48 330.39 244.3 311.04"/><text class="cls-5" transform="translate(223.48 400.7)">1<tspan class="cls-6" x="16.87" y="0">4</tspan><tspan class="cls-7" x="48.7" y="0">,</tspan><tspan x="59.07" y="0">8</tspan></text><text class="cls-5" transform="translate(387.11 601.31)">1<tspan class="cls-6" x="16.87" y="0">4</tspan><tspan class="cls-7" x="48.7" y="0">,</tspan><tspan x="59.07" y="0">8</tspan></text></svg>