<svg id="Calque_1" data-name="Calque 1" xmlns="http://www.w3.org/2000/svg" viewBox="0 0 800 800"><defs><style>.cls-1{fill:#fff;stroke-miterlimit:10;stroke-width:5px;}.cls-1,.cls-2{stroke:#1a1916;}.cls-2{fill:none;stroke-linecap:round;stroke-linejoin:round;stroke-width:2.44px;}.cls-3{fill:#1a1916;}.cls-4{font-size:46px;fill:#9d876d;font-family:Montserrat-Regular, Montserrat;}</style></defs><title>Plan de travail 63</title><rect class="cls-1" x="304.31" y="207.8" width="193.5" height="412.6" transform="translate(802.11 828.2) rotate(180)"/><line class="cls-2" x1="481.56" y1="277.65" x2="320.55" y2="277.65"/><polygon class="cls-3" points="469.45 262.71 466.96 265.38 480.15 277.65 466.96 289.91 469.45 292.59 485.52 277.65 469.45 262.71"/><polygon class="cls-3" points="332.66 262.71 335.15 265.38 321.96 277.65 335.15 289.91 332.66 292.59 316.59 277.65 332.66 262.71"/><line class="cls-2" x1="445.79" y1="604.03" x2="445.79" y2="229.9"/><polygon class="cls-3" points="460.73 591.93 458.06 589.43 445.79 602.63 433.53 589.43 430.85 591.93 445.79 608 460.73 591.93"/><polygon class="cls-3" points="460.73 242 458.06 244.5 445.79 231.3 433.53 244.5 430.85 242 445.79 225.94 460.73 242"/><text class="cls-4" transform="translate(381.98 607.99)">21</text><text class="cls-4" transform="translate(316.59 333.32)">10</text></svg>