<svg id="Calque_1" data-name="Calque 1" xmlns="http://www.w3.org/2000/svg" viewBox="0 0 800 800"><defs><style>.cls-1{fill:#fff;stroke-miterlimit:10;stroke-width:5px;}.cls-1,.cls-2{stroke:#1a1916;}.cls-2{fill:none;stroke-linecap:round;stroke-linejoin:round;stroke-width:3.16px;}.cls-3{fill:#1a1916;}.cls-4{font-size:45.45px;fill:#9d876d;font-family:Montserrat-Regular, Montserrat;}.cls-5{letter-spacing:0em;}.cls-6{letter-spacing:0.01em;}</style></defs><title>Plan de travail 21</title><rect class="cls-1" x="141.13" y="303.01" width="517.74" height="194.15" transform="translate(800.08 0.08) rotate(90)"/><line class="cls-2" x1="316.88" y1="227.38" x2="483.12" y2="227.38"/><polygon class="cls-3" points="332.57 246.74 335.8 243.27 318.7 227.38 335.8 211.49 332.57 208.02 311.75 227.38 332.57 246.74"/><polygon class="cls-3" points="467.43 246.74 464.2 243.27 481.3 227.38 464.2 211.49 467.43 208.02 488.25 227.38 467.43 246.74"/><line class="cls-2" x1="444.75" y1="631.77" x2="444.75" y2="168.4"/><polygon class="cls-3" points="464.1 616.08 460.64 612.86 444.75 629.95 428.86 612.86 425.39 616.08 444.75 636.9 464.1 616.08"/><polygon class="cls-3" points="464.1 184.08 460.64 187.31 444.75 170.22 428.86 187.31 425.39 184.08 444.75 163.27 464.1 184.08"/><text class="cls-4" transform="translate(314.11 293.81)"><tspan class="cls-5">3</tspan><tspan class="cls-6" x="25.41" y="0">2</tspan><tspan x="51.68" y="0">.5</tspan></text><text class="cls-4" transform="translate(361.93 637.17)">80 </text></svg>