<svg id="Calque_1" data-name="Calque 1" xmlns="http://www.w3.org/2000/svg" viewBox="0 0 800 800"><defs><style>.cls-1{fill:#fff;stroke-miterlimit:10;stroke-width:5px;}.cls-1,.cls-2{stroke:#1a1916;}.cls-2{fill:none;stroke-linecap:round;stroke-linejoin:round;stroke-width:3.16px;}.cls-3{fill:#1a1916;}.cls-4{font-size:29.11px;fill:#9d876d;font-family:Montserrat-Regular, Montserrat;}</style></defs><title>Plan de travail 64</title><rect class="cls-1" x="251.52" y="295.18" width="281.22" height="281.22" transform="translate(827.92 43.65) rotate(90)"/><line class="cls-2" x1="514.83" y1="341.98" x2="269.44" y2="341.98"/><polygon class="cls-3" points="499.14 322.62 495.92 326.08 513.01 341.97 495.92 357.86 499.14 361.33 519.96 341.97 499.14 322.62"/><polygon class="cls-3" points="285.12 322.62 288.35 326.08 271.26 341.97 288.35 357.86 285.12 361.33 264.31 341.97 285.12 322.62"/><line class="cls-2" x1="460.62" y1="559.28" x2="460.62" y2="312.29"/><polygon class="cls-3" points="479.98 543.6 476.52 540.37 460.63 557.47 444.74 540.37 441.27 543.6 460.63 564.42 479.98 543.6"/><polygon class="cls-3" points="479.98 327.97 476.52 331.2 460.63 314.1 444.74 331.2 441.27 327.97 460.63 307.15 479.98 327.97"/><text class="cls-4" transform="translate(264.31 386.66)">5.5</text><text class="cls-4" transform="translate(395.82 564.72)">5.5</text></svg>