<svg id="Calque_1" data-name="Calque 1" xmlns="http://www.w3.org/2000/svg" viewBox="0 0 800 800"><defs><style>.cls-1{fill:#ebe7e2;}.cls-1,.cls-3,.cls-4{stroke:#1a1916;}.cls-1,.cls-3{stroke-miterlimit:10;stroke-width:5px;}.cls-2{fill:#fff;}.cls-3,.cls-4{fill:none;}.cls-4{stroke-linecap:round;stroke-linejoin:round;stroke-width:3.16px;}.cls-5{fill:#1a1916;}.cls-6{font-size:36.81px;fill:#9d876d;font-family:Montserrat-Regular, Montserrat;}.cls-7{letter-spacing:-0.01em;}</style></defs><title>Plan de travail 47</title><polygon class="cls-1" points="503.56 615.35 264.39 615.35 264.39 226.68 516.71 202.66 503.56 615.35"/><rect class="cls-2" x="264.39" y="226.68" width="268.18" height="388.67"/><rect class="cls-3" x="264.39" y="226.68" width="268.18" height="388.67"/><line class="cls-4" x1="514.98" y1="283.79" x2="281.69" y2="283.79"/><polygon class="cls-5" points="499.3 264.43 496.07 267.89 513.16 283.78 496.07 299.67 499.3 303.14 520.12 283.78 499.3 264.43"/><polygon class="cls-5" points="297.38 264.43 300.6 267.89 283.51 283.78 300.6 299.67 297.38 303.14 276.56 283.78 297.38 264.43"/><line class="cls-4" x1="471.76" y1="590.87" x2="471.76" y2="241.99"/><polygon class="cls-5" points="491.12 575.18 487.65 571.96 471.77 589.05 455.87 571.96 452.41 575.18 471.77 596 491.12 575.18"/><polygon class="cls-5" points="491.12 257.67 487.65 260.9 471.77 243.81 455.87 260.9 452.41 257.67 471.77 236.86 491.12 257.67"/><text class="cls-6" transform="translate(281.49 603)"><tspan class="cls-7">A</tspan><tspan x="26.14" y="0">6</tspan></text></svg>