<svg id="Calque_1" data-name="Calque 1" xmlns="http://www.w3.org/2000/svg" viewBox="0 0 800 800"><defs><style>.cls-1{fill:#fff;stroke-miterlimit:10;stroke-width:5px;}.cls-1,.cls-2{stroke:#1a1916;}.cls-2{fill:none;stroke-linecap:round;stroke-linejoin:round;stroke-width:3.16px;}.cls-3{fill:#1a1916;}.cls-4,.cls-6,.cls-7{font-size:55.23px;fill:#9d876d;font-family:Montserrat-Regular, Montserrat;}.cls-4{letter-spacing:0em;}.cls-5{letter-spacing:0em;}.cls-6{letter-spacing:0em;}.cls-8{letter-spacing:0.01em;}</style></defs><title>Plan de travail 37</title><rect class="cls-1" x="239.63" y="173.79" width="367.62" height="505.48"/><line class="cls-2" x1="190.77" y1="178.93" x2="190.77" y2="674.14"/><polygon class="cls-3" points="171.41 194.61 174.88 197.84 190.76 180.75 206.66 197.84 210.12 194.61 190.76 173.79 171.41 194.61"/><polygon class="cls-3" points="171.41 658.45 174.88 655.22 190.76 672.32 206.66 655.22 210.12 658.45 190.76 679.27 171.41 658.45"/><line class="cls-2" x1="602.11" y1="132.84" x2="244.76" y2="132.84"/><polygon class="cls-3" points="586.43 113.48 583.2 116.94 600.3 132.83 583.2 148.72 586.43 152.19 607.25 132.83 586.43 113.48"/><polygon class="cls-3" points="260.44 113.48 263.67 116.94 246.58 132.83 263.67 148.72 260.44 152.19 239.63 132.83 260.44 113.48"/><text class="cls-4" transform="translate(392.31 117.54)">3<tspan class="cls-5" x="30.88" y="0">2</tspan></text><text class="cls-6" transform="translate(101.7 455.44)">4<tspan class="cls-5" x="36.4" y="0">5</tspan></text><text class="cls-7" transform="translate(429.48 660.85)">SR<tspan class="cls-8" x="73.9" y="0">A</tspan><tspan class="cls-5" x="114.05" y="0">3</tspan></text></svg>