<svg id="Calque_1" data-name="Calque 1" xmlns="http://www.w3.org/2000/svg" viewBox="0 0 800 800"><defs><style>.cls-1{fill:#ebe7e2;}.cls-1,.cls-2,.cls-3{stroke:#1a1916;}.cls-1,.cls-2{stroke-miterlimit:10;stroke-width:5px;}.cls-2{fill:#fff;}.cls-3{fill:none;stroke-linecap:round;stroke-linejoin:round;stroke-width:3.16px;}.cls-4{fill:#1a1916;}.cls-5{font-size:43.59px;fill:#9d876d;font-family:Montserrat-Regular, Montserrat;}</style></defs><title>Plan de travail 50</title><polygon class="cls-1" points="554.92 607.87 249.68 607.87 249.68 267.23 565.06 236.12 554.92 607.87"/><rect class="cls-2" x="249.68" y="267.23" width="340.64" height="340.64"/><line class="cls-3" x1="531.65" y1="289.1" x2="531.65" y2="583.06"/><polygon class="cls-4" points="512.29 304.78 515.75 308.01 531.64 290.91 547.53 308.01 551 304.78 531.64 283.96 512.29 304.78"/><polygon class="cls-4" points="512.29 567.37 515.75 564.15 531.64 581.24 547.53 564.15 551 567.37 531.64 588.19 512.29 567.37"/><line class="cls-3" x1="575.76" y1="336.56" x2="268.34" y2="336.56"/><polygon class="cls-4" points="560.08 317.2 556.85 320.67 573.95 336.56 556.85 352.45 560.08 355.92 580.9 336.56 560.08 317.2"/><polygon class="cls-4" points="284.03 317.2 287.26 320.67 270.16 336.56 287.26 352.45 284.03 355.92 263.21 336.56 284.03 317.2"/><text class="cls-5" transform="translate(263.21 402.13)">12</text><text class="cls-5" transform="translate(461.82 589.24)">12</text></svg>