<svg id="Calque_1" data-name="Calque 1" xmlns="http://www.w3.org/2000/svg" viewBox="0 0 800 800"><defs><style>.cls-1{fill:#fff;stroke-miterlimit:10;stroke-width:5px;}.cls-1,.cls-2{stroke:#1a1916;}.cls-2{fill:none;stroke-linecap:round;stroke-linejoin:round;stroke-width:3.16px;}.cls-3{fill:#1a1916;}.cls-4{font-size:35.07px;fill:#9d876d;font-family:Montserrat-Regular, Montserrat;}.cls-5{letter-spacing:-0.01em;}</style></defs><title>Plan de travail 26</title><rect class="cls-1" x="201.72" y="228.82" width="338.86" height="338.86" transform="translate(769.4 27.1) rotate(90)"/><line class="cls-2" x1="520.05" y1="285.21" x2="222.26" y2="285.21"/><polygon class="cls-3" points="504.36 265.85 501.13 269.32 518.23 285.21 501.13 301.1 504.36 304.57 525.18 285.21 504.36 265.85"/><polygon class="cls-3" points="237.94 265.85 241.17 269.32 224.08 285.21 241.17 301.1 237.94 304.57 217.13 285.21 237.94 265.85"/><line class="cls-2" x1="453.68" y1="548.11" x2="453.68" y2="248.39"/><polygon class="cls-3" points="473.04 532.43 469.57 529.2 453.69 546.3 437.79 529.2 434.33 532.43 453.69 553.25 473.04 532.43"/><polygon class="cls-3" points="473.04 264.07 469.57 267.3 453.69 250.2 437.79 267.3 434.33 264.07 453.69 243.25 473.04 264.07"/><text class="cls-4" transform="translate(215.92 339.06)">1<tspan class="cls-5" x="12.66" y="0">0</tspan><tspan x="35.49" y="0">.5 </tspan></text><text class="cls-4" transform="translate(372.13 553.25)">1<tspan class="cls-5" x="12.66" y="0">0</tspan><tspan x="35.49" y="0">.5 </tspan></text></svg>