<svg id="Calque_1" data-name="Calque 1" xmlns="http://www.w3.org/2000/svg" viewBox="0 0 800 800"><defs><style>.cls-1{fill:#fff;stroke-miterlimit:10;stroke-width:5px;}.cls-1,.cls-2{stroke:#1a1916;}.cls-2{fill:none;stroke-linecap:round;stroke-linejoin:round;stroke-width:3.16px;}.cls-3{fill:#1a1916;}.cls-4{font-size:34.72px;fill:#9d876d;font-family:Montserrat-Regular, Montserrat;}.cls-5{letter-spacing:0em;}</style></defs><title>Plan de travail 33</title><rect class="cls-1" x="353.99" y="184.81" width="125.29" height="461.15" transform="translate(832.02 -1.25) rotate(90)"/><line class="cls-2" x1="212.15" y1="395.76" x2="631.11" y2="395.76"/><polygon class="cls-3" points="227.84 415.12 231.06 411.66 213.97 395.77 231.06 379.88 227.84 376.41 207.02 395.77 227.84 415.12"/><polygon class="cls-3" points="615.43 415.12 612.2 411.66 629.3 395.77 612.2 379.88 615.43 376.41 636.25 395.77 615.43 415.12"/><line class="cls-2" x1="583.71" y1="462.17" x2="583.71" y2="365.15"/><polygon class="cls-3" points="603.07 446.49 599.6 443.26 583.71 460.35 567.82 443.26 564.35 446.49 583.71 467.3 603.07 446.49"/><polygon class="cls-3" points="603.07 380.83 599.6 384.06 583.71 366.96 567.82 384.06 564.35 380.83 583.71 360.01 603.07 380.83"/><text class="cls-4" transform="translate(207.02 444.86) scale(0.96 1)"><tspan class="cls-5">2</tspan><tspan x="19.65" y="0">0</tspan></text><text class="cls-4" transform="translate(541.83 467.3) scale(0.96 1)">5</text></svg>