<svg id="Calque_1" data-name="Calque 1" xmlns="http://www.w3.org/2000/svg" viewBox="0 0 800 800"><defs><style>.cls-1{stroke:#fff;stroke-miterlimit:10;stroke-width:2px;}.cls-2{fill:none;stroke:#9d876d;stroke-linecap:round;stroke-linejoin:round;stroke-width:3.16px;}.cls-3,.cls-4{fill:#9d876d;}.cls-4{font-size:40px;font-family:Montserrat-Regular, Montserrat;}.cls-5{fill:#fff;}</style></defs><title>Plan de travail 65 copie 2</title><rect class="cls-1" x="283.49" y="266.28" width="265.48" height="265.48"/><line class="cls-2" x1="257.3" y1="271.42" x2="257.3" y2="526.63"/><polygon class="cls-3" points="237.94 287.1 241.41 290.33 257.3 273.23 273.19 290.33 276.66 287.1 257.3 266.28 237.94 287.1"/><polygon class="cls-3" points="237.94 510.94 241.41 507.72 257.3 524.81 273.19 507.72 276.66 510.94 257.3 531.76 237.94 510.94"/><text class="cls-4" transform="translate(206.13 424.37) scale(0.98 1)">12</text><path class="cls-5" d="M377.37,419.64a43.93,43.93,0,0,1,.65-5.39,11.58,11.58,0,0,1,11.1-8.77c4-.06,7.95,0,12,0,0-.42.05-.76.07-1.1.93-18-2.2-35.31-8.16-52.24a20.86,20.86,0,0,1,20.4-28.25A21.06,21.06,0,0,1,433,352.2c-2.66,7.36-5.25,14.76-6.54,22.5a124.16,124.16,0,0,0-1.53,14.41c-.26,5.38-.06,10.78-.06,16.35h11.44a11.81,11.81,0,0,1,12.18,12.13c0,.63,0,1.25,0,2.05h2.36a7.08,7.08,0,0,1,7.08,7.06c0,3.54,0,7.09,0,10.63a7.07,7.07,0,0,1-7.37,7.35H375.76c-4.7,0-7.64-3-7.65-7.68,0-3.31,0-6.62,0-9.92a7.1,7.1,0,0,1,7.41-7.45Zm42.74-29.81a11.07,11.07,0,0,1,0-1.17c.5-4.81.8-9.65,1.58-14.41a119.14,119.14,0,0,1,6.56-22.86,17.7,17.7,0,0,0,1.1-8.91,16.62,16.62,0,0,0-19.53-13.77A16.32,16.32,0,0,0,396.9,348.4c.91,3.77,2.29,7.43,3.4,11.16a124.05,124.05,0,0,1,5.46,29.27,9.16,9.16,0,0,0,.18,1ZM413,440h37.32c2,0,2.84-.87,2.85-2.78q0-5,0-10c0-1.87-.89-2.77-2.74-2.77H375.57c-1.85,0-2.72.9-2.73,2.78q0,4.78,0,9.57c0,2.51.72,3.24,3.21,3.24Zm-30.64-20.4h61.36v-1.73c0-4.71-3-7.64-7.68-7.64H389.62a7,7,0,0,0-7.22,6A22.29,22.29,0,0,0,382.37,419.56ZM406,405.38h14V394.65H406Z"/><path d="M420.11,389.83H405.94a9.16,9.16,0,0,1-.18-1,124.05,124.05,0,0,0-5.46-29.27c-1.11-3.73-2.49-7.39-3.4-11.16a16.32,16.32,0,0,1,12.93-19.69,16.62,16.62,0,0,1,19.53,13.77,17.7,17.7,0,0,1-1.1,8.91,119.14,119.14,0,0,0-6.56,22.86c-.78,4.76-1.08,9.6-1.58,14.41A11.07,11.07,0,0,0,420.11,389.83ZM423.65,350a2.42,2.42,0,0,0-1.88-2.6,2.3,2.3,0,0,0-2.68,1.61q-2.34,7-4.57,14.13a2.24,2.24,0,0,0,.92,2.7c1.45,1,3.1.21,3.7-1.68,1.39-4.38,2.82-8.75,4.22-13.12C423.49,350.6,423.59,350.18,423.65,350Zm-4.78-9.7a2.31,2.31,0,0,0,2.33,2.32,2.36,2.36,0,1,0-.07-4.71A2.32,2.32,0,0,0,418.87,340.27Z"/><path d="M413,440h-37c-2.49,0-3.21-.73-3.21-3.24q0-4.79,0-9.57c0-1.88.88-2.78,2.73-2.78h74.87c1.85,0,2.73.9,2.74,2.77q0,5,0,10c0,1.91-.89,2.78-2.85,2.78Z"/><path d="M382.37,419.56a22.29,22.29,0,0,1,0-3.38,7,7,0,0,1,7.22-6h46.43c4.73,0,7.67,2.93,7.68,7.64v1.73Z"/><path d="M406,405.38V394.65h14v10.73Z"/><path class="cls-5" d="M423.65,350c-.06.21-.16.63-.29,1-1.4,4.37-2.83,8.74-4.22,13.12-.6,1.89-2.25,2.66-3.7,1.68a2.24,2.24,0,0,1-.92-2.7q2.24-7.08,4.57-14.13a2.3,2.3,0,0,1,2.68-1.61A2.42,2.42,0,0,1,423.65,350Z"/><path class="cls-5" d="M418.87,340.27a2.32,2.32,0,0,1,2.26-2.39,2.36,2.36,0,1,1,.07,4.71A2.31,2.31,0,0,1,418.87,340.27Z"/><line class="cls-2" x1="288.63" y1="560.62" x2="543.84" y2="560.62"/><polygon class="cls-3" points="304.31 579.97 307.54 576.51 290.44 560.62 307.54 544.73 304.31 541.26 283.5 560.62 304.31 579.97"/><polygon class="cls-3" points="528.16 579.97 524.93 576.51 542.02 560.62 524.93 544.73 528.16 541.26 548.97 560.62 528.16 579.97"/><text class="cls-4" transform="translate(398.09 606.47) scale(0.98 1)">12</text></svg>