<svg id="Calque_1" data-name="Calque 1" xmlns="http://www.w3.org/2000/svg" viewBox="0 0 800 800"><defs><style>.cls-1{fill:#fff;stroke-miterlimit:10;stroke-width:5px;}.cls-1,.cls-2{stroke:#1a1916;}.cls-2{fill:none;stroke-linecap:round;stroke-linejoin:round;stroke-width:3.16px;}.cls-3{fill:#1a1916;}.cls-4,.cls-6{font-size:27.62px;fill:#9d876d;font-family:Montserrat-Regular, Montserrat;}.cls-4{letter-spacing:-0.01em;}.cls-5{letter-spacing:0em;}</style></defs><title>Plan de travail 88</title><rect class="cls-1" x="221.38" y="155.77" width="356.81" height="509.73" transform="translate(810.43 10.85) rotate(90)"/><line class="cls-2" x1="639.56" y1="279.46" x2="166.26" y2="279.46"/><polygon class="cls-3" points="627.08 264.06 624.51 266.81 638.11 279.46 624.51 292.1 627.08 294.86 643.64 279.46 627.08 264.06"/><polygon class="cls-3" points="178.74 264.06 181.31 266.81 167.71 279.46 181.31 292.1 178.74 294.86 162.18 279.46 178.74 264.06"/><line class="cls-2" x1="607.87" y1="565.53" x2="607.87" y2="251.56"/><polygon class="cls-3" points="623.27 553.05 620.51 550.48 607.87 564.08 595.22 550.48 592.47 553.05 607.87 569.61 623.27 553.05"/><polygon class="cls-3" points="623.27 264.04 620.51 266.61 607.87 253 595.22 266.61 592.47 264.04 607.87 247.47 623.27 264.04"/><text class="cls-4" transform="translate(554.51 572.26)">3<tspan class="cls-5" x="15.3" y="0">5</tspan></text><text class="cls-6" transform="translate(160.03 325.23)">50</text></svg>