<svg id="Calque_1" data-name="Calque 1" xmlns="http://www.w3.org/2000/svg" viewBox="0 0 800 800"><defs><style>.cls-1{fill:#fff;stroke-miterlimit:10;stroke-width:5px;}.cls-1,.cls-2{stroke:#1a1916;}.cls-2{fill:none;stroke-linecap:round;stroke-linejoin:round;stroke-width:3.16px;}.cls-3{fill:#1a1916;}.cls-4{font-size:30.43px;fill:#9d876d;font-family:Montserrat-Regular, Montserrat;}</style></defs><title>Plan de travail 29</title><rect class="cls-1" x="253" y="251.25" width="293.99" height="293.99" transform="translate(798.25 -1.75) rotate(90)"/><line class="cls-2" x1="528.5" y1="300.18" x2="271.5" y2="300.18"/><polygon class="cls-3" points="512.82 280.82 509.59 284.29 526.68 300.18 509.59 316.07 512.82 319.53 533.63 300.18 512.82 280.82"/><polygon class="cls-3" points="287.18 280.82 290.41 284.29 273.32 300.18 290.41 316.07 287.18 319.53 266.37 300.18 287.18 280.82"/><line class="cls-2" x1="471.6" y1="527.59" x2="471.6" y2="268.91"/><polygon class="cls-3" points="490.96 511.91 487.49 508.68 471.6 525.77 455.71 508.68 452.25 511.91 471.6 532.73 490.96 511.91"/><polygon class="cls-3" points="490.96 284.59 487.49 287.82 471.6 270.73 455.71 287.82 452.25 284.59 471.6 263.77 490.96 284.59"/><text class="cls-4" transform="translate(266.36 346.9)">6</text><text class="cls-4" transform="translate(434.01 534.55)">6</text></svg>