<svg id="Calque_1" data-name="Calque 1" xmlns="http://www.w3.org/2000/svg" viewBox="0 0 800 800"><defs><style>.cls-1{fill:#fff;stroke-miterlimit:10;stroke-width:5px;}.cls-1,.cls-2{stroke:#1a1a16;}.cls-2{fill:none;stroke-linecap:round;stroke-linejoin:round;stroke-width:3px;}.cls-3{fill:#1a1a16;}</style></defs><title>cdv 50x90</title><rect class="cls-1" x="117.99" y="243.33" width="564.01" height="313.34" transform="translate(0 800) rotate(-90)"/><line class="cls-2" x1="533.1" y1="221.74" x2="268.8" y2="221.74"/><polygon class="cls-3" points="518.19 203.34 515.12 206.63 531.38 221.74 515.12 236.84 518.19 240.14 537.99 221.74 518.19 203.34"/><polygon class="cls-3" points="283.71 203.34 286.78 206.63 270.53 221.74 286.78 236.84 283.71 240.14 263.92 221.74 283.71 203.34"/><line class="cls-2" x1="485.28" y1="660.07" x2="485.28" y2="140.7"/><polygon class="cls-3" points="503.68 645.16 500.39 642.09 485.28 658.34 470.17 642.09 466.88 645.16 485.28 664.95 503.68 645.16"/><polygon class="cls-3" points="503.68 155.61 500.39 158.68 485.28 142.43 470.17 158.68 466.88 155.61 485.28 135.82 503.68 155.61"/></svg>