<svg id="Calque_1" data-name="Calque 1" xmlns="http://www.w3.org/2000/svg" viewBox="0 0 800 800"><defs><style>.cls-1{fill:#fff;stroke-miterlimit:10;stroke-width:5px;}.cls-1,.cls-2{stroke:#1a1a16;}.cls-2{fill:none;stroke-linecap:round;stroke-linejoin:round;stroke-width:3px;}.cls-3{fill:#1a1a16;}.cls-4{font-size:77.63px;fill:#978367;font-family:Montserrat-Regular, Montserrat;}</style></defs><title>affiche a2</title><rect class="cls-1" x="142.8" y="233.58" width="514.39" height="332.84" transform="translate(800 0) rotate(90)"/><line class="cls-2" x1="546.41" y1="228.41" x2="253.59" y2="228.41"/><polygon class="cls-3" points="531.5 210 528.43 213.3 544.68 228.4 528.43 243.51 531.5 246.81 551.29 228.4 531.5 210"/><polygon class="cls-3" points="268.5 210 271.57 213.3 255.31 228.4 271.57 243.51 268.5 246.81 248.71 228.4 268.5 210"/><line class="cls-2" x1="481.06" y1="630.41" x2="481.06" y2="169.59"/><polygon class="cls-3" points="499.46 615.5 496.17 612.43 481.06 628.68 465.96 612.43 462.66 615.5 481.06 635.29 499.46 615.5"/><polygon class="cls-3" points="499.46 184.5 496.17 187.57 481.06 171.32 465.96 187.57 462.66 184.5 481.06 164.71 499.46 184.5"/><text class="cls-4" transform="translate(265.14 627.06)">A2</text></svg>