<svg id="Calque_1" data-name="Calque 1" xmlns="http://www.w3.org/2000/svg" viewBox="0 0 800 800"><defs><style>.cls-1{fill:#fff;stroke-miterlimit:10;stroke-width:5px;}.cls-1,.cls-2{stroke:#1a1916;}.cls-2{fill:none;stroke-linecap:round;stroke-linejoin:round;stroke-width:3.16px;}.cls-3{fill:#1a1916;}.cls-4{font-size:33.47px;fill:#9d876d;font-family:Montserrat-Regular, Montserrat;}</style></defs><title>Plan de travail 27</title><rect class="cls-1" x="238.3" y="236.55" width="323.39" height="323.39" transform="translate(798.25 -1.75) rotate(90)"/><line class="cls-2" x1="541.86" y1="290.37" x2="258.14" y2="290.37"/><polygon class="cls-3" points="526.18 271.01 522.95 274.48 540.05 290.37 522.95 306.26 526.18 309.73 547 290.37 526.18 271.01"/><polygon class="cls-3" points="273.82 271.01 277.05 274.48 259.95 290.37 277.05 306.26 273.82 309.73 253 290.37 273.82 271.01"/><line class="cls-2" x1="478.76" y1="541.04" x2="478.76" y2="255.46"/><polygon class="cls-3" points="498.12 525.36 494.65 522.13 478.76 539.22 462.87 522.13 459.4 525.36 478.76 546.17 498.12 525.36"/><polygon class="cls-3" points="498.12 271.14 494.65 274.37 478.76 257.28 462.87 274.37 459.4 271.14 478.76 250.33 498.12 271.14"/><text class="cls-4" transform="translate(253 341.76)">10</text><text class="cls-4" transform="translate(419.34 548.18)">10</text></svg>