<svg id="Calque_1" data-name="Calque 1" xmlns="http://www.w3.org/2000/svg" viewBox="0 0 800 800"><defs><style>.cls-1{fill:#fff;stroke-miterlimit:10;stroke-width:5px;}.cls-1,.cls-2{stroke:#1a1916;}.cls-2{fill:none;stroke-linecap:round;stroke-linejoin:round;stroke-width:3.16px;}.cls-3{fill:#1a1916;}.cls-4{font-size:45.83px;fill:#9d876d;font-family:Montserrat-Regular, Montserrat;}.cls-5{letter-spacing:0em;}.cls-6{letter-spacing:0.01em;}</style></defs><title>Plan de travail 22</title><rect class="cls-1" x="116.67" y="303.93" width="522.05" height="192.31" transform="translate(755.39 800.17) rotate(180)"/><line class="cls-2" x1="551.84" y1="482.36" x2="551.84" y2="317.8"/><polygon class="cls-3" points="571.2 466.68 567.73 463.45 551.84 480.55 535.95 463.45 532.48 466.68 551.84 487.5 571.2 466.68"/><polygon class="cls-3" points="571.2 333.49 567.73 336.72 551.84 319.62 535.95 336.72 532.48 333.49 551.84 312.67 571.2 333.49"/><line class="cls-2" x1="144.04" y1="355.76" x2="611.35" y2="355.76"/><polygon class="cls-3" points="159.72 375.12 162.95 371.65 145.86 355.77 162.95 339.88 159.72 336.41 138.91 355.77 159.72 375.12"/><polygon class="cls-3" points="595.66 375.12 592.44 371.65 609.53 355.77 592.44 339.88 595.66 336.41 616.48 355.77 595.66 375.12"/><text class="cls-4" transform="translate(427.51 481.02)"><tspan class="cls-5">3</tspan><tspan class="cls-6" x="25.62" y="0">2</tspan><tspan x="52.11" y="0">.5</tspan></text><text class="cls-4" transform="translate(141.79 416.42)">80 </text></svg>