<svg id="Calque_1" data-name="Calque 1" xmlns="http://www.w3.org/2000/svg" viewBox="0 0 800 800"><defs><style>.cls-1{fill:#e64b4b;stroke:#fff;stroke-miterlimit:10;stroke-width:2px;}.cls-2{fill:none;stroke:#9d876d;stroke-linecap:round;stroke-linejoin:round;stroke-width:3.16px;}.cls-3,.cls-4{fill:#9d876d;}.cls-4{font-size:40px;font-family:Montserrat-Regular, Montserrat;}.cls-5{fill:#fff;}</style></defs><title>Plan de travail 129</title><rect class="cls-1" x="253.94" y="266.28" width="265.48" height="265.48"/><line class="cls-2" x1="259.07" y1="560.62" x2="514.29" y2="560.62"/><polygon class="cls-3" points="274.76 579.97 277.99 576.51 260.89 560.62 277.99 544.73 274.76 541.26 253.94 560.62 274.76 579.97"/><polygon class="cls-3" points="498.6 579.97 495.37 576.51 512.47 560.62 495.37 544.73 498.6 541.26 519.42 560.62 498.6 579.97"/><line class="cls-2" x1="227.75" y1="271.42" x2="227.75" y2="526.63"/><polygon class="cls-3" points="208.39 287.1 211.86 290.33 227.75 273.23 243.64 290.33 247.1 287.1 227.75 266.28 208.39 287.1"/><polygon class="cls-3" points="208.39 510.94 211.86 507.72 227.75 524.81 243.64 507.72 247.1 510.94 227.75 531.76 208.39 510.94"/><text class="cls-4" transform="translate(172.17 424.37) scale(0.98 1)">12</text><text class="cls-4" transform="translate(368.54 606.47) scale(0.98 1)">12</text><path class="cls-5" d="M347.82,419.64a42.11,42.11,0,0,1,.64-5.39,11.61,11.61,0,0,1,11.11-8.77c4-.06,7.94,0,12,0,0-.42.05-.76.07-1.1.92-18-2.2-35.31-8.16-52.24a20.85,20.85,0,0,1,20.4-28.25,21.07,21.07,0,0,1,19.53,28.32c-2.66,7.36-5.25,14.76-6.54,22.5a122,122,0,0,0-1.53,14.41c-.26,5.38-.06,10.78-.06,16.35h11.44a11.81,11.81,0,0,1,12.18,12.13v2.05h2.37a7.06,7.06,0,0,1,7.07,7.06c0,3.54,0,7.09,0,10.63a7.08,7.08,0,0,1-7.38,7.35H346.2c-4.7,0-7.64-3-7.64-7.68q0-5,0-9.92a7.1,7.1,0,0,1,7.4-7.45Zm42.74-29.81c0-.47,0-.82,0-1.17.51-4.81.8-9.65,1.58-14.41a119.89,119.89,0,0,1,6.57-22.86,17.7,17.7,0,0,0,1.09-8.91,16.61,16.61,0,0,0-19.52-13.77,16.32,16.32,0,0,0-12.94,19.69c.91,3.77,2.29,7.43,3.41,11.16a124.05,124.05,0,0,1,5.46,29.27,7.21,7.21,0,0,0,.17,1ZM383.46,440h37.32c2,0,2.84-.87,2.84-2.78q0-5,0-10c0-1.87-.88-2.77-2.74-2.77H346c-1.84,0-2.72.9-2.73,2.78,0,3.19,0,6.38,0,9.57,0,2.51.73,3.24,3.22,3.24Zm-30.64-20.4h61.36c0-.64,0-1.18,0-1.73,0-4.71-2.95-7.64-7.68-7.64H360.06a7,7,0,0,0-7.22,6A22.34,22.34,0,0,0,352.82,419.56Zm23.6-14.18h14V394.65h-14Z"/><path d="M390.56,389.83H376.38a7.21,7.21,0,0,1-.17-1,124.05,124.05,0,0,0-5.46-29.27c-1.12-3.73-2.5-7.39-3.41-11.16a16.32,16.32,0,0,1,12.94-19.69,16.61,16.61,0,0,1,19.52,13.77,17.7,17.7,0,0,1-1.09,8.91,119.89,119.89,0,0,0-6.57,22.86c-.78,4.76-1.07,9.6-1.58,14.41C390.53,389,390.56,389.36,390.56,389.83ZM394.1,350a2.44,2.44,0,0,0-1.89-2.6,2.31,2.31,0,0,0-2.68,1.61c-1.56,4.7-3.07,9.41-4.57,14.13a2.24,2.24,0,0,0,.93,2.7c1.45,1,3.1.21,3.7-1.68,1.39-4.38,2.81-8.75,4.22-13.12C393.94,350.6,394,350.18,394.1,350Zm-4.79-9.7a2.32,2.32,0,0,0,2.33,2.32,2.36,2.36,0,1,0-.07-4.71A2.33,2.33,0,0,0,389.31,340.27Z"/><path d="M383.46,440h-37c-2.49,0-3.22-.73-3.22-3.24,0-3.19,0-6.38,0-9.57,0-1.88.89-2.78,2.73-2.78h74.87c1.86,0,2.74.9,2.74,2.77q0,5,0,10c0,1.91-.89,2.78-2.84,2.78Z"/><path d="M352.82,419.56a22.34,22.34,0,0,1,0-3.38,7,7,0,0,1,7.22-6h46.43c4.73,0,7.68,2.93,7.68,7.64,0,.55,0,1.09,0,1.73Z"/><path d="M376.42,405.38V394.65h14v10.73Z"/><path class="cls-5" d="M394.1,350c-.06.21-.16.63-.29,1-1.41,4.37-2.83,8.74-4.22,13.12-.6,1.89-2.25,2.66-3.7,1.68a2.24,2.24,0,0,1-.93-2.7c1.5-4.72,3-9.43,4.57-14.13a2.31,2.31,0,0,1,2.68-1.61A2.44,2.44,0,0,1,394.1,350Z"/><path class="cls-5" d="M389.31,340.27a2.33,2.33,0,0,1,2.26-2.39,2.36,2.36,0,1,1,.07,4.71A2.32,2.32,0,0,1,389.31,340.27Z"/></svg>