<svg id="Calque_1" data-name="Calque 1" xmlns="http://www.w3.org/2000/svg" viewBox="0 0 800 800"><defs><style>.cls-1,.cls-4{fill:#fff;}.cls-1,.cls-2{stroke:#1a1916;}.cls-1{stroke-miterlimit:10;stroke-width:5px;}.cls-2{fill:none;stroke-linecap:round;stroke-linejoin:round;stroke-width:3.16px;}.cls-3{fill:#1a1916;}.cls-5{font-size:53.96px;}.cls-5,.cls-6{fill:#9d876d;font-family:Montserrat-Regular, Montserrat;}.cls-6{font-size:53.21px;}.cls-7{letter-spacing:0em;}</style></defs><title>Plan de travail 19</title><rect class="cls-1" x="84.94" y="344.74" width="611.78" height="152.94" transform="translate(812.04 30.39) rotate(90)"/><line class="cls-2" x1="455.21" y1="217.14" x2="326.44" y2="217.14"/><polygon class="cls-3" points="439.53 197.78 436.3 201.25 453.4 217.13 436.3 233.03 439.53 236.49 460.35 217.13 439.53 197.78"/><polygon class="cls-3" points="342.13 197.78 345.36 201.25 328.26 217.13 345.36 233.03 342.13 236.49 321.31 217.13 342.13 197.78"/><line class="cls-2" x1="391.39" y1="695.91" x2="391.39" y2="146.52"/><polygon class="cls-3" points="410.75 680.23 407.28 677 391.39 694.1 375.5 677 372.03 680.23 391.39 701.05 410.75 680.23"/><polygon class="cls-3" points="410.75 162.2 407.28 165.43 391.39 148.34 375.5 165.43 372.03 162.2 391.39 141.38 410.75 162.2"/><rect class="cls-4" x="332.49" y="602.24" width="120.37" height="59.59"/><rect class="cls-4" x="332.49" y="246.14" width="120.37" height="59.59"/><text class="cls-5" transform="translate(358.46 295.72)">50</text><text class="cls-6" transform="translate(344.44 649.06) scale(0.98 1)"><tspan class="cls-7">2</tspan><tspan x="30.12" y="0">00 </tspan></text></svg>