<svg id="Calque_1" data-name="Calque 1" xmlns="http://www.w3.org/2000/svg" viewBox="0 0 800 800"><defs><style>.cls-1{fill:#fff;stroke-miterlimit:10;stroke-width:5px;}.cls-1,.cls-2{stroke:#1a1916;}.cls-2{fill:none;stroke-linecap:round;stroke-linejoin:round;stroke-width:3.16px;}.cls-3{fill:#1a1916;}.cls-4{font-size:27.05px;fill:#9d876d;font-family:Montserrat-Regular, Montserrat;}</style></defs><title>Plan de travail 28</title><rect class="cls-1" x="269.32" y="267.57" width="261.35" height="261.35" transform="translate(798.25 -1.75) rotate(90)"/><line class="cls-2" x1="513.66" y1="311.07" x2="286.34" y2="311.07"/><polygon class="cls-3" points="497.98 291.71 494.75 295.18 511.85 311.06 494.75 326.95 497.98 330.42 518.8 311.06 497.98 291.71"/><polygon class="cls-3" points="302.02 291.71 305.25 295.18 288.15 311.06 305.25 326.95 302.02 330.42 281.2 311.06 302.02 291.71"/><line class="cls-2" x1="463.65" y1="512.66" x2="463.65" y2="283.84"/><polygon class="cls-3" points="483.01 496.98 479.54 493.75 463.65 510.85 447.76 493.75 444.3 496.98 463.65 517.79 483.01 496.98"/><polygon class="cls-3" points="483.01 299.52 479.54 302.75 463.65 285.66 447.76 302.75 444.3 299.52 463.65 278.71 483.01 299.52"/><text class="cls-4" transform="translate(281.2 352.6)">5</text><text class="cls-4" transform="translate(430.23 519.42)">5</text></svg>