<svg id="Calque_1" data-name="Calque 1" xmlns="http://www.w3.org/2000/svg" viewBox="0 0 800 800"><defs><style>.cls-1{fill:#fff;stroke-miterlimit:10;stroke-width:5px;}.cls-1,.cls-2{stroke:#1a1a16;}.cls-2{fill:none;stroke-linecap:round;stroke-linejoin:round;stroke-width:2.44px;}.cls-3{fill:#1a1a16;}.cls-4{font-size:77.63px;fill:#978367;font-family:Montserrat-Regular, Montserrat;}</style></defs><title>dl paysage</title><rect class="cls-1" x="303.25" y="193.7" width="193.5" height="412.6" transform="translate(0 800) rotate(-90)"/><line class="cls-2" x1="260.68" y1="322.36" x2="260.68" y2="483.36"/><polygon class="cls-3" points="245.74 334.47 248.42 336.96 260.68 323.77 272.95 336.96 275.62 334.47 260.68 318.4 245.74 334.47"/><polygon class="cls-3" points="245.74 471.26 248.42 468.77 260.68 481.96 272.95 468.77 275.62 471.26 260.68 487.33 245.74 471.26"/><line class="cls-2" x1="587.07" y1="358.13" x2="212.93" y2="358.13"/><polygon class="cls-3" points="574.96 343.19 572.47 345.86 585.66 358.13 572.47 370.39 574.96 373.07 591.03 358.13 574.96 343.19"/><polygon class="cls-3" points="225.04 343.19 227.53 345.86 214.34 358.13 227.53 370.39 225.04 373.07 208.97 358.13 225.04 343.19"/><text class="cls-4" transform="translate(462.62 468.77)">DL</text></svg>