<svg id="Calque_1" data-name="Calque 1" xmlns="http://www.w3.org/2000/svg" viewBox="0 0 800 800"><defs><style>.cls-1{fill:#fff;stroke-miterlimit:10;stroke-width:5px;}.cls-1,.cls-2{stroke:#1a1916;}.cls-2{fill:none;stroke-linecap:round;stroke-linejoin:round;stroke-width:3.16px;}.cls-3{fill:#1a1916;}.cls-4{font-size:31.55px;fill:#9d876d;font-family:Montserrat-Regular, Montserrat;letter-spacing:0.01em;}.cls-5{letter-spacing:0em;}</style></defs><title>Plan de travail 65</title><rect class="cls-1" x="252.7" y="283.38" width="304.81" height="304.81" transform="translate(840.9 30.68) rotate(90)"/><line class="cls-2" x1="538.53" y1="334.11" x2="271.69" y2="334.11"/><polygon class="cls-3" points="522.84 314.75 519.62 318.21 536.71 334.1 519.62 349.99 522.84 353.46 543.66 334.1 522.84 314.75"/><polygon class="cls-3" points="287.38 314.75 290.61 318.21 273.51 334.1 290.61 349.99 287.38 353.46 266.56 334.1 287.38 314.75"/><line class="cls-2" x1="479.35" y1="570.08" x2="479.35" y2="301.5"/><polygon class="cls-3" points="498.7 554.39 495.24 551.16 479.35 568.26 463.46 551.16 459.99 554.39 479.35 575.21 498.7 554.39"/><polygon class="cls-3" points="498.7 317.18 495.24 320.41 479.35 303.31 463.46 320.41 459.99 317.18 479.35 296.36 498.7 317.18"/><text class="cls-4" transform="translate(266.56 382.54)">6<tspan class="cls-5" x="19.53" y="0">.5</tspan></text><text class="cls-4" transform="translate(409.1 575.53)">6<tspan class="cls-5" x="19.53" y="0">.5</tspan></text></svg>