<svg id="Calque_1" data-name="Calque 1" xmlns="http://www.w3.org/2000/svg" viewBox="0 0 800 800"><defs><style>.cls-1{fill:#fff;stroke-miterlimit:10;stroke-width:5px;}.cls-1,.cls-2{stroke:#1a1a16;}.cls-2{fill:none;stroke-linecap:round;stroke-linejoin:round;stroke-width:3.16px;}.cls-3{fill:#1a1a16;}.cls-4{font-size:77.63px;fill:#978367;font-family:Montserrat-Regular, Montserrat;}</style></defs><title>a5 paysage</title><rect class="cls-1" x="129.46" y="224.95" width="541.08" height="350.11"/><line class="cls-2" x1="219.51" y1="245.99" x2="219.51" y2="554.01"/><polygon class="cls-3" points="200.15 261.68 203.62 264.91 219.5 247.81 235.4 264.91 238.86 261.68 219.5 240.86 200.15 261.68"/><polygon class="cls-3" points="200.15 538.32 203.62 535.09 219.5 552.19 235.4 535.09 238.86 538.32 219.5 559.14 200.15 538.32"/><line class="cls-2" x1="642.36" y1="314.73" x2="157.64" y2="314.73"/><polygon class="cls-3" points="626.67 295.38 623.45 298.84 640.54 314.73 623.45 330.62 626.67 334.09 647.49 314.73 626.67 295.38"/><polygon class="cls-3" points="173.33 295.38 176.56 298.84 159.46 314.73 176.56 330.62 173.33 334.09 152.51 314.73 173.33 295.38"/><text class="cls-4" transform="translate(528.59 536.61)">A5</text></svg>