<svg id="Calque_1" data-name="Calque 1" xmlns="http://www.w3.org/2000/svg" viewBox="0 0 800 800"><defs><style>.cls-1{fill:#fff;stroke-miterlimit:10;stroke-width:5px;}.cls-1,.cls-2{stroke:#1a1916;}.cls-2{fill:none;stroke-linecap:round;stroke-linejoin:round;stroke-width:3.16px;}.cls-3{fill:#1a1916;}.cls-4{font-size:45.45px;fill:#9d876d;font-family:Montserrat-Regular, Montserrat;}</style></defs><title>Plan de travail 30</title><rect class="cls-1" x="177.58" y="178.66" width="439.18" height="439.18" transform="translate(795.42 1.08) rotate(90)"/><line class="cls-2" x1="591.66" y1="251.75" x2="202.68" y2="251.75"/><polygon class="cls-3" points="575.98 232.39 572.75 235.86 589.85 251.75 572.75 267.64 575.98 271.1 596.8 251.75 575.98 232.39"/><polygon class="cls-3" points="218.36 232.39 221.59 235.86 204.5 251.75 221.59 267.64 218.36 271.1 197.55 251.75 218.36 232.39"/><line class="cls-2" x1="504.13" y1="594" x2="504.13" y2="202.5"/><polygon class="cls-3" points="523.49 578.32 520.02 575.09 504.13 592.18 488.24 575.09 484.77 578.32 504.13 599.13 523.49 578.32"/><polygon class="cls-3" points="523.49 218.19 520.02 221.41 504.13 204.32 488.24 221.41 484.77 218.19 504.13 197.37 523.49 218.19"/><text class="cls-4" transform="translate(197.55 321.54)">50</text><text class="cls-4" transform="translate(422.52 601.86)">50</text></svg>