<svg id="Calque_1" data-name="Calque 1" xmlns="http://www.w3.org/2000/svg" viewBox="0 0 800 800"><defs><style>.cls-1{fill:#fff;stroke-miterlimit:10;stroke-width:5px;}.cls-1,.cls-2{stroke:#1a1a16;}.cls-2{fill:none;stroke-linecap:round;stroke-linejoin:round;stroke-width:3px;}.cls-3{fill:#1a1a16;}</style></defs><title>cdv 90x50</title><rect class="cls-1" x="117.99" y="243.33" width="564.01" height="313.34"/><line class="cls-2" x1="222.31" y1="268.23" x2="222.31" y2="532.54"/><polygon class="cls-3" points="203.9 283.14 207.2 286.21 222.3 269.96 237.41 286.21 240.71 283.14 222.3 263.35 203.9 283.14"/><polygon class="cls-3" points="203.9 517.63 207.2 514.56 222.3 530.81 237.41 514.56 240.71 517.63 222.3 537.42 203.9 517.63"/><line class="cls-2" x1="660.64" y1="316.06" x2="141.27" y2="316.06"/><polygon class="cls-3" points="645.73 297.65 642.66 300.95 658.91 316.05 642.66 331.16 645.73 334.46 665.52 316.05 645.73 297.65"/><polygon class="cls-3" points="156.18 297.65 159.25 300.95 142.99 316.05 159.25 331.16 156.18 334.46 136.39 316.05 156.18 297.65"/></svg>