<svg id="Calque_1" data-name="Calque 1" xmlns="http://www.w3.org/2000/svg" viewBox="0 0 800 800"><defs><style>.cls-1{fill:#fff;stroke-miterlimit:10;stroke-width:5px;}.cls-1,.cls-2{stroke:#1a1a16;}.cls-2{fill:none;stroke-linecap:round;stroke-linejoin:round;stroke-width:3.62px;}.cls-3{fill:#1a1a16;}.cls-4{font-size:77.63px;fill:#978367;font-family:Montserrat-Regular, Montserrat;}.cls-5{letter-spacing:-0.01em;}</style></defs><title>a4 paysage</title><rect class="cls-1" x="89.56" y="199.13" width="620.89" height="401.75"/><line class="cls-2" x1="192.88" y1="223.28" x2="192.88" y2="576.72"/><polygon class="cls-3" points="170.67 241.28 174.65 244.98 192.88 225.36 211.12 244.98 215.09 241.28 192.88 217.39 170.67 241.28"/><polygon class="cls-3" points="170.67 558.73 174.65 555.02 192.88 574.64 211.12 555.02 215.09 558.73 192.88 582.61 170.67 558.73"/><line class="cls-2" x1="678.11" y1="302.16" x2="121.89" y2="302.16"/><polygon class="cls-3" points="660.11 279.94 656.4 283.92 676.02 302.15 656.4 320.39 660.11 324.37 684 302.15 660.11 279.94"/><polygon class="cls-3" points="139.89 279.94 143.6 283.92 123.98 302.15 143.6 320.39 139.89 324.37 116 302.15 139.89 279.94"/><text class="cls-4" transform="translate(541.45 556.56)"><tspan class="cls-5">A</tspan><tspan x="54.5" y="0">4</tspan></text></svg>