<svg id="Calque_1" data-name="Calque 1" xmlns="http://www.w3.org/2000/svg" viewBox="0 0 800 800"><defs><style>.cls-1{fill:#fff;stroke-miterlimit:10;stroke-width:5px;}.cls-1,.cls-2{stroke:#1a1916;}.cls-2{fill:none;stroke-linecap:round;stroke-linejoin:round;stroke-width:3.16px;}.cls-3{fill:#1a1916;}.cls-4{font-size:23.15px;fill:#9d876d;font-family:Montserrat-Regular, Montserrat;}</style></defs><title>Plan de travail 92</title><rect class="cls-1" x="273.42" y="309.88" width="223.65" height="223.65" transform="translate(806.95 36.46) rotate(90)"/><line class="cls-2" x1="481.77" y1="347.1" x2="288.72" y2="347.1"/><polygon class="cls-3" points="466.09 327.74 462.86 331.21 479.95 347.1 462.86 362.99 466.09 366.45 486.9 347.1 466.09 327.74"/><polygon class="cls-3" points="304.4 327.74 307.63 331.21 290.54 347.1 307.63 362.99 304.4 366.45 283.58 347.1 304.4 327.74"/><line class="cls-2" x1="439.71" y1="518.87" x2="439.71" y2="324.54"/><polygon class="cls-3" points="459.07 503.19 455.6 499.96 439.72 517.05 423.82 499.96 420.36 503.19 439.72 524 459.07 503.19"/><polygon class="cls-3" points="459.07 340.22 455.6 343.45 439.72 326.36 423.82 343.45 420.36 340.22 439.72 319.41 459.07 340.22"/><text class="cls-4" transform="translate(283.59 386.64)">4</text><text class="cls-4" transform="translate(398.17 523.24)">4</text></svg>