<svg id="Calque_1" data-name="Calque 1" xmlns="http://www.w3.org/2000/svg" viewBox="0 0 800 800"><defs><style>.cls-1{fill:#d6d636;stroke:#fff;stroke-miterlimit:10;stroke-width:2px;}.cls-2{fill:none;stroke:#9d876d;stroke-linecap:round;stroke-linejoin:round;stroke-width:3.16px;}.cls-3,.cls-4{fill:#9d876d;}.cls-4{font-size:40px;font-family:Montserrat-Regular, Montserrat;}.cls-5{fill:#fff;}</style></defs><title>Plan de travail 133</title><rect class="cls-1" x="271.38" y="266.28" width="265.48" height="265.48"/><line class="cls-2" x1="276.52" y1="560.62" x2="531.73" y2="560.62"/><polygon class="cls-3" points="292.2 579.97 295.43 576.51 278.33 560.62 295.43 544.73 292.2 541.26 271.38 560.62 292.2 579.97"/><polygon class="cls-3" points="516.04 579.97 512.82 576.51 529.91 560.62 512.82 544.73 516.04 541.26 536.86 560.62 516.04 579.97"/><line class="cls-2" x1="245.19" y1="271.42" x2="245.19" y2="526.63"/><polygon class="cls-3" points="225.83 287.1 229.3 290.33 245.19 273.23 261.08 290.33 264.55 287.1 245.19 266.28 225.83 287.1"/><polygon class="cls-3" points="225.83 510.94 229.3 507.72 245.19 524.81 261.08 507.72 264.55 510.94 245.19 531.76 225.83 510.94"/><text class="cls-4" transform="translate(189.61 424.37) scale(0.98 1)">12</text><text class="cls-4" transform="translate(385.98 606.47) scale(0.98 1)">12</text><path class="cls-5" d="M365.26,419.64a42.11,42.11,0,0,1,.64-5.39A11.61,11.61,0,0,1,377,405.48c4-.06,7.94,0,12,0,0-.42.05-.76.07-1.1.92-18-2.2-35.31-8.16-52.24a20.85,20.85,0,0,1,20.4-28.25,21.07,21.07,0,0,1,19.53,28.32c-2.66,7.36-5.25,14.76-6.54,22.5a124.16,124.16,0,0,0-1.53,14.41c-.26,5.38-.06,10.78-.06,16.35h11.44a11.81,11.81,0,0,1,12.18,12.13c0,.63,0,1.25,0,2.05h2.37a7.08,7.08,0,0,1,7.08,7.06c0,3.54,0,7.09,0,10.63a7.07,7.07,0,0,1-7.37,7.35H363.65c-4.71,0-7.65-3-7.65-7.68q0-5,0-9.92a7.1,7.1,0,0,1,7.4-7.45ZM408,389.83c0-.47,0-.82,0-1.17.51-4.81.81-9.65,1.59-14.41a119.14,119.14,0,0,1,6.56-22.86,17.59,17.59,0,0,0,1.09-8.91,16.61,16.61,0,0,0-19.52-13.77,16.32,16.32,0,0,0-12.94,19.69c.92,3.77,2.3,7.43,3.41,11.16a124.05,124.05,0,0,1,5.46,29.27,9.09,9.09,0,0,0,.17,1ZM400.9,440h37.32c2,0,2.84-.87,2.85-2.78q0-5,0-10c0-1.87-.89-2.77-2.75-2.77H363.46c-1.85,0-2.73.9-2.73,2.78q0,4.78,0,9.57c0,2.51.73,3.24,3.22,3.24Zm-30.64-20.4h61.36v-1.73c0-4.71-3-7.64-7.69-7.64H377.51a7,7,0,0,0-7.23,6A23.72,23.72,0,0,0,370.26,419.56Zm23.6-14.18h14V394.65h-14Z"/><path d="M408,389.83H393.82a9.09,9.09,0,0,1-.17-1,124.05,124.05,0,0,0-5.46-29.27c-1.11-3.73-2.49-7.39-3.41-11.16a16.32,16.32,0,0,1,12.94-19.69,16.61,16.61,0,0,1,19.52,13.77,17.59,17.59,0,0,1-1.09,8.91,119.14,119.14,0,0,0-6.56,22.86c-.78,4.76-1.08,9.6-1.59,14.41C408,389,408,389.36,408,389.83ZM411.54,350a2.43,2.43,0,0,0-1.89-2.6A2.3,2.3,0,0,0,407,349c-1.57,4.7-3.08,9.41-4.57,14.13a2.24,2.24,0,0,0,.92,2.7c1.45,1,3.1.21,3.7-1.68,1.39-4.38,2.81-8.75,4.22-13.12C411.38,350.6,411.48,350.18,411.54,350Zm-4.79-9.7a2.33,2.33,0,0,0,2.34,2.32,2.36,2.36,0,1,0-.07-4.71A2.33,2.33,0,0,0,406.75,340.27Z"/><path d="M400.9,440h-37c-2.49,0-3.22-.73-3.22-3.24q0-4.79,0-9.57c0-1.88.88-2.78,2.73-2.78h74.86c1.86,0,2.74.9,2.75,2.77q0,5,0,10c0,1.91-.89,2.78-2.85,2.78Z"/><path d="M370.26,419.56a23.72,23.72,0,0,1,0-3.38,7,7,0,0,1,7.23-6h46.42c4.73,0,7.68,2.93,7.69,7.64v1.73Z"/><path d="M393.86,405.38V394.65h14v10.73Z"/><path class="cls-5" d="M411.54,350c-.06.21-.16.63-.29,1-1.41,4.37-2.83,8.74-4.22,13.12-.6,1.89-2.25,2.66-3.7,1.68a2.24,2.24,0,0,1-.92-2.7c1.49-4.72,3-9.43,4.57-14.13a2.3,2.3,0,0,1,2.67-1.61A2.43,2.43,0,0,1,411.54,350Z"/><path class="cls-5" d="M406.75,340.27a2.33,2.33,0,0,1,2.27-2.39,2.36,2.36,0,1,1,.07,4.71A2.33,2.33,0,0,1,406.75,340.27Z"/></svg>