<svg id="Calque_1" data-name="Calque 1" xmlns="http://www.w3.org/2000/svg" viewBox="0 0 800 800"><defs><style>.cls-1,.cls-3{fill:#fff;}.cls-1{stroke:#7b6f56;stroke-miterlimit:10;stroke-width:8.9px;}.cls-2{fill:#7b6f56;}.cls-4{fill:#e31854;}.cls-5{font-size:30.1px;fill:#9d876d;font-family:Montserrat-Regular, Montserrat;}.cls-6{letter-spacing:-0.02em;}.cls-7{letter-spacing:-0.01em;}.cls-8{letter-spacing:-0.03em;}</style></defs><title>Plan de travail 174</title><polygon class="cls-1" points="638.69 640.95 156.8 640.95 156.8 159.06 490.81 159.06 638.69 266.01 638.69 640.95"/><polygon class="cls-2" points="641.22 283.19 468.58 283.19 468.53 159.19 473.07 159.19 641.27 278.94 641.22 283.19"/><polygon class="cls-3" points="634.23 274.46 478.54 274.46 478.54 163.45 489.37 163.45 634.3 263.43 634.23 274.46"/><polygon class="cls-4" points="643.2 263.77 492.22 263.77 492.22 154.56 643.2 263.77"/><text class="cls-5" transform="translate(182.88 549.21) scale(0.98 1)">80GR <tspan class="cls-6" x="92.06" y="0">C</tspan><tspan x="113.16" y="0">ARBONE – </tspan><tspan x="0" y="36.13">TRI</tspan><tspan class="cls-7" x="48.14" y="36.13">P</tspan><tspan x="69.45" y="36.13">LI</tspan><tspan class="cls-6" x="96.27" y="36.13">C</tspan><tspan class="cls-8" x="117.37" y="36.13">AT</tspan><tspan x="154.13" y="36.13">A BLANC ET</tspan><tspan x="0" y="72.25">ROSE </tspan></text></svg>