<svg id="Calque_1" data-name="Calque 1" xmlns="http://www.w3.org/2000/svg" xmlns:xlink="http://www.w3.org/1999/xlink" viewBox="0 0 800 800"><defs><style>.cls-1,.cls-2{fill:#ebe7e2;}.cls-1,.cls-13{stroke:#1a1916;stroke-miterlimit:10;stroke-width:5px;}.cls-3{clip-path:url(#clip-path);}.cls-4{fill:#fbecd3;}.cls-5{fill:#9daea4;}.cls-6{fill:#799685;}.cls-7{fill:#de8c0c;}.cls-8{fill:#f28c01;}.cls-9{fill:#fdfdfe;}.cls-10{fill:#8c3414;}.cls-11{fill:#cf5516;}.cls-12{fill:#494020;}.cls-13{fill:none;}</style><clipPath id="clip-path"><rect class="cls-1" x="125.34" y="178.06" width="546.58" height="223.11"/></clipPath></defs><title>Plan de travail 14</title><rect class="cls-1" x="113.73" y="162.65" width="569.81" height="253.94"/><rect class="cls-1" x="165.01" y="417.03" width="27.87" height="231.29"/><rect class="cls-1" x="604.62" y="417.03" width="27.87" height="231.29"/><rect class="cls-2" x="125.34" y="178.06" width="546.58" height="223.11"/><g class="cls-3"><rect class="cls-4" x="115.21" y="45.66" width="585.12" height="585.12"/><rect class="cls-5" x="115.21" y="396.24" width="585.12" height="234.54"/><path class="cls-6" d="M115.21,454s28.15.78,56.24-17.16S221.38,415,244,415s20.29,6.24,48.37,0,57.73-10.14,82.7-9.36,28.87-3.12,43.69,5.46,72.55,22.41,91.28,18.62,23.94,4,45.12,10.25,32.11-28.31,54.74-10.25,27.3,14.93,39.79,28.19,7.8,15.61,23.4,20.29,27.24,8.58,27.24,8.58v-90.5H115.21Z"/><circle class="cls-7" cx="391.44" cy="250.94" r="56.26"/><circle class="cls-6" cx="377.76" cy="473.87" r="41.41"/><path class="cls-8" d="M700.33,211.43s-16.24-9.36-26.19-8.19-14.63,16.39-30.43,20.48-5.27,12.3-45.64,27.22-38.31,23.69-73.29,37.74-59.31,43.73-112.36,49.54-113.49,58-113.49,58h401.4Z"/><path class="cls-9" d="M408.12,224.64s27.42,2.16,52.68,0,28.34,1.54,35.73,0-8.62-7.09-17.86-9.24-12.94,6.19-22.19,5.1-6.47-3.56-17.25-2.33-11.09,3.7-19.1,3.7S406.25,224.51,408.12,224.64Z"/><path class="cls-9" d="M175.45,290.44a182.41,182.41,0,0,0,28,0c17.06-1.14,22.74.63,35.25.51s15.53,1.65,18.95,0-8.34-.89-16.3-3.92-8.34-6.59-17-4.62-4.17,6.13-15.16,1.59-9.47-8.72-17.43-4.93-3.79,6.44-16.3,7.2-18.19,2.27-15.16,3S175.45,290.44,175.45,290.44Z"/><path class="cls-10" d="M115.21,250.94s4.71,11.7,24.6,16.38,31.08-1.46,51,20.77,33.27,35.39,69.54,38.9,3.51.23,60.84,11.23,45.68,1.85,86.61,15.2,106.44,42.82,147.39,42.82H115.21Z"/><path class="cls-11" d="M349.24,396.24s15.21-10.75,40.95-15.43,25.52,9.36,72.43-7.6,52.1-26.12,68.48-24.56,19.51,11.7,39,13.26,15.6,7.8,39-1.56,31.2-36.08,50.71-36.76,40.5-20.19,40.5-20.19v92.84Z"/><path class="cls-12" d="M115.21,547.59c11.36-6.65,110.09,9.42,208.27,45,101.61,36.8,113.51,26.91,170.84,25.74s206,12.46,206,12.46H115.21Z"/><polygon class="cls-12" points="130.67 473.87 115.21 547.59 146.13 547.59 130.67 473.87"/><polygon class="cls-12" points="149.05 486.17 134.8 554.14 163.3 554.14 149.05 486.17"/><polygon class="cls-12" points="168.36 481.76 152.9 555.49 183.82 555.49 168.36 481.76"/><polygon class="cls-12" points="515.09 547.64 499.63 621.36 530.55 621.36 515.09 547.64"/><polygon class="cls-12" points="552.78 555.53 537.32 629.26 568.24 629.26 552.78 555.53"/><polygon class="cls-12" points="219.55 497.73 204.09 571.46 235.01 571.46 219.55 497.73"/><polygon class="cls-12" points="241.2 503.7 226.61 573.29 255.79 573.29 241.2 503.7"/><polygon class="cls-12" points="185.63 510.73 174.75 562.6 196.51 562.6 185.63 510.73"/><polygon class="cls-12" points="199.09 518.63 189.28 565.38 208.89 565.38 199.09 518.63"/><polygon class="cls-12" points="264.32 532.52 253.45 584.4 275.2 584.4 264.32 532.52"/><polygon class="cls-12" points="491.23 570.52 480.36 622.39 502.11 622.39 491.23 570.52"/><polygon class="cls-12" points="281.29 544.38 271.45 591.32 291.13 591.32 281.29 544.38"/><polygon class="cls-12" points="293.5 555.34 284.87 596.49 302.13 596.49 293.5 555.34"/><polygon class="cls-12" points="308.54 569.12 302.13 599.68 314.95 599.68 308.54 569.12"/><polygon class="cls-12" points="533.74 591.32 527.33 621.89 540.15 621.89 533.74 591.32"/><polygon class="cls-12" points="571.62 592.4 565.21 622.96 578.03 622.96 571.62 592.4"/><path class="cls-9" d="M655.34,357.34H628.48c-10.12,0-20.59,1.57-19.89-1.56s11.51.78,19.54-3.52,11.51-8.22,25.12-3.13,24.07,7.82,17.09,8.61A68.55,68.55,0,0,1,655.34,357.34Z"/></g><rect class="cls-13" x="125.34" y="178.06" width="546.58" height="223.11"/><rect class="cls-1" x="144.11" y="629.74" width="65.03" height="18.58"/><rect class="cls-1" x="586.04" y="629.74" width="65.03" height="18.58"/></svg>