<svg id="Calque_1" data-name="Calque 1" xmlns="http://www.w3.org/2000/svg" viewBox="0 0 800 800"><defs><style>.cls-1{fill:#dedede;}.cls-2,.cls-8{fill:none;}.cls-2{stroke:#7b6f56;stroke-miterlimit:10;stroke-width:8.9px;}.cls-3{fill:#7b6f56;}.cls-4{font-size:30.1px;font-family:Montserrat-Regular, Montserrat;}.cls-4,.cls-9{fill:#9d876d;}.cls-5{letter-spacing:-0.04em;}.cls-6{letter-spacing:-0.01em;}.cls-7{letter-spacing:-0.02em;}.cls-8{stroke:#9d876d;stroke-linecap:round;stroke-linejoin:round;stroke-width:3.16px;}</style></defs><title>Plan de travail 182</title><polygon class="cls-1" points="608.37 640.46 187.21 640.46 187.21 219.3 426.73 219.3 608.37 400.75 608.37 640.46"/><polygon class="cls-2" points="608.37 640.46 187.21 640.46 187.21 219.3 426.73 219.3 608.37 400.75 608.37 640.46"/><path class="cls-3" d="M428.86,215,612.74,398.83a.16.16,0,0,1-.11.28H474.73a46.3,46.3,0,0,1-46.29-46.29V215.13A.25.25,0,0,1,428.86,215Z"/><text class="cls-4" transform="translate(208.19 548.62) scale(0.98 1)"><tspan class="cls-5">P</tspan><tspan x="20.26" y="0">A</tspan><tspan class="cls-6" x="41.84" y="0">P</tspan><tspan x="63.16" y="0">IER </tspan><tspan class="cls-7" x="122.04" y="0">C</tspan><tspan x="143.23" y="0">OUCHÉ </tspan><tspan x="0" y="36.13">80GR/M² - ADHÉSIF </tspan><tspan x="0" y="72.25">REPOSITIONNABLE</tspan></text><line class="cls-8" x1="225.86" y1="259.15" x2="225.86" y2="381.99"/><polygon class="cls-9" points="206.5 274.83 209.97 278.06 225.86 260.96 241.75 278.06 245.22 274.83 225.86 254.01 206.5 274.83"/><polygon class="cls-9" points="206.5 366.31 209.97 363.08 225.86 380.17 241.75 363.08 245.22 366.31 225.86 387.12 206.5 366.31"/><line class="cls-8" x1="257.83" y1="253.03" x2="362.9" y2="253.03"/><polygon class="cls-9" points="273.52 272.39 276.75 268.92 259.65 253.04 276.75 237.14 273.52 233.68 252.7 253.04 273.52 272.39"/><polygon class="cls-9" points="347.21 272.39 343.98 268.92 361.08 253.04 343.98 237.14 347.21 233.68 368.03 253.04 347.21 272.39"/></svg>