<svg id="Calque_1" data-name="Calque 1" xmlns="http://www.w3.org/2000/svg" viewBox="0 0 800 800"><defs><style>.cls-1{font-size:59.76px;font-family:AmsiPro-Regular, AmsiPro Regular;}.cls-1,.cls-10,.cls-12{fill:#fff;}.cls-2{letter-spacing:0em;}.cls-3{letter-spacing:0em;}.cls-4{letter-spacing:-0.08em;}.cls-5{letter-spacing:-0.07em;}.cls-6{letter-spacing:0em;}.cls-7{letter-spacing:0.02em;}.cls-8{letter-spacing:0em;}.cls-9{letter-spacing:-0.03em;}.cls-10{stroke:#7b6f56;stroke-miterlimit:10;stroke-width:8.9px;}.cls-11{fill:#7b6f56;}.cls-13{fill:#e31854;}.cls-14{fill:#e1d61a;}.cls-15{font-size:30.1px;fill:#9d876d;font-family:Montserrat-Regular, Montserrat;}.cls-16{letter-spacing:-0.02em;}.cls-17{letter-spacing:-0.01em;}.cls-18{letter-spacing:-0.03em;}.cls-19{letter-spacing:0.01em;}.cls-20{letter-spacing:0em;}.cls-21{letter-spacing:-0.02em;}</style></defs><title>Plan de travail 173</title><text class="cls-1" transform="translate(177.08 -157.62)">80GR <tspan class="cls-2" x="144.73" y="0">C</tspan><tspan x="179.63" y="0">ARBONE – </tspan><tspan x="-14.7" y="71.71">TRIPLI</tspan><tspan class="cls-3" x="135.71" y="71.71">C</tspan><tspan class="cls-4" x="170.6" y="71.71">A</tspan><tspan class="cls-5" x="202.57" y="71.71">T</tspan><tspan x="227.79" y="71.71">A BLANC,</tspan><tspan x="25.52" y="143.42"> </tspan><tspan class="cls-6" x="38.18" y="143.42">R</tspan><tspan x="70.51" y="143.42">OSE </tspan><tspan class="cls-7" x="183.21" y="143.42">E</tspan><tspan class="cls-8" x="213.57" y="143.42">T J</tspan><tspan class="cls-9" x="278.04" y="143.42">A</tspan><tspan x="312.94" y="143.42">UNE</tspan></text><polygon class="cls-10" points="640.95 640.95 159.06 640.95 159.06 159.06 493.07 159.06 640.95 266.01 640.95 640.95"/><polygon class="cls-11" points="636.46 290.2 459.62 290.2 459.62 163.45 468.36 163.45 636.56 283.19 636.46 290.2"/><polygon class="cls-12" points="636.56 283.19 468.36 283.19 468.36 163.45 478.8 163.45 636.49 274.46 636.56 283.19"/><polygon class="cls-13" points="636.49 274.46 480.8 274.46 480.8 163.45 491.62 163.45 636.56 263.43 636.49 274.46"/><polygon class="cls-14" points="645.46 263.77 494.47 263.77 494.47 154.56 645.46 263.77"/><text class="cls-15" transform="translate(185.13 549.21) scale(0.98 1)">80GR <tspan class="cls-16" x="92.06" y="0">C</tspan><tspan x="113.16" y="0">ARBONE – </tspan><tspan x="0" y="36.13">TRI</tspan><tspan class="cls-17" x="48.14" y="36.13">P</tspan><tspan x="69.45" y="36.13">LI</tspan><tspan class="cls-16" x="96.27" y="36.13">C</tspan><tspan class="cls-18" x="117.37" y="36.13">AT</tspan><tspan x="154.13" y="36.13">A BLAN</tspan><tspan class="cls-19" x="270.09" y="36.13">C</tspan><tspan class="cls-20" x="292.16" y="36.13">,</tspan><tspan x="0" y="72.25">ROSE ET </tspan><tspan class="cls-21" x="138.87" y="72.25">JA</tspan><tspan x="174.63" y="72.25">UNE</tspan></text></svg>