<svg id="Calque_1" data-name="Calque 1" xmlns="http://www.w3.org/2000/svg" xmlns:xlink="http://www.w3.org/1999/xlink" viewBox="0 0 800 800"><defs><style>.cls-1,.cls-9{fill:#fff;}.cls-1{stroke:#7b6f56;stroke-miterlimit:10;stroke-width:8.9px;}.cls-2{fill:#515151;}.cls-3{fill:url(#Dégradé_sans_nom_30);}.cls-4{font-size:30.1px;fill:#9d876d;font-family:Montserrat-Regular, Montserrat;}.cls-5{letter-spacing:-0.04em;}.cls-6{letter-spacing:-0.01em;}.cls-7{letter-spacing:-0.01em;}.cls-8{fill:#7b6f56;}</style><linearGradient id="Dégradé_sans_nom_30" x1="496" y1="227.35" x2="646.99" y2="227.35" gradientUnits="userSpaceOnUse"><stop offset="0.01" stop-opacity="0.1"/><stop offset="0.05" stop-color="#050505" stop-opacity="0.12"/><stop offset="0.11" stop-color="#121212" stop-opacity="0.16"/><stop offset="0.16" stop-color="#282828" stop-opacity="0.24"/><stop offset="0.22" stop-color="#474747" stop-opacity="0.35"/><stop offset="0.28" stop-color="#6f6f6f" stop-opacity="0.49"/><stop offset="0.34" stop-color="#a0a0a0" stop-opacity="0.67"/><stop offset="0.4" stop-color="#d9d9d9" stop-opacity="0.87"/><stop offset="0.44" stop-color="#fff"/><stop offset="0.62" stop-color="#a3a3a3" stop-opacity="0.64"/><stop offset="0.81" stop-color="#4e4e4e" stop-opacity="0.3"/><stop offset="0.94" stop-color="#181818" stop-opacity="0.08"/><stop offset="1" stop-color="#030303" stop-opacity="0"/></linearGradient></defs><title>Plan de travail 170</title><polygon class="cls-1" points="642.09 658.89 160.2 658.89 160.2 177 494.21 177 642.09 283.96 642.09 658.89"/><polygon class="cls-2" points="646.53 281.68 495.55 281.68 495.55 172.47 646.53 281.68"/><polygon class="cls-3" points="646.99 281.95 496 281.95 496 172.74 646.99 281.95"/><text class="cls-4" transform="translate(183.05 638.87) scale(0.98 1)"><tspan class="cls-5">P</tspan><tspan x="20.26" y="0">A</tspan><tspan class="cls-6" x="41.84" y="0">P</tspan><tspan x="63.16" y="0">IER M</tspan><tspan class="cls-7" x="150.79" y="0">A</tspan><tspan x="172.07" y="0">GNÉTIQUE</tspan></text><path class="cls-8" d="M268.75,225.66c-23.66,0-44.27-17.47-47.63-40.78-2.62-18.2,3.35-33.36,17.4-45.18,7.95-6.7,16.14-13.11,24.22-19.65,1.39-1.13,2.26-1,3.4.39q6.84,8.43,13.67,16.88c1.17,1.45,1.09,2.32-.34,3.47-8,6.51-16.08,13-24.08,19.52-6.57,5.38-9.33,12.38-7.91,20.72s6.47,14,14.42,16.85a21.4,21.4,0,0,0,23.61-6.75c6.48-7.89,12.86-15.86,19.28-23.79,1.93-2.38,2.31-2.41,4.66-.51l16.37,13.26c1.19,1,1.37,1.94.46,3.06-7.09,8.76-14,17.65-21.35,26.21A47.42,47.42,0,0,1,268.75,225.66ZM249.93,135.2c-.77.62-1.47,1.14-2.13,1.71-3.78,3.21-7.87,6.13-11.26,9.71-10,10.62-14.11,23.39-11.73,37.82,2.49,15.07,10.82,26.15,24.53,33a44.29,44.29,0,0,0,51.33-8.93c3.61-3.79,6.74-8,10.08-12.07.05-.06.05-.17.1-.31L296.08,184c-.32.37-.56.66-.79.94-2.24,2.77-4.44,5.57-6.72,8.29-6.05,7.22-13.82,10.45-23.11,9.17C255,201,247.87,195,244.7,185.06c-3.23-10.12-.71-19.14,7.05-26.48,2.47-2.33,5.24-4.33,7.88-6.48l2.49-2C258,145.07,254,140.18,249.93,135.2Zm2.88-2.35L265,147.74l11.15-9c-4.08-5-8.08-10-12.11-14.95Zm69.58,49.23-15-12.11-9,11.17,14.89,12.19Z"/><path class="cls-8" d="M299.48,144.45c-1.1,0-2.06,0-3,0a3,3,0,0,1-2.09-5.28l13.39-12.67a3,3,0,0,1,3.84-.52,3,3,0,0,1,1.16,3.7q-1.27,3.87-2.54,7.74c-.1.29-.18.59-.31,1,.94,0,1.8,0,2.66,0a3.12,3.12,0,0,1,3.25,1.89c.54,1.24.19,2.45-1,3.6q-6.58,6.26-13.19,12.48a3,3,0,0,1-5-3.23c.81-2.47,1.63-4.92,2.44-7.38Zm11.65-2.13c-.19-.1-.24-.15-.29-.15h-3.08c-1.9,0-2.65-1-2.06-2.87.77-2.37,1.56-4.73,2.34-7.1.1-.29.17-.59.26-.89l-.18-.06-9.82,9.31a18.89,18.89,0,0,0,3.28.22c1.9,0,2.67,1.06,2.08,2.85-.68,2.11-1.39,4.2-2.08,6.3-.18.55-.35,1.1-.52,1.65l.18.1Z"/><path class="cls-9" d="M249.93,135.2c4.09,5,8.1,9.87,12.19,14.87l-2.49,2c-2.64,2.15-5.41,4.15-7.88,6.48-7.76,7.34-10.28,16.36-7.05,26.48,3.17,10,10.34,15.93,20.76,17.37,9.29,1.28,17.06-2,23.11-9.17,2.28-2.72,4.48-5.52,6.72-8.29.23-.28.47-.57.79-.94l14.77,12.1c-.05.14-.05.25-.1.31-3.34,4-6.47,8.28-10.08,12.07a44.29,44.29,0,0,1-51.33,8.93c-13.71-6.85-22-17.93-24.53-33-2.38-14.43,1.69-27.2,11.73-37.82,3.39-3.58,7.48-6.5,11.26-9.71C248.46,136.34,249.16,135.82,249.93,135.2Z"/><path class="cls-9" d="M252.81,132.85l11.24-9.1c4,5,8,9.9,12.11,14.95l-11.15,9Z"/><path class="cls-9" d="M322.39,182.08l-9.1,11.25L298.4,181.14l9-11.17Z"/><path class="cls-9" d="M311.13,142.32l-9.89,9.35-.18-.1c.17-.55.34-1.1.52-1.65.69-2.1,1.4-4.19,2.08-6.3.59-1.79-.18-2.85-2.08-2.85a18.89,18.89,0,0,1-3.28-.22l9.82-9.31.18.06c-.09.3-.16.6-.26.89-.78,2.37-1.57,4.73-2.34,7.1-.59,1.82.16,2.86,2.06,2.87h3.08C310.89,142.17,310.94,142.22,311.13,142.32Z"/></svg>