<svg id="Calque_1" data-name="Calque 1" xmlns="http://www.w3.org/2000/svg" viewBox="0 0 800 800"><defs><style>.cls-1{fill:#dbc6b4;stroke:#7b6f56;stroke-miterlimit:10;stroke-width:8.9px;}.cls-2{fill:#7b6f56;}.cls-3{font-size:30.1px;fill:#9d876d;font-family:Montserrat-Regular, Montserrat;}.cls-4{letter-spacing:-0.02em;}.cls-5{letter-spacing:-0.01em;}.cls-6{fill:#fff;}</style></defs><title>Plan de travail 142 copie 4</title><polygon class="cls-1" points="671.78 640.95 189.89 640.95 189.89 159.06 523.91 159.06 671.78 266.01 671.78 640.95"/><polygon class="cls-2" points="671.78 268.26 520.79 268.26 520.79 159.06 671.78 268.26"/><text class="cls-3" transform="translate(222.39 620.92) scale(0.98 1)">400GR/M² <tspan class="cls-4" x="164.46" y="0">C</tspan><tspan x="185.56" y="0">A</tspan><tspan class="cls-5" x="207.14" y="0">RT</tspan><tspan x="245.59" y="0">ON</tspan></text><path class="cls-2" d="M216.39,147.71l7-10.89q4.35-6.81,8.67-13.62a2.23,2.23,0,0,1,1.53-1.07q28.07-6.31,56.11-12.66,2.63-.59,5.24-1.2a2.53,2.53,0,0,1,1.19.06c2.49.58,5,1.11,7.48,1.64l34.19,7.28c7.68,1.64,15.35,3.31,23,4.86a3,3,0,0,1,2.18,1.53q8.06,12.75,16.16,25.46c.15.25.33.49.5.73V151a1.81,1.81,0,0,1-1.95.56c-4.72-1-9.46-2-14.18-3-.7-.16-.85-.07-.84.66,0,9.76,0,46.22,0,56,0,1.91,0,1.89-1.88,2.3l-9.3,2.1q-25.14,5.68-50.29,11.39a12.68,12.68,0,0,1-5.55-.34l-62-13.21c-1.35-.29-1.57-.54-1.57-1.92,0-8.46,0-43.61,0-52.07,0-.68-.19-.92-.84-1-4.42-.91-8.82-1.88-13.24-2.79a3.08,3.08,0,0,1-1.68-.85Zm143.73,4c0-8.57,0-17.14,0-25.7,0-.78-.18-.89-.92-.72-3.78.89-7.57,1.72-11.36,2.57q-23.25,5.27-46.5,10.51c-.57.13-.75.31-.75.89,0,17.22,0,61.13,0,78.35,0,.71.23.8.85.66,4.24-1,8.48-1.93,12.72-2.89q22.5-5.09,45-10.14c.75-.17,1-.43,1-1.21C360.11,195.48,360.12,160.25,360.12,151.7ZM298,142.06l-.41.58q-6.3,9.92-12.62,19.81c-.64,1-1,1.17-2.17.92l-27.63-5.88c-6.59-1.41-13.17-2.8-19.75-4.22-.58-.13-.73-.06-.73.56,0,7.89,0,42.47,0,50.36,0,.58.18.79.74.9q10.44,2.19,20.87,4.43l40.61,8.64c1.09.23,1.09.23,1.09-.9Zm-.82-3.58a2,2,0,0,0-1-.34l-33.88-7.22-27.43-5.84c-.51-.11-.88-.13-1.23.42q-6.72,10.62-13.51,21.19c-.31.49-.29.62.32.74,5.51,1.15,11,2.35,16.5,3.52q22.58,4.8,45.13,9.62a1.17,1.17,0,0,0,1.48-.63c3-4.74,6-9.46,9-14.18C294.1,143.33,295.65,140.91,297.19,138.48Zm-57.73-15,1.08.26L268,129.54q12.68,2.7,25.35,5.41c.69.14,1,.12,1-.74,0-7.42,0-14.85,0-22.28,0-.68-.11-.88-.86-.71q-24,5.46-47.94,10.86Zm58.92-11.94c.1.2.13.28.17.34q6.66,10.5,13.32,21c.25.41.5.38.86.29l6.91-1.57,19.94-4.49,15.48-3.51Zm11.08,22.39L297,114.2l-.14,0v20.84c0,.27-.06.58.33.64a7.85,7.85,0,0,0,3.21.24C303.34,135.22,306.36,134.59,309.46,133.89Zm53.41-5.64-.14.05c0,5.6,0,11.19,0,16.79,0,.58.29.67.71.76l8.51,1.8,3.73.77Z"/><path class="cls-6" d="M360.12,151.7c0,8.55,0,43.78,0,52.32,0,.78-.22,1-1,1.21q-22.51,5-45,10.14c-4.24,1-8.48,1.91-12.72,2.89-.62.14-.85.05-.85-.66,0-17.22,0-61.13,0-78.35,0-.58.18-.76.75-.89q23.25-5.24,46.5-10.51c3.79-.85,7.58-1.68,11.36-2.57.74-.17.92-.06.92.72C360.11,134.56,360.12,143.13,360.12,151.7Z"/><path class="cls-6" d="M298,142.06v75.2c0,1.13,0,1.13-1.09.9l-40.61-8.64q-10.42-2.22-20.87-4.43c-.56-.11-.74-.32-.74-.9,0-7.89,0-42.47,0-50.36,0-.62.15-.69.73-.56,6.58,1.42,13.16,2.81,19.75,4.22l27.63,5.88c1.16.25,1.53.09,2.17-.92q6.31-9.9,12.62-19.81Z"/><path class="cls-6" d="M297.19,138.48c-1.54,2.43-3.09,4.85-4.64,7.28-3,4.72-6,9.44-9,14.18a1.17,1.17,0,0,1-1.48.63q-22.56-4.84-45.13-9.62c-5.5-1.17-11-2.37-16.5-3.52-.61-.12-.63-.25-.32-.74q6.78-10.59,13.51-21.19c.35-.55.72-.53,1.23-.42l27.43,5.84,33.88,7.22A2,2,0,0,1,297.19,138.48Z"/><path class="cls-6" d="M239.46,123.44l6-1.36q24-5.43,47.94-10.86c.75-.17.86,0,.86.71,0,7.43,0,14.86,0,22.28,0,.86-.27.88-1,.74q-12.68-2.73-25.35-5.41l-27.42-5.84Z"/><path class="cls-6" d="M298.38,111.5l56.68,12.07-15.48,3.51-19.94,4.49-6.91,1.57c-.36.09-.61.12-.86-.29q-6.64-10.51-13.32-21C298.51,111.78,298.48,111.7,298.38,111.5Z"/><path class="cls-6" d="M309.46,133.89c-3.1.7-6.12,1.33-9.11,2.08a7.85,7.85,0,0,1-3.21-.24c-.39-.06-.33-.37-.33-.64V114.25l.14,0Z"/><path class="cls-6" d="M362.87,128.25l12.8,20.17-3.73-.77-8.51-1.8c-.42-.09-.72-.18-.71-.76,0-5.6,0-11.19,0-16.79Z"/></svg>