<svg id="Calque_1" data-name="Calque 1" xmlns="http://www.w3.org/2000/svg" xmlns:xlink="http://www.w3.org/1999/xlink" viewBox="0 0 800 800"><defs><style>.cls-1,.cls-18,.cls-3{fill:#fff;}.cls-1,.cls-16{stroke:#7b6f56;stroke-width:8px;}.cls-1,.cls-10,.cls-11,.cls-12,.cls-13,.cls-14,.cls-15,.cls-16,.cls-6,.cls-7,.cls-8,.cls-9{stroke-miterlimit:10;}.cls-2{fill:#7b6f56;}.cls-4{clip-path:url(#clip-path);}.cls-5{opacity:0.5;}.cls-16,.cls-6{fill:none;}.cls-10,.cls-11,.cls-12,.cls-13,.cls-14,.cls-15,.cls-6,.cls-7,.cls-8,.cls-9{stroke:#3a3939;stroke-width:0.5px;}.cls-7{fill:#fbecd3;}.cls-8{fill:#9daea4;}.cls-9{fill:#799685;}.cls-10{fill:#de8c0c;}.cls-11{fill:#f28c01;}.cls-12{fill:#fdfdfe;}.cls-13{fill:#8c3414;}.cls-14{fill:#cf5516;}.cls-15{fill:#494020;}.cls-17{fill:url(#Dégradé_sans_nom_206);}.cls-18{font-size:30.1px;font-family:Montserrat-Regular, Montserrat;}.cls-19{letter-spacing:-0.02em;}.cls-20{letter-spacing:0em;}.cls-21{letter-spacing:-0.07em;}.cls-22{letter-spacing:-0.04em;}</style><clipPath id="clip-path"><polygon class="cls-1" points="629.13 642.67 207.97 642.67 207.97 221.51 447.48 221.51 629.13 402.96 629.13 642.67"/></clipPath><linearGradient id="Dégradé_sans_nom_206" x1="453.2" y1="311.86" x2="624.12" y2="311.86" gradientUnits="userSpaceOnUse"><stop offset="0" stop-color="#fff"/><stop offset="0.09" stop-color="#f8f8f8"/><stop offset="0.22" stop-color="#e6e6e6"/><stop offset="0.37" stop-color="#c8c8c8"/><stop offset="0.46" stop-color="#b2b2b2"/><stop offset="0.55" stop-color="#c4c4c4"/><stop offset="0.74" stop-color="#e4e4e4"/><stop offset="0.89" stop-color="#f8f8f8"/><stop offset="1" stop-color="#fff"/></linearGradient></defs><title>Plan de travail 192</title><polygon class="cls-2" points="629.13 642.67 207.97 642.67 207.97 221.51 447.48 221.51 629.13 402.96 629.13 642.67"/><polygon class="cls-3" points="629.13 642.67 207.97 642.67 207.97 221.51 447.48 221.51 629.13 402.96 629.13 642.67"/><g class="cls-4"><g class="cls-5"><polygon class="cls-6" points="626.63 640.34 210.59 640.34 210.59 224.3 483.46 224.01 483.46 224.01 626.63 224.3 626.05 359.91 626.63 640.34"/><path class="cls-7" d="M626.63,642.67H208V224H483.46s52.61,19.12,91.76,58.87,50.83,78.91,50.83,78.91Z"/><rect class="cls-8" x="207.97" y="474.86" width="418.66" height="167.81"/><path class="cls-9" d="M208,516.17a78.35,78.35,0,0,0,40.24-12.28c20.09-12.84,35.72-15.63,51.91-15.63s14.51,4.46,34.61,0S376,481,393.9,481.56s20.66-2.24,31.26,3.9,51.92,16,65.31,13.32,17.13,2.87,32.29,7.34,23-20.26,39.16-7.34,19.54,10.69,28.47,20.18,5.58,11.16,16.75,14.51,19.49,6.14,19.49,6.14V474.86H208Z"/><circle class="cls-10" cx="405.62" cy="370.89" r="40.25"/><circle class="cls-9" cx="395.83" cy="530.4" r="29.63"/><path class="cls-11" d="M626.05,359.91s-11-24-18.16-23.14-10.47,11.72-21.77,14.65-3.77,8.8-32.66,19.47-27.41,17-52.44,27-42.44,31.29-80.39,35.44-81.21,41.52-81.21,41.52H626.63Z"/><path class="cls-12" d="M417.55,352.08a268.09,268.09,0,0,0,37.69,0c18.08-1.55,20.28,1.1,25.57,0S474.64,347,468,345.46s-9.26,4.44-15.88,3.65-4.62-2.54-12.34-1.66-7.94,2.64-13.67,2.64S416.21,352,417.55,352.08Z"/><path class="cls-12" d="M251.07,399.16a131.54,131.54,0,0,0,20.07,0c12.2-.82,16.27.45,25.21.36s11.12,1.18,13.56,0-6-.63-11.66-2.8-6-4.72-12.2-3.31-3,4.39-10.85,1.14-6.77-6.24-12.47-3.53-2.71,4.61-11.66,5.15-13,1.63-10.84,2.17S251.07,399.16,251.07,399.16Z"/><path class="cls-13" d="M208,370.89s3.37,8.37,17.6,11.72,22.24-1,36.47,14.87,23.81,25.32,49.76,27.83,2.51.16,43.53,8,32.68,1.33,62,10.88,76.16,30.64,105.46,30.64H208Z"/><path class="cls-14" d="M375.42,474.86s10.88-7.7,29.3-11,18.26,6.7,51.82-5.44,37.28-18.69,49-17.57,14,8.37,27.91,9.49,11.17,5.58,27.92-1.12,22.32-25.82,36.28-26.3,29-14.45,29-14.45v66.43Z"/><path class="cls-15" d="M208,583.15c8.13-4.76,78.77,6.74,149,32.19,72.7,26.34,81.22,19.26,122.24,18.42s147.4,8.91,147.4,8.91H208Z"/><polygon class="cls-15" points="219.03 530.4 207.97 583.15 230.09 583.15 219.03 530.4"/><polygon class="cls-15" points="232.18 539.21 221.98 587.84 242.38 587.84 232.18 539.21"/><polygon class="cls-15" points="246 536.05 234.94 588.8 257.06 588.8 246 536.05"/><polygon class="cls-15" points="494.09 583.18 483.03 635.94 505.15 635.94 494.09 583.18"/><polygon class="cls-15" points="521.06 588.84 510 641.59 532.12 641.59 521.06 588.84"/><polygon class="cls-15" points="282.63 547.48 271.57 600.23 293.69 600.23 282.63 547.48"/><polygon class="cls-15" points="298.12 551.75 287.68 601.54 308.56 601.54 298.12 551.75"/><polygon class="cls-15" points="258.36 556.78 250.57 593.89 266.14 593.89 258.36 556.78"/><polygon class="cls-15" points="267.98 562.43 260.97 595.88 275 595.88 267.98 562.43"/><polygon class="cls-15" points="314.66 572.37 306.88 609.49 322.44 609.49 314.66 572.37"/><polygon class="cls-15" points="477.02 599.56 469.23 636.68 484.8 636.68 477.02 599.56"/><polygon class="cls-15" points="326.8 580.86 319.76 614.44 333.85 614.44 326.8 580.86"/><polygon class="cls-15" points="335.54 588.7 329.36 618.14 341.71 618.14 335.54 588.7"/><polygon class="cls-15" points="346.3 598.55 341.71 620.42 350.88 620.42 346.3 598.55"/><polygon class="cls-15" points="507.43 614.44 502.85 636.31 512.02 636.31 507.43 614.44"/><polygon class="cls-15" points="534.54 615.21 529.95 637.08 539.12 637.08 534.54 615.21"/><path class="cls-12" d="M594.44,447H575.22c-7.24,0-14.73,1.12-14.23-1.12s8.24.56,14-2.52,8.23-5.88,18-2.24,17.23,5.6,12.23,6.16A49.1,49.1,0,0,1,594.44,447Z"/><polyline class="cls-7" points="483.46 224.01 626.63 224.3 626.05 361.79"/></g><rect class="cls-2" x="207.97" y="547.3" width="418.66" height="95.37"/></g><polygon class="cls-16" points="629.13 642.67 207.97 642.67 207.97 221.51 447.48 221.51 629.13 402.96 629.13 642.67"/><path class="cls-17" d="M495.49,397.32A42.34,42.34,0,0,1,453.2,355V226.4L624.12,397.32Z"/><path class="cls-2" d="M457.2,236.06,614.46,393.32h-119A38.34,38.34,0,0,1,457.2,355v-119m-7.75-19a.25.25,0,0,0-.25.25V355a46.29,46.29,0,0,0,46.29,46.29H633.38a.16.16,0,0,0,.12-.28L449.62,217.16a.23.23,0,0,0-.17-.07Z"/><text class="cls-18" transform="translate(220 594.98) scale(0.98 1)"><tspan class="cls-19">V</tspan><tspan class="cls-20" x="20.56" y="0">IN</tspan><tspan class="cls-19" x="54.13" y="0">Y</tspan><tspan x="72.79" y="0">LE PO</tspan><tspan class="cls-21" x="165.42" y="0">L</tspan><tspan class="cls-19" x="180.92" y="0">Y</tspan><tspan x="199.59" y="0">MÈRE</tspan><tspan x="0" y="36.13">TRANS</tspan><tspan class="cls-22" x="103.62" y="36.13">P</tspan><tspan x="123.88" y="36.13">ARENT</tspan></text></svg>