<svg id="Calque_1" data-name="Calque 1" xmlns="http://www.w3.org/2000/svg" viewBox="0 0 800 800"><defs><style>.cls-1{fill:#f5e3d5;stroke:#7b6f56;stroke-width:8.9px;}.cls-1,.cls-8{stroke-miterlimit:10;}.cls-2{fill:#7b6f56;}.cls-3{font-size:30.1px;fill:#9d876d;font-family:Montserrat-Regular, Montserrat;}.cls-4{letter-spacing:0em;}.cls-5{letter-spacing:0em;}.cls-6{letter-spacing:-0.01em;}.cls-7{letter-spacing:-0.03em;}.cls-8{fill:#fff;stroke:#634e42;stroke-width:2px;}</style></defs><title>Plan de travail 155</title><polygon class="cls-1" points="633.16 640.95 151.27 640.95 151.27 159.06 485.29 159.06 633.16 266.01 633.16 640.95"/><polygon class="cls-2" points="633.16 268.26 482.18 268.26 482.18 159.06 633.16 268.26"/><text class="cls-3" transform="translate(184.76 620.92) scale(0.98 1)">1<tspan class="cls-4" x="10.87" y="0">2</tspan><tspan x="27.91" y="0">0GR/M² R</tspan><tspan class="cls-5" x="174.3" y="0">E</tspan><tspan class="cls-6" x="194.38" y="0">C</tspan><tspan class="cls-7" x="215.57" y="0">Y</tspan><tspan x="233.78" y="0">CLÉ</tspan></text><path class="cls-8" d="M244,159.36l8-4.69c-.27-.49-.47-.89-.69-1.28q-7.2-12.55-14.39-25.11c-1.19-2.1-2.5-4-5-5,.29,0,.58-.06.87-.07q15.56,0,31.1-.08a4.58,4.58,0,0,1,4.4,2.47c2.52,4.45,5.09,8.87,7.64,13.3.25.43.51.85.83,1.39l8.52-4.9-.74,1.38c-4.14,7.21-8.29,14.42-12.39,21.65a1.94,1.94,0,0,1-1.95,1.14c-8.37,0-16.74,0-25.1,0H244Z"/><path class="cls-8" d="M222.17,188.82,213.78,184c-.29.44-.52.78-.72,1.13q-7.49,13-15,25.93a9,9,0,0,0-1.32,6.29c-.2-.32-.41-.63-.6-1q-7.78-13.38-15.58-26.75a4.92,4.92,0,0,1,0-5.41c2.59-4.36,5.11-8.77,7.66-13.16.23-.39.44-.79.73-1.33l-8.4-5c.61,0,1-.09,1.29-.09h25.23c.63,0,1.15,0,1.56.68q6.63,11.46,13.31,22.87A6,6,0,0,1,222.17,188.82Z"/><path class="cls-8" d="M257.68,231.08v9.71A7.41,7.41,0,0,1,257,240q-6.42-11.13-12.8-22.29a1.66,1.66,0,0,1-.06-1.41c4.3-7.6,8.66-15.17,13-22.75.09-.16.22-.3.54-.74v9.77h1.72c9.54,0,19.07,0,28.6,0a11,11,0,0,0,6.82-1.83,7.07,7.07,0,0,1-.36.79q-7.74,13.55-15.5,27.07a4.53,4.53,0,0,1-4.28,2.48c-5.16-.06-10.32,0-15.48,0Z"/><path class="cls-8" d="M262.94,173l24.37-14.11c.2.29.4.53.56.81,3.65,6.29,7.42,12.52,10.9,18.91,4.34,8,1.42,16.05-5.29,20.05a9.13,9.13,0,0,1-4.12,1.13c-3.4.15-6.82.07-10.23,0a1.74,1.74,0,0,1-1.28-.66q-7.44-12.84-14.79-25.73A2.44,2.44,0,0,1,262.94,173Z"/><path class="cls-8" d="M224.34,165.61l-24.47-14.17c.26-.47.46-.87.69-1.26q5.4-9.33,10.8-18.68a14.46,14.46,0,0,1,19.83-5.3,9.63,9.63,0,0,1,3,3c1.82,2.83,3.41,5.81,5.12,8.71a1.44,1.44,0,0,1,.08,1.7q-7.4,12.74-14.74,25.49C224.6,165.26,224.5,165.38,224.34,165.61Z"/><path class="cls-8" d="M237,202.51v28.35h-1.21c-7.2,0-14.4,0-21.6,0a14.52,14.52,0,0,1-14.64-15.29,7.74,7.74,0,0,1,.89-3.19c1.66-3.07,3.45-6.08,5.25-9.07a1.9,1.9,0,0,1,1.3-.83c9.78,0,19.57,0,29.35,0C236.47,202.44,236.63,202.48,237,202.51Z"/></svg>