<svg id="Calque_1" data-name="Calque 1" xmlns="http://www.w3.org/2000/svg" viewBox="0 0 800 800"><defs><style>.cls-1,.cls-2{fill:#fff;}.cls-1{stroke:#7b6f56;stroke-miterlimit:10;stroke-width:8.9px;}.cls-3{fill:#7b6f56;}.cls-4{fill:#3fe5ff;}.cls-5{font-size:30.1px;fill:#9d876d;font-family:Montserrat-Regular, Montserrat;}.cls-6{letter-spacing:-0.02em;}.cls-7{letter-spacing:-0.01em;}.cls-8{letter-spacing:-0.01em;}</style></defs><title>Plan de travail 219</title><rect class="cls-1" x="167.96" y="207.53" width="431.37" height="431.37"/><polygon class="cls-2" points="175.5 493.74 175.51 492.88 220.66 471.34 394.46 388.39 644.12 392.95 659.06 393.23 686.34 393.73 686.33 395.17 468.57 499.1 175.5 493.74"/><path class="cls-3" d="M681.47,389.63l-5.68-.1h-1.11l-8.15-.15h-.82l-6.58-.12h-.3l-1.25,0h-.82l-6.88-.13h0l-5.68-.11h-.3l-3-.05-5.9-.11h-.1l-6.8-.12-2.06,0H626l-6.8-.13h0l-6-.11h-.81l-2.17,0-6-.11h-.82l-6.88-.13-1.25,0-.82,0-6.89-.12h0l-6-.11-3-.06-6-.11h0l-9-.16-170.1-3.11-96.12,45.88-8.09,3.86-6.87,3.28-1.21.58-6.87,3.27h-.1l-7.39,3.58-.6.29-.5.24L259,448.68h-.13l-1.1.52-6.88,3.28-.1,0-1.1.53-6.84,3.28h0l-7.51,3.58-.2.1-.38.18-7.51,3.58-.17.1h0l-6.87,3.28-1,.48-.19.09h0L212.05,471l-7.49,3.58-.59.28h0l-.49.23-7,3.33h0l-1.08.53-7,3.33-1.09.52h0l-6.75,3.28h-.12L172.33,490h0l-.82.4,0,7.31,298,5.44L688.91,398.38v-8.62Zm-489.64,99.9,6.43-3.1h.07l6.88-3.28,1.1-.52.1-.05,1-.48,5.87-2.8h0l1.1-.53,7-3.33.49-.24.51-.24.09,0,7.49-3.58,6.87-3.28.2-.09,1-.48,6.78-3.29h.09l.2-.09,7.51-3.58.38-.18.2-.1,7.51-3.58h.13l6.74-3.28,1.1-.53.1-.05,6.88-3.28,1.06-.53h0l7-3.33.5-.24.6-.28,7.49-3.58,6.87-3.28,1.21-.58,6.87-3.27h0l8.07-3.86,80-38.17,152.18,2.78,9,.17,6,.11,3,0,6,.11h0l6.88.13h.82l1.26,0,6.88.12h0l.79,0h0l6,.11,2.17,0H597l6,.11,6.81.12h.09l2.06,0,6.8.13h.1l5.9.11,3,.05h.1l5.89.11h0l6.88.13h.82l1.26,0,1.36,0,5.51.1h0l.8,0,6,.11,2.16,0h.81l6,.1h0l6.89.13-204.5,97.6L190.81,490Z"/><polygon class="cls-2" points="175.22 486.01 175.22 485.16 189.82 478.19 204.78 471.06 394.17 380.66 659.38 385.51 674.32 385.8 686.05 386.01 686.05 387.45 468.28 491.38 175.22 486.01"/><path class="cls-4" d="M682.1,381.93h-.82l-6.89-.13-8.93-.17-5.89-.11h-.12l-2.94-.05-5.91-.11h-.1l-6.79-.13-2.06,0h-.1l-6.8-.12h0l-6-.11-.81,0-2.17,0-6-.11H619l-6.89-.13-1.25,0h-.82l-6.89-.13-6-.11-3-.05-6-.11h0l-8.94-.17-186-3.4L281.6,430l-8.09,3.86-6.87,3.28-1.21.58L258.56,441h-.06l-7.43,3.58-.6.29-.5.24-7,3.32h-.1l-1,.53L235,452.19l-.1.05-1.1.53-6.8,3.28h-.07l-7.51,3.58-.2.1-.38.18-7.51,3.58h0l-.16.1h0l-6.87,3.28-1,.48-.21.1-6.86,3.27-8.1,3.86-7.48,3.57h0l-1.08.53-7,3.34h0l-1.1.52-.19.1,0,7.31h1.12l9,.16,287.87,5.28L682.34,393.66h0l6.53-3.14v-8.46Zm-17.67,11.4-8.09,3.86L467.41,487.36l-261-4.78-9-.16-6.9-.13,1-.48,5.88-2.8h.05l1.06-.53,7-3.34.48-.23.49-.23.11-.05,7.5-3.58,6.86-3.28.2-.09,1-.48,6.78-3.29h.1l.19-.09,7.51-3.58.38-.18.2-.1,7.39-3.59h.12l6.87-3.27,1.1-.53.11-.05,6.87-3.28,1.09-.53h0l7-3.33.5-.24.6-.28,7.49-3.58,6.87-3.28,1.21-.58,6.87-3.27h.06l8-3.86L395,384.69l168,3.07,8.95.17h0l6,.1,3,.06,6,.11h0l6.89.12.82,0,1.25,0,6.88.13h.82l6,.11,2.17,0,.81,0,6,.11h0l6.81.12h.09l2.06,0,6.8.12h.09l5.91.1,3,.06h.1l5.88.11h0l6.89.12.82,0,1.25,0,1,0,5.82.11.8,0h0l6,.11Z"/><polygon class="cls-2" points="175.24 478.6 175.24 477.75 394.19 373.25 686.07 378.6 686.07 380.04 468.3 483.97 175.24 478.6"/><path class="cls-3" d="M680.4,374.49l-5.9-.11h-.09l-3-.05-5.89-.11h-.1l-6.8-.13-2.06,0h-.11l-6.79-.12h0l-6-.11-.81,0-2.17,0-6-.11H634l-6.88-.13-1.26,0-.82,0-6.89-.12-6-.11-3-.06-6-.11h0l-8.95-.16-199.63-3.66-1.26,0L266.64,429.68l-8.09,3.86h-.1l-6.77,3.28-1.22.58-6.86,3.28-7.5,3.58-.6.28-.5.24-7,3.33-1,.53h-.08l-6.88,3.28-.1.05-1.11.52L212,455.77l-7.51,3.59-.21.1-.37.17-7.51,3.59-.19.09-7.89,3.77-.18.08-6.82,3.29h-.06l-8.07,3.85-1.62.78-.31.15v7.31h.19l9,.16,6.61.12h.3l9,.16,9,.16,264,4.84,190.14-90.74,8.05-3.87h0l8.07-3.85h0l7.34-3.57H683l5.94-2.83v-8.48ZM190.56,474.87l.49-.23.51-.25.08,0,7.4-3.58h.1L206,467.5l.21-.1,1-.48,6.87-3.28.2-.09h.06l7.45-3.59.38-.18.2-.09,7.51-3.59,6.87-3.28,1.11-.53.1,0,6.79-3.29h.09l1.1-.52,7-3.33.51-.24.6-.29,7.49-3.57h0l6.86-3.28,1.21-.58,6.87-3.28,8.09-3.86,110.51-52.74,183,3.36,9,.16,6,.11,3,.06,6,.11h0l6.89.12.82,0,1.26,0,6.87.13h.82l6,.11,2.17,0,.81,0,6,.11h0l6.81.12h.09l2.06,0,6.8.12h.09l5.91.1,2.94.06h.11l5.89.11h0l6.88.13h.82l-6.81,3.28h-.06l-7.48,3.57-.58.28-7.49,3.57-8.09,3.86-173.48,82.8-.51.24-246-4.51-9-.17h0l-6.88-.13-2.06,0-6.91-.13Z"/><polygon class="cls-2" points="175.54 478.06 175.55 477.21 394.5 372.71 686.38 378.05 686.37 379.49 468.61 483.42 175.54 478.06"/><path class="cls-3" d="M681.52,374h0l-5.68-.11h-.3l-8.86-.16h-.09l-6.81-.12-2.06,0h-.11l-6.79-.13-6-.11H644l-2.17,0-6-.11-.8,0h0l-6.89-.12-1.25,0-.82,0-6.88-.13h0l-6-.1-3-.06-6-.11-8.95-.16-201.7-3.69-127.78,61-8.08,3.86-6.88,3.28-1.21.58-6.86,3.27h-.13l-7.37,3.58-.6.29-.5.24-6.88,3.33h-.1l-1.1.52-6.88,3.28-.1.05-1.1.53-6.87,3.28-7.51,3.58-.22.1-.36.18-7.38,3.59h-.13l-.12.09h-.07l-7.9,3.76-.16.08h0l-6.89,3.28-8.06,3.85h0l-.82.4v.39l0,6.92,1,0h.3l8.65.16h0l6.91.12,9,.16h0l9,.17,263.17,4.82,189-90.22,8.1-3.86,8.08-3.86,7.48-3.57,6.75-3.22v-8.63Zm-10.29,8.32-.12.06-6.86,3.27-7.49,3.58-.58.27-7.4,3.58h-.09l-8.09,3.86L467.73,479.4l-245.26-4.48-9-.17h0l-6.89-.12-2.05,0-6.91-.13h0l-6-.11h-.78l7.5-3.58,6.85-3.27.21-.1,1-.48,6.88-3.28h0l.15-.1L221,460l.37-.18.2-.1,7.52-3.58h.08l6.78-3.28,1.11-.53.1,0,6.88-3.28,1-.53h.09l7-3.32.51-.25.6-.28,7.45-3.58h0l6.86-3.27,1.22-.58,6.87-3.28,8.08-3.86,111.61-53.27,183.78,3.37,9,.16,6,.11,3,.05,6,.11,6.89.13h.82l1.25,0,6.89.12.8,0,6,.11,2.16,0h.82l6,.11,6.8.13h.1l2.06,0,6.8.12h.1l5.9.11,2.94.05h.11l5.9.1h0l6.87.13Z"/><polygon class="cls-2" points="203.74 470.86 188.17 470.57 175.26 470.33 175.26 469.48 394.21 364.98 686.09 370.33 686.09 371.77 657.1 385.61 468.32 475.7 203.74 470.86"/><path class="cls-4" d="M682.23,366.26h-.09l-6.81-.12-9-.16h0l-6-.11-.81,0-2.16,0-6-.11h-.82l-6.87-.13-1.26,0-.81,0-6.9-.12h0l-6-.11-3-.06-6-.11h0l-8.94-.16-217.56-4L250,429.38l-8.09,3.86L235,436.52l-1.21.58-6.87,3.27h-.08L219.45,444l-.6.29-.5.24-6.84,3.33h-.14l-1.1.52-6.88,3.28-.1.05-1.1.53-6.84,3.28h0l-8.09,3.86-7.4,3.59h-.12l-.17.08-7.9,3.77-.19.09-.19.1,0,7.31h1.92l8.16.15.78,0h0l6,.11,3,.06,6,.11,6.62.12h.3l2,0,6.89.13,9,.16,246.07,4.51,1.25,0,173.49-82.79,8-3.87h.12l7.49-3.57.57-.27h0l7.48-3.57,8.08-3.86,6.87-3.28,1.12-.53h0l6.5-3.12v-8.48ZM666.06,374l5.9.11-.52.25-.5.23-6.47,3.09-1.11.53h-.08l-6.77,3.28-.11.05-1,.49-.09,0-6.86,3.28-7.49,3.57-.59.28-7.48,3.57h-.11l-8,3.87L467.45,471.68,238,467.49l-9-.17-6.89-.12-2.05,0-6.91-.13-6-.11h-.78l-2.16,0h-.46l-5.54-.1h0l-.78,0-6.9-.13,6.8-3.28h.06l.18-.09h0l7.51-3.58.37-.18.21-.1,7.51-3.58h.12l6.75-3.28,1.1-.53.1-.05,6.88-3.28,1.05-.53h0l7-3.32.5-.25.6-.28,7.49-3.58,6.87-3.27,1.21-.58,6.87-3.28h0l8.08-3.86,126.67-60.46.51-.24,199.64,3.66,8.94.16,6,.11,3,.05,6,.11h0l6.89.13h.81l1.26,0,6.88.12h0l.8,0,6,.11,2.16,0h.81l6,.11h0l6.78.13h.11l2.06,0L666,374Z"/><polygon class="cls-2" points="203.13 463.44 187.11 463.14 175.28 462.92 175.28 462.07 394.23 357.57 686.11 362.92 686.11 364.36 672.69 370.76 657.73 377.89 642.16 385.33 468.34 468.29 203.13 463.44"/><path class="cls-3" d="M681.32,358.83l-6-.11-.81,0-8.15-.14h0l-.8,0-6.88-.13-1.25,0h-.82l-6.9-.13-6-.11-3-.05-6-.11h0l-8.93-.17-232.37-4.26h-.12l-158.3,75.56-8,3.86H227l-6.88,3.28-1.21.57L212,440.1l-7.5,3.58-.59.28-.51.24-7,3.33-1.08.53h0l-7,3.33-1.1.52-6.87,3.28h-.07l-8,3.86-1,.5v7.31h.19l9,.16,6.6.12h1.09l8.15.16h.8l6,.12,2.16,0H206l6,.11,6.61.12h.3l2.05,0,6.89.13,9,.16,232.38,4.26.21-.1,158.3-75.56,8.1-3.86,7.48-3.57.58-.28h0l7.44-3.57h0l6.85-3.27,1.12-.54.11-.05,6.87-3.27,1.06-.54h.06l7-3.32,1.11-.53h0l7.41-3.57H683l5.9-2.81V359ZM665.09,370l-7.49,3.57-.61.29-.51.24-.48.23-6.38,3.1h-.1l-1.12.53-6.85,3.27-.11.06-1,.48-.1,0-6.73,3.28h-.14L626,388.62l-.59.28-7.49,3.57-8.09,3.86L467.68,464.17l-.21.1L253,460.35l-9-.17-6.89-.12-2,0-6.91-.13-6-.11h-.78l-2.16,0h-.46l-5.55-.1h-.8l-6.9-.13-1.27,0-.8,0h-.25l-6.62-.13h0l-6-.11,7.71-3.68,6.87-3.28,1.1-.52.1-.05,6.88-3.28h.11l1-.53,7-3.33.51-.24.59-.28,7.5-3.58,6.87-3.28,1.21-.58,6.79-3.28h.08l8.08-3.86L395.1,361.6h.09l214.48,3.93,9,.16,6,.11,3,.06,6,.11h0l6.89.12.82,0,1.25,0,6.88.13h.82l6,.11,2.16,0,.81,0,6,.11h0l6.82.12-1,.48-5.74,2.8Z"/><polygon class="cls-2" points="175.58 462.83 175.58 461.98 220.74 440.43 394.54 357.48 644.2 362.04 659.13 362.32 686.41 362.82 686.41 364.26 468.65 468.19 175.58 462.83"/><path class="cls-3" d="M681.55,358.72l-5.69-.1h-1.1l-8.15-.15h-.82l-6.58-.12h-.3l-1.25,0h-.82l-6.89-.13h0l-5.67-.11H644l-3,0-6-.11-8.94-.16-232.4-4.25-.19.09-158.3,75.56L227.08,433h0l-6.86,3.28-1.2.57h0l-6.87,3.27-7.49,3.58-.59.28h0l-.51.24-7,3.32h-.05l-1.05.53-7,3.33-1.09.52h0l-6.75,3.28h-.12l-8.08,3.85h0l-.82.4,0,7.31h.08l9,.17h0l6.89.12.8,0,8.16.15h.8l6,.11,2.16,0h.78l6,.11h0l6.9.13,2,0,6.89.12h0l9,.17,232.39,4.25h.1l158.3-75.56,8.09-3.86,7.49-3.57L644,389l7.48-3.57h.14l6.72-3.28,1.12-.53.12-.06,6.85-3.27,1.12-.53h.11l6.85-3.33,1.13-.53,7.48-3.57h.11l5.69-2.77v-8.66ZM665.22,370h0l-7.47,3.57-.61.29-.51.24-7,3.33h0l-1.1.53-6.86,3.27-.11.06-1.12.53-6.82,3.28h-.05l-7.48,3.57-.59.28L618,392.47h0l-8.06,3.87L467.77,464.17h-.09L253.2,460.25l-9-.17h0l-6.89-.12-2.05,0-6.91-.12h0l-6-.11-.78,0-2.16,0-6-.11h-.8l-6.9-.13-1.27,0-.79,0-6.9-.12-5.88-.11,1-.49,6.43-3.1h.07l6.88-3.28,1.1-.52.1-.05,1-.48,5.86-2.8h0l1.09-.53,7-3.33.5-.24.51-.24.09,0,7.49-3.58,6.87-3.28,1.21-.57L245,433.3h.1l8-3.86L395.19,361.6l.21-.1,214.49,3.92,8.94.17h0l6,.11,3,.05,6,.11,6.89.13h.82l1.26,0,1.36,0,5.51.1h0l.8,0,6,.11,2.16,0h.81l6,.1h0l6.89.13Z"/><polygon class="cls-2" points="175.3 455.1 175.3 454.25 189.9 447.28 204.86 440.15 394.25 349.75 659.46 354.61 674.4 354.89 686.13 355.1 686.12 356.54 468.36 460.47 175.3 455.1"/><path class="cls-4" d="M682.18,351h-.82l-6.89-.13-8.94-.17-6-.11-2.94-.05-6-.11-9-.17-248.26-4.54L219.31,428.82l-8.05,3.86h0L204.35,436l-1.22.58-6.86,3.27-8.1,3.86-7.49,3.57h0l-1.08.53-7,3.34h0l-1.09.52-.2.1V459h1.12l8.86.16h.11l5.86.11,9,.16,6.89.13h.79l1.27,0,6.9.12h0l.78,0h0l6,.11,2.17,0h.77l6,.11,6.91.13,2,0,6.89.12h0l9,.17,216.61,4L612,396.37l8.1-3.86,7.48-3.57.59-.28,7.37-3.58h.12l6.86-3.27,1.12-.53.11-.06,6.86-3.27,1.11-.53h.12l6.85-3.33.51-.24.61-.29,7.35-3.58h.13l8.08-3.85,6.87-3.28.22-.1h0l6.45-3.1v-8.5Zm-17.88,11.5-6.87,3.28-1,.48-.21.1-6.81,3.28h0l-7.49,3.57-.6.29-.52.24-7,3.33-1.12.53-6.86,3.27-.11.06-1.12.53-6.79,3.28h-.07l-7.49,3.57-.59.28-7.48,3.57h-.07l-8,3.87-126.56,60.4-198.71-3.64-9-.16h0l-6.88-.13-2.06,0-6.91-.12-6-.11-.78,0-2.17,0-6-.11h-.81l-6.9-.13-1.26,0-.8,0-6.89-.12h0l-5.86-.11h-.1l-3-.06-5.86-.1h-.1l-6.82-.12,1-.48,5.88-2.8h.05l1-.53,7-3.33.5-.24.49-.23.11,0,7.5-3.58,6.86-3.28,1.21-.57,6.87-3.28h.13l8-3.86,157.9-75.37L625.47,358l8.94.16h0l6,.11,3,.06,6,.11,6.9.12.82,0,1.25,0,1,0,5.82.11.8,0h0l6,.11-7.48,3.57Z"/><polygon class="cls-2" points="175.31 447.69 175.32 446.84 394.27 342.34 686.15 347.69 686.14 349.13 468.38 453.06 175.31 447.69"/><path class="cls-3" d="M680.48,343.58l-6-.11-3-.05-6-.11h0l-9-.17-261.91-4.8-1.26,0-189,90.23-8.07,3.85-8.09,3.86-6.82,3.28h-.05l-8.09,3.85-1.61.78-.31.15,0,7.31h.2l9,.16,6.6.12h.3l8.86.16h.11l5.86.11,3,.05h.1l5.87.11,6.89.13h.79l1.27,0,6.9.12h0l.78,0h0l6,.11,2.16,0h.78l6,.11,6.91.13,2.05,0,6.89.12h0l9,.17,201.67,3.7L597,396.1l8.1-3.86,7.48-3.57.59-.29,7.49-3.57,6.86-3.27,1.12-.54.11-.05,6.86-3.27h.09l1-.54,7-3.32.51-.25.61-.29,7.48-3.57,6.86-3.27.21-.1,1-.48,6.74-3.29h.13l.19-.1h0l7.86-3.75.21-.1h0l7.34-3.57h.14l5.86-2.79v-8.52ZM196.61,444.08l-6-.11.5-.24.5-.25.08,0,7.4-3.58h.1l6.85-3.27,1.22-.58,6.87-3.28,8.09-3.86,172.89-82.51,245.26,4.5,9,.16h0l6,.11,2.94.06,6,.11,6.89.13H672l-6.81,3.28h-.06l-7.48,3.57-.21.1-.37.18-7.49,3.57-.19.11h0l-6.88,3.28-1,.47-.22.11-6.87,3.27h0L626.93,373l-.61.28-.51.25-7,3.32h-.1l-1,.54-6.86,3.27-.11.05-1.12.54-6.86,3.27h0l-7.47,3.58-.59.28-7.49,3.57-8.09,3.86L468,448.8l-.51.24-183.77-3.37-9-.16-6.89-.13-2.05,0-6.91-.13h0l-6-.11h-.78l-2.16,0-6-.11-.79,0-6.9-.12-1.27,0h-.79l-6.9-.13-5.86-.11h-.11l-3,0-5.86-.11h-.12l-6.78-.13-2.06,0h-.11Z"/><polygon class="cls-2" points="175.62 447.15 175.62 446.3 394.58 341.8 686.45 347.14 686.45 348.58 468.69 452.51 175.62 447.15"/><path class="cls-3" d="M681.6,343.05h0l-5.69-.11h-.29l-9-.16-9-.16-264-4.83L203.55,428.53l-8,3.86h-.1l-8.08,3.85-6.89,3.28-8.07,3.85h0l-.82.4v.39l0,6.92,1,0h.31l8.66.16h0l6.81.12h.09l8.87.16h.11l5.85.11,3,.06h.1l5.86.11h0l6.89.12.8,0,1.26,0,6.9.13h.8l6,.11,2.17,0h.78l6,.12h0l6.91.12,2,0,6.89.13,9,.16,200.88,3.68,126.66-60.45,8-3.87h0l7.49-3.57.59-.28,7.49-3.57H620l6.78-3.28,1.11-.53.12-.06,6.85-3.27,1.12-.53h0l7-3.33.51-.24.61-.29,7.48-3.57h.07l6.79-3.28.21-.1,1-.48,6.87-3.28.22-.1,7.86-3.76.22-.1,7.48-3.57,6.67-3.18v-8.67Zm-10.29,8.32-.12.06-6.86,3.27-7.49,3.58-.21.1-.37.17-7.4,3.58h-.09l-.22.1-6.87,3.28-1,.48-.22.1-6.86,3.28-7.49,3.57-.6.29-.52.24-7,3.33-1.12.53-6.86,3.28-.11.05-1.12.53L602,384.47,594.47,388l-.59.28-7.39,3.58h-.1l-8.09,3.86L467.81,448.49l-183-3.34-9-.17-6.9-.12-2.05,0-6.9-.13h0l-6-.11h-.78l-2.17,0-6-.11-.79,0h0l-6.9-.12-1.27,0-.79,0-6.89-.13h0l-5.86-.1h-.11l-3-.06-5.85-.11h-.12l-6.79-.12-2.05,0h-.12l-6.8-.13h0l-6-.11h-.78l7.5-3.58,6.85-3.27,1.22-.58,6.88-3.28h.05l8-3.86,174-83,246.08,4.51,9,.16,6,.11,2.94,0,6,.11h0l6.88.13Z"/><polygon class="cls-2" points="203.82 439.95 188.25 439.66 175.34 439.42 175.34 438.57 394.29 334.07 686.17 339.42 686.16 340.86 657.18 354.7 468.4 444.79 203.82 439.95"/><path class="cls-4" d="M682.23,335.34h0l-288.81-5.29-213.79,102L171.53,436l-.2.1v7.31h1.91l8.17.15.78,0h0l6,.11,3,.06,6,.11h0l6.62.12h.3l2.05,0,6.79.13H213l5.85.11,3,.05h.1l5.86.11h0l6.89.13h.79l1.27,0,6.9.13h0l.78,0h0l6,.11,2.17,0,.78,0,6,.11,6.91.13,2.05,0,6.89.13,9,.16L468,448.8l1.25,0,111.11-53,8-3.87h.07l7.48-3.57.59-.28,7.49-3.57h.1l6.77-3.28,1.11-.53.11-.06,6.86-3.27,1.12-.53,7-3.33.51-.24.6-.29,7.49-3.57h.09l6.77-3.28.23-.1,1-.48,6.87-3.28.16-.11h.06l7.49-3.57.37-.18.2-.09h0l7.48-3.57,8.08-3.86,6.87-3.28,1.12-.53h0l6.42-3.08v-8.52Zm-10.71,8.08-.5.23-6.47,3.09-1.11.53h-.08l-6.77,3.28-.11.05-1,.49-.09,0-6.86,3.28L641,358l-.22.11-.37.17-7.48,3.57h-.07l-.16.11-6.87,3.28-1,.48-.22.1-6.86,3.28-7.49,3.57-.6.29-.52.24-7,3.33-1.11.53-6.86,3.28-.11.05-1.12.53-6.85,3.28h0l-7.49,3.57-.6.28-7.42,3.58h-.06l-8.09,3.86-94.93,45.3-167.12-3.06-9-.16-6.9-.13-2.05,0-6.91-.13-6-.11h-.78l-2.17,0-6-.11-.79,0-6.91-.12-1.26,0h-.8l-6.89-.13h0l-5.86-.1H238l-3-.05-5.85-.11h-.12l-6.79-.12-2,0h-.12l-6.8-.13-6-.11h-.78l-2.16,0h-.46l-5.54-.1h0l-.78,0-6.9-.13,6.79-3.28h.07l8.08-3.85,189-90.23.51-.24,261.91,4.8,9,.16h0l6,.11Z"/><polygon class="cls-2" points="203.21 432.53 187.18 432.23 175.35 432.01 175.36 431.17 394.31 326.66 686.19 332.01 686.18 333.45 672.77 339.85 657.81 346.98 642.24 354.42 468.42 437.38 203.21 432.53"/><path class="cls-3" d="M393.43,322.64l-222.08,106,0,7.31h.2l9,.16h0l6.59.12h.31l.78,0,8.15.15.78,0h0l6,.11,2.16,0h.78l6,.11,6.62.12h.3l2.05,0,6.79.13H228l5.85.11,3,0h.1l5.86.11h0l6.89.13h.79l1.27,0,6.9.12h0l.78,0h0l6,.11,2.16,0h.79l6,.11,6.91.13,2,0,6.89.13,9,.16,170.09,3.12,96.14-45.89,8.09-3.86,7.48-3.57.6-.28,7.49-3.58L596,381l1.11-.54.11-.05L604,377.1h.05l1-.54h.07l7-3.32.51-.25.6-.28,7.49-3.58,6.86-3.27.22-.11,1-.47,6.87-3.28h.06l.17-.11,7.48-3.57.37-.18.21-.1h0l7.44-3.57h0l6.85-3.27,1.12-.54.11,0,6.87-3.27,1.06-.54h.06l7-3.32,1.11-.53h0l7.4-3.57h.08l5.82-2.77v-8.53ZM671,336.24l-5.78,2.8h-.09l-7.49,3.57-.61.29-.51.24-.48.23-6.38,3.1h-.1l-1.12.53-6.85,3.27-.11.06-1,.48-.11.05-6.72,3.28h-.14l-7.48,3.57-.22.1-.37.18L618,361.56l-.21.11h0L610.89,365l-1,.47-.22.11-6.86,3.27h-.07l-7.42,3.58-.6.29-.52.24-6.9,3.33h-.07l-1.11.53L579.26,380l-.11.06-1.12.53-6.86,3.27h-.06l-7.43,3.58-.6.28-7.48,3.57h-.05l-8,3.86-80,38.17-152.17-2.78-9-.17h0l-6.89-.12-2.05,0-6.91-.13-6-.11h-.79l-2.16,0-6-.11-.79,0h0l-6.9-.12-1.26,0h-.8l-6.89-.13h0l-5.86-.1H253l-3-.05-5.85-.11H244l-6.79-.12-2.05,0h-.12l-6.8-.13-6-.11h-.78l-2.16,0h-.46l-5.55-.1h-.8l-6.9-.13-1.25,0-.8,0h-.27l-6.62-.13h0l-6-.11,204.5-97.6,276.88,5.07Z"/><text class="cls-5" transform="translate(198.66 580.94) scale(0.98 1)"><tspan class="cls-6">7</tspan><tspan x="17.16" y="0">80GR/M² BLANC </tspan><tspan x="0" y="36.13">ET INSE</tspan><tspan class="cls-7" x="117.52" y="36.13">R</tspan><tspan x="138.99" y="36.13">T </tspan><tspan class="cls-8" x="164.15" y="36.13">T</tspan><tspan x="181.01" y="36.13">URQUOISE</tspan></text></svg>