<svg id="Calque_1" data-name="Calque 1" xmlns="http://www.w3.org/2000/svg" viewBox="0 0 800 800"><defs><style>.cls-1{fill:#dedede;}.cls-2,.cls-8{fill:none;}.cls-2{stroke:#7b6f56;stroke-miterlimit:10;stroke-width:8.9px;}.cls-3{fill:#7b6f56;}.cls-4{font-size:30.1px;font-family:Montserrat-Regular, Montserrat;}.cls-4,.cls-9{fill:#9d876d;}.cls-5{letter-spacing:-0.01em;}.cls-6{letter-spacing:-0.02em;}.cls-7{letter-spacing:-0.04em;}.cls-8{stroke:#9d876d;stroke-linecap:round;stroke-linejoin:round;stroke-width:3.16px;}</style></defs><title>Plan de travail 175</title><polygon class="cls-1" points="590.49 640.46 169.33 640.46 169.33 219.3 408.84 219.3 590.49 400.75 590.49 640.46"/><polygon class="cls-2" points="590.49 640.46 169.33 640.46 169.33 219.3 408.84 219.3 590.49 400.75 590.49 640.46"/><path class="cls-3" d="M411,215,594.86,398.83a.16.16,0,0,1-.11.28H456.85a46.3,46.3,0,0,1-46.29-46.29V215.13A.25.25,0,0,1,411,215Z"/><text class="cls-4" transform="translate(190.31 553.62) scale(0.98 1)">ADHÉSIF <tspan x="0" y="36.13">REPOSITIONNABLE – </tspan><tspan x="0" y="72.25">EA</tspan><tspan class="cls-5" x="41.72" y="72.25">S</tspan><tspan class="cls-6" x="59.79" y="72.25">Y</tspan><tspan class="cls-7" x="78.33" y="72.25">W</tspan><tspan x="110.69" y="72.25">ALL</tspan></text><line class="cls-8" x1="207.98" y1="259.15" x2="207.98" y2="381.99"/><polygon class="cls-9" points="188.62 274.83 192.09 278.06 207.97 260.96 223.87 278.06 227.33 274.83 207.97 254.01 188.62 274.83"/><polygon class="cls-9" points="188.62 366.31 192.09 363.08 207.97 380.17 223.87 363.08 227.33 366.31 207.97 387.12 188.62 366.31"/><line class="cls-8" x1="239.95" y1="253.03" x2="345.01" y2="253.03"/><polygon class="cls-9" points="255.63 272.39 258.86 268.92 241.77 253.04 258.86 237.14 255.63 233.68 234.82 253.04 255.63 272.39"/><polygon class="cls-9" points="329.33 272.39 326.1 268.92 343.2 253.04 326.1 237.14 329.33 233.68 350.15 253.04 329.33 272.39"/></svg>