<svg id="Calque_1" data-name="Calque 1" xmlns="http://www.w3.org/2000/svg" viewBox="0 0 800 800"><defs><style>.cls-1{fill:#ecdacc;stroke:#7b6f56;stroke-width:8.9px;}.cls-1,.cls-7{stroke-miterlimit:10;}.cls-2{fill:#7b6f56;}.cls-3{font-size:30.1px;fill:#9d876d;font-family:Montserrat-Regular, Montserrat;}.cls-4{letter-spacing:0em;}.cls-5{letter-spacing:-0.01em;}.cls-6{letter-spacing:-0.03em;}.cls-7{fill:#fff;stroke:#634e42;stroke-width:2px;}</style></defs><title>Plan de travail 169</title><polygon class="cls-1" points="642.09 640.95 160.2 640.95 160.2 159.06 494.21 159.06 642.09 266.01 642.09 640.95"/><polygon class="cls-2" points="642.09 268.26 491.1 268.26 491.1 159.06 642.09 268.26"/><text class="cls-3" transform="translate(182.27 620.92) scale(0.98 1)">100GR/M² R<tspan class="cls-4" x="177.19" y="0">E</tspan><tspan class="cls-5" x="197.27" y="0">C</tspan><tspan class="cls-6" x="218.46" y="0">Y</tspan><tspan x="236.67" y="0">CLÉ</tspan></text><path class="cls-7" d="M252.89,159.36l8-4.69c-.26-.49-.46-.89-.69-1.28-4.79-8.37-9.61-16.73-14.38-25.11-1.2-2.1-2.51-4-5-5,.3,0,.59-.06.88-.07q15.54,0,31.09-.08a4.59,4.59,0,0,1,4.41,2.47c2.51,4.45,5.09,8.87,7.64,13.3.24.43.5.85.83,1.39l8.52-4.9c-.37.68-.55,1-.75,1.38-4.14,7.21-8.29,14.42-12.39,21.65a1.93,1.93,0,0,1-1.95,1.14c-8.37,0-16.73,0-25.1,0h-1.08Z"/><path class="cls-7" d="M231.1,188.82,222.7,184c-.28.44-.51.78-.72,1.13q-7.48,13-15,25.93a9,9,0,0,0-1.32,6.29c-.2-.32-.41-.63-.6-1q-7.79-13.38-15.57-26.75a4.92,4.92,0,0,1,0-5.41c2.59-4.36,5.12-8.77,7.66-13.16.23-.39.44-.79.74-1.33l-8.41-5c.61,0,.95-.09,1.29-.09H216c.63,0,1.15,0,1.56.68,4.41,7.64,8.87,15.25,13.31,22.87A6,6,0,0,1,231.1,188.82Z"/><path class="cls-7" d="M266.6,231.08v9.71a7,7,0,0,1-.66-.79q-6.42-11.13-12.81-22.29a1.7,1.7,0,0,1-.06-1.41q6.46-11.4,13-22.75c.09-.16.21-.3.53-.74v9.77h1.73c9.53,0,19.06,0,28.6,0a11,11,0,0,0,6.81-1.83,7,7,0,0,1-.35.79l-15.5,27.07a4.54,4.54,0,0,1-4.28,2.48c-5.16-.06-10.33,0-15.49,0Z"/><path class="cls-7" d="M271.87,173l24.36-14.11c.2.29.41.53.57.81,3.64,6.29,7.42,12.52,10.89,18.91,4.34,8,1.42,16.05-5.28,20.05a9.2,9.2,0,0,1-4.12,1.13c-3.41.15-6.83.07-10.24,0a1.7,1.7,0,0,1-1.27-.66q-7.44-12.84-14.8-25.73A2.93,2.93,0,0,1,271.87,173Z"/><path class="cls-7" d="M233.26,165.61,208.8,151.44c.25-.47.46-.87.68-1.26q5.4-9.33,10.81-18.68a14.45,14.45,0,0,1,19.83-5.3,9.6,9.6,0,0,1,3,3c1.83,2.83,3.41,5.81,5.13,8.71a1.47,1.47,0,0,1,.08,1.7q-7.41,12.74-14.75,25.49C233.53,165.26,233.42,165.38,233.26,165.61Z"/><path class="cls-7" d="M245.9,202.51v28.35h-1.21c-7.2,0-14.4,0-21.61,0a14.54,14.54,0,0,1-14.64-15.29,7.6,7.6,0,0,1,.9-3.19c1.66-3.07,3.44-6.08,5.24-9.07a1.9,1.9,0,0,1,1.31-.83c9.78,0,19.56,0,29.34,0C245.4,202.44,245.56,202.48,245.9,202.51Z"/></svg>