<svg id="Calque_1" data-name="Calque 1" xmlns="http://www.w3.org/2000/svg" viewBox="0 0 800 800"><defs><style>.cls-1{fill:none;stroke:#fff;stroke-width:15px;}.cls-1,.cls-2{stroke-miterlimit:10;}.cls-2{fill:#fff;stroke:#7b6f56;stroke-width:8.9px;}.cls-3{fill:#7b6f56;}.cls-4{font-size:30.1px;fill:#9d876d;font-family:Montserrat-Regular, Montserrat;}.cls-5{letter-spacing:-0.07em;}.cls-6{letter-spacing:-0.02em;}.cls-7{letter-spacing:-0.01em;}.cls-8{letter-spacing:-0.01em;}</style></defs><title>Plan de travail 176 copie</title><polygon class="cls-1" points="608.37 642.67 187.21 642.67 187.21 221.51 426.73 221.51 608.37 402.96 608.37 642.67"/><polygon class="cls-2" points="608.37 642.67 187.21 642.67 187.21 221.51 426.73 221.51 608.37 402.96 608.37 642.67"/><path class="cls-3" d="M428.86,217.16,612.74,401a.16.16,0,0,1-.11.28H474.73A46.3,46.3,0,0,1,428.44,355V217.34A.25.25,0,0,1,428.86,217.16Z"/><text class="cls-4" transform="translate(215.24 583.63) scale(0.98 1)">PO<tspan class="cls-5" x="46.87" y="0">L</tspan><tspan class="cls-6" x="62.37" y="0">Y</tspan><tspan class="cls-7" x="81.04" y="0">P</tspan><tspan x="102.35" y="0">RO</tspan><tspan class="cls-8" x="149.37" y="0">P</tspan><tspan class="cls-6" x="170.69" y="0">Y</tspan><tspan x="189.35" y="0">LÈNE </tspan><tspan x="0" y="36.13">BLANC 60Μ</tspan></text></svg>