<svg id="Calque_1" data-name="Calque 1" xmlns="http://www.w3.org/2000/svg" viewBox="0 0 800 800"><defs><style>.cls-1{fill:#f5e3d5;stroke:#7b6f56;stroke-width:8.9px;}.cls-1,.cls-8{stroke-miterlimit:10;}.cls-2{fill:#7b6f56;}.cls-3{font-size:30.1px;fill:#9d876d;font-family:Montserrat-Regular, Montserrat;}.cls-4{letter-spacing:0em;}.cls-5{letter-spacing:-0.02em;}.cls-6{letter-spacing:-0.03em;}.cls-7{letter-spacing:0em;}.cls-8{fill:#fff;stroke:#634e42;stroke-width:2px;}</style></defs><title>Plan de travail 153</title><polygon class="cls-1" points="649.05 640.95 167.16 640.95 167.16 159.06 501.18 159.06 649.05 266.01 649.05 640.95"/><polygon class="cls-2" points="649.05 268.26 498.07 268.26 498.07 159.06 649.05 268.26"/><text class="cls-3" transform="translate(204.9 620.92) scale(0.98 1)">80GR/M² R<tspan class="cls-4" x="165.6" y="0">E</tspan><tspan class="cls-5" x="185.68" y="0">C</tspan><tspan class="cls-6" x="206.87" y="0">Y</tspan><tspan class="cls-7" x="225.08" y="0">CLÉ</tspan></text><path class="cls-8" d="M259.85,159.36l8-4.69c-.27-.49-.47-.89-.69-1.28q-7.2-12.55-14.38-25.11c-1.2-2.1-2.51-4-5-5,.29,0,.58-.06.88-.07q15.54,0,31.09-.08a4.61,4.61,0,0,1,4.41,2.47c2.51,4.45,5.08,8.87,7.64,13.3.24.43.5.85.82,1.39l8.52-4.9-.74,1.38c-4.14,7.21-8.29,14.42-12.39,21.65a1.94,1.94,0,0,1-1.95,1.14c-8.37,0-16.74,0-25.1,0H259.9Z"/><path class="cls-8" d="M238.06,188.82,229.67,184c-.28.44-.51.78-.72,1.13q-7.48,13-15,25.93a9,9,0,0,0-1.32,6.29c-.2-.32-.41-.63-.6-1q-7.78-13.38-15.58-26.75a4.92,4.92,0,0,1,0-5.41c2.59-4.36,5.11-8.77,7.66-13.16.23-.39.44-.79.73-1.33l-8.4-5c.61,0,.95-.09,1.29-.09H223c.63,0,1.16,0,1.56.68q6.63,11.46,13.32,22.87C237.88,188.32,237.91,188.44,238.06,188.82Z"/><path class="cls-8" d="M273.57,231.08v9.71a7.41,7.41,0,0,1-.67-.79q-6.42-11.13-12.8-22.29a1.7,1.7,0,0,1-.06-1.41c4.3-7.6,8.66-15.17,13-22.75.1-.16.22-.3.54-.74v9.77h1.72c9.54,0,19.07,0,28.6,0a11,11,0,0,0,6.82-1.83,7.07,7.07,0,0,1-.36.79q-7.74,13.55-15.5,27.07a4.53,4.53,0,0,1-4.28,2.48c-5.16-.06-10.32,0-15.48,0Z"/><path class="cls-8" d="M278.84,173l24.36-14.11a9.12,9.12,0,0,1,.56.81c3.65,6.29,7.42,12.52,10.9,18.91,4.34,8,1.42,16.05-5.29,20.05a9.13,9.13,0,0,1-4.12,1.13c-3.4.15-6.82.07-10.23,0a1.7,1.7,0,0,1-1.27-.66c-5-8.56-9.88-17.15-14.8-25.73A2,2,0,0,1,278.84,173Z"/><path class="cls-8" d="M240.23,165.61l-24.47-14.17c.26-.47.46-.87.69-1.26q5.4-9.33,10.8-18.68a14.46,14.46,0,0,1,19.83-5.3,9.63,9.63,0,0,1,3,3c1.82,2.83,3.41,5.81,5.12,8.71a1.46,1.46,0,0,1,.09,1.7q-7.41,12.74-14.75,25.49C240.5,165.26,240.39,165.38,240.23,165.61Z"/><path class="cls-8" d="M252.86,202.51v28.35h-1.2c-7.21,0-14.41,0-21.61,0a14.53,14.53,0,0,1-14.64-15.29,7.74,7.74,0,0,1,.89-3.19c1.66-3.07,3.45-6.08,5.25-9.07a1.9,1.9,0,0,1,1.3-.83c9.79,0,19.57,0,29.35,0C252.36,202.44,252.52,202.48,252.86,202.51Z"/></svg>