<svg id="Calque_1" data-name="Calque 1" xmlns="http://www.w3.org/2000/svg" xmlns:xlink="http://www.w3.org/1999/xlink" viewBox="0 0 800 800"><defs><style>.cls-1,.cls-17,.cls-3{fill:#fff;}.cls-1,.cls-16{stroke:#7b6f56;stroke-width:8px;}.cls-1,.cls-10,.cls-11,.cls-12,.cls-13,.cls-14,.cls-15,.cls-16,.cls-6,.cls-7,.cls-8,.cls-9{stroke-miterlimit:10;}.cls-2{fill:#7b6f56;}.cls-4{clip-path:url(#clip-path);}.cls-5{opacity:0.7;}.cls-16,.cls-6{fill:none;}.cls-10,.cls-11,.cls-12,.cls-13,.cls-14,.cls-15,.cls-6,.cls-7,.cls-8,.cls-9{stroke:#3a3939;stroke-width:0.5px;}.cls-7{fill:#fbecd3;}.cls-8{fill:#9daea4;}.cls-9{fill:#799685;}.cls-10{fill:#de8c0c;}.cls-11{fill:#f28c01;}.cls-12{fill:#fdfdfe;}.cls-13{fill:#8c3414;}.cls-14{fill:#cf5516;}.cls-15{fill:#494020;}.cls-17{font-size:30.1px;font-family:Montserrat-Regular, Montserrat;}.cls-18{letter-spacing:-0.02em;}.cls-19{letter-spacing:0em;}</style><clipPath id="clip-path"><polygon class="cls-1" points="594.59 642.67 173.43 642.67 173.43 221.51 412.94 221.51 594.59 402.96 594.59 642.67"/></clipPath></defs><title>Plan de travail 189</title><polygon class="cls-2" points="594.59 642.67 173.43 642.67 173.43 221.51 412.94 221.51 594.59 402.96 594.59 642.67"/><polygon class="cls-3" points="594.59 642.67 173.43 642.67 173.43 221.51 412.94 221.51 594.59 402.96 594.59 642.67"/><g class="cls-4"><g class="cls-5"><polygon class="cls-6" points="592.09 640.34 176.05 640.34 176.05 224.3 448.93 224.01 448.93 224.01 592.09 224.3 591.51 359.91 592.09 640.34"/><path class="cls-7" d="M592.09,642.67H173.43V224h275.5s52.6,19.12,91.75,58.87,50.83,78.91,50.83,78.91Z"/><rect class="cls-8" x="173.43" y="474.86" width="418.66" height="167.81"/><path class="cls-9" d="M173.43,516.17a78.35,78.35,0,0,0,40.24-12.28c20.09-12.84,35.72-15.63,51.91-15.63s14.52,4.46,34.61,0,41.31-7.26,59.17-6.7,20.66-2.24,31.26,3.9,51.92,16,65.31,13.32,17.13,2.87,32.29,7.34,23-20.26,39.16-7.34,19.54,10.69,28.47,20.18,5.59,11.16,16.75,14.51,19.49,6.14,19.49,6.14V474.86H173.43Z"/><circle class="cls-10" cx="371.08" cy="370.89" r="40.25"/><circle class="cls-9" cx="361.29" cy="530.4" r="29.63"/><path class="cls-11" d="M591.51,359.91s-11-24-18.16-23.14-10.47,11.72-21.77,14.65-3.77,8.8-32.66,19.47-27.41,17-52.43,27-42.44,31.29-80.4,35.44-81.2,41.52-81.2,41.52h287.2Z"/><path class="cls-12" d="M383,352.08a268.09,268.09,0,0,0,37.69,0c18.08-1.55,20.28,1.1,25.57,0s-6.17-5.07-12.78-6.62-9.26,4.44-15.87,3.65-4.63-2.54-12.35-1.66-7.93,2.64-13.67,2.64S381.67,352,383,352.08Z"/><path class="cls-12" d="M216.53,399.16a131.54,131.54,0,0,0,20.07,0c12.2-.82,16.27.45,25.21.36s11.12,1.18,13.56,0-6-.63-11.66-2.8-6-4.72-12.2-3.31-3,4.39-10.85,1.14-6.77-6.24-12.47-3.53-2.71,4.61-11.66,5.15-13,1.63-10.84,2.17S216.53,399.16,216.53,399.16Z"/><path class="cls-13" d="M173.43,370.89s3.37,8.37,17.6,11.72,22.24-1,36.47,14.87,23.81,25.32,49.76,27.83,2.51.16,43.53,8,32.68,1.33,62,10.88,76.16,30.64,105.46,30.64H173.43Z"/><path class="cls-14" d="M340.88,474.86s10.89-7.7,29.3-11,18.26,6.7,51.83-5.44,37.27-18.69,49-17.57,14,8.37,27.92,9.49,11.16,5.58,27.91-1.12,22.32-25.82,36.28-26.3,29-14.45,29-14.45v66.43Z"/><path class="cls-15" d="M173.43,583.15c8.13-4.76,78.77,6.74,149,32.19,72.7,26.34,81.22,19.26,122.24,18.42s147.4,8.91,147.4,8.91H173.43Z"/><polygon class="cls-15" points="184.49 530.4 173.43 583.15 195.55 583.15 184.49 530.4"/><polygon class="cls-15" points="197.64 539.21 187.44 587.84 207.84 587.84 197.64 539.21"/><polygon class="cls-15" points="211.46 536.05 200.4 588.8 222.52 588.8 211.46 536.05"/><polygon class="cls-15" points="459.55 583.18 448.49 635.94 470.61 635.94 459.55 583.18"/><polygon class="cls-15" points="486.52 588.84 475.46 641.59 497.58 641.59 486.52 588.84"/><polygon class="cls-15" points="248.09 547.48 237.03 600.23 259.15 600.23 248.09 547.48"/><polygon class="cls-15" points="263.58 551.75 253.14 601.54 274.02 601.54 263.58 551.75"/><polygon class="cls-15" points="223.82 556.78 216.03 593.89 231.6 593.89 223.82 556.78"/><polygon class="cls-15" points="233.44 562.43 226.43 595.88 240.46 595.88 233.44 562.43"/><polygon class="cls-15" points="280.12 572.37 272.34 609.49 287.91 609.49 280.12 572.37"/><polygon class="cls-15" points="442.48 599.56 434.69 636.68 450.26 636.68 442.48 599.56"/><polygon class="cls-15" points="292.26 580.86 285.22 614.44 299.31 614.44 292.26 580.86"/><polygon class="cls-15" points="301 588.7 294.82 618.14 307.17 618.14 301 588.7"/><polygon class="cls-15" points="311.76 598.55 307.17 620.42 316.34 620.42 311.76 598.55"/><polygon class="cls-15" points="472.89 614.44 468.31 636.31 477.48 636.31 472.89 614.44"/><polygon class="cls-15" points="500 615.21 495.41 637.08 504.58 637.08 500 615.21"/><path class="cls-12" d="M559.9,447H540.68c-7.24,0-14.73,1.12-14.23-1.12s8.24.56,14-2.52,8.24-5.88,18-2.24,17.23,5.6,12.23,6.16A49.1,49.1,0,0,1,559.9,447Z"/><polyline class="cls-7" points="448.93 224.01 592.09 224.3 591.51 361.79"/></g><rect class="cls-2" x="173.43" y="547.3" width="418.66" height="95.37"/></g><polygon class="cls-16" points="594.59 642.67 173.43 642.67 173.43 221.51 412.94 221.51 594.59 402.96 594.59 642.67"/><path class="cls-3" d="M461,397.32A42.34,42.34,0,0,1,418.66,355V226.4L589.58,397.32Z"/><path class="cls-2" d="M422.66,236.06,579.92,393.32H461A38.34,38.34,0,0,1,422.66,355v-119m-7.75-19a.25.25,0,0,0-.25.25V355A46.3,46.3,0,0,0,461,401.32H598.84A.16.16,0,0,0,599,401L415.08,217.16a.23.23,0,0,0-.17-.07Z"/><text class="cls-17" transform="translate(185.46 593.98) scale(0.98 1)"><tspan class="cls-18">V</tspan><tspan class="cls-19" x="20.56" y="0">IN</tspan><tspan class="cls-18" x="54.13" y="0">Y</tspan><tspan x="72.79" y="0">LE MONOMÈRE </tspan><tspan x="0" y="36.13">BLANC</tspan></text></svg>