<svg id="Calque_1" data-name="Calque 1" xmlns="http://www.w3.org/2000/svg" viewBox="0 0 800 800"><defs><style>.cls-1,.cls-2{fill:#fff;}.cls-1{stroke:#7b6f56;stroke-miterlimit:10;stroke-width:8.9px;}.cls-3{fill:#7b6f56;}.cls-4{font-size:30.1px;fill:#9d876d;font-family:Montserrat-Regular, Montserrat;}.cls-5{letter-spacing:-0.02em;}.cls-6{letter-spacing:-0.01em;}</style></defs><title>Plan de travail 218</title><rect class="cls-1" x="149.52" y="207.53" width="431.37" height="431.37"/><polygon class="cls-2" points="157.07 493.74 157.07 492.88 202.22 471.34 376.02 388.39 625.68 392.95 640.62 393.23 667.9 393.73 667.9 395.17 450.13 499.1 157.07 493.74"/><path class="cls-3" d="M663,389.63l-5.68-.1h-1.11l-8.15-.15h-.82l-6.58-.12h-.3l-1.25,0h-.82l-6.88-.13h0l-5.68-.11h-.3l-3-.05-5.9-.11h-.1l-6.8-.12-2.06,0h-.09l-6.8-.13h0l-6-.11H594l-2.17,0-6-.11H585l-6.88-.13-1.25,0-.82,0-6.89-.12h0l-6-.11-3-.06-6-.11h0l-9-.16-170.1-3.11L279,430.25l-8.09,3.86-6.87,3.28-1.21.58L256,441.24h-.1l-7.39,3.58-.6.29-.5.24-6.85,3.33h-.13l-1.1.52-6.88,3.28-.1,0-1.1.53-6.84,3.28h0l-7.51,3.58-.2.1-.38.18-7.51,3.58-.17.1h0l-6.87,3.28-1,.48-.19.09h0L193.62,471l-7.49,3.58-.59.28h0l-.49.23-7,3.33h0l-1.08.53-7,3.33-1.09.52h0l-6.75,3.28H162L153.9,490h0l-.82.4,0,7.31,298,5.44L670.48,398.38v-8.62ZM173.4,489.53l6.43-3.1h.07l6.88-3.28,1.1-.52.1-.05,1-.48,5.87-2.8h0l1.1-.53,7-3.33.49-.24L204,475l.09,0,7.49-3.58,6.87-3.28.2-.09,1-.48,6.78-3.29h.09l.2-.09,7.51-3.58.38-.18.2-.1,7.51-3.58h.13l6.74-3.28,1.1-.53.1-.05,6.88-3.28,1.06-.53h0l7-3.33.5-.24.6-.28,7.49-3.58,6.87-3.28,1.21-.58,6.87-3.27h0l8.07-3.86,80-38.17,152.18,2.78,9,.17,6,.11,3,0,6,.11h0l6.88.13h.82l1.26,0,6.88.12h0l.79,0h0l6,.11,2.17,0h.81l6,.11,6.81.12h.09l2.06,0,6.8.13h.1l5.9.11,3,.05h.1l5.89.11h0l6.88.13H623l1.26,0,1.36,0,5.51.1h0l.8,0,6,.11,2.16,0h.81l6,.1h0l6.89.13-204.5,97.6L172.38,490Z"/><polygon class="cls-2" points="156.78 486.01 156.78 485.16 171.39 478.19 186.34 471.06 375.74 380.66 640.95 385.51 655.88 385.8 667.61 386.01 667.61 387.45 449.85 491.38 156.78 486.01"/><path d="M663.67,381.93h-.82l-6.89-.13-8.93-.17-5.89-.11H641l-2.94-.05-5.91-.11h-.1l-6.79-.13-2.06,0h-.1l-6.8-.12h0l-6-.11-.81,0-2.17,0-6-.11h-.81l-6.89-.13-1.25,0h-.82l-6.89-.13-6-.11-3-.05-6-.11h0l-8.94-.17-186-3.4L263.17,430l-8.09,3.86-6.87,3.28-1.21.58L240.13,441h-.06l-7.43,3.58-.6.29-.5.24-7,3.32h-.1l-1,.53-6.88,3.28-.1.05-1.1.53-6.8,3.28h-.07L201,459.63l-.2.1-.38.18-7.51,3.58h0l-.16.1h0l-6.87,3.28-1,.48-.21.1-6.86,3.27-8.1,3.86-7.48,3.57h0l-1.08.53-7,3.34h0l-1.1.52-.19.1,0,7.31h1.12l9,.16,287.87,5.28L663.91,393.66h0l6.53-3.14v-8.46ZM646,393.33l-8.09,3.86L449,487.36l-261-4.78-9-.16-6.9-.13,1-.48L179,479h0l1.06-.53,7-3.34.48-.23.49-.23.11-.05,7.5-3.58,6.86-3.28.2-.09,1-.48,6.78-3.29h.1l.19-.09,7.51-3.58.38-.18.2-.1,7.39-3.59h.12l6.87-3.27,1.1-.53.11-.05,6.87-3.28,1.09-.53h0l7-3.33.5-.24.6-.28,7.49-3.58,6.87-3.28,1.21-.58,6.87-3.27h.06l8-3.86,95.53-45.6,168,3.07,9,.17h0l6,.1,3,.06,6,.11h0l6.89.12.82,0,1.25,0,6.88.13h.82l6,.11,2.17,0,.81,0,6,.11h0l6.81.12h.09l2.06,0,6.8.12H616l5.91.1,3,.06h.1l5.88.11h0l6.89.12.82,0,1.25,0,1,0,5.82.11.8,0h0l6,.11Z"/><polygon class="cls-2" points="156.8 478.6 156.8 477.75 375.75 373.25 667.63 378.6 667.63 380.04 449.87 483.97 156.8 478.6"/><path class="cls-3" d="M662,374.49l-5.9-.11H656l-3-.05-5.89-.11H647l-6.8-.13-2.06,0h-.11l-6.79-.12h0l-6-.11-.81,0-2.17,0-6-.11h-.81l-6.88-.13-1.26,0-.82,0-6.89-.12-6-.11-3-.06-6-.11h0l-9-.16-199.63-3.66-1.26,0L248.21,429.68l-8.09,3.86H240l-6.77,3.28-1.22.58-6.86,3.28-7.5,3.58-.6.28-.5.24-7,3.33-1,.53h-.08l-6.88,3.28-.1.05-1.11.52-6.87,3.28L186,459.36l-.21.1-.37.17-7.51,3.59-.19.09-7.89,3.77-.18.08-6.82,3.29h-.06l-8.07,3.85-1.62.78-.31.15v7.31H153l9,.16,6.61.12h.3l9,.16,9,.16,264,4.84,190.14-90.74,8-3.87H649l8.07-3.85h0L664.4,386h.14l5.94-2.83v-8.48ZM172.13,474.87l.49-.23.51-.25.08,0,7.4-3.58h.1l6.85-3.27.21-.1,1-.48,6.87-3.28.2-.09h.06l7.45-3.59.38-.18.2-.09,7.51-3.59,6.87-3.28,1.11-.53.1,0,6.79-3.29h.09l1.1-.52,7-3.33.51-.24.6-.29,7.49-3.57h0l6.86-3.28,1.21-.58,6.87-3.28,8.09-3.86,110.51-52.74,183,3.36,9,.16,6,.11,3,.06,6,.11h0l6.89.12.82,0,1.26,0,6.87.13h.82l6,.11,2.17,0,.81,0,6,.11h0l6.81.12H622l2.06,0,6.8.12h.09l5.91.1,2.94.06h.11l5.89.11h0l6.88.13h.82l-6.81,3.28h-.06l-7.48,3.57-.58.28-7.49,3.57L623,396.91l-173.48,82.8L449,480l-246-4.51-9-.17h0l-6.88-.13-2.06,0-6.91-.13Z"/><polygon class="cls-2" points="157.11 478.06 157.11 477.21 376.06 372.71 667.94 378.05 667.94 379.49 450.17 483.42 157.11 478.06"/><path class="cls-3" d="M663.09,374h0l-5.68-.11h-.3l-8.86-.16h-.09l-6.81-.12-2.06,0h-.11l-6.79-.13-6-.11h-.81l-2.17,0-6-.11-.8,0h0l-6.89-.12-1.25,0-.82,0-6.88-.13h0l-6-.1-3-.06-6-.11-9-.16-201.7-3.69-127.78,61-8.08,3.86-6.88,3.28-1.21.58-6.86,3.27h-.13l-7.37,3.58-.6.29-.5.24-6.88,3.33h-.1l-1.1.52-6.88,3.28-.1.05-1.1.53-6.87,3.28-7.51,3.58-.22.1-.36.18-7.38,3.59h-.13l-.12.09H177l-7.9,3.76-.16.08h0L162,470.43l-8.06,3.85h0l-.82.4v.39l0,6.92,1,0h.3l8.65.16h0l6.91.12,9,.16h0l9,.17,263.17,4.82,189-90.22,8.1-3.86,8.08-3.86,7.48-3.57,6.75-3.22v-8.63Zm-10.29,8.32-.12.06-6.86,3.27-7.49,3.58-.58.27-7.4,3.58h-.09l-8.09,3.86L449.3,479.4,204,474.92l-9-.17h0l-6.89-.12-2.05,0-6.91-.13h0l-6-.11h-.78l7.5-3.58,6.85-3.27.21-.1,1-.48,6.88-3.28h0l.15-.1,7.52-3.58.37-.18.2-.1,7.52-3.58h.08l6.78-3.28,1.11-.53.1,0,6.88-3.28,1-.53h.09l7-3.32.51-.25.6-.28,7.45-3.58h0l6.86-3.27,1.22-.58,6.87-3.28,8.08-3.86,111.61-53.27,183.78,3.37,8.95.16,6,.11,3,.05,6,.11,6.89.13h.82l1.25,0,6.89.12.8,0,6,.11,2.16,0h.82l6,.11,6.8.13h.1l2.06,0,6.8.12h.1l5.9.11,2.94.05H641l5.9.1h0l6.87.13Z"/><polygon class="cls-2" points="185.31 470.86 169.74 470.57 156.82 470.33 156.82 469.48 375.77 364.98 667.65 370.33 667.65 371.77 638.66 385.61 449.89 475.7 185.31 470.86"/><path d="M663.8,366.26h-.09l-6.81-.12-9-.16h0l-6-.11-.81,0-2.16,0-6-.11h-.82l-6.87-.13-1.26,0-.81,0-6.9-.12h0l-6-.11-3-.06-6-.11h0l-8.94-.16L374.9,361,231.55,429.38l-8.09,3.86-6.87,3.28-1.21.58-6.87,3.27h-.08L201,444l-.6.29-.5.24-6.84,3.33h-.14l-1.1.52L185,451.61l-.1.05-1.1.53-6.84,3.28h0l-8.09,3.86-7.4,3.59h-.12l-.17.08-7.9,3.77-.19.09-.19.1,0,7.31h1.92l8.16.15.78,0h0l6,.11,3,.06,6,.11,6.62.12h.3l2.05,0,6.89.13,9,.16,246.07,4.51,1.25,0,173.49-82.79,8-3.87h.12l7.49-3.57.57-.27h0l7.48-3.57,8.08-3.86,6.87-3.28L664,378h0l6.5-3.12v-8.48ZM647.63,374l5.9.11-.52.25-.5.23L646,377.65l-1.11.53h-.08l-6.77,3.28-.11.05-1,.49-.09,0L630,385.32l-7.49,3.57-.59.28-7.48,3.57h-.11l-8,3.87L449,471.68l-229.41-4.19-9-.17-6.89-.12-2.05,0-6.91-.13-6-.11H188l-2.16,0h-.46l-5.54-.1h0l-.78,0-6.9-.13,6.8-3.28H179l.18-.09h0l7.51-3.58.37-.18.21-.1,7.51-3.58h.12l6.75-3.28,1.1-.53.1-.05,6.88-3.28,1.05-.53h.05l7-3.32.5-.25.6-.28,7.49-3.58,6.87-3.27,1.21-.58,6.87-3.28h0l8.08-3.86,126.67-60.46.51-.24,199.64,3.66,8.94.16,6,.11,3,.05,6,.11h0l6.89.13h.81l1.26,0,6.88.12h0l.8,0,6,.11,2.16,0h.81l6,.11h0l6.78.13h.11l2.06,0,6.81.12Z"/><polygon class="cls-2" points="184.69 463.44 168.67 463.14 156.84 462.92 156.84 462.07 375.79 357.57 667.67 362.92 667.67 364.36 654.26 370.76 639.3 377.89 623.72 385.33 449.91 468.29 184.69 463.44"/><path class="cls-3" d="M662.89,358.83l-6-.11-.81,0-8.15-.14h0l-.8,0-6.88-.13-1.25,0h-.82l-6.9-.13-6-.11-3-.05-6-.11h0l-8.93-.17L375,353.55h-.12l-158.3,75.56-8,3.86h-.11l-6.88,3.28-1.21.57-6.86,3.28-7.5,3.58-.59.28-.51.24-7,3.33-1.08.53h0l-7,3.33-1.1.52L162,455.19h-.07l-8,3.86-1,.5v7.31H153l9,.16,6.6.12h1.09l8.15.16h.8l6,.12,2.16,0h.78l6,.11,6.61.12h.3l2,0,6.89.13,9,.16,232.38,4.26.21-.1,158.3-75.56,8.1-3.86,7.48-3.57.58-.28h0l7.44-3.57h0l6.85-3.27,1.12-.54.11-.05,6.87-3.27,1.06-.54H649l7-3.32,1.11-.53h0l7.41-3.57h.07l5.9-2.81V359ZM646.66,370l-7.49,3.57-.61.29-.51.24-.48.23-6.38,3.1h-.1l-1.12.53-6.85,3.27-.11.06-1,.48-.1,0-6.73,3.28H615l-7.48,3.57-.59.28-7.49,3.57-8.09,3.86L449.25,464.17l-.21.1-214.47-3.92-9-.17-6.89-.12-2.05,0-6.91-.13-6-.11H203l-2.16,0h-.46l-5.55-.1H194l-6.9-.13-1.27,0-.8,0h-.25l-6.62-.13h0l-6-.11,7.71-3.68,6.87-3.28,1.1-.52.1-.05,6.88-3.28H195l1-.53,7-3.33.51-.24L204,444l7.5-3.58,6.87-3.28,1.21-.58,6.79-3.28h.08l8.08-3.86L376.67,361.6h.09l214.48,3.93,9,.16,6,.11,3,.06,6,.11h0l6.89.12.82,0,1.25,0,6.88.13h.82l6,.11,2.16,0,.81,0,6,.11h0l6.82.12-1,.48-5.74,2.8Z"/><polygon class="cls-2" points="157.15 462.83 157.15 461.98 202.3 440.43 376.1 357.48 625.76 362.04 640.7 362.32 667.98 362.82 667.97 364.26 450.21 468.19 157.15 462.83"/><path class="cls-3" d="M663.12,358.72l-5.69-.1h-1.1l-8.15-.15h-.82l-6.58-.12h-.3l-1.25,0h-.82l-6.89-.13h0l-5.67-.11h-.3l-3,0-6-.11-8.94-.16-232.4-4.25-.19.09-158.3,75.56L208.65,433h0l-6.86,3.28-1.2.57h0l-6.87,3.27-7.49,3.58-.59.28h0l-.51.24-7,3.32h-.05l-1,.53-7,3.33-1.09.52h0l-6.75,3.28h-.12L154,459.05h0l-.82.4,0,7.31h.08l8.95.17h0l6.89.12.8,0,8.16.15h.8l6,.11,2.16,0h.78l6,.11h0l6.9.13,2.05,0,6.89.12h0l9,.17L451,472.22h.1l158.3-75.56,8.09-3.86,7.49-3.57.59-.28,7.48-3.57h.14l6.72-3.28,1.12-.53.12-.06,6.85-3.27,1.12-.53h.11l6.85-3.33,1.13-.53,7.48-3.57h.11l5.69-2.77v-8.66ZM646.79,370h0l-7.47,3.57-.61.29-.51.24-7,3.33h0l-1.1.53-6.86,3.27-.11.06-1.12.53-6.82,3.28h0l-7.48,3.57-.59.28-7.48,3.57h0l-8.06,3.87L449.34,464.17h-.09l-214.48-3.92-9-.17h0l-6.89-.12-2,0L210,459.8h0l-6-.11-.78,0-2.16,0-6-.11h-.8l-6.9-.13-1.27,0-.79,0-6.9-.12-5.88-.11,1-.49,6.43-3.1H180l6.88-3.28,1.1-.52.1-.05,1-.48,5.86-2.8h0l1.09-.53,7-3.33.5-.24.51-.24.09,0,7.49-3.58,6.87-3.28,1.21-.57,6.87-3.28h.1l8-3.86L376.76,361.6l.21-.1,214.49,3.92,8.94.17h0l6,.11,3,.05,6,.11,6.89.13h.82l1.26,0,1.36,0,5.51.1h0l.8,0,6,.11,2.16,0H641l6,.1h0l6.89.13Z"/><polygon class="cls-2" points="156.86 455.1 156.86 454.25 171.47 447.28 186.42 440.15 375.81 349.75 641.03 354.61 655.96 354.89 667.69 355.1 667.69 356.54 449.93 460.47 156.86 455.1"/><path d="M663.75,351h-.82l-6.89-.13-8.94-.17-6-.11-2.94-.05-6-.11-8.95-.17-248.26-4.54L200.88,428.82l-8,3.86h0L185.92,436l-1.22.58-6.86,3.27-8.1,3.86-7.49,3.57h0l-1.08.53-7,3.34h0l-1.09.52-.2.1V459H154l8.86.16h.11l5.86.11,9,.16,6.89.13h.79l1.27,0,6.9.12h0l.78,0h0l6,.11,2.17,0h.77l6,.11,6.91.13,2.05,0,6.89.12h0l9,.17,216.61,4,142.73-68.13,8.1-3.86,7.48-3.57.59-.28,7.37-3.58h.12l6.86-3.27,1.12-.53.11-.06,6.86-3.27,1.11-.53h.12l6.85-3.33.51-.24.61-.29,7.35-3.58h.13l8.08-3.85,6.87-3.28.22-.1h0l6.45-3.1v-8.5Zm-17.88,11.5L639,365.8l-1,.48-.21.1L631,369.66h-.05l-7.49,3.57-.6.29-.52.24-7,3.33-1.12.53-6.86,3.27-.11.06-1.12.53-6.79,3.28h-.07l-7.49,3.57-.59.28-7.48,3.57h-.07l-8,3.87-126.56,60.4-198.71-3.64-9-.16h0l-6.88-.13-2.06,0-6.91-.12-6-.11-.78,0-2.17,0-6-.11h-.81l-6.9-.13-1.26,0-.8,0-6.89-.12h0l-5.86-.11H188l-3-.06-5.86-.1H179l-6.82-.12,1-.48,5.88-2.8h.05l1-.53,7-3.33.5-.24.49-.23.11,0,7.5-3.58,6.86-3.28,1.21-.57L210.7,433h.13l8-3.86,157.9-75.37L607,358l8.94.16h0l6,.11,3,.06,6,.11,6.9.12.82,0,1.25,0,1.05,0,5.82.11.8,0h0l6,.11-7.48,3.57Z"/><polygon class="cls-2" points="156.88 447.69 156.88 446.84 375.83 342.34 667.71 347.69 667.71 349.13 449.94 453.06 156.88 447.69"/><path class="cls-3" d="M662.05,343.58l-6-.11-3-.05-6-.11h0l-9-.17-261.91-4.8-1.26,0-189,90.23-8.07,3.85-8.09,3.86-6.82,3.28h-.05l-8.09,3.85-1.61.78-.31.15,0,7.31h.2l9,.16,6.6.12h.3l8.86.16h.11l5.86.11,3,.05h.1l5.87.11,6.89.13h.79l1.27,0,6.9.12h0l.78,0h0l6,.11,2.16,0h.78l6,.11,6.91.13,2,0,6.89.12h0l9,.17,201.67,3.7,127.78-61,8.1-3.86,7.48-3.57.59-.29,7.49-3.57,6.86-3.27,1.12-.54.11-.05,6.86-3.27h.09l1-.54,7-3.32.51-.25.61-.29,7.48-3.57,6.86-3.27.21-.1,1-.48,6.74-3.29h.13l.19-.1h0l7.86-3.75.21-.1h0l7.34-3.57h.14l5.86-2.79v-8.52ZM178.18,444.08l-6-.11.5-.24.5-.25.08,0,7.4-3.58h.1l6.85-3.27,1.22-.58,6.87-3.28,8.09-3.86,172.89-82.51L622,350.86l8.95.16h0l6,.11,2.94.06,6,.11,6.89.13h.82l-6.81,3.28h-.06l-7.48,3.57-.21.1-.37.18-7.49,3.57-.19.11h0l-6.88,3.28-1,.47-.22.11L616,369.38h0L608.5,373l-.61.28-.51.25-7,3.32h-.1l-1,.54-6.86,3.27-.11.05-1.12.54-6.86,3.27h0l-7.47,3.58-.59.28-7.49,3.57-8.09,3.86-111.1,53-.51.24-183.77-3.37-9-.16-6.89-.13-2,0-6.91-.13h0l-6-.11h-.78l-2.16,0-6-.11-.79,0-6.9-.12-1.27,0h-.79l-6.9-.13-5.86-.11h-.11l-3,0-5.86-.11h-.12l-6.78-.13-2.06,0H185Z"/><polygon class="cls-2" points="157.19 447.15 157.19 446.3 376.14 341.8 668.02 347.14 668.01 348.58 450.25 452.51 157.19 447.15"/><path class="cls-3" d="M663.17,343.05h0l-5.69-.11h-.29l-8.95-.16-9-.16-264-4.83L185.12,428.53l-8,3.86h-.1L169,436.24l-6.89,3.28L154,443.37h0l-.82.4v.39l0,6.92,1,0h.31l8.66.16h0l6.81.12H170l8.87.16H179l5.85.11,3,.06h.1l5.86.11h0l6.89.12.8,0,1.26,0,6.9.13h.8l6,.11,2.17,0h.78l6,.12h0l6.91.12,2,0,6.89.13,9,.16,200.88,3.68,126.66-60.45,8.05-3.87h0l7.49-3.57.59-.28,7.49-3.57h.08l6.78-3.28,1.11-.53.12-.06,6.85-3.27,1.12-.53h0l7-3.33.51-.24.61-.29,7.48-3.57h.07l6.79-3.28.21-.1,1-.48,6.87-3.28.22-.1,7.86-3.76.22-.1,7.48-3.57,6.67-3.18v-8.67Zm-10.29,8.32-.12.06-6.86,3.27-7.49,3.58-.21.1-.37.17-7.4,3.58h-.09l-.22.1-6.87,3.28-1,.48-.22.1-6.86,3.28-7.49,3.57-.6.29-.52.24-7,3.33-1.12.53-6.86,3.28-.11.05-1.12.53-6.86,3.28L576,388l-.59.28-7.39,3.58H568l-8.09,3.86L449.38,448.49l-183-3.34-9-.17-6.9-.12-2.05,0-6.9-.13h0l-6-.11h-.78l-2.17,0-6-.11-.79,0h0l-6.9-.12-1.27,0-.79,0-6.89-.13h0l-5.86-.1H204l-3-.06-5.85-.11h-.12l-6.79-.12-2,0h-.12l-6.8-.13h0l-6-.11h-.78l7.5-3.58,6.85-3.27,1.22-.58,6.88-3.28h0l8-3.86,174-83,246.08,4.51,8.95.16,6,.11,2.94,0,6,.11h0l6.88.13Z"/><polygon class="cls-2" points="185.38 439.95 169.82 439.66 156.9 439.42 156.9 438.57 375.85 334.07 667.73 339.42 667.73 340.86 638.74 354.7 449.97 444.79 185.38 439.95"/><path d="M663.8,335.34h0L375,330.05l-213.79,102L153.1,436l-.2.1v7.31h1.91l8.17.15.78,0h0l6,.11,3,.06,6,.11h0l6.62.12h.3l2,0,6.79.13h.12l5.85.11,3,.05h.1l5.86.11h0l6.89.13h.79l1.27,0,6.9.13h0l.78,0h0l6,.11,2.17,0,.78,0,6,.11,6.91.13,2,0,6.89.13,9,.16,183.78,3.37,1.25,0L562,395.8l8-3.87H570l7.48-3.57.59-.28,7.49-3.57h.1l6.77-3.28,1.11-.53.11-.06,6.86-3.27,1.12-.53,7-3.33.51-.24.6-.29,7.49-3.57h.09l6.77-3.28.23-.1,1-.48,6.87-3.28.16-.11h.06l7.49-3.57.37-.18.2-.09h0l7.48-3.57,8.08-3.86,6.87-3.28,1.12-.53h0l6.42-3.08v-8.52Zm-10.71,8.08-.5.23-6.47,3.09-1.11.53h-.08l-6.77,3.28-.11.05-1,.49-.09,0-6.86,3.28L622.58,358l-.22.11-.37.17-7.48,3.57h-.07l-.16.11-6.87,3.28-1,.48-.22.1-6.86,3.28-7.49,3.57-.6.29-.52.24-7,3.33-1.11.53-6.86,3.28-.11.05-1.12.53-6.85,3.28h0l-7.49,3.57-.6.28-7.42,3.58h-.06L544,395.47l-94.93,45.3L282,437.71l-9-.16-6.9-.13-2.05,0-6.91-.13-6-.11h-.78l-2.17,0-6-.11-.79,0-6.91-.12-1.26,0h-.8l-6.89-.13h0l-5.86-.1h-.1l-3-.05-5.85-.11h-.12l-6.79-.12-2.05,0h-.12l-6.8-.13-6-.11h-.78l-2.16,0h-.46l-5.54-.1h0l-.78,0-6.9-.13,6.79-3.28h.07l8.08-3.85,189.05-90.23.51-.24,261.91,4.8,9,.16h0l6,.11Z"/><polygon class="cls-2" points="184.77 432.53 168.75 432.23 156.92 432.01 156.92 431.17 375.87 326.66 667.75 332.01 667.75 333.45 654.34 339.85 639.38 346.98 623.8 354.42 449.99 437.38 184.77 432.53"/><path class="cls-3" d="M375,322.64l-222.08,106,0,7.31h.2l9,.16h0l6.59.12H169l.78,0,8.15.15.78,0h0l6,.11,2.16,0h.78l6,.11,6.62.12h.3l2.05,0,6.79.13h.12l5.85.11,3,0h.1l5.86.11h0l6.89.13H232l1.27,0,6.9.12h0l.78,0h0l6,.11,2.16,0H250l6,.11,6.91.13,2.05,0,6.89.13,9,.16,170.09,3.12L547,395.52l8.09-3.86,7.48-3.57.6-.28,7.49-3.58,6.86-3.27,1.11-.54.11-.05,6.86-3.27h0l1-.54h.07l7-3.32.51-.25.6-.28,7.49-3.58,6.86-3.27.22-.11,1-.47,6.87-3.28h.06l.17-.11,7.48-3.57.37-.18.21-.1h0l7.44-3.57h0l6.85-3.27,1.12-.54.11,0,6.87-3.27,1.06-.54h.06l7-3.32,1.11-.53h0l7.4-3.57h.08l5.82-2.77v-8.53Zm277.61,13.6-5.78,2.8h-.09l-7.49,3.57-.61.29-.51.24-.48.23-6.38,3.1h-.1l-1.12.53-6.85,3.27-.11.06-1,.48-.11.05-6.72,3.28h-.14l-7.48,3.57-.22.1L607,358l-7.49,3.57-.21.11h0L592.46,365l-1,.47-.22.11-6.86,3.27h-.07l-7.42,3.58-.6.29-.52.24-6.9,3.33h-.07l-1.11.53L560.83,380l-.11.06-1.12.53-6.86,3.27h-.06l-7.43,3.58-.6.28-7.48,3.57h0l-8,3.86-80,38.17-152.17-2.78-9-.17h0l-6.89-.12-2.05,0-6.91-.13-6-.11h-.79l-2.16,0-6-.11-.79,0h0l-6.9-.12-1.26,0h-.8l-6.89-.13h0l-5.86-.1h-.11l-3-.05-5.85-.11h-.12l-6.79-.12-2,0h-.12l-6.8-.13-6-.11H203l-2.16,0h-.46l-5.55-.1h-.8l-6.9-.13-1.25,0-.8,0h-.27l-6.62-.13h0l-6-.11,204.5-97.6,276.88,5.07Z"/><text class="cls-4" transform="translate(180.22 580.94) scale(0.98 1)"><tspan class="cls-5">7</tspan><tspan x="17.16" y="0">80GR/M² BLANC</tspan><tspan x="0" y="36.13">ET INSE</tspan><tspan class="cls-6" x="117.52" y="36.13">R</tspan><tspan x="138.99" y="36.13">T NOIR</tspan></text></svg>