<svg id="Calque_1" data-name="Calque 1" xmlns="http://www.w3.org/2000/svg" viewBox="0 0 800 800"><defs><style>.cls-1,.cls-2{fill:#fff;}.cls-1{stroke:#7b6f56;stroke-miterlimit:10;stroke-width:8.9px;}.cls-3{fill:#7b6f56;}.cls-4{font-size:30.1px;fill:#9d876d;font-family:Montserrat-Regular, Montserrat;}.cls-5{letter-spacing:-0.02em;}.cls-6{letter-spacing:-0.01em;}</style></defs><title>Plan de travail 214</title><rect class="cls-1" x="168.58" y="207.53" width="431.37" height="431.37"/><polygon class="cls-2" points="176.13 493.74 176.13 492.88 221.28 471.34 395.08 388.39 644.74 392.95 659.68 393.23 686.96 393.73 686.96 395.17 469.19 499.1 176.13 493.74"/><path class="cls-3" d="M682.1,389.63l-5.68-.1h-1.11l-8.15-.15h-.82l-6.58-.12h-.3l-1.25,0h-.82l-6.88-.13h0l-5.68-.11h-.3l-3-.05-5.9-.11h-.1l-6.8-.12-2.06,0h-.09l-6.8-.13h0l-6-.11H613l-2.17,0-6-.11h-.82l-6.88-.13-1.25,0-.82,0-6.89-.12h0l-6-.11-3-.06-6-.11h0l-9-.16-170.1-3.11-96.12,45.88L290,434.11l-6.87,3.28-1.21.58-6.87,3.27H275l-7.39,3.58-.6.29-.5.24-6.85,3.33h-.13l-1.1.52-6.88,3.28-.1,0-1.1.53-6.84,3.28h0l-7.51,3.58-.2.1-.38.18-7.51,3.58-.17.1h0l-6.87,3.28-1,.48-.19.09h0L212.68,471l-7.49,3.58-.59.28h0l-.49.23-7,3.33h0L196,479l-7,3.33-1.09.52h0l-6.75,3.28H181L173,490h0l-.82.4,0,7.31,298,5.44L689.54,398.38v-8.62Zm-489.64,99.9,6.43-3.1H199l6.88-3.28,1.1-.52.1-.05,1-.48,5.87-2.8h0l1.1-.53,7-3.33.49-.24L223,475l.09,0,7.49-3.58,6.87-3.28.2-.09,1-.48,6.78-3.29h.09l.2-.09,7.51-3.58.38-.18.2-.1,7.51-3.58h.13l6.74-3.28,1.1-.53.1-.05,6.88-3.28,1.06-.53h0l7-3.33.5-.24.6-.28,7.49-3.58,6.87-3.28,1.21-.58,6.87-3.27h0l8.07-3.86,80-38.17,152.18,2.78,9,.17,6,.11,3,0,6,.11h0l6.88.13h.82l1.26,0,6.88.12h0l.79,0h0l6,.11,2.17,0h.81l6,.11,6.81.12h.09l2.06,0,6.8.13h.1l5.9.11,3,.05h.1l5.89.11h0l6.88.13h.82l1.26,0,1.36,0,5.51.1h0l.8,0,6,.11,2.16,0h.81l6,.1h0l6.89.13-204.5,97.6L191.44,490Z"/><polygon class="cls-2" points="175.84 486.01 175.84 485.16 190.45 478.19 205.4 471.06 394.8 380.66 660.01 385.51 674.95 385.8 686.67 386.01 686.67 387.45 468.91 491.38 175.84 486.01"/><path class="cls-2" d="M682.73,381.93h-.82l-6.89-.13-8.93-.17-5.89-.11h-.12l-2.94-.05-5.91-.11h-.1l-6.79-.13-2.06,0h-.1l-6.8-.12h0l-6-.11-.81,0-2.17,0-6-.11h-.81l-6.89-.13-1.25,0h-.82l-6.89-.13-6-.11-3-.05-6-.11h0l-8.94-.17-186-3.4L282.23,430l-8.09,3.86-6.87,3.28-1.21.58L259.19,441h-.06l-7.43,3.58-.6.29-.5.24-7,3.32h-.1l-1,.53-6.88,3.28-.1.05-1.1.53-6.8,3.28h-.07l-7.51,3.58-.2.1-.38.18L212,463.49h0l-.16.1h0l-6.87,3.28-1,.48-.21.1-6.86,3.27-8.1,3.86-7.48,3.57h0l-1.08.53-7,3.34h0l-1.1.52-.19.1,0,7.31H173l9,.16,287.87,5.28L683,393.66h0l6.53-3.14v-8.46Zm-17.67,11.4L657,397.19,468,487.36l-261-4.78-9-.16-6.9-.13,1-.48,5.88-2.8h0l1.06-.53,7-3.34.48-.23.49-.23.11-.05,7.5-3.58,6.86-3.28.2-.09,1-.48,6.78-3.29h.1l.19-.09,7.51-3.58.38-.18.2-.1,7.39-3.59h.12l6.87-3.27,1.1-.53.11-.05,6.87-3.28,1.09-.53h0l7-3.33.5-.24.6-.28,7.49-3.58L284,438l1.21-.58,6.87-3.27h.06l8-3.86,95.53-45.6,168,3.07,8.95.17h0l6,.1,3,.06,6,.11h0l6.89.12.82,0,1.25,0,6.88.13h.82l6,.11,2.17,0,.81,0,6,.11h0l6.81.12h.09l2.06,0,6.8.12h.09l5.91.1,3,.06h.1l5.88.11h0l6.89.12.82,0,1.25,0,1,0,5.82.11.8,0h0l6,.11Z"/><polygon class="cls-2" points="175.86 478.6 175.86 477.75 394.81 373.25 686.69 378.6 686.69 380.04 468.93 483.97 175.86 478.6"/><path class="cls-3" d="M681,374.49l-5.9-.11H675l-3-.05-5.89-.11h-.1l-6.8-.13-2.06,0h-.11l-6.79-.12h0l-6-.11-.81,0-2.17,0-6-.11h-.81l-6.88-.13-1.26,0-.82,0-6.89-.12-6-.11-3-.06-6-.11h0l-8.95-.16L395.2,369.25l-1.26,0L267.27,429.68l-8.09,3.86h-.1l-6.77,3.28-1.22.58-6.86,3.28-7.5,3.58-.6.28-.5.24-7,3.33-1,.53h-.08l-6.88,3.28-.1.05-1.11.52-6.87,3.28-7.51,3.59-.21.1-.37.17L197,463.22l-.19.09-7.89,3.77-.18.08-6.82,3.29h-.06l-8.07,3.85-1.62.78-.31.15v7.31H172l9,.16,6.61.12h.3l9,.16,9,.16,264,4.84,190.14-90.74,8-3.87h0l8.07-3.85h0l7.34-3.57h.14l5.94-2.83v-8.48ZM191.19,474.87l.49-.23.51-.25.08,0,7.4-3.58h.1l6.85-3.27.21-.1,1-.48,6.87-3.28.2-.09H215l7.45-3.59.38-.18.2-.09,7.51-3.59,6.87-3.28,1.11-.53.1,0,6.79-3.29h.09l1.1-.52,7-3.33.51-.24.6-.29,7.49-3.57h0l6.86-3.28,1.21-.58,6.87-3.28,8.09-3.86,110.51-52.74,183,3.36,9,.16,6,.11,3,.06,6,.11h0l6.89.12.82,0,1.26,0,6.87.13h.82l6,.11,2.17,0,.81,0,6,.11h0l6.81.12h.09l2.06,0,6.8.12H650l5.91.1,2.94.06H659l5.89.11h0l6.88.13h.82l-6.81,3.28h-.06l-7.48,3.57-.58.28-7.49,3.57-8.09,3.86-173.48,82.8-.51.24-246-4.51-9-.17h0l-6.88-.13-2.06,0-6.91-.13Z"/><polygon class="cls-2" points="176.17 478.06 176.17 477.21 395.12 372.71 687 378.05 687 379.49 469.23 483.42 176.17 478.06"/><path class="cls-3" d="M682.15,374h0l-5.68-.11h-.3l-8.86-.16h-.09l-6.81-.12-2.06,0h-.11l-6.79-.13-6-.11h-.81l-2.17,0-6-.11-.8,0h0l-6.89-.12-1.25,0-.82,0-6.88-.13h0l-6-.1-3-.06-6-.11-8.95-.16-201.7-3.69-127.78,61-8.08,3.86-6.88,3.28-1.21.58-6.86,3.27h-.13l-7.37,3.58-.6.29-.5.24L228,448.1h-.1l-1.1.52-6.88,3.28-.1.05-1.1.53-6.87,3.28-7.51,3.58-.22.1-.36.18-7.38,3.59h-.13l-.12.09H196l-7.9,3.76-.16.08h0l-6.89,3.28L173,474.28h0l-.82.4v.39l0,6.92,1,0h.3l8.65.16h0l6.91.12,9,.16h0l9,.17,263.17,4.82,189-90.22,8.1-3.86,8.08-3.86,7.48-3.57,6.75-3.22v-8.63Zm-10.29,8.32-.12.06-6.86,3.27-7.49,3.58-.58.27-7.4,3.58h-.09l-8.09,3.86L468.36,479.4,223.1,474.92l-9-.17h0l-6.89-.12-2.05,0-6.91-.13h0l-6-.11h-.78l7.5-3.58,6.85-3.27.21-.1,1-.48,6.88-3.28h0l.15-.1,7.52-3.58.37-.18.2-.1,7.52-3.58h.08l6.78-3.28,1.11-.53.1,0,6.88-3.28,1-.53h.09l7-3.32.51-.25.6-.28,7.45-3.58h0l6.86-3.27,1.22-.58,6.87-3.28,8.08-3.86L396,376.73l183.78,3.37,9,.16,6,.11,3,.05,6,.11,6.89.13h.82l1.25,0,6.89.12.8,0,6,.11,2.16,0h.82l6,.11,6.8.13h.1l2.06,0,6.8.12h.1l5.9.11,2.94.05h.11l5.9.1h0l6.87.13Z"/><polygon class="cls-2" points="204.37 470.86 188.8 470.57 175.88 470.33 175.88 469.48 394.83 364.98 686.71 370.33 686.71 371.77 657.72 385.61 468.95 475.7 204.37 470.86"/><path class="cls-2" d="M682.86,366.26h-.09l-6.81-.12-9-.16h0l-6-.11-.81,0-2.16,0-6-.11h-.82l-6.87-.13-1.26,0-.81,0-6.9-.12h0l-6-.11-3-.06-6-.11h0l-8.94-.16L394,361,250.61,429.38l-8.09,3.86-6.87,3.28-1.21.58-6.87,3.27h-.08L220.08,444l-.6.29-.5.24-6.84,3.33H212l-1.1.52L204,451.61l-.1.05-1.1.53L196,455.47h0l-8.09,3.86-7.4,3.59h-.12l-.17.08-7.9,3.77-.19.09-.19.1,0,7.31h1.92l8.16.15.78,0h0l6,.11,3,.06,6,.11,6.62.12h.3l2,0,6.89.13,9,.16,246.07,4.51,1.25,0,173.49-82.79,8-3.87h.12l7.49-3.57.57-.27h0l7.48-3.57,8.08-3.86,6.87-3.28L683,378h0l6.5-3.12v-8.48ZM666.69,374l5.9.11-.52.25-.5.23-6.47,3.09-1.11.53h-.08l-6.77,3.28-.11.05-1,.49-.09,0-6.86,3.28-7.49,3.57-.59.28-7.48,3.57h-.11l-8,3.87L468.08,471.68l-229.41-4.19-9-.17-6.89-.12-2.05,0-6.91-.13-6-.11h-.78l-2.16,0h-.46l-5.54-.1h0l-.78,0-6.9-.13,6.8-3.28h.06l.18-.09h0l7.51-3.58.37-.18.21-.1,7.51-3.58H214l6.75-3.28,1.1-.53.1-.05,6.88-3.28,1.05-.53h0l7-3.32.5-.25.6-.28,7.49-3.58,6.87-3.27,1.21-.58,6.87-3.28h0l8.08-3.86L395.2,369.25l.51-.24,199.64,3.66,8.94.16,6,.11,3,.05,6,.11h0l6.89.13H627l1.26,0,6.88.12h0l.8,0,6,.11,2.16,0h.81l6,.11h0l6.78.13h.11l2.06,0,6.81.12Z"/><polygon class="cls-2" points="203.75 463.44 187.73 463.14 175.9 462.92 175.9 462.07 394.85 357.57 686.73 362.92 686.73 364.36 673.32 370.76 658.36 377.89 642.78 385.33 468.97 468.29 203.75 463.44"/><path class="cls-3" d="M682,358.83l-6-.11-.81,0-8.15-.14h0l-.8,0-6.88-.13-1.25,0h-.82l-6.9-.13-6-.11-3-.05-6-.11h0l-8.93-.17L394.1,353.55H394l-158.3,75.56-8,3.86h-.11l-6.88,3.28-1.21.57-6.86,3.28-7.5,3.58-.59.28-.51.24-7,3.33-1.08.53h0l-7,3.33-1.1.52L181,455.19H181l-8,3.86-1,.5v7.31h.19l9,.16,6.6.12h1.09l8.15.16h.8l6,.12,2.16,0h.78l6,.11,6.61.12h.3l2,0,6.89.13,9,.16,232.38,4.26.21-.1,158.3-75.56,8.1-3.86,7.48-3.57.58-.28h0l7.44-3.57h0l6.85-3.27,1.12-.54.11-.05,6.87-3.27,1.06-.54h.06l7-3.32,1.11-.53h0l7.41-3.57h.07l5.9-2.81V359ZM665.72,370l-7.49,3.57-.61.29-.51.24-.48.23-6.38,3.1h-.1l-1.12.53-6.85,3.27-.11.06-1,.48-.1,0-6.73,3.28h-.14l-7.48,3.57-.59.28-7.49,3.57-8.09,3.86L468.31,464.17l-.21.1-214.47-3.92-9-.17-6.89-.12-2.05,0-6.91-.13-6-.11H222l-2.16,0h-.46l-5.55-.1h-.8l-6.9-.13-1.27,0-.8,0h-.25l-6.62-.13h0l-6-.11,7.71-3.68,6.87-3.28,1.1-.52.1-.05,6.88-3.28H214l1-.53,7-3.33.51-.24.59-.28,7.5-3.58,6.87-3.28,1.21-.58,6.79-3.28h.08l8.08-3.86L395.73,361.6h.09l214.48,3.93,9,.16,6,.11,3,.06,6,.11h0l6.89.12.82,0,1.25,0,6.88.13h.82l6,.11,2.16,0,.81,0,6,.11h0l6.82.12-1,.48-5.74,2.8Z"/><polygon class="cls-2" points="176.21 462.83 176.21 461.98 221.36 440.43 395.16 357.48 644.82 362.04 659.76 362.32 687.04 362.82 687.03 364.26 469.27 468.19 176.21 462.83"/><path class="cls-3" d="M682.18,358.72l-5.69-.1h-1.1l-8.15-.15h-.82l-6.58-.12h-.3l-1.25,0h-.82l-6.89-.13h0L644.9,358h-.3l-3,0-6-.11-8.94-.16-232.4-4.25-.19.09L235.8,429.11,227.71,433h0l-6.86,3.28-1.2.57h0l-6.87,3.27-7.49,3.58-.59.28h0l-.51.24-7,3.32h-.05l-1,.53-7,3.33-1.09.52h0l-6.75,3.28h-.12L173,459.05h0l-.82.4,0,7.31h.08l8.95.17h0l6.89.12.8,0,8.16.15h.8l6,.11,2.16,0h.78l6,.11h0l6.9.13,2.05,0,6.89.12h0l9,.17,232.39,4.25h.1l158.3-75.56,8.09-3.86,7.49-3.57.59-.28,7.48-3.57h.14L659,382.1l1.12-.53.12-.06,6.85-3.27,1.12-.53h.11l6.85-3.33,1.13-.53,7.48-3.57h.11l5.69-2.77v-8.66ZM665.85,370h0l-7.47,3.57-.61.29-.51.24-7,3.33h0l-1.1.53-6.86,3.27-.11.06-1.12.53-6.82,3.28h-.05l-7.48,3.57-.59.28-7.48,3.57h0l-8.06,3.87L468.4,464.17h-.09l-214.48-3.92-9-.17h0L238,460l-2.05,0L229,459.8h0l-6-.11-.78,0-2.16,0-6-.11h-.8l-6.9-.13-1.27,0-.79,0-6.9-.12-5.88-.11,1-.49,6.43-3.1H199l6.88-3.28,1.1-.52.1-.05,1-.48,5.86-2.8h0l1.09-.53,7-3.33.5-.24.51-.24.09,0,7.49-3.58,6.87-3.28,1.21-.57,6.87-3.28h.1l8-3.86L395.82,361.6l.21-.1,214.49,3.92,8.94.17h0l6,.11,3,.05,6,.11,6.89.13h.82l1.26,0,1.36,0,5.51.1h0l.8,0,6,.11,2.16,0H660l6,.1h0l6.89.13Z"/><polygon class="cls-2" points="175.92 455.1 175.92 454.25 190.53 447.28 205.48 440.15 394.87 349.75 660.09 354.61 675.02 354.89 686.75 355.1 686.75 356.54 468.99 460.47 175.92 455.1"/><path class="cls-2" d="M682.81,351H682l-6.89-.13-8.94-.17-6-.11-2.94-.05-6-.11-9-.17L394,345.73,219.94,428.82l-8.05,3.86h0L205,436l-1.22.58-6.86,3.27-8.1,3.86-7.49,3.57h0l-1.08.53-7,3.34h0l-1.09.52-.2.1V459H173l8.86.16H182l5.86.11,9,.16,6.89.13h.79l1.27,0,6.9.12h0l.78,0h0l6,.11,2.17,0h.77l6,.11,6.91.13,2,0,6.89.12h0l9,.17,216.61,4,142.73-68.13,8.1-3.86,7.48-3.57.59-.28,7.37-3.58h.12l6.86-3.27,1.12-.53.11-.06L651.2,378l1.11-.53h.12l6.85-3.33.51-.24.61-.29,7.35-3.58h.13l8.08-3.85,6.87-3.28.22-.1h0l6.45-3.1v-8.5Zm-17.88,11.5-6.87,3.28-1,.48-.21.1L650,369.66h0l-7.49,3.57-.6.29-.52.24-7,3.33-1.12.53-6.86,3.27-.11.06-1.12.53-6.79,3.28h-.07l-7.49,3.57-.59.28-7.48,3.57h-.07l-8,3.87-126.56,60.4-198.71-3.64-9-.16h0l-6.88-.13-2.06,0-6.91-.12-6-.11-.78,0-2.17,0-6-.11h-.81l-6.9-.13-1.26,0-.8,0-6.89-.12h0l-5.86-.11H207l-3-.06-5.86-.1h-.1l-6.82-.12,1-.48,5.88-2.8h.05l1-.53,7-3.33.5-.24.49-.23.11,0,7.5-3.58,6.86-3.28,1.21-.57,6.87-3.28h.13l8-3.86,157.9-75.37L626.1,358l8.94.16h0l6,.11,3,.06,6,.11,6.9.12.82,0,1.25,0,1,0,5.82.11.8,0h0l6,.11-7.48,3.57Z"/><polygon class="cls-2" points="175.94 447.69 175.94 446.84 394.89 342.34 686.77 347.69 686.77 349.13 469 453.06 175.94 447.69"/><path class="cls-3" d="M681.11,343.58l-6-.11-3-.05-6-.11h0l-9-.17-261.91-4.8-1.26,0L205,428.55l-8.07,3.85-8.09,3.86L182,439.54H182l-8.09,3.85-1.61.78-.31.15,0,7.31h.2l9,.16,6.6.12h.3l8.86.16H197l5.86.11,3,.05h.1l5.87.11,6.89.13h.79l1.27,0,6.9.12h0l.78,0h0l6,.11,2.16,0h.78l6,.11,6.91.13,2,0,6.89.12h0l9,.17,201.67,3.7,127.78-61,8.1-3.86,7.48-3.57.59-.29,7.49-3.57,6.86-3.27,1.12-.54.11-.05,6.86-3.27h.09l1-.54,7-3.32.51-.25.61-.29,7.48-3.57,6.86-3.27.21-.1,1-.48,6.74-3.29h.13l.19-.1h0l7.86-3.75.21-.1h0l7.34-3.57h.14l5.86-2.79v-8.52ZM197.24,444.08l-6-.11.5-.24.5-.25.08,0,7.4-3.58h.1l6.85-3.27,1.22-.58,6.87-3.28,8.09-3.86,172.89-82.51L641,350.86l9,.16h0l6,.11,2.94.06,6,.11,6.89.13h.82l-6.81,3.28h-.06l-7.48,3.57-.21.1-.37.18-7.49,3.57-.19.11h0l-6.88,3.28-1,.47-.22.11L635,369.38h0L627.56,373l-.61.28-.51.25-7,3.32h-.1l-1,.54-6.86,3.27-.11.05-1.12.54-6.86,3.27h0l-7.47,3.58-.59.28-7.49,3.57-8.09,3.86-111.1,53-.51.24-183.77-3.37-9-.16-6.89-.13-2.05,0-6.91-.13h0l-6-.11h-.78l-2.16,0-6-.11-.79,0-6.9-.12-1.27,0h-.79l-6.9-.13-5.86-.11H222l-3,0-5.86-.11H213l-6.78-.13-2.06,0h-.11Z"/><polygon class="cls-2" points="176.25 447.15 176.25 446.3 395.2 341.8 687.08 347.14 687.07 348.58 469.31 452.51 176.25 447.15"/><path class="cls-3" d="M682.23,343.05h0l-5.69-.11h-.29l-9-.16-9-.16-264-4.83L204.18,428.53l-8,3.86h-.1L188,436.24l-6.89,3.28-8.07,3.85h0l-.82.4v.39l0,6.92,1,0h.31l8.66.16h0l6.81.12h.09l8.87.16h.11l5.85.11,3,.06h.1l5.86.11h0l6.89.12.8,0,1.26,0,6.9.13h.8l6,.11,2.17,0h.78l6,.12h0l6.91.12,2,0,6.89.13,9,.16,200.88,3.68,126.66-60.45,8-3.87h0l7.49-3.57.59-.28,7.49-3.57h.08l6.78-3.28,1.11-.53.12-.06,6.85-3.27,1.12-.53h0l7-3.33.51-.24.61-.29,7.48-3.57h.07l6.79-3.28.21-.1,1-.48,6.87-3.28.22-.1,7.86-3.76.22-.1,7.48-3.57,6.67-3.18v-8.67Zm-10.29,8.32-.12.06L665,354.7l-7.49,3.58-.21.1-.37.17-7.4,3.58h-.09l-.22.1-6.87,3.28-1,.48-.22.1-6.86,3.28-7.49,3.57-.6.29-.52.24-7,3.33-1.12.53-6.86,3.28-.11.05-1.12.53-6.86,3.28L595.1,388l-.59.28-7.39,3.58H587l-8.09,3.86L468.44,448.49l-183-3.34-9-.17-6.9-.12-2.05,0-6.9-.13h0l-6-.11h-.78l-2.17,0-6-.11-.79,0h0l-6.9-.12-1.27,0-.79,0-6.89-.13h0l-5.86-.1h-.11l-3-.06-5.85-.11h-.12l-6.79-.12-2,0h-.12l-6.8-.13h0l-6-.11h-.78l7.5-3.58,6.85-3.27,1.22-.58,6.88-3.28h0l8-3.86,174-83,246.08,4.51,9,.16,6,.11,2.94,0,6,.11h0l6.88.13Z"/><polygon class="cls-2" points="204.44 439.95 188.88 439.66 175.96 439.42 175.96 438.57 394.91 334.07 686.79 339.42 686.79 340.86 657.8 354.7 469.03 444.79 204.44 439.95"/><path class="cls-2" d="M682.86,335.34h0L394,330.05l-213.79,102L172.16,436l-.2.1v7.31h1.91l8.17.15.78,0h0l6,.11,3,.06,6,.11h0l6.62.12h.3l2.05,0,6.79.13h.12l5.85.11,3,.05h.1l5.86.11h0l6.89.13h.79l1.27,0,6.9.13h0l.78,0h0l6,.11,2.17,0,.78,0,6,.11,6.91.13,2.05,0,6.89.13,9,.16,183.78,3.37,1.25,0L581,395.8l8-3.87h.07l7.48-3.57.59-.28,7.49-3.57h.1l6.77-3.28,1.11-.53.11-.06,6.86-3.27,1.12-.53,7-3.33.51-.24.6-.29,7.49-3.57h.09l6.77-3.28.23-.1,1-.48,6.87-3.28.16-.11h.06l7.49-3.57.37-.18.2-.09h0l7.48-3.57,8.08-3.86L682,347.6l1.12-.53h0l6.42-3.08v-8.52Zm-10.71,8.08-.5.23-6.47,3.09-1.11.53H664l-6.77,3.28-.11.05-1,.49-.09,0-6.86,3.28L641.64,358l-.22.11-.37.17-7.48,3.57h-.07l-.16.11-6.87,3.28-1,.48-.22.1-6.86,3.28-7.49,3.57-.6.29-.52.24-7,3.33-1.11.53-6.86,3.28-.11.05-1.12.53-6.85,3.28h0l-7.49,3.57-.6.28-7.42,3.58h-.06l-8.09,3.86-94.93,45.3L301,437.71l-9-.16-6.9-.13-2.05,0-6.91-.13-6-.11h-.78l-2.17,0-6-.11-.79,0-6.91-.12-1.26,0h-.8l-6.89-.13h0l-5.86-.1h-.1l-3-.05-5.85-.11h-.12l-6.79-.12-2,0h-.12l-6.8-.13-6-.11h-.78L205,436h-.46l-5.54-.1h0l-.78,0-6.9-.13,6.79-3.28h.07l8.08-3.85,189-90.23.51-.24,261.91,4.8,9,.16h0l6,.11Z"/><polygon class="cls-2" points="203.83 432.53 187.81 432.23 175.98 432.01 175.98 431.17 394.93 326.66 686.81 332.01 686.81 333.45 673.39 339.85 658.44 346.98 642.86 354.42 469.05 437.38 203.83 432.53"/><path class="cls-3" d="M394.06,322.64,172,428.64l0,7.31h.2l9,.16h0l6.59.12H188l.78,0,8.15.15.78,0h0l6,.11,2.16,0h.78l6,.11,6.62.12h.3l2.05,0,6.79.13h.12l5.85.11,3,0h.1l5.86.11h0l6.89.13h.79l1.27,0,6.9.12h0l.78,0h0l6,.11,2.16,0H269l6,.11,6.91.13,2.05,0,6.89.13,9,.16,170.09,3.12,96.14-45.89,8.09-3.86,7.48-3.57.6-.28,7.49-3.58,6.86-3.27,1.11-.54.11-.05,6.86-3.27h.05l1-.54h.07l7-3.32.51-.25.6-.28,7.49-3.58,6.86-3.27.22-.11,1-.47L636.3,362h.06l.17-.11,7.48-3.57.37-.18.21-.1h0l7.44-3.57h0l6.85-3.27,1.12-.54.11,0,6.87-3.27,1.06-.54h.06l7-3.32,1.11-.53h0l7.4-3.57h.08l5.82-2.77v-8.53Zm277.61,13.6-5.78,2.8h-.09l-7.49,3.57-.61.29-.51.24-.48.23-6.38,3.1h-.1l-1.12.53-6.85,3.27-.11.06-1,.48-.11.05-6.72,3.28h-.14l-7.48,3.57-.22.1-.37.18-7.49,3.57-.21.11h0L611.52,365l-1,.47-.22.11-6.86,3.27h-.07L596,372.38l-.6.29-.52.24-6.9,3.33h-.07l-1.11.53L579.89,380l-.11.06-1.12.53-6.86,3.27h-.06l-7.43,3.58-.6.28-7.48,3.57h-.05l-8,3.86-80,38.17L316,430.58l-9-.17h0l-6.89-.12-2.05,0-6.91-.13-6-.11h-.79l-2.16,0-6-.11-.79,0h0l-6.9-.12-1.26,0h-.8l-6.89-.13h0l-5.86-.1h-.11l-3-.05-5.85-.11h-.12l-6.79-.12-2,0h-.12l-6.8-.13-6-.11h-.78l-2.16,0h-.46l-5.55-.1h-.8l-6.9-.13-1.25,0-.8,0h-.27l-6.62-.13h0l-6-.11,204.5-97.6,276.88,5.07Z"/><text class="cls-4" transform="translate(188.91 580.94) scale(0.98 1)"><tspan class="cls-5">7</tspan><tspan x="17.16" y="0">80GR/M² BLANC</tspan><tspan x="-1.58" y="36.13">ET INSE</tspan><tspan class="cls-6" x="115.94" y="36.13">R</tspan><tspan x="137.41" y="36.13">T BLANC</tspan></text></svg>