<svg id="Calque_1" data-name="Calque 1" xmlns="http://www.w3.org/2000/svg" viewBox="0 0 800 800"><defs><style>.cls-1,.cls-2{fill:#fff;}.cls-1{stroke:#7b6f56;stroke-miterlimit:10;stroke-width:8.9px;}.cls-3{fill:#7b6f56;}.cls-4{fill:#e21515;}.cls-5{font-size:30.1px;fill:#9d876d;font-family:Montserrat-Regular, Montserrat;}.cls-6{letter-spacing:-0.02em;}.cls-7{letter-spacing:-0.01em;}</style></defs><title>Plan de travail 217</title><rect class="cls-1" x="199.57" y="207.53" width="431.37" height="431.37"/><polygon class="cls-2" points="207.12 493.74 207.12 492.88 252.27 471.34 426.07 388.39 675.73 392.95 690.67 393.23 717.95 393.73 717.95 395.17 500.18 499.1 207.12 493.74"/><path class="cls-3" d="M713.09,389.63l-5.68-.1H706.3l-8.15-.15h-.82l-6.58-.12h-.3l-1.25,0h-.82l-6.88-.13h0l-5.68-.11h-.3l-3-.05-5.9-.11h-.1l-6.8-.12-2.06,0h-.09l-6.8-.13h0l-6-.11H644l-2.17,0-6-.11H635l-6.88-.13-1.25,0-.82,0-6.89-.12h0l-6-.11-3-.06-6-.11h0l-9-.16-170.1-3.11-96.12,45.88L321,434.11l-6.87,3.28-1.21.58L306,441.24h-.1l-7.39,3.58-.6.29-.5.24-6.85,3.33h-.13l-1.1.52-6.88,3.28-.1,0-1.1.53-6.84,3.28h0l-7.51,3.58-.2.1-.38.18-7.51,3.58-.17.1h0l-6.87,3.28-1,.48-.19.09h0L243.67,471l-7.49,3.58-.59.28h0l-.49.23-7,3.33h0L227,479l-7,3.33-1.09.52h0l-6.75,3.28H212L204,490h0l-.82.4,0,7.31,298,5.44L720.53,398.38v-8.62Zm-489.64,99.9,6.43-3.1H230l6.88-3.28,1.1-.52.1-.05,1-.48,5.87-2.8h0l1.1-.53,7-3.33.49-.24L254,475l.09,0,7.49-3.58,6.87-3.28.2-.09,1-.48,6.78-3.29h.09l.2-.09,7.51-3.58.38-.18.2-.1,7.51-3.58h.13l6.74-3.28,1.1-.53.1-.05,6.88-3.28,1.06-.53h0l7-3.33.5-.24.6-.28,7.49-3.58,6.87-3.28,1.21-.58,6.87-3.27h0l8.07-3.86,80-38.17,152.18,2.78,9,.17,6,.11,3,0,6,.11h0l6.88.13h.82l1.26,0,6.88.12h0l.79,0h0l6,.11,2.17,0h.81l6,.11,6.81.12h.09l2.06,0,6.8.13h.1l5.9.11,3,.05h.1l5.89.11h0l6.88.13H673l1.26,0,1.36,0,5.51.1h0l.8,0,6,.11,2.16,0h.81l6,.1h0l6.89.13-204.5,97.6L222.43,490Z"/><polygon class="cls-2" points="206.83 486.01 206.83 485.16 221.44 478.19 236.39 471.06 425.79 380.66 691 385.51 705.93 385.8 717.66 386.01 717.66 387.45 499.9 491.38 206.83 486.01"/><path class="cls-4" d="M713.72,381.93h-.82l-6.89-.13-8.93-.17-5.89-.11h-.12l-2.94-.05-5.91-.11h-.1l-6.79-.13-2.06,0h-.1l-6.8-.12h0l-6-.11-.81,0-2.17,0-6-.11h-.81l-6.89-.13-1.25,0h-.82l-6.89-.13-6-.11-3-.05-6-.11h0l-8.94-.17-186-3.4L313.22,430l-8.09,3.86-6.87,3.28-1.21.58L290.18,441h-.06l-7.43,3.58-.6.29-.5.24-7,3.32h-.1l-1,.53-6.88,3.28-.1.05-1.1.53-6.8,3.28h-.07l-7.51,3.58-.2.1-.38.18L243,463.49h0l-.16.1h0l-6.87,3.28-1,.48-.21.1-6.86,3.27-8.1,3.86-7.48,3.57h0l-1.08.53-7,3.34h0l-1.1.52-.19.1,0,7.31h1.12l9,.16,287.87,5.28L714,393.66h0l6.53-3.14v-8.46Zm-17.67,11.4L688,397.19,499,487.36l-261-4.78-9-.16-6.9-.13,1-.48L229,479h.05l1.06-.53,7-3.34.48-.23.49-.23.11-.05,7.5-3.58,6.86-3.28.2-.09,1-.48,6.78-3.29h.1l.19-.09,7.51-3.58.38-.18.2-.1,7.39-3.59h.12l6.87-3.27,1.1-.53.11-.05,6.87-3.28,1.09-.53h0l7-3.33.5-.24.6-.28,7.49-3.58L315,438l1.21-.58,6.87-3.27h.06l8-3.86,95.53-45.6,168,3.07,8.95.17h0l6,.1,3,.06,6,.11h0l6.89.12.82,0,1.25,0,6.88.13h.82l6,.11,2.17,0,.81,0,6,.11h0l6.81.12h.09l2.06,0,6.8.12h.09l5.91.1,3,.06h.1l5.88.11h0l6.89.12.82,0,1.25,0,1,0,5.82.11.8,0h0l6,.11Z"/><polygon class="cls-2" points="206.85 478.6 206.85 477.75 425.8 373.25 717.68 378.6 717.68 380.04 499.92 483.97 206.85 478.6"/><path class="cls-3" d="M712,374.49l-5.9-.11H706l-3-.05-5.89-.11h-.1l-6.8-.13-2.06,0h-.11l-6.79-.12h0l-6-.11-.81,0-2.17,0-6-.11h-.81l-6.88-.13-1.26,0-.82,0-6.89-.12-6-.11-3-.06-6-.11h0l-8.95-.16-199.63-3.66-1.26,0L298.26,429.68l-8.09,3.86h-.1l-6.77,3.28-1.22.58-6.86,3.28-7.5,3.58-.6.28-.5.24-7,3.33-1,.53h-.08l-6.88,3.28-.1.05-1.11.52-6.87,3.28-7.51,3.59-.21.1-.37.17L228,463.22l-.19.09-7.89,3.77-.18.08-6.82,3.29h-.06l-8.07,3.85-1.62.78-.31.15v7.31H203l9,.16,6.61.12h.3l9,.16,9,.16,264,4.84,190.14-90.74,8.05-3.87h0l8.07-3.85h0l7.34-3.57h.14l5.94-2.83v-8.48ZM222.18,474.87l.49-.23.51-.25.08,0,7.4-3.58h.1l6.85-3.27.21-.1,1-.48,6.87-3.28.2-.09H246l7.45-3.59.38-.18.2-.09,7.51-3.59,6.87-3.28,1.11-.53.1,0,6.79-3.29h.09l1.1-.52,7-3.33.51-.24.6-.29,7.49-3.57h0l6.86-3.28,1.21-.58,6.87-3.28,8.09-3.86,110.51-52.74,183,3.36,9,.16,6,.11,3,.06,6,.11h0l6.89.12.82,0,1.26,0,6.87.13h.82l6,.11,2.17,0,.81,0,6,.11h0l6.81.12H672l2.06,0,6.8.12H681l5.91.1,2.94.06H690l5.89.11h0l6.88.13h.82l-6.81,3.28h-.06l-7.48,3.57-.58.28-7.49,3.57L673,396.91l-173.48,82.8-.51.24-246-4.51-9-.17h0l-6.88-.13-2.06,0-6.91-.13Z"/><polygon class="cls-2" points="207.16 478.06 207.16 477.21 426.11 372.71 717.99 378.05 717.99 379.49 500.22 483.42 207.16 478.06"/><path class="cls-3" d="M713.14,374h0l-5.68-.11h-.3l-8.86-.16h-.09l-6.81-.12-2.06,0h-.11l-6.79-.13-6-.11h-.81l-2.17,0-6-.11-.8,0h0L659.8,373l-1.25,0-.82,0-6.88-.13h0l-6-.1-3-.06-6-.11-8.95-.16-201.7-3.69-127.78,61-8.08,3.86-6.88,3.28-1.21.58-6.86,3.27h-.13l-7.37,3.58-.6.29-.5.24L259,448.1h-.1l-1.1.52-6.88,3.28-.1.05-1.1.53-6.87,3.28-7.51,3.58-.22.1-.36.18-7.38,3.59h-.13l-.12.09H227l-7.9,3.76-.16.08h0l-6.89,3.28L204,474.28h0l-.82.4v.39l0,6.92,1,0h.3l8.65.16h0l6.91.12,9,.16h0l9,.17,263.17,4.82,189-90.22,8.1-3.86,8.08-3.86,7.48-3.57,6.75-3.22v-8.63Zm-10.29,8.32-.12.06-6.86,3.27-7.49,3.58-.58.27L680.4,393h-.09l-8.09,3.86L499.35,479.4l-245.26-4.48-9-.17h0l-6.89-.12-2,0-6.91-.13h0l-6-.11h-.78l7.5-3.58,6.85-3.27.21-.1,1-.48,6.88-3.28h0l.15-.1,7.52-3.58.37-.18.2-.1,7.52-3.58h.08l6.78-3.28,1.11-.53.1,0,6.88-3.28,1-.53h.09l7-3.32.51-.25.6-.28,7.45-3.58h0l6.86-3.27,1.22-.58,6.87-3.28,8.08-3.86L427,376.73l183.78,3.37,9,.16,6,.11,3,.05,6,.11,6.89.13h.82l1.25,0,6.89.12.8,0,6,.11,2.16,0h.82l6,.11,6.8.13h.1l2.06,0,6.8.12h.1l5.9.11,2.94.05h.11l5.9.1h0l6.87.13Z"/><polygon class="cls-2" points="235.35 470.86 219.79 470.57 206.87 470.33 206.87 469.48 425.82 364.98 717.7 370.33 717.7 371.77 688.71 385.61 499.94 475.7 235.35 470.86"/><path class="cls-4" d="M713.85,366.26h-.09l-6.81-.12-9-.16h0l-6-.11-.81,0-2.16,0-6-.11h-.82l-6.87-.13-1.26,0-.81,0-6.9-.12h0l-6-.11-3-.06-6-.11h0l-8.94-.16L425,361,281.6,429.38l-8.09,3.86-6.87,3.28-1.21.58-6.87,3.27h-.08L251.07,444l-.6.29-.5.24-6.84,3.33H243l-1.1.52L235,451.61l-.1.05-1.1.53L227,455.47h0l-8.09,3.86-7.4,3.59h-.12l-.17.08-7.9,3.77-.19.09-.19.1,0,7.31h1.92l8.16.15.78,0h0l6,.11,3,.06,6,.11,6.62.12h.3l2,0,6.89.13,9,.16,246.07,4.51,1.25,0L674.3,396.94l8-3.87h.12l7.49-3.57.57-.27h0l7.48-3.57,8.08-3.86,6.87-3.28L714,378h0l6.5-3.12v-8.48ZM697.68,374l5.9.11-.52.25-.5.23-6.47,3.09-1.11.53h-.08l-6.77,3.28-.11.05-1,.49-.09,0L680,385.32l-7.49,3.57-.59.28-7.48,3.57h-.11l-8,3.87L499.07,471.68l-229.41-4.19-9-.17-6.89-.12-2.05,0-6.91-.13-6-.11h-.78l-2.16,0h-.46l-5.54-.1h0l-.78,0-6.9-.13,6.8-3.28h.06l.18-.09h0l7.51-3.58.37-.18.21-.1,7.51-3.58H245l6.75-3.28,1.1-.53.1-.05,6.88-3.28,1.05-.53h.05l7-3.32.5-.25.6-.28,7.49-3.58,6.87-3.27,1.21-.58,6.87-3.28h0l8.08-3.86,126.67-60.46.51-.24,199.64,3.66,8.94.16,6,.11,3,.05,6,.11h0l6.89.13h.81l1.26,0,6.88.12h0l.8,0,6,.11,2.16,0h.81l6,.11h0l6.78.13h.11l2.06,0,6.81.12Z"/><polygon class="cls-2" points="234.74 463.44 218.72 463.14 206.89 462.92 206.89 462.07 425.84 357.57 717.72 362.92 717.72 364.36 704.31 370.76 689.35 377.89 673.77 385.33 499.96 468.29 234.74 463.44"/><path class="cls-3" d="M712.94,358.83l-6-.11-.81,0-8.15-.14h0l-.8,0-6.88-.13-1.25,0h-.82l-6.9-.13-6-.11-3-.05-6-.11h0l-8.93-.17-232.37-4.26H425l-158.3,75.56-8,3.86h-.11l-6.88,3.28-1.21.57-6.86,3.28-7.5,3.58-.59.28-.51.24-7,3.33-1.08.53h0l-7,3.33-1.1.52L212,455.19H212l-8,3.86-1,.5v7.31h.19l9,.16,6.6.12h1.09l8.15.16h.8l6,.12,2.16,0h.78l6,.11,6.61.12h.3l2.05,0,6.89.13,9,.16,232.38,4.26.21-.1,158.3-75.56,8.1-3.86,7.48-3.57.58-.28h0l7.44-3.57h0l6.85-3.27,1.12-.54.11-.05,6.87-3.27,1.06-.54h.06l7-3.32,1.11-.53h0l7.41-3.57h.07l5.9-2.81V359ZM696.71,370l-7.49,3.57-.61.29-.51.24-.48.23-6.38,3.1h-.1l-1.12.53-6.85,3.27-.11.06-1,.48-.1,0-6.73,3.28h-.14l-7.48,3.57-.59.28-7.49,3.57-8.09,3.86L499.3,464.17l-.21.1-214.47-3.92-9-.17-6.89-.12-2.05,0-6.91-.13-6-.11H253l-2.16,0h-.46l-5.55-.1H244l-6.9-.13-1.27,0-.8,0h-.25l-6.62-.13h0l-6-.11,7.71-3.68,6.87-3.28,1.1-.52.1-.05,6.88-3.28H245l1-.53,7-3.33.51-.24.59-.28,7.5-3.58,6.87-3.28,1.21-.58,6.79-3.28h.08l8.08-3.86L426.72,361.6h.09l214.48,3.93,9,.16,6,.11,3,.06,6,.11h0l6.89.12.82,0,1.25,0,6.88.13h.82l6,.11,2.16,0,.81,0,6,.11h0l6.82.12-1,.48-5.74,2.8Z"/><polygon class="cls-2" points="207.2 462.83 207.2 461.98 252.35 440.43 426.15 357.48 675.81 362.04 690.75 362.32 718.03 362.82 718.02 364.26 500.26 468.19 207.2 462.83"/><path class="cls-3" d="M713.17,358.72l-5.69-.1h-1.1l-8.15-.15h-.82l-6.58-.12h-.3l-1.25,0h-.82l-6.89-.13h0l-5.67-.11h-.3l-3,0-6-.11-8.94-.16-232.4-4.25-.19.09-158.3,75.56L258.7,433h0l-6.86,3.28-1.2.57h0l-6.87,3.27-7.49,3.58-.59.28h0l-.51.24-7,3.32h0l-1.05.53-7,3.33-1.09.52h0l-6.75,3.28h-.12L204,459.05h0l-.82.4,0,7.31h.08l9,.17h0l6.89.12.8,0,8.16.15h.8l6,.11,2.16,0h.78l6,.11h0l6.9.13,2,0,6.89.12h0l9,.17L501,472.22h.1l158.3-75.56,8.09-3.86,7.49-3.57.59-.28,7.48-3.57h.14L690,382.1l1.12-.53.12-.06,6.85-3.27,1.12-.53h.11l6.85-3.33,1.13-.53,7.48-3.57h.11l5.69-2.77v-8.66ZM696.84,370h0l-7.47,3.57-.61.29-.51.24-7,3.33h0l-1.1.53-6.86,3.27-.11.06-1.12.53-6.82,3.28h-.05l-7.48,3.57-.59.28-7.48,3.57h0l-8.06,3.87L499.39,464.17h-.09l-214.48-3.92-9-.17h0L269,460l-2,0L260,459.8h0l-6-.11-.78,0-2.16,0-6-.11h-.8l-6.9-.13-1.27,0-.79,0-6.9-.12-5.88-.11,1-.49,6.43-3.1H230l6.88-3.28,1.1-.52.1-.05,1-.48,5.86-2.8h0l1.09-.53,7-3.33.5-.24.51-.24.09,0,7.49-3.58,6.87-3.28,1.21-.57,6.87-3.28h.1l8-3.86L426.81,361.6l.21-.1,214.49,3.92,8.94.17h0l6,.11,3,.05,6,.11,6.89.13h.82l1.26,0,1.36,0,5.51.1h0l.8,0,6,.11,2.16,0H691l6,.1h0l6.89.13Z"/><polygon class="cls-2" points="206.91 455.1 206.91 454.25 221.52 447.28 236.47 440.15 425.86 349.75 691.08 354.61 706.01 354.89 717.74 355.1 717.74 356.54 499.98 460.47 206.91 455.1"/><path class="cls-4" d="M713.8,351H713l-6.89-.13-8.94-.17-6-.11-2.94-.05-6-.11-9-.17L425,345.73,250.93,428.82l-8.05,3.86h0L236,436l-1.22.58-6.86,3.27-8.1,3.86-7.49,3.57h0l-1.08.53-7,3.34h0l-1.09.52-.2.1V459H204l8.86.16H213l5.86.11,9,.16,6.89.13h.79l1.27,0,6.9.12h0l.78,0h0l6,.11,2.17,0h.77l6,.11,6.91.13,2.05,0,6.89.12h0l9,.17,216.61,4,142.73-68.13,8.1-3.86,7.48-3.57.59-.28,7.37-3.58h.12l6.86-3.27,1.12-.53.11-.06,6.86-3.27,1.11-.53h.12l6.85-3.33.51-.24.61-.29,7.35-3.58h.13l8.08-3.85,6.87-3.28.22-.1h0l6.45-3.1v-8.5Zm-17.88,11.5-6.87,3.28-1,.48-.21.1L681,369.66h0l-7.49,3.57-.6.29-.52.24-7,3.33-1.12.53-6.86,3.27-.11.06-1.12.53-6.79,3.28h-.07l-7.49,3.57-.59.28-7.48,3.57h-.07l-8,3.87-126.56,60.4L300.4,452.81l-9-.16h0l-6.88-.13-2.06,0-6.91-.12-6-.11-.78,0-2.17,0-6-.11h-.81l-6.9-.13-1.26,0-.8,0-6.89-.12h0l-5.86-.11H238l-3-.06-5.86-.1h-.1l-6.82-.12,1-.48,5.88-2.8h0l1.05-.53,7-3.33.5-.24.49-.23.11,0,7.5-3.58,6.86-3.28,1.21-.57,6.87-3.28h.13l8-3.86,157.9-75.37L657.09,358l8.94.16h0l6,.11,3,.06,6,.11,6.9.12.82,0,1.25,0,1,0,5.82.11.8,0h0l6,.11-7.48,3.57Z"/><polygon class="cls-2" points="206.93 447.69 206.93 446.84 425.88 342.34 717.76 347.69 717.76 349.13 500 453.06 206.93 447.69"/><path class="cls-3" d="M712.1,343.58l-6-.11-3-.05-6-.11h0l-9-.17-261.91-4.8-1.26,0L236,428.55l-8.07,3.85-8.09,3.86L213,439.54h-.05l-8.09,3.85-1.61.78-.31.15,0,7.31h.2l9,.16,6.6.12h.3l8.86.16H228l5.86.11,3,.05h.1l5.87.11,6.89.13h.79l1.27,0,6.9.12h0l.78,0h0l6,.11,2.16,0h.78l6,.11,6.91.13,2,0,6.89.12h0l9,.17,201.67,3.7,127.78-61,8.1-3.86,7.48-3.57.59-.29,7.49-3.57,6.86-3.27,1.12-.54.11-.05,6.86-3.27h.09l1-.54,7-3.32.51-.25.61-.29,7.48-3.57,6.86-3.27.21-.1,1-.48,6.74-3.29h.13l.19-.1h0l7.86-3.75.21-.1h0l7.34-3.57h.14l5.86-2.79v-8.52ZM228.23,444.08l-6-.11.5-.24.5-.25.08,0,7.4-3.58h.1l6.85-3.27,1.22-.58,6.87-3.28,8.09-3.86,172.89-82.51L672,350.86l9,.16h0l6,.11,2.94.06,6,.11,6.89.13h.82l-6.81,3.28h-.06l-7.48,3.57-.21.1-.37.18-7.49,3.57-.19.11h0l-6.88,3.28-1,.47-.22.11L666,369.38h0L658.55,373l-.61.28-.51.25-7,3.32h-.1l-1,.54-6.86,3.27-.11.05-1.12.54-6.86,3.27h0l-7.47,3.58-.59.28-7.49,3.57-8.09,3.86-111.1,53-.51.24-183.77-3.37-9-.16-6.89-.13-2.05,0-6.91-.13h0l-6-.11h-.78l-2.16,0-6-.11-.79,0-6.9-.12-1.27,0h-.79l-6.9-.13-5.86-.11H253l-3,0-5.86-.11H244l-6.78-.13-2.06,0H235Z"/><polygon class="cls-2" points="207.24 447.15 207.24 446.3 426.19 341.8 718.07 347.14 718.06 348.58 500.3 452.51 207.24 447.15"/><path class="cls-3" d="M713.22,343.05h0l-5.69-.11h-.29l-9-.16-9-.16-264-4.83L235.17,428.53l-8,3.86h-.1L219,436.24l-6.89,3.28-8.07,3.85h0l-.82.4v.39l0,6.92,1,0h.31l8.66.16h0l6.81.12h.09l8.87.16h.11l5.85.11,3,.06h.1l5.86.11h0l6.89.12.8,0,1.26,0,6.9.13h.8l6,.11,2.17,0h.78l6,.12h0l6.91.12,2.05,0,6.89.13,9,.16,200.88,3.68,126.66-60.45,8-3.87h0l7.49-3.57.59-.28,7.49-3.57h.08l6.78-3.28,1.11-.53.12-.06,6.85-3.27,1.12-.53h0l7-3.33.51-.24.61-.29,7.48-3.57h.07l6.79-3.28.21-.1,1-.48,6.87-3.28.22-.1,7.86-3.76.22-.1,7.48-3.57,6.67-3.18v-8.67Zm-10.29,8.32-.12.06L696,354.7l-7.49,3.58-.21.1-.37.17-7.4,3.58h-.09l-.22.1-6.87,3.28-1,.48-.22.1-6.86,3.28-7.49,3.57-.6.29-.52.24-7,3.33-1.12.53-6.86,3.28-.11.05-1.12.53-6.86,3.28L626.09,388l-.59.28-7.39,3.58H618l-8.09,3.86L499.43,448.49l-183-3.34-9-.17-6.9-.12-2.05,0-6.9-.13h0l-6-.11h-.78l-2.17,0-6-.11-.79,0h0l-6.9-.12-1.27,0-.79,0-6.89-.13h0l-5.86-.1h-.11l-3-.06-5.85-.11h-.12l-6.79-.12-2.05,0h-.12l-6.8-.13h0l-6-.11h-.78l7.5-3.58,6.85-3.27,1.22-.58,6.88-3.28h.05l8-3.86,174-83,246.08,4.51,9,.16,6,.11,2.94,0,6,.11h0l6.88.13Z"/><polygon class="cls-2" points="235.43 439.95 219.87 439.66 206.95 439.42 206.95 438.57 425.9 334.07 717.78 339.42 717.78 340.86 688.79 354.7 500.02 444.79 235.43 439.95"/><path class="cls-4" d="M713.85,335.34h0L425,330.05l-213.79,102L203.15,436l-.2.1v7.31h1.91l8.17.15.78,0h0l6,.11,3,.06,6,.11h0l6.62.12h.3l2.05,0,6.79.13h.12l5.85.11,3,.05h.1l5.86.11h0l6.89.13h.79l1.27,0,6.9.13h0l.78,0h0l6,.11,2.17,0,.78,0,6,.11,6.91.13,2.05,0,6.89.13,9,.16,183.78,3.37,1.25,0L612,395.8l8-3.87h.07l7.48-3.57.59-.28,7.49-3.57h.1l6.77-3.28,1.11-.53.11-.06,6.86-3.27,1.12-.53,7-3.33.51-.24.6-.29,7.49-3.57h.09l6.77-3.28.23-.1,1-.48,6.87-3.28.16-.11h.06l7.49-3.57.37-.18.2-.09h0l7.48-3.57,8.08-3.86L713,347.6l1.12-.53h0l6.42-3.08v-8.52Zm-10.71,8.08-.5.23-6.47,3.09-1.11.53H695l-6.77,3.28-.11.05-1,.49-.09,0-6.86,3.28L672.63,358l-.22.11-.37.17-7.48,3.57h-.07l-.16.11-6.87,3.28-1,.48-.22.1-6.86,3.28-7.49,3.57-.6.29-.52.24-7,3.33-1.11.53-6.86,3.28-.11.05-1.12.53-6.85,3.28h0l-7.49,3.57-.6.28-7.42,3.58h-.06l-8.09,3.86-94.93,45.3L332,437.71l-9-.16-6.9-.13-2.05,0-6.91-.13-6-.11h-.78l-2.17,0-6-.11-.79,0-6.91-.12-1.26,0h-.8l-6.89-.13h0l-5.86-.1h-.1l-3-.05-5.85-.11h-.12l-6.79-.12-2,0h-.12l-6.8-.13-6-.11h-.78L236,436h-.46l-5.54-.1h0l-.78,0-6.9-.13,6.79-3.28h.07l8.08-3.85,189-90.23.51-.24,261.91,4.8,9,.16h0l6,.11Z"/><polygon class="cls-2" points="234.82 432.53 218.79 432.23 206.97 432.01 206.97 431.17 425.92 326.66 717.8 332.01 717.8 333.45 704.38 339.85 689.43 346.98 673.85 354.42 500.04 437.38 234.82 432.53"/><path class="cls-3" d="M425.05,322.64,203,428.64l0,7.31h.2l9,.16h0l6.59.12H219l.78,0,8.15.15.78,0h0l6,.11,2.16,0h.78l6,.11,6.62.12h.3l2,0,6.79.13h.12l5.85.11,3,0h.1l5.86.11h0l6.89.13h.79l1.27,0,6.9.12h0l.78,0h0l6,.11,2.16,0H300l6,.11,6.91.13,2,0,6.89.13,9,.16,170.09,3.12,96.14-45.89,8.09-3.86,7.48-3.57.6-.28,7.49-3.58,6.86-3.27,1.11-.54.11-.05,6.86-3.27h.05l1-.54h.07l7-3.32.51-.25.6-.28,7.49-3.58,6.86-3.27.22-.11,1-.47,6.87-3.28h.06l.17-.11,7.48-3.57.37-.18.21-.1h0l7.44-3.57h0l6.85-3.27,1.12-.54.11,0,6.87-3.27,1.06-.54h.06l7-3.32,1.11-.53h0l7.4-3.57h.08l5.82-2.77v-8.53Zm277.61,13.6-5.78,2.8h-.09l-7.49,3.57-.61.29-.51.24-.48.23-6.38,3.1h-.1l-1.12.53-6.85,3.27-.11.06-1,.48-.11.05-6.72,3.28h-.14l-7.48,3.57-.22.1-.37.18-7.49,3.57-.21.11h0L642.51,365l-1,.47-.22.11-6.86,3.27h-.07l-7.42,3.58-.6.29-.52.24-6.9,3.33h-.07l-1.11.53L610.88,380l-.11.06-1.12.53-6.86,3.27h-.06l-7.43,3.58-.6.28-7.48,3.57h-.05l-8,3.86-80,38.17L347,430.58l-9-.17h0l-6.89-.12-2.05,0-6.91-.13-6-.11h-.79l-2.16,0-6-.11-.79,0h0l-6.9-.12-1.26,0h-.8l-6.89-.13h0l-5.86-.1h-.11l-3-.05-5.85-.11h-.12l-6.79-.12-2,0h-.12l-6.8-.13-6-.11h-.78l-2.16,0h-.46l-5.55-.1h-.8l-6.9-.13-1.25,0-.8,0h-.27l-6.62-.13h0l-6-.11,204.5-97.6,276.88,5.07Z"/><text class="cls-5" transform="translate(230.27 580.94) scale(0.98 1)"><tspan class="cls-6">7</tspan><tspan x="17.16" y="0">80GR/M² BLANC</tspan><tspan x="0" y="36.13">ET INSE</tspan><tspan class="cls-7" x="117.52" y="36.13">R</tspan><tspan x="138.99" y="36.13">T ROUGE</tspan></text></svg>