<svg id="Calque_1" data-name="Calque 1" xmlns="http://www.w3.org/2000/svg" xmlns:xlink="http://www.w3.org/1999/xlink" viewBox="0 0 800 800"><defs><style>.cls-1,.cls-16,.cls-3{fill:#fff;}.cls-1,.cls-15{stroke:#7b6f56;stroke-width:8px;}.cls-1,.cls-10,.cls-11,.cls-12,.cls-13,.cls-14,.cls-15,.cls-5,.cls-6,.cls-7,.cls-8,.cls-9{stroke-miterlimit:10;}.cls-2{fill:#7b6f56;}.cls-4{clip-path:url(#clip-path);}.cls-15,.cls-5{fill:none;}.cls-10,.cls-11,.cls-12,.cls-13,.cls-14,.cls-5,.cls-6,.cls-7,.cls-8,.cls-9{stroke:#3a3939;stroke-width:0.5px;}.cls-6{fill:#fbecd3;}.cls-7{fill:#9daea4;}.cls-8{fill:#799685;}.cls-9{fill:#de8c0c;}.cls-10{fill:#f28c01;}.cls-11{fill:#fdfdfe;}.cls-12{fill:#8c3414;}.cls-13{fill:#cf5516;}.cls-14{fill:#494020;}.cls-16{font-size:30.1px;font-family:Montserrat-Regular, Montserrat;}.cls-17{letter-spacing:-0.02em;}.cls-18{letter-spacing:0em;}.cls-19{letter-spacing:-0.07em;}</style><clipPath id="clip-path"><polygon class="cls-1" points="617.82 642.67 196.66 642.67 196.66 221.51 436.17 221.51 617.82 402.96 617.82 642.67"/></clipPath></defs><title>Plan de travail 191</title><polygon class="cls-2" points="617.82 642.67 196.66 642.67 196.66 221.51 436.17 221.51 617.82 402.96 617.82 642.67"/><polygon class="cls-3" points="617.82 642.67 196.66 642.67 196.66 221.51 436.17 221.51 617.82 402.96 617.82 642.67"/><g class="cls-4"><polygon class="cls-5" points="615.32 640.34 199.28 640.34 199.28 224.3 472.15 224.01 472.15 224.01 615.32 224.3 614.73 359.91 615.32 640.34"/><path class="cls-6" d="M615.32,642.67H196.65V224h275.5s52.61,19.12,91.76,58.87,50.83,78.91,50.83,78.91Z"/><rect class="cls-7" x="196.65" y="474.86" width="418.66" height="167.81"/><path class="cls-8" d="M196.65,516.17a78.38,78.38,0,0,0,40.25-12.28c20.09-12.84,35.72-15.63,51.91-15.63s14.51,4.46,34.61,0,41.31-7.26,59.17-6.7,20.65-2.24,31.26,3.9,51.91,16,65.31,13.32,17.13,2.87,32.29,7.34,23-20.26,39.16-7.34,19.54,10.69,28.47,20.18,5.58,11.16,16.75,14.51,19.49,6.14,19.49,6.14V474.86H196.65Z"/><circle class="cls-9" cx="394.31" cy="370.89" r="40.25"/><circle class="cls-8" cx="384.52" cy="530.4" r="29.63"/><path class="cls-10" d="M614.73,359.91s-11-24-18.15-23.14-10.47,11.72-21.77,14.65-3.77,8.8-32.66,19.47-27.41,17-52.44,27-42.44,31.29-80.39,35.44-81.21,41.52-81.21,41.52H615.32Z"/><path class="cls-11" d="M406.24,352.08a268.05,268.05,0,0,0,37.69,0c18.08-1.55,20.28,1.1,25.57,0s-6.17-5.07-12.78-6.62-9.26,4.44-15.88,3.65-4.63-2.54-12.34-1.66-7.94,2.64-13.67,2.64S404.9,352,406.24,352.08Z"/><path class="cls-11" d="M239.76,399.16a131.48,131.48,0,0,0,20.07,0c12.2-.82,16.26.45,25.21.36s11.12,1.18,13.56,0-6-.63-11.66-2.8-6-4.72-12.2-3.31-3,4.39-10.85,1.14-6.78-6.24-12.47-3.53-2.71,4.61-11.66,5.15-13,1.63-10.85,2.17S239.76,399.16,239.76,399.16Z"/><path class="cls-12" d="M196.65,370.89s3.38,8.37,17.61,11.72,22.24-1,36.47,14.87,23.81,25.32,49.76,27.83,2.51.16,43.53,8,32.68,1.33,62,10.88,76.16,30.64,105.46,30.64H196.65Z"/><path class="cls-13" d="M364.11,474.86s10.88-7.7,29.3-11,18.26,6.7,51.82-5.44,37.28-18.69,49-17.57,14,8.37,27.91,9.49,11.17,5.58,27.91-1.12,22.33-25.82,36.29-26.3,29-14.45,29-14.45v66.43Z"/><path class="cls-14" d="M196.65,583.15c8.14-4.76,78.78,6.74,149,32.19,72.7,26.34,81.22,19.26,122.24,18.42s147.4,8.91,147.4,8.91H196.65Z"/><polygon class="cls-14" points="207.72 530.4 196.66 583.15 218.78 583.15 207.72 530.4"/><polygon class="cls-14" points="220.87 539.21 210.67 587.84 231.07 587.84 220.87 539.21"/><polygon class="cls-14" points="234.69 536.05 223.62 588.8 245.75 588.8 234.69 536.05"/><polygon class="cls-14" points="482.78 583.18 471.71 635.94 493.84 635.94 482.78 583.18"/><polygon class="cls-14" points="509.75 588.84 498.68 641.59 520.81 641.59 509.75 588.84"/><polygon class="cls-14" points="271.32 547.48 260.25 600.23 282.38 600.23 271.32 547.48"/><polygon class="cls-14" points="286.81 551.75 276.37 601.54 297.25 601.54 286.81 551.75"/><polygon class="cls-14" points="247.04 556.78 239.26 593.89 254.83 593.89 247.04 556.78"/><polygon class="cls-14" points="256.67 562.43 249.66 595.88 263.69 595.88 256.67 562.43"/><polygon class="cls-14" points="303.35 572.37 295.57 609.49 311.13 609.49 303.35 572.37"/><polygon class="cls-14" points="465.71 599.56 457.92 636.68 473.49 636.68 465.71 599.56"/><polygon class="cls-14" points="315.49 580.86 308.45 614.44 322.53 614.44 315.49 580.86"/><polygon class="cls-14" points="324.23 588.7 318.05 618.14 330.4 618.14 324.23 588.7"/><polygon class="cls-14" points="334.99 598.55 330.4 620.42 339.57 620.42 334.99 598.55"/><polygon class="cls-14" points="496.12 614.44 491.54 636.31 500.71 636.31 496.12 614.44"/><polygon class="cls-14" points="523.23 615.21 518.64 637.08 527.81 637.08 523.23 615.21"/><path class="cls-11" d="M583.13,447H563.91c-7.24,0-14.73,1.12-14.23-1.12s8.23.56,14-2.52,8.23-5.88,18-2.24,17.22,5.6,12.23,6.16A49.1,49.1,0,0,1,583.13,447Z"/><polyline class="cls-6" points="472.15 224.01 615.32 224.3 614.74 361.79"/><rect class="cls-2" x="196.65" y="547.3" width="418.66" height="95.37"/></g><polygon class="cls-15" points="617.82 642.67 196.66 642.67 196.66 221.51 436.17 221.51 617.82 402.96 617.82 642.67"/><path class="cls-3" d="M484.18,397.32A42.34,42.34,0,0,1,441.89,355V226.4L612.8,397.32Z"/><path class="cls-2" d="M445.89,236.06,603.15,393.32h-119A38.34,38.34,0,0,1,445.89,355v-119m-7.75-19a.25.25,0,0,0-.25.25V355a46.29,46.29,0,0,0,46.29,46.29H622.07a.16.16,0,0,0,.12-.28L438.31,217.16a.23.23,0,0,0-.17-.07Z"/><text class="cls-16" transform="translate(208.69 594.98) scale(0.98 1)"><tspan class="cls-17">V</tspan><tspan class="cls-18" x="20.56" y="0">IN</tspan><tspan class="cls-17" x="54.13" y="0">Y</tspan><tspan x="72.79" y="0">LE PO</tspan><tspan class="cls-19" x="165.42" y="0">L</tspan><tspan class="cls-17" x="180.92" y="0">Y</tspan><tspan x="199.59" y="0">MÈRE</tspan><tspan x="0" y="36.13">BLANC</tspan></text></svg>