<svg id="Calque_1" data-name="Calque 1" xmlns="http://www.w3.org/2000/svg" xmlns:xlink="http://www.w3.org/1999/xlink" viewBox="0 0 800 800"><defs><style>.cls-1{fill:none;}.cls-2{fill:#ebe7e2;stroke:#1a1916;stroke-miterlimit:10;stroke-width:4.24px;}.cls-3{clip-path:url(#clip-path);}.cls-4{fill:#fbecd3;}.cls-5{fill:#9daea4;}.cls-6{fill:#799685;}.cls-7{fill:#de8c0c;}.cls-8{fill:#f28c01;}.cls-9{fill:#fdfdfe;}.cls-10{fill:#8c3414;}.cls-11{fill:#cf5516;}.cls-12{fill:#494020;}</style><clipPath id="clip-path"><rect class="cls-1" x="224.58" y="332.53" width="356.02" height="201.59"/></clipPath></defs><title>Plan de travail 15</title><polyline class="cls-2" points="610.56 302.55 610.56 566.07 192.89 566.07 192.89 302.55"/><polygon class="cls-2" points="195.11 300.25 239.67 233.93 562.61 233.93 608.75 300.25 195.11 300.25"/><g class="cls-3"><rect class="cls-4" x="205.61" y="267.38" width="384.02" height="384.02"/><rect class="cls-5" x="205.61" y="497.47" width="384.02" height="153.93"/><path class="cls-6" d="M205.61,535.36a71.81,71.81,0,0,0,36.92-11.27c18.43-11.77,32.76-14.33,47.61-14.33s13.32,4.09,31.75,0,37.89-6.66,54.27-6.15,18.95-2.05,28.68,3.59,47.61,14.7,59.9,12.21,15.71,2.63,29.62,6.73,21.07-18.58,35.92-6.73,17.92,9.8,26.12,18.51,5.12,10.24,15.36,13.31,17.87,5.63,17.87,5.63V497.47h-384Z"/><circle class="cls-7" cx="386.91" cy="402.1" r="36.92"/><circle class="cls-6" cx="377.93" cy="548.41" r="27.17"/><path class="cls-8" d="M589.63,376.18S579,370,572.44,370.8s-9.6,10.76-20,13.44-3.45,8.07-30,17.86-25.14,15.56-48.1,24.77-38.93,28.71-73.74,32.52-74.49,38.08-74.49,38.08H589.63Z"/><path class="cls-9" d="M397.85,384.85a246.48,246.48,0,0,0,34.58,0c16.58-1.42,18.6,1,23.45,0s-5.66-4.65-11.73-6.07-8.49,4.07-14.55,3.35-4.25-2.34-11.33-1.53S411,383,405.74,383,396.62,384.76,397.85,384.85Z"/><path class="cls-9" d="M245.15,428a119.54,119.54,0,0,0,18.41,0c11.19-.75,14.92.41,23.13.33s10.19,1.09,12.43,0-5.47-.59-10.69-2.58-5.47-4.32-11.19-3-2.74,4-9.95,1-6.22-5.72-11.44-3.23-2.49,4.23-10.7,4.72-11.94,1.5-10,2S245.15,428,245.15,428Z"/><path class="cls-10" d="M205.61,402.1s3.1,7.68,16.15,10.75,20.4-1,33.45,13.64,21.84,23.22,45.64,25.53,2.31.15,39.93,7.37,30,1.22,56.84,10,69.86,28.11,96.74,28.11H205.61Z"/><path class="cls-11" d="M359.21,497.47s10-7.06,26.88-10.13,16.74,6.15,47.53-5,34.2-17.14,44.95-16.12,12.8,7.68,25.6,8.71,10.24,5.12,25.6-1,20.48-23.68,33.28-24.12,26.58-13.25,26.58-13.25v60.93Z"/><path class="cls-12" d="M205.61,596.8c7.46-4.36,72.26,6.18,136.7,29.52C409,650.48,416.8,644,454.43,643.22s135.2,8.18,135.2,8.18h-384Z"/><polygon class="cls-12" points="215.76 548.41 205.61 596.8 225.91 596.8 215.76 548.41"/><polygon class="cls-12" points="227.83 556.49 218.47 601.1 237.18 601.1 227.83 556.49"/><polygon class="cls-12" points="240.5 553.6 230.35 601.98 250.64 601.98 240.5 553.6"/><polygon class="cls-12" points="468.06 596.83 457.91 645.22 478.2 645.22 468.06 596.83"/><polygon class="cls-12" points="492.8 602.01 482.65 650.4 502.94 650.4 492.8 602.01"/><polygon class="cls-12" points="274.1 564.08 263.95 612.46 284.24 612.46 274.1 564.08"/><polygon class="cls-12" points="288.31 568 278.73 613.66 297.88 613.66 288.31 568"/><polygon class="cls-12" points="251.83 572.61 244.69 606.65 258.97 606.65 251.83 572.61"/><polygon class="cls-12" points="260.67 577.79 254.23 608.48 267.1 608.48 260.67 577.79"/><polygon class="cls-12" points="303.48 586.91 296.34 620.96 310.62 620.96 303.48 586.91"/><polygon class="cls-12" points="452.4 611.85 445.26 645.89 459.54 645.89 452.4 611.85"/><polygon class="cls-12" points="314.62 594.7 308.16 625.5 321.08 625.5 314.62 594.7"/><polygon class="cls-12" points="322.63 601.89 316.97 628.89 328.29 628.89 322.63 601.89"/><polygon class="cls-12" points="332.5 610.93 328.29 630.99 336.7 630.99 332.5 610.93"/><polygon class="cls-12" points="480.3 625.5 476.09 645.56 484.51 645.56 480.3 625.5"/><polygon class="cls-12" points="505.16 626.21 500.96 646.27 509.37 646.27 505.16 626.21"/><path class="cls-9" d="M560.11,471.94H542.47c-6.64,0-13.5,1-13.05-1s7.56.52,12.83-2.31,7.55-5.39,16.48-2.05,15.8,5.13,11.22,5.65A45.16,45.16,0,0,1,560.11,471.94Z"/></g></svg>