<svg id="Calque_1" data-name="Calque 1" xmlns="http://www.w3.org/2000/svg" xmlns:xlink="http://www.w3.org/1999/xlink" viewBox="0 0 800 800"><defs><style>.cls-1,.cls-18,.cls-3{fill:#fff;}.cls-1,.cls-16{stroke:#7b6f56;stroke-width:8px;}.cls-1,.cls-10,.cls-11,.cls-12,.cls-13,.cls-14,.cls-15,.cls-16,.cls-6,.cls-7,.cls-8,.cls-9{stroke-miterlimit:10;}.cls-2{fill:#7b6f56;}.cls-4{clip-path:url(#clip-path);}.cls-5{opacity:0.4;}.cls-16,.cls-6{fill:none;}.cls-10,.cls-11,.cls-12,.cls-13,.cls-14,.cls-15,.cls-6,.cls-7,.cls-8,.cls-9{stroke:#3a3939;stroke-width:0.5px;}.cls-7{fill:#fbecd3;}.cls-8{fill:#9daea4;}.cls-9{fill:#799685;}.cls-10{fill:#de8c0c;}.cls-11{fill:#f28c01;}.cls-12{fill:#fdfdfe;}.cls-13{fill:#8c3414;}.cls-14{fill:#cf5516;}.cls-15{fill:#494020;}.cls-17{fill:url(#Dégradé_sans_nom_206);}.cls-18{font-size:30.1px;font-family:Montserrat-Regular, Montserrat;}.cls-19{letter-spacing:-0.02em;}.cls-20{letter-spacing:0em;}.cls-21{letter-spacing:-0.04em;}</style><clipPath id="clip-path"><polygon class="cls-1" points="643.63 642.67 222.47 642.67 222.47 221.51 461.99 221.51 643.63 402.96 643.63 642.67"/></clipPath><linearGradient id="Dégradé_sans_nom_206" x1="467.71" y1="311.86" x2="638.62" y2="311.86" gradientUnits="userSpaceOnUse"><stop offset="0" stop-color="#fff"/><stop offset="0.09" stop-color="#f8f8f8"/><stop offset="0.22" stop-color="#e6e6e6"/><stop offset="0.37" stop-color="#c8c8c8"/><stop offset="0.46" stop-color="#b2b2b2"/><stop offset="0.55" stop-color="#c4c4c4"/><stop offset="0.74" stop-color="#e4e4e4"/><stop offset="0.89" stop-color="#f8f8f8"/><stop offset="1" stop-color="#fff"/></linearGradient></defs><title>Plan de travail 190</title><polygon class="cls-2" points="643.63 642.67 222.47 642.67 222.47 221.51 461.99 221.51 643.63 402.96 643.63 642.67"/><polygon class="cls-3" points="643.63 642.67 222.47 642.67 222.47 221.51 461.99 221.51 643.63 402.96 643.63 642.67"/><g class="cls-4"><g class="cls-5"><polygon class="cls-6" points="641.13 640.34 225.09 640.34 225.09 224.3 497.97 224.01 497.97 224.01 641.13 224.3 640.55 359.91 641.13 640.34"/><path class="cls-7" d="M641.13,642.67H222.47V224H498s52.6,19.12,91.75,58.87,50.83,78.91,50.83,78.91Z"/><rect class="cls-8" x="222.47" y="474.86" width="418.66" height="167.81"/><path class="cls-9" d="M222.47,516.17a78.33,78.33,0,0,0,40.24-12.28c20.1-12.84,35.73-15.63,51.92-15.63s14.51,4.46,34.61,0,41.3-7.26,59.17-6.7,20.65-2.24,31.26,3.9,51.91,16,65.31,13.32,17.13,2.87,32.29,7.34,23-20.26,39.16-7.34S596,509.47,604.9,519s5.58,11.16,16.74,14.51,19.49,6.14,19.49,6.14V474.86H222.47Z"/><circle class="cls-10" cx="420.12" cy="370.89" r="40.25"/><circle class="cls-9" cx="410.33" cy="530.4" r="29.63"/><path class="cls-11" d="M640.55,359.91s-11-24-18.16-23.14-10.46,11.72-21.77,14.65-3.77,8.8-32.66,19.47-27.4,17-52.43,27-42.44,31.29-80.4,35.44-81.2,41.52-81.2,41.52h287.2Z"/><path class="cls-12" d="M432.05,352.08a268.21,268.21,0,0,0,37.7,0c18.07-1.55,20.28,1.1,25.57,0s-6.18-5.07-12.79-6.62-9.26,4.44-15.87,3.65-4.63-2.54-12.34-1.66-7.94,2.64-13.67,2.64S430.71,352,432.05,352.08Z"/><path class="cls-12" d="M265.58,399.16a131.38,131.38,0,0,0,20.06,0c12.2-.82,16.27.45,25.22.36s11.12,1.18,13.56,0-6-.63-11.66-2.8-6-4.72-12.21-3.31-3,4.39-10.84,1.14-6.78-6.24-12.47-3.53-2.72,4.61-11.66,5.15-13,1.63-10.85,2.17S265.58,399.16,265.58,399.16Z"/><path class="cls-13" d="M222.47,370.89s3.37,8.37,17.61,11.72,22.23-1,36.47,14.87,23.8,25.32,49.75,27.83,2.51.16,43.53,8,32.69,1.33,62,10.88S508,474.86,537.27,474.86H222.47Z"/><path class="cls-14" d="M389.93,474.86s10.88-7.7,29.3-11,18.25,6.7,51.82-5.44,37.28-18.69,49-17.57,14,8.37,27.91,9.49,11.16,5.58,27.91-1.12,22.33-25.82,36.28-26.3,29-14.45,29-14.45v66.43Z"/><path class="cls-15" d="M222.47,583.15c8.13-4.76,78.77,6.74,149,32.19,72.69,26.34,81.21,19.26,122.23,18.42s147.4,8.91,147.4,8.91H222.47Z"/><polygon class="cls-15" points="233.53 530.4 222.47 583.15 244.59 583.15 233.53 530.4"/><polygon class="cls-15" points="246.69 539.21 236.49 587.84 256.88 587.84 246.69 539.21"/><polygon class="cls-15" points="260.5 536.05 249.44 588.8 271.56 588.8 260.5 536.05"/><polygon class="cls-15" points="508.59 583.18 497.53 635.94 519.65 635.94 508.59 583.18"/><polygon class="cls-15" points="535.56 588.84 524.5 641.59 546.62 641.59 535.56 588.84"/><polygon class="cls-15" points="297.13 547.48 286.07 600.23 308.19 600.23 297.13 547.48"/><polygon class="cls-15" points="312.62 551.75 302.18 601.54 323.06 601.54 312.62 551.75"/><polygon class="cls-15" points="272.86 556.78 265.08 593.89 280.64 593.89 272.86 556.78"/><polygon class="cls-15" points="282.49 562.43 275.47 595.88 289.5 595.88 282.49 562.43"/><polygon class="cls-15" points="329.17 572.37 321.38 609.49 336.95 609.49 329.17 572.37"/><polygon class="cls-15" points="491.52 599.56 483.74 636.68 499.31 636.68 491.52 599.56"/><polygon class="cls-15" points="341.31 580.86 334.26 614.44 348.35 614.44 341.31 580.86"/><polygon class="cls-15" points="350.04 588.7 343.87 618.14 356.22 618.14 350.04 588.7"/><polygon class="cls-15" points="360.8 598.55 356.22 620.42 365.39 620.42 360.8 598.55"/><polygon class="cls-15" points="521.94 614.44 517.35 636.31 526.52 636.31 521.94 614.44"/><polygon class="cls-15" points="549.04 615.21 544.46 637.08 553.63 637.08 549.04 615.21"/><path class="cls-12" d="M608.94,447H589.72c-7.24,0-14.73,1.12-14.23-1.12s8.24.56,14-2.52,8.24-5.88,18-2.24,17.22,5.6,12.23,6.16A49.17,49.17,0,0,1,608.94,447Z"/><polyline class="cls-7" points="497.97 224.01 641.13 224.3 640.55 361.79"/></g><rect class="cls-2" x="222.47" y="547.3" width="418.66" height="95.37"/></g><polygon class="cls-16" points="643.63 642.67 222.47 642.67 222.47 221.51 461.99 221.51 643.63 402.96 643.63 642.67"/><path class="cls-17" d="M510,397.32A42.33,42.33,0,0,1,467.71,355V226.4L638.62,397.32Z"/><path class="cls-2" d="M471.71,236.06,629,393.32H510A38.33,38.33,0,0,1,471.71,355v-119m-7.76-19a.25.25,0,0,0-.24.25V355A46.29,46.29,0,0,0,510,401.32h137.9A.16.16,0,0,0,648,401L464.12,217.16a.23.23,0,0,0-.17-.07Z"/><text class="cls-18" transform="translate(234.5 594.98) scale(0.98 1)"><tspan class="cls-19">V</tspan><tspan class="cls-20" x="20.56" y="0">IN</tspan><tspan class="cls-19" x="54.13" y="0">Y</tspan><tspan x="72.79" y="0">LE MONOMÈRE </tspan><tspan x="0" y="36.13">TRANS</tspan><tspan class="cls-21" x="103.62" y="36.13">P</tspan><tspan x="123.88" y="36.13">ARENT</tspan></text></svg>