<svg id="Calque_1" data-name="Calque 1" xmlns="http://www.w3.org/2000/svg" xmlns:xlink="http://www.w3.org/1999/xlink" viewBox="0 0 800 800"><defs><style>.cls-1{fill:none;stroke:#fff;stroke-width:15px;}.cls-1,.cls-2{stroke-miterlimit:10;}.cls-2{stroke:#7b6f56;stroke-width:8.9px;fill:url(#Dégradé_sans_nom_206);}.cls-3{fill:#7b6f56;}.cls-4{font-size:30.1px;fill:#9d876d;font-family:Montserrat-Regular, Montserrat;}.cls-5{letter-spacing:-0.07em;}.cls-6{letter-spacing:-0.02em;}.cls-7{letter-spacing:-0.01em;}.cls-8{letter-spacing:-0.01em;}.cls-9{letter-spacing:-0.04em;}.cls-10{letter-spacing:0em;}</style><linearGradient id="Dégradé_sans_nom_206" x1="219.05" y1="432.09" x2="640.21" y2="432.09" gradientUnits="userSpaceOnUse"><stop offset="0" stop-color="#fff"/><stop offset="0.09" stop-color="#f8f8f8"/><stop offset="0.22" stop-color="#e6e6e6"/><stop offset="0.37" stop-color="#c8c8c8"/><stop offset="0.46" stop-color="#b2b2b2"/><stop offset="0.55" stop-color="#c4c4c4"/><stop offset="0.74" stop-color="#e4e4e4"/><stop offset="0.89" stop-color="#f8f8f8"/><stop offset="1" stop-color="#fff"/></linearGradient></defs><title>Plan de travail 186</title><polygon class="cls-1" points="640.21 642.67 219.05 642.67 219.05 221.51 458.56 221.51 640.21 402.96 640.21 642.67"/><polygon class="cls-2" points="640.21 642.67 219.05 642.67 219.05 221.51 458.56 221.51 640.21 402.96 640.21 642.67"/><path class="cls-3" d="M460.7,217.16,644.58,401a.17.17,0,0,1-.12.28H506.57A46.29,46.29,0,0,1,460.28,355V217.34A.25.25,0,0,1,460.7,217.16Z"/><text class="cls-4" transform="translate(247.08 548.55) scale(0.98 1)">PO<tspan class="cls-5" x="46.87" y="0">L</tspan><tspan class="cls-6" x="62.37" y="0">Y</tspan><tspan class="cls-7" x="81.04" y="0">P</tspan><tspan x="102.35" y="0">RO</tspan><tspan class="cls-8" x="149.37" y="0">P</tspan><tspan class="cls-6" x="170.69" y="0">Y</tspan><tspan x="189.35" y="0">LÈNE </tspan><tspan x="0" y="36.13">TRANS</tspan><tspan class="cls-9" x="103.62" y="36.13">P</tspan><tspan x="123.88" y="36.13">ARENT </tspan><tspan class="cls-6"><tspan x="0" y="72.25">V</tspan><tspan class="cls-10" x="20.56" y="72.25">ITRO</tspan><tspan class="cls-8" x="93.95" y="72.25">P</tspan><tspan class="cls-10" x="115.27" y="72.25">HANIE 60Μ</tspan></tspan></text></svg>