<svg id="Calque_1" data-name="Calque 1" xmlns="http://www.w3.org/2000/svg" xmlns:xlink="http://www.w3.org/1999/xlink" viewBox="0 0 800 800"><defs><style>.cls-1{fill:none;stroke:#fff;stroke-width:15px;}.cls-1,.cls-2,.cls-3{stroke-miterlimit:10;}.cls-2{fill:#d0cbc3;}.cls-2,.cls-3{stroke:#7b6f56;stroke-width:8.9px;}.cls-3{fill:url(#Dégradé_sans_nom_216);}.cls-4{fill:#7b6f56;}.cls-5{font-size:30.1px;fill:#9d876d;font-family:Montserrat-Regular, Montserrat;}.cls-6{letter-spacing:-0.01em;}</style><linearGradient id="Dégradé_sans_nom_216" x1="201.3" y1="432.09" x2="622.47" y2="432.09" gradientUnits="userSpaceOnUse"><stop offset="0" stop-color="#fff" stop-opacity="0"/><stop offset="0.04" stop-color="#fff" stop-opacity="0.18"/><stop offset="0.12" stop-color="#fff" stop-opacity="0.63"/><stop offset="0.19" stop-color="#fff"/><stop offset="0.29" stop-color="#fff" stop-opacity="0.57"/><stop offset="0.39" stop-color="#fff" stop-opacity="0.16"/><stop offset="0.44" stop-color="#fff" stop-opacity="0"/><stop offset="0.44" stop-color="#fff" stop-opacity="0.04"/><stop offset="0.46" stop-color="#fff" stop-opacity="0.18"/><stop offset="0.48" stop-color="#fff" stop-opacity="0.29"/><stop offset="0.49" stop-color="#fff" stop-opacity="0.38"/><stop offset="0.51" stop-color="#fff" stop-opacity="0.44"/><stop offset="0.54" stop-color="#fff" stop-opacity="0.48"/><stop offset="0.57" stop-color="#fff" stop-opacity="0.49"/><stop offset="0.57" stop-color="#fff" stop-opacity="0.5"/><stop offset="0.65" stop-color="#fff" stop-opacity="0.72"/><stop offset="0.73" stop-color="#fff" stop-opacity="0.87"/><stop offset="0.78" stop-color="#fff" stop-opacity="0.97"/><stop offset="0.82" stop-color="#fff"/><stop offset="0.83" stop-color="#fff" stop-opacity="0.81"/><stop offset="0.84" stop-color="#fff" stop-opacity="0.64"/><stop offset="0.85" stop-color="#fff" stop-opacity="0.49"/><stop offset="0.86" stop-color="#fff" stop-opacity="0.36"/><stop offset="0.87" stop-color="#fff" stop-opacity="0.24"/><stop offset="0.88" stop-color="#fff" stop-opacity="0.15"/><stop offset="0.9" stop-color="#fff" stop-opacity="0.08"/><stop offset="0.92" stop-color="#fff" stop-opacity="0.04"/><stop offset="0.94" stop-color="#fff" stop-opacity="0.01"/><stop offset="1" stop-color="#fff" stop-opacity="0"/></linearGradient></defs><title>Plan de travail 188</title><polygon class="cls-1" points="622.47 642.67 201.3 642.67 201.3 221.51 440.82 221.51 622.47 402.96 622.47 642.67"/><polygon class="cls-2" points="622.47 642.67 201.3 642.67 201.3 221.51 440.82 221.51 622.47 402.96 622.47 642.67"/><polygon class="cls-3" points="622.47 642.67 201.3 642.67 201.3 221.51 440.82 221.51 622.47 402.96 622.47 642.67"/><path class="cls-4" d="M443,217.16,626.84,401a.17.17,0,0,1-.12.28H488.83A46.29,46.29,0,0,1,442.54,355V217.34A.25.25,0,0,1,443,217.16Z"/><text class="cls-5" transform="translate(229.34 608.55) scale(0.98 1)">90GR/M² RAFLA G<tspan class="cls-6" x="275.84" y="0">L</tspan><tspan x="293.15" y="0">OSS</tspan></text></svg>