<svg id="Calque_1" data-name="Calque 1" xmlns="http://www.w3.org/2000/svg" viewBox="0 0 800 800"><defs><style>.cls-1{fill:none;stroke:#fff;stroke-width:15px;}.cls-1,.cls-2{stroke-miterlimit:10;}.cls-2{fill:#dedede;stroke:#7b6f56;stroke-width:8.9px;}.cls-3{fill:#7b6f56;}.cls-4{font-size:30.1px;fill:#9d876d;font-family:Montserrat-Regular, Montserrat;}.cls-5{letter-spacing:-0.02em;}.cls-6{letter-spacing:0em;}.cls-7{letter-spacing:-0.02em;}</style></defs><title>Plan de travail 176</title><polygon class="cls-1" points="615.95 600.24 194.78 600.24 194.78 179.08 434.3 179.08 615.95 360.53 615.95 600.24"/><polygon class="cls-2" points="615.95 600.24 194.78 600.24 194.78 179.08 434.3 179.08 615.95 360.53 615.95 600.24"/><path class="cls-3" d="M440.18,174.08,624.06,358a.17.17,0,0,1-.12.28H486.05A46.29,46.29,0,0,1,439.76,312V174.25A.25.25,0,0,1,440.18,174.08Z"/><text class="cls-4" transform="translate(222.82 541.19) scale(0.98 1)"><tspan class="cls-5">V</tspan><tspan class="cls-6" x="20.56" y="0">IN</tspan><tspan class="cls-5" x="54.13" y="0">Y</tspan><tspan x="72.79" y="0">LE EFFET </tspan><tspan x="0" y="36.13">DÉPOLI</tspan><tspan class="cls-7" x="118.7" y="36.13">/</tspan><tspan x="128.18" y="36.13">SABLÉ</tspan></text></svg>