<svg id="Calque_1" data-name="Calque 1" xmlns="http://www.w3.org/2000/svg" xmlns:xlink="http://www.w3.org/1999/xlink" viewBox="0 0 800 800"><defs><style>.cls-1,.cls-2{fill:#ebe7e2;}.cls-1,.cls-13{stroke:#1a1916;stroke-miterlimit:10;stroke-width:5px;}.cls-3{clip-path:url(#clip-path);}.cls-4{fill:#fbecd3;}.cls-5{fill:#9daea4;}.cls-6{fill:#799685;}.cls-7{fill:#de8c0c;}.cls-8{fill:#f28c01;}.cls-9{fill:#fdfdfe;}.cls-10{fill:#8c3414;}.cls-11{fill:#cf5516;}.cls-12{fill:#494020;}.cls-13{fill:none;}.cls-14{fill:#1a1916;}</style><clipPath id="clip-path"><polygon class="cls-1" points="669.42 670.33 130.58 670.33 130.58 131.49 484 131.12 484 131.12 669.42 131.49 668.67 307.13 669.42 670.33"/></clipPath></defs><title>Plan de travail 13</title><polygon class="cls-2" points="669.42 670.33 130.58 670.33 130.58 131.49 484 131.12 484 131.12 669.42 131.49 668.67 307.13 669.42 670.33"/><g class="cls-3"><path class="cls-4" d="M669.42,673.36H127.18V131.12H484s68.13,24.76,118.84,76.25,65.83,102.2,65.83,102.2Z"/><rect class="cls-5" x="127.18" y="456.01" width="542.24" height="217.35"/><path class="cls-6" d="M127.18,509.51s26.09.72,52.12-15.91,46.27-20.24,67.24-20.24,18.8,5.79,44.82,0,53.5-9.4,76.64-8.67,26.75-2.9,40.49,5.06,67.23,20.76,84.59,17.25,22.18,3.71,41.82,9.5,29.75-26.24,50.72-9.5,25.3,13.83,36.87,26.13,7.23,14.46,21.69,18.79,25.24,8,25.24,8V456H127.18Z"/><circle class="cls-7" cx="383.17" cy="321.36" r="52.13"/><circle class="cls-6" cx="370.49" cy="527.95" r="38.37"/><path class="cls-8" d="M668.67,307.13s-14.3-31.06-23.52-30-13.56,15.18-28.2,19-4.88,11.39-42.3,25.22-35.49,22-67.91,35-55,40.53-104.12,45.91S297.44,456,297.44,456h372Z"/><path class="cls-9" d="M398.62,297s25.41,2,48.83,0,26.26,1.42,33.11,0-8-6.57-16.56-8.57-12,5.74-20.55,4.73-6-3.3-16-2.16-10.28,3.43-17.7,3.43S396.89,296.87,398.62,297Z"/><path class="cls-9" d="M183,358a168.56,168.56,0,0,0,26,0c15.8-1,21.07.59,32.66.47s14.4,1.54,17.56,0-7.73-.83-15.1-3.64-7.73-6.1-15.81-4.28-3.86,5.69-14,1.47-8.78-8.07-16.16-4.56-3.51,6-15.1,6.67-16.86,2.11-14,2.81S183,358,183,358Z"/><path class="cls-10" d="M127.18,321.36s4.37,10.84,22.8,15.18,28.81-1.35,47.24,19.25,30.83,32.79,64.44,36,3.26.22,56.38,10.41,42.33,1.72,80.26,14.09S497,456,534.9,456H127.18Z"/><path class="cls-11" d="M344.07,456s14.09-10,37.94-14.3,23.65,8.68,67.12-7,48.28-24.2,63.47-22.75,18.07,10.84,36.15,12.29,14.46,7.23,36.14-1.45,28.92-33.43,47-34.07S669.42,370,669.42,370v86Z"/><path class="cls-12" d="M127.18,596.27c10.53-6.16,102,8.73,193,41.69,94.16,34.11,105.2,24.94,158.32,23.85s190.91,11.55,190.91,11.55H127.18Z"/><polygon class="cls-12" points="141.51 527.95 127.18 596.27 155.83 596.27 141.51 527.95"/><polygon class="cls-12" points="158.55 539.35 145.34 602.34 171.75 602.34 158.55 539.35"/><polygon class="cls-12" points="176.44 535.27 162.11 603.59 190.76 603.59 176.44 535.27"/><polygon class="cls-12" points="497.76 596.31 483.43 664.63 512.08 664.63 497.76 596.31"/><polygon class="cls-12" points="532.69 603.63 518.36 671.95 547.01 671.95 532.69 603.63"/><polygon class="cls-12" points="223.88 550.06 209.56 618.39 238.21 618.39 223.88 550.06"/><polygon class="cls-12" points="243.94 555.6 230.42 620.08 257.46 620.08 243.94 555.6"/><polygon class="cls-12" points="192.44 562.11 182.36 610.18 202.53 610.18 192.44 562.11"/><polygon class="cls-12" points="204.91 569.43 195.83 612.76 214 612.76 204.91 569.43"/><polygon class="cls-12" points="265.37 582.31 255.29 630.38 275.45 630.38 265.37 582.31"/><polygon class="cls-12" points="475.65 617.52 465.57 665.59 485.73 665.59 475.65 617.52"/><polygon class="cls-12" points="281.1 593.3 271.97 636.79 290.22 636.79 281.1 593.3"/><polygon class="cls-12" points="292.41 603.45 284.41 641.59 300.4 641.59 292.41 603.45"/><polygon class="cls-12" points="306.34 616.22 300.4 644.54 312.28 644.54 306.34 616.22"/><polygon class="cls-12" points="515.04 636.79 509.1 665.12 520.98 665.12 515.04 636.79"/><polygon class="cls-12" points="550.15 637.79 544.21 666.12 556.09 666.12 550.15 637.79"/><path class="cls-9" d="M627.73,420h-24.9c-9.37,0-19.07,1.45-18.43-1.45s10.67.72,18.11-3.27,10.67-7.61,23.28-2.9,22.31,7.25,15.84,8A64.1,64.1,0,0,1,627.73,420Z"/></g><polygon class="cls-13" points="669.42 670.33 130.58 670.33 130.58 131.49 484 131.12 484 131.12 669.42 131.49 668.67 307.13 669.42 670.33"/><path class="cls-2" d="M664.88,303.62c-10.16-14.48-28.48-35.64-51.14-40.17a74.55,74.55,0,0,0-14.57-1.31c-28.54,0-63.52,12.21-75.48,16.73,1-11.79,3.24-45.69-1.69-79.54-4.33-29.65-22.84-53.14-33.74-64.71,18.46,6.55,61.61,24.83,105.68,64.77C637.67,239,656.88,280.21,664.88,303.62Z"/><path class="cls-14" d="M496.79,140.54c21.27,8.59,58,26.75,95.47,60.71,34.77,31.52,53.88,64,64.17,87.55-10.68-12.14-25.22-24.41-42.2-27.8a77.19,77.19,0,0,0-15.07-1.36c-26.4,0-58.13,10.26-72.66,15.52,1.08-14.37,2.48-45.29-2-76.19-3.61-24.79-16.89-45.32-27.68-58.43M481.1,129.67a.55.55,0,0,0-.37,1c7.11,6.63,33.59,33.41,38.79,69.06,5.5,37.7,2,75.76,1.39,82.07a.55.55,0,0,0,.55.61.78.78,0,0,0,.21,0c6.29-2.48,46.16-17.69,77.5-17.69a72.42,72.42,0,0,1,14.07,1.26c23.68,4.73,42.6,28.48,52.09,42.82a1.79,1.79,0,0,0,1.52.85,1.87,1.87,0,0,0,1.82-2.44c-6.73-21.37-25.54-66.52-73-109.59C543.15,150,492.49,133,481.27,129.69a.52.52,0,0,0-.17,0Z"/></svg>