<svg id="Calque_1" data-name="Calque 1" xmlns="http://www.w3.org/2000/svg" xmlns:xlink="http://www.w3.org/1999/xlink" viewBox="0 0 800 800"><defs><style>.cls-1,.cls-2{fill:#ebe7e2;}.cls-1,.cls-13,.cls-17{stroke:#1a1916;stroke-miterlimit:10;}.cls-1,.cls-13{stroke-width:5px;}.cls-3{clip-path:url(#clip-path);}.cls-4{fill:#fbecd3;}.cls-5{fill:#9daea4;}.cls-6{fill:#799685;}.cls-7{fill:#de8c0c;}.cls-8{fill:#f28c01;}.cls-9{fill:#fdfdfe;}.cls-10{fill:#8c3414;}.cls-11{fill:#cf5516;}.cls-12{fill:#494020;}.cls-13{fill:none;}.cls-14,.cls-15,.cls-17{fill:#fff;}.cls-14,.cls-16{opacity:0.8;}.cls-15{opacity:0.5;}.cls-16{fill:url(#Dégradé_sans_nom_56);}.cls-17{stroke-width:2px;}</style><clipPath id="clip-path"><rect class="cls-1" x="208.24" y="118.81" width="402.36" height="583.14"/></clipPath><linearGradient id="Dégradé_sans_nom_56" x1="208.24" y1="412.72" x2="494" y2="412.72" gradientUnits="userSpaceOnUse"><stop offset="0" stop-color="#fff" stop-opacity="0"/><stop offset="0.09" stop-color="#fff" stop-opacity="0.18"/><stop offset="0.31" stop-color="#fff" stop-opacity="0.63"/><stop offset="0.48" stop-color="#fff"/><stop offset="0.52" stop-color="#fff" stop-opacity="0.96"/><stop offset="0.6" stop-color="#fff" stop-opacity="0.85"/><stop offset="0.7" stop-color="#fff" stop-opacity="0.67"/><stop offset="0.82" stop-color="#fff" stop-opacity="0.43"/><stop offset="0.95" stop-color="#fff" stop-opacity="0.12"/><stop offset="1" stop-color="#fff" stop-opacity="0"/></linearGradient></defs><title>Plan de travail 7</title><polygon class="cls-1" points="567.07 701.95 208.24 701.95 208.24 118.81 586.82 82.78 567.07 701.95"/><rect class="cls-2" x="208.24" y="118.81" width="402.36" height="583.14"/><g class="cls-3"><rect class="cls-4" x="139.28" y="118.81" width="585.12" height="585.12"/><rect class="cls-5" x="139.28" y="469.4" width="585.12" height="234.54"/><path class="cls-6" d="M139.28,527.13s28.15.78,56.24-17.17,49.93-21.84,72.55-21.84,20.29,6.24,48.37,0,57.73-10.14,82.7-9.36,28.86-3.12,43.69,5.46,72.55,22.4,91.28,18.61,23.94,4,45.12,10.25,32.11-28.3,54.74-10.25,27.3,14.93,39.78,28.2,7.81,15.6,23.41,20.28,27.23,8.58,27.23,8.58V469.4H139.28Z"/><circle class="cls-7" cx="415.51" cy="324.09" r="56.26"/><circle class="cls-6" cx="401.83" cy="547.02" r="41.41"/><path class="cls-8" d="M724.39,284.59s-16.24-9.36-26.18-8.19-14.63,16.38-30.43,20.48-5.27,12.29-45.65,27.21-38.3,23.7-73.28,37.74-59.31,43.74-112.36,49.54S323,469.4,323,469.4H724.39Z"/><path class="cls-9" d="M432.18,297.8s27.42,2.15,52.69,0,28.34,1.54,35.73,0-8.62-7.09-17.87-9.25-12.93,6.2-22.18,5.1-6.47-3.56-17.25-2.32S452.21,295,444.2,295,430.31,297.66,432.18,297.8Z"/><path class="cls-9" d="M199.52,363.6a184,184,0,0,0,28,0c17.06-1.14,22.74.63,35.25.5s15.53,1.66,18.94,0-8.33-.89-16.29-3.93-8.34-6.59-17-4.62-4.17,6.14-15.16,1.59-9.48-8.71-17.43-4.92-3.79,6.44-16.3,7.2-18.19,2.27-15.16,3S199.52,363.6,199.52,363.6Z"/><path class="cls-10" d="M139.28,324.09s4.71,11.7,24.6,16.38,31.08-1.45,51,20.78,33.27,35.38,69.54,38.89,3.51.23,60.84,11.23,45.68,1.86,86.6,15.21,106.45,42.82,147.4,42.82H139.28Z"/><path class="cls-11" d="M373.31,469.4s15.21-10.76,40.95-15.44,25.51,9.37,72.43-7.6,52.1-26.11,68.48-24.55,19.5,11.7,39,13.26,15.6,7.8,39-1.56,31.2-36.08,50.71-36.77,40.49-20.18,40.49-20.18V469.4Z"/><path class="cls-12" d="M139.28,620.75c11.36-6.65,110.09,9.42,208.27,45,101.61,36.81,113.51,26.91,170.84,25.74s206,12.46,206,12.46H139.28Z"/><polygon class="cls-12" points="154.74 547.02 139.28 620.75 170.19 620.75 154.74 547.02"/><polygon class="cls-12" points="173.12 559.33 158.87 627.3 187.37 627.3 173.12 559.33"/><polygon class="cls-12" points="192.43 554.92 176.97 628.64 207.89 628.64 192.43 554.92"/><polygon class="cls-12" points="539.16 620.79 523.7 694.52 554.62 694.52 539.16 620.79"/><polygon class="cls-12" points="576.85 628.69 561.39 702.42 592.31 702.42 576.85 628.69"/><polygon class="cls-12" points="243.62 570.89 228.16 644.61 259.08 644.61 243.62 570.89"/><polygon class="cls-12" points="265.27 576.86 250.68 646.44 279.86 646.44 265.27 576.86"/><polygon class="cls-12" points="209.7 583.88 198.82 635.76 220.58 635.76 209.7 583.88"/><polygon class="cls-12" points="223.16 591.78 213.35 638.54 232.96 638.54 223.16 591.78"/><polygon class="cls-12" points="288.39 605.68 277.52 657.55 299.27 657.55 288.39 605.68"/><polygon class="cls-12" points="515.3 643.67 504.42 695.55 526.18 695.55 515.3 643.67"/><polygon class="cls-12" points="305.36 617.54 295.52 664.48 315.2 664.48 305.36 617.54"/><polygon class="cls-12" points="317.57 628.5 308.94 669.65 326.2 669.65 317.57 628.5"/><polygon class="cls-12" points="332.61 642.27 326.2 672.84 339.01 672.84 332.61 642.27"/><polygon class="cls-12" points="557.81 664.48 551.4 695.04 564.22 695.04 557.81 664.48"/><polygon class="cls-12" points="595.69 665.55 589.28 696.12 602.1 696.12 595.69 665.55"/><path class="cls-9" d="M679.41,430.5H652.54c-10.11,0-20.58,1.57-19.88-1.56s11.51.78,19.53-3.53,11.52-8.21,25.12-3.13,24.08,7.83,17.1,8.61A68.87,68.87,0,0,1,679.41,430.5Z"/></g><rect class="cls-13" x="208.24" y="118.81" width="402.36" height="583.14"/><path class="cls-14" d="M495.85,625.17V109.23s-8.23-25.41-30.77-23.39V602.55S487.76,608.47,494,643A104,104,0,0,0,495.85,625.17Z"/><path class="cls-13" d="M495.85,625.17V109.23s-8.23-25.41-30.77-23.39V602.55S487.76,608.47,494,643A104,104,0,0,0,495.85,625.17Z"/><path class="cls-15" d="M208.24,699.93h245.3s31-9.86,40.46-57c0,0-4.82-32.39-28.92-40.4V120.06H208.24Z"/><path class="cls-13" d="M208.24,699.93h245.3s31-9.86,40.46-57c0,0-4.82-32.39-28.92-40.4V120.06H208.24Z"/><rect class="cls-16" x="208.24" y="119.94" width="285.76" height="585.55"/><path class="cls-17" d="M225.18,124.11l-16.94-1.48,16.94-1.48a35.64,35.64,0,0,0,29.37-29.36L256,74.85l1.47,16.94a35.64,35.64,0,0,0,29.37,29.36l16.94,1.48-16.94,1.48a35.64,35.64,0,0,0-29.37,29.36L256,170.41l-1.48-16.94A35.64,35.64,0,0,0,225.18,124.11Z"/><path class="cls-17" d="M289.73,152.11l-7.74-.67,7.74-.68a16.27,16.27,0,0,0,13.4-13.4l.67-7.73.68,7.73a16.25,16.25,0,0,0,13.4,13.4l7.73.68-7.73.67a16.25,16.25,0,0,0-13.4,13.4l-.68,7.73-.67-7.73A16.27,16.27,0,0,0,289.73,152.11Z"/><path class="cls-17" d="M251.4,193.4l-13.54-1.18L251.4,191a28.46,28.46,0,0,0,23.46-23.46L276,154l1.18,13.54A28.48,28.48,0,0,0,300.69,191l13.53,1.18-13.53,1.18a28.49,28.49,0,0,0-23.47,23.46L276,230.4l-1.18-13.54A28.47,28.47,0,0,0,251.4,193.4Z"/></svg>