<svg id="Calque_1" data-name="Calque 1" xmlns="http://www.w3.org/2000/svg" xmlns:xlink="http://www.w3.org/1999/xlink" viewBox="0 0 800 800"><defs><style>.cls-1,.cls-2{fill:#ebe7e2;}.cls-1,.cls-13{stroke:#1a1916;stroke-miterlimit:10;stroke-width:5px;}.cls-3{clip-path:url(#clip-path);}.cls-4{fill:#fbecd3;}.cls-5{fill:#9daea4;}.cls-6{fill:#799685;}.cls-7{fill:#de8c0c;}.cls-8{fill:#f28c01;}.cls-9{fill:#fdfdfe;}.cls-10{fill:#8c3414;}.cls-11{fill:#cf5516;}.cls-12{fill:#494020;}.cls-13{fill:none;}.cls-14,.cls-15{fill:#fff;}.cls-14{opacity:0.8;}.cls-15{opacity:0.4;}</style><clipPath id="clip-path"><rect class="cls-1" x="198.82" y="118.81" width="402.36" height="583.14"/></clipPath></defs><title>Plan de travail 9</title><polygon class="cls-1" points="557.66 701.95 198.82 701.95 198.82 118.81 577.4 82.78 557.66 701.95"/><rect class="cls-2" x="198.82" y="118.81" width="402.36" height="583.14"/><g class="cls-3"><rect class="cls-4" x="129.86" y="118.81" width="585.12" height="585.12"/><rect class="cls-5" x="129.86" y="469.4" width="585.12" height="234.54"/><path class="cls-6" d="M129.86,527.13S158,527.91,186.1,510s49.93-21.84,72.55-21.84,20.29,6.24,48.37,0,57.73-10.14,82.7-9.36,28.87-3.12,43.69,5.46,72.55,22.4,91.28,18.61,23.94,4,45.12,10.25,32.11-28.3,54.74-10.25,27.3,14.93,39.79,28.2,7.8,15.6,23.4,20.28S715,559.89,715,559.89V469.4H129.86Z"/><circle class="cls-7" cx="406.09" cy="324.09" r="56.26"/><circle class="cls-6" cx="392.41" cy="547.02" r="41.41"/><path class="cls-8" d="M715,284.59s-16.24-9.36-26.19-8.19-14.63,16.38-30.43,20.48-5.27,12.29-45.64,27.21-38.31,23.7-73.29,37.74-59.31,43.74-112.36,49.54-113.49,58-113.49,58H715Z"/><path class="cls-9" d="M422.77,297.8s27.41,2.15,52.68,0,28.34,1.54,35.73,0-8.62-7.09-17.86-9.25-12.94,6.2-22.19,5.1-6.47-3.56-17.25-2.32S442.79,295,434.78,295,420.9,297.66,422.77,297.8Z"/><path class="cls-9" d="M190.1,363.6a184,184,0,0,0,28,0c17.06-1.14,22.74.63,35.25.5s15.53,1.66,18.95,0-8.34-.89-16.3-3.93-8.34-6.59-17.05-4.62-4.17,6.14-15.16,1.59-9.48-8.71-17.43-4.92-3.79,6.44-16.3,7.2-18.19,2.27-15.16,3S190.1,363.6,190.1,363.6Z"/><path class="cls-10" d="M129.86,324.09s4.71,11.7,24.6,16.38,31.08-1.45,51,20.78S238.7,396.63,275,400.14s3.51.23,60.84,11.23,45.68,1.86,86.61,15.21S528.86,469.4,569.81,469.4H129.86Z"/><path class="cls-11" d="M363.89,469.4S379.1,458.64,404.84,454s25.52,9.37,72.43-7.6,52.1-26.11,68.48-24.55,19.5,11.7,39,13.26,15.6,7.8,39-1.56,31.2-36.08,50.71-36.77S715,376.56,715,376.56V469.4Z"/><path class="cls-12" d="M129.86,620.75c11.36-6.65,110.09,9.42,208.27,45C439.74,702.54,451.64,692.64,509,691.47s206,12.46,206,12.46H129.86Z"/><polygon class="cls-12" points="145.32 547.02 129.86 620.75 160.78 620.75 145.32 547.02"/><polygon class="cls-12" points="163.7 559.33 149.45 627.3 177.95 627.3 163.7 559.33"/><polygon class="cls-12" points="183.01 554.92 167.55 628.64 198.47 628.64 183.01 554.92"/><polygon class="cls-12" points="529.74 620.79 514.28 694.52 545.2 694.52 529.74 620.79"/><polygon class="cls-12" points="567.43 628.69 551.97 702.42 582.89 702.42 567.43 628.69"/><polygon class="cls-12" points="234.2 570.89 218.75 644.61 249.66 644.61 234.2 570.89"/><polygon class="cls-12" points="255.85 576.86 241.26 646.44 270.44 646.44 255.85 576.86"/><polygon class="cls-12" points="200.28 583.88 189.4 635.76 211.16 635.76 200.28 583.88"/><polygon class="cls-12" points="213.74 591.78 203.93 638.54 223.54 638.54 213.74 591.78"/><polygon class="cls-12" points="278.98 605.68 268.1 657.55 289.85 657.55 278.98 605.68"/><polygon class="cls-12" points="505.88 643.67 495 695.55 516.76 695.55 505.88 643.67"/><polygon class="cls-12" points="295.94 617.54 286.1 664.48 305.79 664.48 295.94 617.54"/><polygon class="cls-12" points="308.15 628.5 299.52 669.65 316.78 669.65 308.15 628.5"/><polygon class="cls-12" points="323.19 642.27 316.78 672.84 329.6 672.84 323.19 642.27"/><polygon class="cls-12" points="548.39 664.48 541.98 695.04 554.8 695.04 548.39 664.48"/><polygon class="cls-12" points="586.27 665.55 579.86 696.12 592.68 696.12 586.27 665.55"/><path class="cls-9" d="M670,430.5H643.12c-10.11,0-20.58,1.57-19.88-1.56s11.51.78,19.54-3.53,11.51-8.21,25.12-3.13S692,430.11,685,430.89A68.87,68.87,0,0,1,670,430.5Z"/></g><rect class="cls-13" x="198.82" y="118.81" width="402.36" height="583.14"/><path class="cls-14" d="M486.43,625.17V109.23s-8.23-25.41-30.77-23.39V602.55s22.68,5.92,28.93,40.4A104.55,104.55,0,0,0,486.43,625.17Z"/><path class="cls-13" d="M486.43,625.17V109.23s-8.23-25.41-30.77-23.39V602.55s22.68,5.92,28.93,40.4A104.55,104.55,0,0,0,486.43,625.17Z"/><path class="cls-15" d="M198.82,699.93h245.3s31-9.86,40.47-57c0,0-4.83-32.39-28.93-40.4V120.06H198.82Z"/><path class="cls-13" d="M198.82,699.93h245.3s31-9.86,40.47-57c0,0-4.83-32.39-28.93-40.4V120.06H198.82Z"/></svg>