<svg id="Calque_1" data-name="Calque 1" xmlns="http://www.w3.org/2000/svg" viewBox="0 0 800 800"><defs><style>.cls-1{fill:#e7e2da;stroke:#12120d;stroke-width:5.68px;}.cls-1,.cls-12,.cls-2{stroke-miterlimit:10;}.cls-2{fill:#1a1a16;stroke-width:0.75px;}.cls-12,.cls-2{stroke:#1a1a16;}.cls-3{fill:#faebcd;}.cls-4{fill:#97a99d;}.cls-5{fill:#72917e;}.cls-6{fill:#dc8800;}.cls-7{fill:#f38800;}.cls-8{fill:#fcfdfd;}.cls-9{fill:#88300a;}.cls-10{fill:#cd510b;}.cls-11{fill:#443c15;}.cls-12{fill:none;stroke-width:5px;}.cls-13,.cls-14{fill:#fff;}.cls-13{opacity:0.8;}.cls-14{opacity:0.5;}</style></defs><title>vérification simple</title><rect class="cls-1" x="148.92" y="191.71" width="555.83" height="555.83"/><path class="cls-2" d="M696.7,161.42,693,160.23a65.87,65.87,0,0,0-125.26-40.8l-3.66-1.19A69.72,69.72,0,0,1,696.7,161.42Z"/><polygon class="cls-2" points="694.5 163.52 672.38 134.28 675.45 131.96 695.25 158.12 721.41 138.32 723.74 141.39 694.5 163.52"/><rect class="cls-3" x="87.47" y="143.35" width="558.7" height="558.7"/><rect class="cls-4" x="87.47" y="478.1" width="558.7" height="223.95"/><path class="cls-5" d="M87.47,533.22s26.89.75,53.71-16.39S188.85,496,210.46,496s19.36,6,46.18,0,55.13-9.69,79-8.94,27.57-3,41.72,5.21S446.6,513.64,464.48,510s22.86,3.83,43.09,9.79,30.66-27,52.26-9.79,26.07,14.26,38,26.93,7.45,14.9,22.35,19.37,26,8.19,26,8.19V478.1H87.47Z"/><circle class="cls-6" cx="351.24" cy="339.36" r="53.72"/><circle class="cls-5" cx="338.17" cy="552.22" r="39.54"/><path class="cls-7" d="M646.18,301.64s-15.51-8.94-25-7.83-14,15.65-29,19.56-5,11.74-43.59,26-36.57,22.62-70,36-56.64,41.76-107.29,47.31-108.36,55.4-108.36,55.4H646.18Z"/><path class="cls-8" d="M367.16,314.25s26.18,2.06,50.3,0,27.07,1.47,34.13,0-8.24-6.77-17.07-8.83-12.35,5.92-21.18,4.87-6.17-3.4-16.47-2.22-10.59,3.53-18.24,3.53S365.37,314.12,367.16,314.25Z"/><path class="cls-8" d="M145,377.08a175.59,175.59,0,0,0,26.78,0c16.28-1.09,21.71.6,33.65.48s14.83,1.58,18.09,0-8-.85-15.56-3.74-8-6.3-16.28-4.41-4,5.86-14.48,1.51-9-8.32-16.64-4.7-3.62,6.15-15.56,6.87-17.37,2.18-14.47,2.9S145,377.08,145,377.08Z"/><path class="cls-9" d="M87.47,339.36S92,350.53,111,355s29.68-1.39,48.67,19.83S191.41,408.62,226,412s3.35.22,58.09,10.73,43.62,1.77,82.7,14.51S468.47,478.1,507.57,478.1H87.47Z"/><path class="cls-10" d="M310.94,478.1s14.53-10.27,39.11-14.74,24.36,8.95,69.15-7.26,49.75-24.93,65.39-23.44,18.63,11.17,37.25,12.66,14.9,7.45,37.25-1.49,29.79-34.45,48.42-35.1,38.67-19.28,38.67-19.28V478.1Z"/><path class="cls-11" d="M87.47,622.62c10.86-6.35,105.13,9,198.88,43,97,35.15,108.38,25.7,163.12,24.58s196.71,11.9,196.71,11.9H87.47Z"/><polygon class="cls-11" points="102.24 552.22 87.47 622.62 117 622.62 102.24 552.22"/><polygon class="cls-11" points="119.79 563.97 106.18 628.87 133.4 628.87 119.79 563.97"/><polygon class="cls-11" points="138.23 559.76 123.47 630.16 152.99 630.16 138.23 559.76"/><polygon class="cls-11" points="469.3 622.66 454.54 693.06 484.06 693.06 469.3 622.66"/><polygon class="cls-11" points="505.29 630.2 490.53 700.6 520.05 700.6 505.29 630.2"/><polygon class="cls-11" points="187.11 575.01 172.35 645.4 201.87 645.4 187.11 575.01"/><polygon class="cls-11" points="207.78 580.71 193.85 647.15 221.71 647.15 207.78 580.71"/><polygon class="cls-11" points="154.72 587.42 144.33 636.95 165.1 636.95 154.72 587.42"/><polygon class="cls-11" points="167.57 594.96 158.21 639.61 176.93 639.61 167.57 594.96"/><polygon class="cls-11" points="229.86 608.23 219.47 657.76 240.25 657.76 229.86 608.23"/><polygon class="cls-11" points="446.52 644.51 436.14 694.04 456.91 694.04 446.52 644.51"/><polygon class="cls-11" points="246.06 619.55 236.66 664.37 255.46 664.37 246.06 619.55"/><polygon class="cls-11" points="257.72 630.02 249.48 669.31 265.96 669.31 257.72 630.02"/><polygon class="cls-11" points="272.08 643.17 265.96 672.36 278.2 672.36 272.08 643.17"/><polygon class="cls-11" points="487.11 664.37 480.99 693.56 493.23 693.56 487.11 664.37"/><polygon class="cls-11" points="523.28 665.4 517.16 694.59 529.4 694.59 523.28 665.4"/><path class="cls-8" d="M603.22,441H577.57c-9.66,0-19.66,1.49-19-1.5s11,.75,18.66-3.36,11-7.85,24-3,23,7.48,16.33,8.22A65.53,65.53,0,0,1,603.22,441Z"/><rect class="cls-12" x="87.47" y="143.35" width="558.7" height="558.7"/><path class="cls-13" d="M456.91,630V75.1s-10.57-24.48-39.52-22.53V608.23s29.13,5.7,37.15,38.92A76.65,76.65,0,0,0,456.91,630Z"/><path class="cls-14" d="M84.81,702.05H399.9s39.78-9.5,52-54.9c0,0-6.2-31.21-37.15-38.92V143.35H84.81Z"/><path class="cls-12" d="M87.47,702.05H402.56s39.78-9.5,52-54.9c0,0-6.2-31.21-37.15-38.92V143.35H87.47Z"/><path class="cls-12" d="M456.91,630V75.1s-10.57-24.48-39.52-22.53V608.23s29.13,5.7,37.15,38.92A76.65,76.65,0,0,0,456.91,630Z"/></svg>