<svg id="Calque_1" data-name="Calque 1" xmlns="http://www.w3.org/2000/svg" viewBox="0 0 800 800"><defs><style>.cls-1{fill:#faebcd;}.cls-2{fill:#97a99d;}.cls-3{fill:#72917e;}.cls-4{fill:#dc8800;}.cls-5{fill:#f38800;}.cls-6{fill:#fcfdfd;}.cls-7{fill:#88300a;}.cls-8{fill:#cd510b;}.cls-9{fill:#443c15;}.cls-10{fill:none;stroke:#1a1a16;stroke-miterlimit:10;stroke-width:5px;}.cls-11,.cls-12{fill:#fff;}.cls-11{opacity:0.8;}.cls-12{opacity:0.5;}</style></defs><title>vérification simple</title><rect class="cls-1" x="128.69" y="139.19" width="558.7" height="558.7"/><rect class="cls-2" x="128.69" y="473.94" width="558.7" height="223.95"/><path class="cls-3" d="M128.69,529.07s26.88.74,53.7-16.39,47.68-20.86,69.28-20.86,19.37,6,46.19,0,55.12-9.68,79-8.94,27.56-3,41.72,5.22,69.27,21.39,87.15,17.77,22.86,3.83,43.09,9.79,30.66-27,52.27-9.79,26.07,14.26,38,26.92,7.45,14.9,22.34,19.37,26,8.2,26,8.2V473.94H128.69Z"/><circle class="cls-4" cx="392.45" cy="335.2" r="53.72"/><circle class="cls-3" cx="379.39" cy="548.06" r="39.54"/><path class="cls-5" d="M687.39,297.48s-15.51-8.94-25-7.82-14,15.64-29.06,19.56-5,11.73-43.58,26-36.58,22.63-70,36S463.14,413,412.49,418.54s-108.37,55.4-108.37,55.4H687.39Z"/><path class="cls-6" d="M408.37,310.09s26.19,2.06,50.31,0,27.06,1.47,34.12,0-8.24-6.76-17.06-8.82-12.36,5.91-21.18,4.87-6.18-3.4-16.47-2.23-10.59,3.53-18.24,3.53S406.59,310,408.37,310.09Z"/><path class="cls-6" d="M186.21,372.92a174,174,0,0,0,26.78,0c16.28-1.09,21.71.6,33.65.48s14.84,1.58,18.1,0-8-.85-15.56-3.75-8-6.29-16.29-4.41-4,5.86-14.47,1.52-9-8.32-16.65-4.71-3.61,6.16-15.56,6.88-17.36,2.17-14.47,2.89S186.21,372.92,186.21,372.92Z"/><path class="cls-7" d="M128.69,335.2s4.5,11.17,23.49,15.64,29.68-1.39,48.67,19.84,31.77,33.78,66.4,37.14,3.35.22,58.1,10.72S369,420.31,408,433.06s101.64,40.88,140.74,40.88H128.69Z"/><path class="cls-8" d="M352.16,473.94s14.52-10.26,39.1-14.73,24.36,8.94,69.16-7.26S510.16,427,525.81,428.5s18.62,11.18,37.24,12.67,14.9,7.44,37.25-1.49,29.8-34.46,48.42-35.11,38.67-19.27,38.67-19.27v88.64Z"/><path class="cls-9" d="M128.69,618.46c10.85-6.35,105.12,9,198.87,43,97,35.14,108.39,25.69,163.13,24.57s196.7,11.9,196.7,11.9H128.69Z"/><polygon class="cls-9" points="143.45 548.06 128.69 618.46 158.21 618.46 143.45 548.06"/><polygon class="cls-9" points="161.01 559.82 147.4 624.72 174.62 624.72 161.01 559.82"/><polygon class="cls-9" points="179.44 555.61 164.68 626 194.2 626 179.44 555.61"/><polygon class="cls-9" points="510.52 618.5 495.76 688.9 525.28 688.9 510.52 618.5"/><polygon class="cls-9" points="546.51 626.05 531.75 696.44 561.27 696.44 546.51 626.05"/><polygon class="cls-9" points="228.32 570.85 213.56 641.25 243.09 641.25 228.32 570.85"/><polygon class="cls-9" points="249 576.55 235.06 643 262.93 643 249 576.55"/><polygon class="cls-9" points="195.93 583.26 185.55 632.79 206.32 632.79 195.93 583.26"/><polygon class="cls-9" points="208.78 590.8 199.42 635.45 218.15 635.45 208.78 590.8"/><polygon class="cls-9" points="271.07 604.07 260.69 653.61 281.46 653.61 271.07 604.07"/><polygon class="cls-9" points="487.74 640.35 477.35 689.89 498.12 689.89 487.74 640.35"/><polygon class="cls-9" points="287.28 615.4 277.88 660.22 296.68 660.22 287.28 615.4"/><polygon class="cls-9" points="298.93 625.86 290.69 665.15 307.17 665.15 298.93 625.86"/><polygon class="cls-9" points="313.29 639.01 307.17 668.2 319.41 668.2 313.29 639.01"/><polygon class="cls-9" points="528.33 660.22 522.21 689.4 534.45 689.4 528.33 660.22"/><polygon class="cls-9" points="564.5 661.25 558.38 690.43 570.62 690.43 564.5 661.25"/><path class="cls-6" d="M644.44,436.8H618.78c-9.66,0-19.65,1.5-19-1.49s11,.75,18.65-3.36,11-7.85,24-3,23,7.47,16.32,8.22A65.14,65.14,0,0,1,644.44,436.8Z"/><rect class="cls-10" x="128.69" y="139.19" width="558.7" height="558.7"/><path class="cls-11" d="M498.12,625.86V71S487.56,46.47,458.6,48.41V604.07s29.14,5.71,37.16,38.93A77,77,0,0,0,498.12,625.86Z"/><path class="cls-12" d="M126,697.89H441.11s39.79-9.5,52-54.89c0,0-6.21-31.21-37.16-38.93V139.19H126Z"/><path class="cls-10" d="M128.69,697.89H443.77s39.79-9.5,52-54.89c0,0-6.21-31.21-37.16-38.93V139.19H128.69Z"/><path class="cls-10" d="M498.12,625.86V71S487.56,46.47,458.6,48.41V604.07s29.14,5.71,37.16,38.93A77,77,0,0,0,498.12,625.86Z"/></svg>