<svg id="Calque_1" data-name="Calque 1" xmlns="http://www.w3.org/2000/svg" viewBox="0 0 800 800"><defs><style>.cls-1{fill:#faebcd;}.cls-2{fill:#97a99d;}.cls-3{fill:#72917e;}.cls-4{fill:#dc8800;}.cls-5{fill:#f38800;}.cls-6{fill:#fcfdfd;}.cls-7{fill:#88300a;}.cls-8{fill:#cd510b;}.cls-9{fill:#443c15;}.cls-10{fill:none;stroke-width:5px;}.cls-10,.cls-13{stroke:#1a1a16;stroke-miterlimit:10;}.cls-11,.cls-12,.cls-13{fill:#fff;}.cls-11{opacity:0.8;}.cls-12{opacity:0.5;}.cls-13{stroke-width:2px;}</style></defs><title>pelliculage brillant</title><rect class="cls-1" x="122.22" y="154.14" width="558.7" height="558.7"/><rect class="cls-2" x="122.22" y="488.89" width="558.7" height="223.95"/><path class="cls-3" d="M122.22,544s26.88.74,53.7-16.39,47.67-20.86,69.28-20.86,19.37,6,46.18,0,55.13-9.68,79-8.94,27.56-3,41.71,5.22,69.28,21.39,87.16,17.77,22.86,3.83,43.09,9.79,30.66-27,52.26-9.79,26.08,14.26,38,26.92,7.45,14.9,22.35,19.37,26,8.2,26,8.2V488.89H122.22Z"/><circle class="cls-4" cx="385.98" cy="350.15" r="53.72"/><circle class="cls-3" cx="372.92" cy="563.02" r="39.54"/><path class="cls-5" d="M680.92,312.43s-15.51-8.94-25-7.82-14,15.65-29,19.56-5,11.73-43.59,26-36.57,22.63-70,36S456.67,428,406,433.49s-108.36,55.4-108.36,55.4H680.92Z"/><path class="cls-6" d="M401.9,325s26.18,2.06,50.3,0,27.07,1.47,34.13,0-8.24-6.76-17.06-8.82-12.36,5.91-21.18,4.87-6.18-3.4-16.48-2.22S421,322.4,413.37,322.4,400.12,324.92,401.9,325Z"/><path class="cls-6" d="M179.74,387.87a174,174,0,0,0,26.78,0c16.28-1.08,21.71.6,33.65.48s14.84,1.58,18.09,0-8-.85-15.56-3.75-8-6.29-16.28-4.41-4,5.86-14.47,1.52-9-8.32-16.65-4.7-3.62,6.15-15.56,6.87-17.37,2.17-14.47,2.9S179.74,387.87,179.74,387.87Z"/><path class="cls-7" d="M122.22,350.15s4.5,11.17,23.49,15.64,29.68-1.39,48.67,19.84,31.77,33.79,66.4,37.14,3.35.22,58.09,10.72,43.62,1.77,82.7,14.52,101.64,40.88,140.74,40.88H122.22Z"/><path class="cls-8" d="M345.69,488.89s14.52-10.26,39.1-14.73,24.36,8.94,69.15-7.26,49.75-24.94,65.39-23.45,18.63,11.18,37.25,12.67,14.9,7.45,37.25-1.49,29.8-34.45,48.42-35.11,38.67-19.27,38.67-19.27v88.64Z"/><path class="cls-9" d="M122.22,633.41c10.85-6.35,105.12,9,198.87,43,97,35.14,108.38,25.69,163.13,24.58s196.7,11.89,196.7,11.89H122.22Z"/><polygon class="cls-9" points="136.98 563.01 122.22 633.41 151.74 633.41 136.98 563.01"/><polygon class="cls-9" points="154.53 574.77 140.92 639.67 168.14 639.67 154.53 574.77"/><polygon class="cls-9" points="172.97 570.56 158.21 640.95 187.73 640.95 172.97 570.56"/><polygon class="cls-9" points="504.04 633.46 489.28 703.85 518.8 703.85 504.04 633.46"/><polygon class="cls-9" points="540.03 641 525.27 711.39 554.8 711.39 540.03 641"/><polygon class="cls-9" points="221.85 585.8 207.09 656.2 236.61 656.2 221.85 585.8"/><polygon class="cls-9" points="242.52 591.51 228.59 657.95 256.46 657.95 242.52 591.51"/><polygon class="cls-9" points="189.46 598.21 179.07 647.75 199.85 647.75 189.46 598.21"/><polygon class="cls-9" points="202.31 605.75 192.95 650.4 211.67 650.4 202.31 605.75"/><polygon class="cls-9" points="264.6 619.02 254.22 668.56 274.99 668.56 264.6 619.02"/><polygon class="cls-9" points="481.26 655.3 470.88 704.84 491.65 704.84 481.26 655.3"/><polygon class="cls-9" points="280.8 630.35 271.41 675.17 290.2 675.17 280.8 630.35"/><polygon class="cls-9" points="292.46 640.81 284.22 680.1 300.7 680.1 292.46 640.81"/><polygon class="cls-9" points="306.82 653.97 300.7 683.15 312.94 683.15 306.82 653.97"/><polygon class="cls-9" points="521.86 675.17 515.74 704.36 527.97 704.36 521.86 675.17"/><polygon class="cls-9" points="558.03 676.2 551.91 705.38 564.15 705.38 558.03 676.2"/><path class="cls-6" d="M638,451.76H612.31c-9.66,0-19.65,1.49-19-1.5s11,.75,18.66-3.36,11-7.85,24-3,23,7.47,16.33,8.22A65.53,65.53,0,0,1,638,451.76Z"/><rect class="cls-10" x="122.22" y="154.14" width="558.7" height="558.7"/><path class="cls-11" d="M491.65,640.81V85.9s-10.56-24.48-39.52-22.53V619s29.14,5.7,37.15,38.92A76.67,76.67,0,0,0,491.65,640.81Z"/><path class="cls-12" d="M122.22,712.84H437.3s39.79-9.49,52-54.89c0,0-6.2-31.21-37.15-38.92V154.14H122.22Z"/><path class="cls-12" d="M126.05,142.31l-21.12-1.85,21.12-1.84A44.42,44.42,0,0,0,162.66,102l1.84-21.12L166.35,102A44.41,44.41,0,0,0,203,138.62l21.12,1.84L203,142.31a44.41,44.41,0,0,0-36.61,36.61L164.5,200l-1.84-21.12A44.42,44.42,0,0,0,126.05,142.31Z"/><path class="cls-12" d="M206.52,177.22l-9.64-.84,9.64-.84a20.31,20.31,0,0,0,16.71-16.71l.84-9.64.84,9.64a20.28,20.28,0,0,0,16.71,16.71l9.64.84-9.64.84a20.26,20.26,0,0,0-16.71,16.71l-.84,9.64-.84-9.64A20.28,20.28,0,0,0,206.52,177.22Z"/><path class="cls-12" d="M158.74,228.7l-16.88-1.47,16.88-1.48A35.5,35.5,0,0,0,188,196.5l1.47-16.88,1.47,16.88a35.5,35.5,0,0,0,29.26,29.25l16.87,1.48-16.87,1.47A35.5,35.5,0,0,0,190.93,258l-1.47,16.88L188,258A35.5,35.5,0,0,0,158.74,228.7Z"/><path class="cls-10" d="M122.22,712.84H437.3s39.79-9.49,52-54.89c0,0-6.2-31.21-37.15-38.92V154.14H122.22Z"/><path class="cls-10" d="M491.65,640.81V85.9s-10.56-24.48-39.52-22.53V619s29.14,5.7,37.15,38.92A76.67,76.67,0,0,0,491.65,640.81Z"/><path class="cls-13" d="M126.05,142.31l-21.12-1.85,21.12-1.84A44.42,44.42,0,0,0,162.66,102l1.84-21.12L166.35,102A44.41,44.41,0,0,0,203,138.62l21.12,1.84L203,142.31a44.41,44.41,0,0,0-36.61,36.61L164.5,200l-1.84-21.12A44.42,44.42,0,0,0,126.05,142.31Z"/><path class="cls-13" d="M206.52,177.22l-9.64-.84,9.64-.84a20.31,20.31,0,0,0,16.71-16.71l.84-9.64.84,9.64a20.28,20.28,0,0,0,16.71,16.71l9.64.84-9.64.84a20.26,20.26,0,0,0-16.71,16.71l-.84,9.64-.84-9.64A20.28,20.28,0,0,0,206.52,177.22Z"/><path class="cls-13" d="M158.74,228.7l-16.88-1.47,16.88-1.48A35.5,35.5,0,0,0,188,196.5l1.47-16.88,1.47,16.88a35.5,35.5,0,0,0,29.26,29.25l16.87,1.48-16.87,1.47A35.5,35.5,0,0,0,190.93,258l-1.47,16.88L188,258A35.5,35.5,0,0,0,158.74,228.7Z"/></svg>