<svg id="Calque_1" data-name="Calque 1" xmlns="http://www.w3.org/2000/svg" xmlns:xlink="http://www.w3.org/1999/xlink" viewBox="0 0 800 800"><defs><style>.cls-1{fill:#fbecd3;}.cls-2{fill:#9daea4;}.cls-3{fill:#799685;}.cls-4{fill:#de8c0c;}.cls-5{fill:#f28c01;}.cls-6{fill:#fdfdfe;}.cls-7{fill:#8c3414;}.cls-8{fill:#cf5516;}.cls-9{fill:#494020;}.cls-10{fill:none;stroke-width:5px;}.cls-10,.cls-13{stroke:#1a1916;}.cls-10,.cls-12,.cls-13{stroke-miterlimit:10;}.cls-11{opacity:0.7;fill:url(#Dégradé_sans_nom_58);}.cls-12,.cls-13{fill:#fff;stroke-width:2px;}.cls-12{stroke:#1d1d1b;opacity:0.5;}</style><linearGradient id="Dégradé_sans_nom_58" x1="121.23" y1="418.02" x2="679.93" y2="418.02" gradientUnits="userSpaceOnUse"><stop offset="0" stop-color="#fff" stop-opacity="0"/><stop offset="0.06" stop-color="#fff" stop-opacity="0.02"/><stop offset="0.13" stop-color="#fff" stop-opacity="0.06"/><stop offset="0.19" stop-color="#fff" stop-opacity="0.14"/><stop offset="0.25" stop-color="#fff" stop-opacity="0.25"/><stop offset="0.31" stop-color="#fff" stop-opacity="0.39"/><stop offset="0.37" stop-color="#fff" stop-opacity="0.56"/><stop offset="0.43" stop-color="#fff" stop-opacity="0.76"/><stop offset="0.49" stop-color="#fff" stop-opacity="0.99"/><stop offset="0.49" stop-color="#fff"/><stop offset="0.58" stop-color="#fff" stop-opacity="0.74"/><stop offset="0.66" stop-color="#fff" stop-opacity="0.52"/><stop offset="0.74" stop-color="#fff" stop-opacity="0.33"/><stop offset="0.82" stop-color="#fff" stop-opacity="0.19"/><stop offset="0.89" stop-color="#fff" stop-opacity="0.08"/><stop offset="0.95" stop-color="#fff" stop-opacity="0.02"/><stop offset="1" stop-color="#fff" stop-opacity="0"/></linearGradient></defs><title>Plan de travail 1 copie 2</title><rect class="cls-1" x="121.23" y="138.67" width="558.7" height="558.7"/><rect class="cls-2" x="121.23" y="473.42" width="558.7" height="223.95"/><path class="cls-3" d="M121.23,528.55s26.88.74,53.7-16.39,47.68-20.86,69.28-20.86,19.37,6,46.18,0,55.13-9.68,79-8.94,27.56-3,41.71,5.22,69.28,21.39,87.16,17.77,22.86,3.83,43.09,9.79,30.66-27,52.26-9.79,26.08,14.26,38,26.92,7.45,14.9,22.35,19.37,26,8.19,26,8.19V473.42H121.23Z"/><circle class="cls-4" cx="384.99" cy="334.68" r="53.72"/><circle class="cls-3" cx="371.93" cy="547.54" r="39.54"/><path class="cls-5" d="M679.93,297s-15.51-8.94-25-7.82-14,15.64-29,19.56-5,11.73-43.58,26-36.58,22.63-70,36S455.68,412.48,405,418s-108.36,55.4-108.36,55.4H679.93Z"/><path class="cls-6" d="M400.91,309.57s26.18,2.06,50.3,0,27.07,1.47,34.13,0-8.24-6.76-17.06-8.82-12.36,5.91-21.18,4.87-6.18-3.4-16.48-2.23-10.59,3.53-18.24,3.53S399.13,309.45,400.91,309.57Z"/><path class="cls-6" d="M178.75,372.4a174,174,0,0,0,26.78,0c16.28-1.09,21.71.6,33.65.48s14.84,1.58,18.09,0-8-.85-15.56-3.75-8-6.29-16.28-4.41-4,5.86-14.47,1.52-9.05-8.32-16.65-4.71-3.62,6.16-15.56,6.88-17.37,2.17-14.47,2.89S178.75,372.4,178.75,372.4Z"/><path class="cls-7" d="M121.23,334.68s4.5,11.17,23.49,15.64,29.68-1.39,48.67,19.84,31.77,33.78,66.4,37.14,3.35.22,58.09,10.72,43.62,1.77,82.7,14.52,101.64,40.88,140.74,40.88H121.23Z"/><path class="cls-8" d="M344.7,473.42s14.52-10.26,39.1-14.73,24.36,8.94,69.16-7.26S502.7,426.49,518.34,428s18.63,11.18,37.25,12.67,14.9,7.44,37.25-1.49,29.8-34.46,48.42-35.11,38.67-19.27,38.67-19.27v88.64Z"/><path class="cls-9" d="M121.23,617.94c10.85-6.35,105.12,9,198.87,43,97,35.14,108.39,25.69,163.13,24.57s196.7,11.9,196.7,11.9H121.23Z"/><polygon class="cls-9" points="135.99 547.54 121.23 617.94 150.75 617.94 135.99 547.54"/><polygon class="cls-9" points="153.54 559.3 139.94 624.2 167.15 624.2 153.54 559.3"/><polygon class="cls-9" points="171.98 555.09 157.22 625.48 186.74 625.48 171.98 555.09"/><polygon class="cls-9" points="503.06 617.98 488.29 688.38 517.82 688.38 503.06 617.98"/><polygon class="cls-9" points="539.04 625.53 524.28 695.92 553.81 695.92 539.04 625.53"/><polygon class="cls-9" points="220.86 570.33 206.1 640.73 235.62 640.73 220.86 570.33"/><polygon class="cls-9" points="241.53 576.03 227.6 642.48 255.47 642.48 241.53 576.03"/><polygon class="cls-9" points="188.47 582.74 178.09 632.27 198.86 632.27 188.47 582.74"/><polygon class="cls-9" points="201.32 590.28 191.96 634.93 210.68 634.93 201.32 590.28"/><polygon class="cls-9" points="263.61 603.55 253.23 653.09 274 653.09 263.61 603.55"/><polygon class="cls-9" points="480.28 639.83 469.89 689.37 490.66 689.37 480.28 639.83"/><polygon class="cls-9" points="279.81 614.88 270.42 659.7 289.21 659.7 279.81 614.88"/><polygon class="cls-9" points="291.47 625.34 283.23 664.63 299.71 664.63 291.47 625.34"/><polygon class="cls-9" points="305.83 638.49 299.71 667.68 311.95 667.68 305.83 638.49"/><polygon class="cls-9" points="520.87 659.7 514.75 688.88 526.99 688.88 520.87 659.7"/><polygon class="cls-9" points="557.04 660.73 550.92 689.91 563.16 689.91 557.04 660.73"/><path class="cls-6" d="M637,436.28H611.32c-9.66,0-19.65,1.5-19-1.49s11,.75,18.66-3.36,11-7.85,24-3,23,7.47,16.33,8.22A66,66,0,0,1,637,436.28Z"/><rect class="cls-10" x="121.23" y="138.67" width="558.7" height="558.7"/><rect class="cls-11" x="121.23" y="138.67" width="558.7" height="558.7"/><path class="cls-12" d="M121.23,138.67v558.7h558.7V138.67Zm558.69,558.7H121.22V138.67h558.7Z"/><path class="cls-13" d="M130.54,92.84,109.42,91l21.12-1.85a44.42,44.42,0,0,0,36.61-36.61L169,31.42l1.85,21.12a44.41,44.41,0,0,0,36.61,36.61L228.57,91l-21.12,1.84a44.42,44.42,0,0,0-36.61,36.61L169,150.57l-1.84-21.12A44.43,44.43,0,0,0,130.54,92.84Z"/><path class="cls-13" d="M211,127.75l-9.64-.84,9.64-.84a20.28,20.28,0,0,0,16.71-16.71l.84-9.64.84,9.64a20.26,20.26,0,0,0,16.71,16.71l9.64.84-9.64.84a20.28,20.28,0,0,0-16.71,16.71l-.84,9.64-.84-9.64A20.31,20.31,0,0,0,211,127.75Z"/><path class="cls-13" d="M163.23,179.23l-16.88-1.47,16.88-1.47A35.51,35.51,0,0,0,192.48,147L194,130.16,195.42,147a35.51,35.51,0,0,0,29.26,29.26l16.87,1.47-16.87,1.47a35.51,35.51,0,0,0-29.26,29.26L194,225.36l-1.47-16.87A35.51,35.51,0,0,0,163.23,179.23Z"/></svg>