<svg id="Calque_1" data-name="Calque 1" xmlns="http://www.w3.org/2000/svg" viewBox="0 0 800 800"><defs><style>.cls-1{fill:#fbecd3;}.cls-2{fill:#9daea4;}.cls-3{fill:#799685;}.cls-4{fill:#de8c0c;}.cls-5{fill:#f28c01;}.cls-6{fill:#fdfdfe;}.cls-7{fill:#8c3414;}.cls-8{fill:#cf5516;}.cls-9{fill:#494020;}.cls-10{fill:none;stroke:#1a1916;stroke-width:5px;}.cls-10,.cls-12{stroke-miterlimit:10;}.cls-11,.cls-12{fill:#fff;}.cls-11{opacity:0.3;}.cls-12{stroke:#1d1d1b;stroke-width:2px;opacity:0.5;}</style></defs><title>Plan de travail 12</title><rect class="cls-1" x="113.81" y="138.77" width="558.7" height="558.7"/><rect class="cls-2" x="113.81" y="473.52" width="558.7" height="223.95"/><path class="cls-3" d="M113.81,528.65s26.88.74,53.7-16.39,47.68-20.86,69.28-20.86,19.37,6,46.19,0,55.12-9.68,79-8.94,27.56-3,41.72,5.21,69.28,21.4,87.15,17.78,22.86,3.83,43.09,9.79,30.66-27,52.27-9.79,26.07,14.26,38,26.92,7.45,14.9,22.35,19.37,26,8.19,26,8.19V473.52H113.81Z"/><circle class="cls-4" cx="377.57" cy="334.78" r="53.72"/><circle class="cls-3" cx="364.51" cy="547.64" r="39.54"/><path class="cls-5" d="M672.51,297.06s-15.5-8.94-25-7.82-14,15.64-29.06,19.55-5,11.74-43.58,26-36.58,22.63-70,36-56.64,41.76-107.29,47.3-108.37,55.4-108.37,55.4H672.51Z"/><path class="cls-6" d="M393.49,309.67s26.19,2.06,50.31,0,27.06,1.47,34.12,0-8.24-6.77-17.06-8.83-12.36,5.92-21.18,4.87-6.18-3.39-16.47-2.22S412.62,307,405,307,391.71,309.54,393.49,309.67Z"/><path class="cls-6" d="M171.34,372.5a175.48,175.48,0,0,0,26.77,0c16.29-1.09,21.71.6,33.65.48s14.84,1.58,18.1,0-8-.85-15.56-3.75-8-6.29-16.29-4.41-4,5.86-14.47,1.52-9-8.33-16.65-4.71-3.61,6.15-15.55,6.88-17.37,2.17-14.48,2.89S171.34,372.5,171.34,372.5Z"/><path class="cls-7" d="M113.81,334.78s4.5,11.17,23.49,15.64S167,349,186,370.26s31.77,33.78,66.4,37.13,3.36.23,58.1,10.73,43.61,1.77,82.69,14.51S494.8,473.52,533.9,473.52H113.81Z"/><path class="cls-8" d="M337.28,473.52s14.52-10.27,39.1-14.74,24.36,9,69.16-7.25,49.74-24.94,65.39-23.45,18.62,11.17,37.24,12.66,14.9,7.45,37.25-1.49,29.8-34.45,48.42-35.1,38.67-19.28,38.67-19.28v88.65Z"/><path class="cls-9" d="M113.81,618c10.85-6.35,105.12,9,198.87,43,97,35.15,108.39,25.7,163.13,24.58s196.7,11.9,196.7,11.9H113.81Z"/><polygon class="cls-9" points="128.57 547.64 113.81 618.04 143.33 618.04 128.57 547.64"/><polygon class="cls-9" points="146.13 559.39 132.52 624.3 159.74 624.3 146.13 559.39"/><polygon class="cls-9" points="164.56 555.18 149.8 625.58 179.32 625.58 164.56 555.18"/><polygon class="cls-9" points="495.64 618.08 480.88 688.48 510.4 688.48 495.64 618.08"/><polygon class="cls-9" points="531.63 625.63 516.87 696.02 546.39 696.02 531.63 625.63"/><polygon class="cls-9" points="213.45 570.43 198.69 640.83 228.21 640.83 213.45 570.43"/><polygon class="cls-9" points="234.12 576.13 220.19 642.58 248.05 642.58 234.12 576.13"/><polygon class="cls-9" points="181.05 582.84 170.67 632.37 191.44 632.37 181.05 582.84"/><polygon class="cls-9" points="193.9 590.38 184.54 635.03 203.27 635.03 193.9 590.38"/><polygon class="cls-9" points="256.2 603.65 245.81 653.18 266.58 653.18 256.2 603.65"/><polygon class="cls-9" points="472.86 639.93 462.47 689.47 483.25 689.47 472.86 639.93"/><polygon class="cls-9" points="272.4 614.98 263 659.79 281.8 659.79 272.4 614.98"/><polygon class="cls-9" points="284.05 625.44 275.81 664.73 292.29 664.73 284.05 625.44"/><polygon class="cls-9" points="298.41 638.59 292.29 667.78 304.53 667.78 298.41 638.59"/><polygon class="cls-9" points="513.45 659.79 507.33 688.98 519.57 688.98 513.45 659.79"/><polygon class="cls-9" points="549.62 660.82 543.5 690.01 555.74 690.01 549.62 660.82"/><path class="cls-6" d="M629.56,436.38H603.9c-9.66,0-19.65,1.5-19-1.49s11,.74,18.65-3.37,11-7.84,24-3,23,7.47,16.32,8.22A65.85,65.85,0,0,1,629.56,436.38Z"/><rect class="cls-10" x="113.81" y="138.77" width="558.7" height="558.7"/><rect class="cls-11" x="113.81" y="138.77" width="558.7" height="558.7"/><path class="cls-12" d="M113.81,138.77v558.7h558.7V138.77Zm558.7,558.7H113.81V138.77h558.7Z"/></svg>