<svg id="Calque_1" data-name="Calque 1" xmlns="http://www.w3.org/2000/svg" xmlns:xlink="http://www.w3.org/1999/xlink" viewBox="0 0 799.99 799.99"><defs><style>.cls-1,.cls-2{fill:#ebe7e2;}.cls-1,.cls-13{stroke:#1a1916;stroke-miterlimit:10;stroke-width:5px;}.cls-3{clip-path:url(#clip-path);}.cls-4{fill:#fbecd3;}.cls-5{fill:#9daea4;}.cls-6{fill:#799685;}.cls-7{fill:#de8c0c;}.cls-8{fill:#f28c01;}.cls-9{fill:#fdfdfe;}.cls-10{fill:#8c3414;}.cls-11{fill:#cf5516;}.cls-12{fill:#494020;}.cls-13{fill:none;}.cls-14,.cls-15{fill:#fff;}.cls-14{opacity:0.4;}.cls-16{fill:#060300;}</style><clipPath id="clip-path"><rect class="cls-1" x="198.82" y="136.27" width="402.36" height="583.14"/></clipPath></defs><title>Plan de travail 6</title><polygon class="cls-1" points="557.65 719.41 198.82 719.41 198.82 136.27 577.39 100.24 557.65 719.41"/><rect class="cls-2" x="198.82" y="136.27" width="402.36" height="583.14"/><g class="cls-3"><rect class="cls-4" x="129.85" y="136.27" width="585.12" height="585.12"/><rect class="cls-5" x="129.85" y="486.85" width="585.12" height="234.54"/><path class="cls-6" d="M129.85,544.59s28.16.78,56.25-17.17,49.93-21.84,72.55-21.84,20.28,6.24,48.37,0,57.73-10.14,82.7-9.36,28.86-3.12,43.69,5.46,72.55,22.4,91.27,18.61,23.94,4,45.13,10.25,32.11-28.3,54.73-10.25,27.31,14.93,39.79,28.2,7.8,15.6,23.41,20.28S715,577.35,715,577.35v-90.5H129.85Z"/><circle class="cls-7" cx="406.09" cy="341.55" r="56.26"/><circle class="cls-6" cx="392.41" cy="564.48" r="41.41"/><path class="cls-8" d="M715,302.05s-16.24-9.36-26.18-8.19-14.63,16.38-30.43,20.48-5.27,12.29-45.65,27.21-38.3,23.7-73.28,37.74S480.12,423,427.07,428.83s-113.49,58-113.49,58H715Z"/><path class="cls-9" d="M422.76,315.26s27.42,2.15,52.68,0,28.35,1.54,35.74,0-8.62-7.09-17.87-9.25-12.94,6.2-22.18,5.1-6.47-3.56-17.25-2.32-11.09,3.69-19.1,3.69S420.89,315.12,422.76,315.26Z"/><path class="cls-9" d="M190.1,381.06a184,184,0,0,0,28,0c17.05-1.14,22.74.63,35.24.5s15.54,1.66,18.95,0-8.33-.89-16.29-3.93S247.7,371.05,239,373s-4.16,6.14-15.15,1.59-9.48-8.71-17.44-4.92-3.79,6.44-16.29,7.2-18.19,2.27-15.16,3S190.1,381.06,190.1,381.06Z"/><path class="cls-10" d="M129.85,341.55s4.72,11.7,24.61,16.38,31.08-1.45,51,20.78S238.7,414.09,275,417.6s3.51.23,60.84,11.23,45.68,1.86,86.6,15.21,106.45,42.81,147.4,42.81h-440Z"/><path class="cls-11" d="M363.89,486.85s15.21-10.75,40.95-15.43,25.51,9.37,72.43-7.6,52.09-26.12,68.48-24.55,19.5,11.7,39,13.26,15.6,7.8,39-1.56S655,414.89,674.47,414.2,715,394,715,394v92.83Z"/><path class="cls-12" d="M129.85,638.21c11.37-6.65,110.1,9.42,208.28,45C439.73,720,451.64,710.1,509,708.93s206,12.46,206,12.46H129.85Z"/><polygon class="cls-12" points="145.31 564.48 129.85 638.21 160.77 638.21 145.31 564.48"/><polygon class="cls-12" points="163.7 576.79 149.44 644.76 177.95 644.76 163.7 576.79"/><polygon class="cls-12" points="183 572.38 167.55 646.1 198.46 646.1 183 572.38"/><polygon class="cls-12" points="529.74 638.25 514.28 711.98 545.19 711.98 529.74 638.25"/><polygon class="cls-12" points="567.43 646.15 551.97 719.88 582.89 719.88 567.43 646.15"/><polygon class="cls-12" points="234.2 588.35 218.74 662.07 249.66 662.07 234.2 588.35"/><polygon class="cls-12" points="255.85 594.32 241.26 663.9 270.44 663.9 255.85 594.32"/><polygon class="cls-12" points="200.28 601.34 189.4 653.22 211.16 653.22 200.28 601.34"/><polygon class="cls-12" points="213.73 609.24 203.93 656 223.54 656 213.73 609.24"/><polygon class="cls-12" points="278.97 623.14 268.09 675.01 289.85 675.01 278.97 623.14"/><polygon class="cls-12" points="505.88 661.13 495 713.01 516.76 713.01 505.88 661.13"/><polygon class="cls-12" points="295.94 635 286.1 681.94 305.78 681.94 295.94 635"/><polygon class="cls-12" points="308.15 645.96 299.52 687.11 316.77 687.11 308.15 645.96"/><polygon class="cls-12" points="323.19 659.73 316.77 690.3 329.59 690.3 323.19 659.73"/><polygon class="cls-12" points="548.39 681.94 541.98 712.5 554.8 712.5 548.39 681.94"/><polygon class="cls-12" points="586.27 683.01 579.86 713.58 592.68 713.58 586.27 683.01"/><path class="cls-9" d="M670,448H643.12c-10.12,0-20.58,1.57-19.88-1.57s11.51.79,19.53-3.52,11.52-8.22,25.12-3.13,24.08,7.83,17.1,8.61A68.87,68.87,0,0,1,670,448Z"/></g><rect class="cls-13" x="198.82" y="136.27" width="402.36" height="583.14"/><polygon class="cls-14" points="201.38 716.94 598.67 716.84 598.7 138.77 201.24 138.8 201.38 716.94"/><path class="cls-15" d="M272.06,182.93m1.94,1,8.36-5.55-2.38-76v0a34.29,34.29,0,0,0,11.36-1.91,18.25,18.25,0,0,0,8.68-6c2.29-3.07,3.7-7.15,3.32-12.77a.58.58,0,0,0-.52-.63,30.78,30.78,0,0,0-4.59-.51,40.3,40.3,0,0,0-4.08.12,18.81,18.81,0,0,0-6.38,1.79,15.79,15.79,0,0,0-7.41,7.27,24.49,24.49,0,0,0-2.3,8,22.46,22.46,0,0,0-5.74-6.9,1.14,1.14,0,0,0-1.78.26,1.22,1.22,0,0,0,.25,1.78,23,23,0,0,1,7.51,12.19,91.83,91.83,0,0,0-14.75-1.59c-16.17,0-32.86,14.11-32.86,37.07,0,17.45,8.35,30.3,24.59,37.91h0c3.2,1.59,16,6.57,19.51,7.84l2.37,1.26a1.22,1.22,0,0,0,.49.15,2.93,2.93,0,0,0,2.77-2.07l-.07.17a4.8,4.8,0,0,1,2.12-1.83c1.16-.63,2.78-1.29,4.72-2.14,2.44-1,5.1-2.17,8.22-3.61l0,0c17.69-9.06,24.56-22.66,24.56-39.57,0-10.34-3-19.44-8.7-25.75s-13.81-9.63-23.86-8.82a4.18,4.18,0,0,0-.92.19l-1.76.56A3.85,3.85,0,0,1,280,102.44Zm12.48-18.92A27.13,27.13,0,0,0,278,95.26a.78.78,0,0,0,.13,1,.72.72,0,0,0,.89-.25A25,25,0,0,1,292.71,84.8a.85.85,0,0,0,.51-.64.6.6,0,0,0-.64-.64Z"/><path class="cls-16" d="M298.22,80.59a40.3,40.3,0,0,0-4.08.12,18.81,18.81,0,0,0-6.38,1.79,15.79,15.79,0,0,0-7.41,7.27,24.49,24.49,0,0,0-2.3,8,22.46,22.46,0,0,0-5.74-6.9,1.14,1.14,0,0,0-1.78.26,1.22,1.22,0,0,0,.25,1.78,23,23,0,0,1,7.51,12.19,91.83,91.83,0,0,0-14.75-1.59c-16.17,0-32.86,14.11-32.86,37.07,0,17.45,8.35,30.3,24.59,37.91h0c3.2,1.59,16,6.57,19.51,7.84l2.37,1.26a1.27,1.27,0,0,0,.6.15,3,3,0,0,0,2.66-2.07l-.07.17a4.8,4.8,0,0,1,2.12-1.83c1.16-.63,2.78-1.29,4.72-2.14,2.44-1,5.1-2.17,8.22-3.61l0,0c17.69-9.06,24.56-22.66,24.56-39.57,0-10.34-3-19.44-8.7-25.75s-14.07-9.74-24.33-8.78a1.28,1.28,0,1,0,.23,2.54c9.59-.89,17,2.22,22.2,8s8.05,14.2,8.05,24c0,16.23-6.15,28.57-23.15,37.29-3.12,1.43-5.75,2.63-8.11,3.57h0c-1.91.84-3.55,1.5-4.92,2.24a7.09,7.09,0,0,0-3.18,2.93.77.77,0,0,0-.07.16c-.08.25-.11.19-.15.21l-1.93-1h0l-.17-.07-1.25-.47-.12-.11a39.61,39.61,0,0,1-6.43-8c-4.52-7.26-8.83-18.46-8.83-34.2a45.1,45.1,0,0,1,.88-9.05.64.64,0,0,0-.49-.76l-.15,0a.65.65,0,0,0-.62.52,47.09,47.09,0,0,0-.89,9.31c0,16,4.37,27.42,9,34.88a44.24,44.24,0,0,0,4.79,6.36c-5.29-2-13.3-5.25-15.25-6.22h0c-15.57-7.29-23.13-18.94-23.13-35.6,0-21.73,15.62-34.52,30.31-34.52a88.37,88.37,0,0,1,13.89,1.49,33.93,33.93,0,0,0-8.84,6.05.64.64,0,1,0,.88.92h0A32.89,32.89,0,0,1,279.76,108a1.3,1.3,0,0,0,.63-.23c.55-.06.94-.49.62-1.62-.37-1.3-.63-2.56-1-3.7a34.29,34.29,0,0,0,11.36-1.91,18.25,18.25,0,0,0,8.68-6c2.29-3.07,3.7-7.15,3.32-12.77a.58.58,0,0,0-.52-.63A30.78,30.78,0,0,0,298.22,80.59Zm-2.17,1.14a51.24,51.24,0,0,1,6,.39c.13,5-1,8.68-3.06,11.36a17,17,0,0,1-8,5.61,32.81,32.81,0,0,1-11.75,1.79,23.69,23.69,0,0,1,2.3-10.6,14.49,14.49,0,0,1,6.76-6.76,18.9,18.9,0,0,1,6-1.66A8.3,8.3,0,0,1,296.05,81.73Zm.26,2.94a27.13,27.13,0,0,0-14.43,11.74.78.78,0,0,0,.13,1,.72.72,0,0,0,.89-.25,25,25,0,0,1,13.66-11.24.82.82,0,0,0,.51-.63.6.6,0,0,0-.64-.64Zm-30.65,32.5a.66.66,0,0,0-.47.26,32.78,32.78,0,0,0-3.19,5,.64.64,0,0,0,1.14.59h0a31,31,0,0,1,3.06-4.85.64.64,0,0,0-.11-.9A.6.6,0,0,0,265.66,117.17Zm-4.76,8.66a.64.64,0,0,0-.56.42c-.23.62-.44,1.24-.64,1.89a.64.64,0,0,0,1.22.38c.19-.62.4-1.23.62-1.82a.65.65,0,0,0-.37-.83A.59.59,0,0,0,260.9,125.83Z"/></svg>