<svg id="Calque_1" data-name="Calque 1" xmlns="http://www.w3.org/2000/svg" viewBox="0 0 800 800"><defs><style>.cls-1{fill:#e7e2da;stroke:#12120d;stroke-width:5.68px;}.cls-1,.cls-11,.cls-14,.cls-15{stroke-miterlimit:10;}.cls-2{fill:#faebcd;}.cls-3{fill:#97a99d;}.cls-4{fill:#72917e;}.cls-5{fill:#dc8800;}.cls-6{fill:#f38800;}.cls-7{fill:#fcfdfd;}.cls-8{fill:#88300a;}.cls-9{fill:#cd510b;}.cls-10{fill:#443c15;}.cls-11{fill:none;stroke-width:5px;}.cls-11,.cls-14,.cls-15{stroke:#1a1a16;}.cls-12,.cls-13,.cls-14{fill:#fff;}.cls-12{opacity:0.8;}.cls-13{opacity:0.5;}.cls-14{stroke-width:2px;}.cls-15{fill:#1a1a16;stroke-width:0.75px;}</style></defs><title>vérification simple</title><rect class="cls-1" x="171.5" y="171.34" width="555.83" height="555.83"/><rect class="cls-2" x="107.16" y="117.5" width="558.7" height="558.7"/><rect class="cls-3" x="107.16" y="452.25" width="558.7" height="223.95"/><path class="cls-4" d="M107.16,507.38s26.89.74,53.7-16.39,47.68-20.86,69.28-20.86,19.37,6,46.19,0,55.13-9.68,79-8.94,27.57-3,41.72,5.22,69.28,21.39,87.16,17.77S507,488,527.26,494s30.66-27,52.26-9.79,26.07,14.26,38,26.92S625,526,639.86,530.47s26,8.19,26,8.19V452.25H107.16Z"/><circle class="cls-5" cx="370.93" cy="313.51" r="53.72"/><circle class="cls-4" cx="357.86" cy="526.37" r="39.54"/><path class="cls-6" d="M665.86,275.79s-15.5-8.94-25-7.82-14,15.64-29.06,19.56-5,11.73-43.58,26-36.57,22.63-70,36S441.61,391.31,391,396.85s-108.37,55.4-108.37,55.4H665.86Z"/><path class="cls-7" d="M386.85,288.4s26.18,2.06,50.3,0,27.06,1.47,34.12,0-8.23-6.77-17.06-8.82-12.35,5.91-21.18,4.87-6.18-3.4-16.47-2.23-10.59,3.53-18.24,3.53S385.06,288.28,386.85,288.4Z"/><path class="cls-7" d="M164.69,351.23a175.48,175.48,0,0,0,26.77,0c16.29-1.09,21.72.6,33.66.48s14.83,1.58,18.09,0-8-.85-15.56-3.75-8-6.29-16.28-4.41-4,5.86-14.48,1.52-9-8.32-16.64-4.71-3.62,6.16-15.56,6.88-17.37,2.17-14.48,2.89S164.69,351.23,164.69,351.23Z"/><path class="cls-8" d="M107.16,313.51s4.51,11.17,23.5,15.64,29.67-1.39,48.67,19.84,31.76,33.78,66.4,37.14,3.35.22,58.09,10.72,43.61,1.77,82.69,14.52,101.64,40.88,140.75,40.88H107.16Z"/><path class="cls-9" d="M330.63,452.25s14.53-10.27,39.1-14.73,24.37,8.94,69.16-7.26,49.75-24.94,65.39-23.45S522.9,418,541.53,419.48s14.9,7.44,37.24-1.49,29.8-34.46,48.42-35.11,38.67-19.28,38.67-19.28v88.65Z"/><path class="cls-10" d="M107.16,596.77c10.85-6.35,105.13,9,198.88,43,97,35.14,108.38,25.69,163.12,24.57s196.7,11.9,196.7,11.9H107.16Z"/><polygon class="cls-10" points="121.92 526.37 107.16 596.77 136.69 596.77 121.92 526.37"/><polygon class="cls-10" points="139.48 538.13 125.87 603.03 153.09 603.03 139.48 538.13"/><polygon class="cls-10" points="157.91 533.91 143.15 604.31 172.68 604.31 157.91 533.91"/><polygon class="cls-10" points="488.99 596.81 474.23 667.21 503.75 667.21 488.99 596.81"/><polygon class="cls-10" points="524.98 604.36 510.22 674.75 539.74 674.75 524.98 604.36"/><polygon class="cls-10" points="206.8 549.16 192.04 619.56 221.56 619.56 206.8 549.16"/><polygon class="cls-10" points="227.47 554.87 213.54 621.31 241.4 621.31 227.47 554.87"/><polygon class="cls-10" points="174.41 561.57 164.02 611.11 184.79 611.11 174.41 561.57"/><polygon class="cls-10" points="187.26 569.11 177.9 613.76 196.62 613.76 187.26 569.11"/><polygon class="cls-10" points="249.55 582.38 239.16 631.92 259.94 631.92 249.55 582.38"/><polygon class="cls-10" points="466.21 618.66 455.82 668.2 476.6 668.2 466.21 618.66"/><polygon class="cls-10" points="265.75 593.71 256.35 638.53 275.15 638.53 265.75 593.71"/><polygon class="cls-10" points="277.41 604.17 269.17 643.46 285.64 643.46 277.41 604.17"/><polygon class="cls-10" points="291.76 617.32 285.64 646.51 297.88 646.51 291.76 617.32"/><polygon class="cls-10" points="506.8 638.53 500.68 667.71 512.92 667.71 506.8 638.53"/><polygon class="cls-10" points="542.97 639.55 536.85 668.74 549.09 668.74 542.97 639.55"/><path class="cls-7" d="M622.91,415.11H597.26c-9.66,0-19.66,1.5-19-1.49s11,.75,18.65-3.36,11-7.85,24-3,23,7.47,16.32,8.22A65.85,65.85,0,0,1,622.91,415.11Z"/><rect class="cls-11" x="107.16" y="117.5" width="558.7" height="558.7"/><path class="cls-12" d="M476.6,604.17V49.26S466,24.78,437.08,26.72V582.38s29.13,5.71,37.15,38.93A76.67,76.67,0,0,0,476.6,604.17Z"/><path class="cls-13" d="M107.16,676.2H422.25s39.78-9.5,52-54.89c0,0-6.2-31.21-37.15-38.93V117.5H107.16Z"/><path class="cls-13" d="M111,105.66l-21.12-1.84L111,102a44.44,44.44,0,0,0,36.62-36.61l1.84-21.12,1.84,21.12A44.43,44.43,0,0,0,187.9,102L209,103.82l-21.12,1.84a44.44,44.44,0,0,0-36.61,36.62l-1.84,21.12-1.84-21.12A44.45,44.45,0,0,0,111,105.66Z"/><path class="cls-13" d="M191.47,140.58l-9.64-.84,9.64-.85a20.26,20.26,0,0,0,16.7-16.7l.84-9.64.85,9.64a20.26,20.26,0,0,0,16.7,16.7l9.64.85-9.64.84a20.26,20.26,0,0,0-16.7,16.71l-.85,9.63-.84-9.63A20.26,20.26,0,0,0,191.47,140.58Z"/><path class="cls-13" d="M143.68,192.06l-16.88-1.48,16.88-1.47a35.49,35.49,0,0,0,29.25-29.25L174.41,143l1.47,16.88a35.49,35.49,0,0,0,29.25,29.25L222,190.58l-16.88,1.48a35.49,35.49,0,0,0-29.25,29.25l-1.47,16.88-1.48-16.88A35.49,35.49,0,0,0,143.68,192.06Z"/><path class="cls-11" d="M107.16,676.2H422.25s39.78-9.5,52-54.89c0,0-6.2-31.21-37.15-38.93V117.5H107.16Z"/><path class="cls-11" d="M476.6,604.17V49.26S466,24.78,437.08,26.72V582.38s29.13,5.71,37.15,38.93A76.67,76.67,0,0,0,476.6,604.17Z"/><path class="cls-14" d="M111,105.66l-21.12-1.84L111,102a44.44,44.44,0,0,0,36.62-36.61l1.84-21.12,1.84,21.12A44.43,44.43,0,0,0,187.9,102L209,103.82l-21.12,1.84a44.44,44.44,0,0,0-36.61,36.62l-1.84,21.12-1.84-21.12A44.45,44.45,0,0,0,111,105.66Z"/><path class="cls-14" d="M191.47,140.58l-9.64-.84,9.64-.85a20.26,20.26,0,0,0,16.7-16.7l.84-9.64.85,9.64a20.26,20.26,0,0,0,16.7,16.7l9.64.85-9.64.84a20.26,20.26,0,0,0-16.7,16.71l-.85,9.63-.84-9.63A20.26,20.26,0,0,0,191.47,140.58Z"/><path class="cls-14" d="M143.68,192.06l-16.88-1.48,16.88-1.47a35.49,35.49,0,0,0,29.25-29.25L174.41,143l1.47,16.88a35.49,35.49,0,0,0,29.25,29.25L222,190.58l-16.88,1.48a35.49,35.49,0,0,0-29.25,29.25l-1.47,16.88-1.48-16.88A35.49,35.49,0,0,0,143.68,192.06Z"/><path class="cls-15" d="M719.29,141l-3.66-1.19a65.87,65.87,0,0,0-125.27-40.8l-3.66-1.19A69.72,69.72,0,0,1,719.29,141Z"/><polygon class="cls-15" points="717.08 143.14 694.96 113.9 698.03 111.58 717.83 137.75 744 117.95 746.32 121.02 717.08 143.14"/></svg>