<svg id="Calque_1" data-name="Calque 1" xmlns="http://www.w3.org/2000/svg" xmlns:xlink="http://www.w3.org/1999/xlink" viewBox="0 0 799.99 799.99"><defs><style>.cls-1,.cls-2{fill:#ebe7e2;}.cls-1,.cls-13{stroke:#1a1916;stroke-miterlimit:10;stroke-width:5px;}.cls-3{clip-path:url(#clip-path);}.cls-4{fill:#fbecd3;}.cls-5{fill:#9daea4;}.cls-6{fill:#799685;}.cls-7{fill:#de8c0c;}.cls-8{fill:#f28c01;}.cls-9{fill:#fdfdfe;}.cls-10{fill:#8c3414;}.cls-11{fill:#cf5516;}.cls-12{fill:#494020;}.cls-13{fill:none;}.cls-14{opacity:0.3;fill:url(#Dégradé_sans_nom_3);}.cls-15{fill:#c6baa5;}.cls-16{fill:#1a1916;}.cls-17{fill:#fff;}</style><clipPath id="clip-path"><rect class="cls-1" x="198.82" y="126.45" width="402.36" height="583.14"/></clipPath><linearGradient id="Dégradé_sans_nom_3" x1="201.34" y1="417.91" x2="598.53" y2="417.91" gradientUnits="userSpaceOnUse"><stop offset="0" stop-color="#fff" stop-opacity="0"/><stop offset="0" stop-color="#fff" stop-opacity="0.04"/><stop offset="0.02" stop-color="#fff" stop-opacity="0.22"/><stop offset="0.04" stop-color="#fff" stop-opacity="0.39"/><stop offset="0.07" stop-color="#fff" stop-opacity="0.53"/><stop offset="0.09" stop-color="#fff" stop-opacity="0.66"/><stop offset="0.12" stop-color="#fff" stop-opacity="0.77"/><stop offset="0.15" stop-color="#fff" stop-opacity="0.85"/><stop offset="0.19" stop-color="#fff" stop-opacity="0.92"/><stop offset="0.23" stop-color="#fff" stop-opacity="0.97"/><stop offset="0.3" stop-color="#fff" stop-opacity="0.99"/><stop offset="0.48" stop-color="#fff"/><stop offset="0.67" stop-color="#fff" stop-opacity="0.99"/><stop offset="0.74" stop-color="#fff" stop-opacity="0.97"/><stop offset="0.79" stop-color="#fff" stop-opacity="0.92"/><stop offset="0.83" stop-color="#fff" stop-opacity="0.85"/><stop offset="0.87" stop-color="#fff" stop-opacity="0.77"/><stop offset="0.9" stop-color="#fff" stop-opacity="0.66"/><stop offset="0.93" stop-color="#fff" stop-opacity="0.53"/><stop offset="0.95" stop-color="#fff" stop-opacity="0.39"/><stop offset="0.97" stop-color="#fff" stop-opacity="0.22"/><stop offset="1" stop-color="#fff" stop-opacity="0.04"/><stop offset="1" stop-color="#fff" stop-opacity="0"/></linearGradient></defs><title>Plan de travail 3</title><polygon class="cls-1" points="557.65 709.58 198.82 709.58 198.82 126.45 577.39 90.41 557.65 709.58"/><rect class="cls-2" x="198.82" y="126.45" width="402.36" height="583.14"/><g class="cls-3"><rect class="cls-4" x="129.85" y="126.45" width="585.12" height="585.12"/><rect class="cls-5" x="129.85" y="477.03" width="585.12" height="234.54"/><path class="cls-6" d="M129.85,534.76s28.16.78,56.25-17.16,49.93-21.85,72.55-21.85,20.28,6.24,48.37,0,57.73-10.14,82.7-9.36,28.86-3.12,43.69,5.46,72.55,22.41,91.27,18.62,23.94,4,45.13,10.25,32.11-28.31,54.73-10.25,27.31,14.93,39.79,28.19,7.8,15.61,23.41,20.29S715,567.53,715,567.53V477H129.85Z"/><circle class="cls-7" cx="406.09" cy="331.73" r="56.26"/><circle class="cls-6" cx="392.41" cy="554.66" r="41.41"/><path class="cls-8" d="M715,292.22s-16.24-9.36-26.18-8.19-14.63,16.39-30.43,20.48-5.27,12.3-45.65,27.22-38.3,23.69-73.28,37.74S480.12,413.2,427.07,419s-113.49,58-113.49,58H715Z"/><path class="cls-9" d="M422.76,305.43s27.42,2.16,52.68,0,28.35,1.54,35.74,0-8.62-7.09-17.87-9.24-12.94,6.19-22.18,5.1-6.47-3.56-17.25-2.33-11.09,3.7-19.1,3.7S420.89,305.3,422.76,305.43Z"/><path class="cls-9" d="M190.1,371.23a182.41,182.41,0,0,0,28,0c17.05-1.14,22.74.63,35.24.5s15.54,1.66,18.95,0-8.33-.89-16.29-3.92-8.34-6.59-17.06-4.62-4.16,6.13-15.15,1.59-9.48-8.72-17.44-4.93-3.79,6.44-16.29,7.2-18.19,2.27-15.16,3S190.1,371.23,190.1,371.23Z"/><path class="cls-10" d="M129.85,331.73s4.72,11.7,24.61,16.38,31.08-1.46,51,20.77,33.27,35.39,69.54,38.9,3.51.23,60.84,11.23,45.68,1.85,86.6,15.2S528.86,477,569.81,477h-440Z"/><path class="cls-11" d="M363.89,477s15.21-10.75,40.95-15.43,25.51,9.36,72.43-7.6,52.09-26.12,68.48-24.56,19.5,11.7,39,13.26,15.6,7.8,39-1.56,31.21-36.08,50.71-36.76S715,384.19,715,384.19V477Z"/><path class="cls-12" d="M129.85,628.38c11.37-6.65,110.1,9.42,208.28,45,101.6,36.8,113.51,26.91,170.84,25.74s206,12.46,206,12.46H129.85Z"/><polygon class="cls-12" points="145.31 554.65 129.85 628.38 160.77 628.38 145.31 554.65"/><polygon class="cls-12" points="163.7 566.96 149.44 634.93 177.95 634.93 163.7 566.96"/><polygon class="cls-12" points="183 562.55 167.55 636.28 198.46 636.28 183 562.55"/><polygon class="cls-12" points="529.74 628.43 514.28 702.15 545.19 702.15 529.74 628.43"/><polygon class="cls-12" points="567.43 636.33 551.97 710.05 582.89 710.05 567.43 636.33"/><polygon class="cls-12" points="234.2 578.52 218.74 652.25 249.66 652.25 234.2 578.52"/><polygon class="cls-12" points="255.85 584.49 241.26 654.08 270.44 654.08 255.85 584.49"/><polygon class="cls-12" points="200.28 591.52 189.4 643.39 211.16 643.39 200.28 591.52"/><polygon class="cls-12" points="213.73 599.42 203.93 646.17 223.54 646.17 213.73 599.42"/><polygon class="cls-12" points="278.97 613.31 268.09 665.19 289.85 665.19 278.97 613.31"/><polygon class="cls-12" points="505.88 651.31 495 703.18 516.76 703.18 505.88 651.31"/><polygon class="cls-12" points="295.94 625.17 286.1 672.11 305.78 672.11 295.94 625.17"/><polygon class="cls-12" points="308.15 636.13 299.52 677.28 316.77 677.28 308.15 636.13"/><polygon class="cls-12" points="323.19 649.91 316.77 680.47 329.59 680.47 323.19 649.91"/><polygon class="cls-12" points="548.39 672.11 541.98 702.68 554.8 702.68 548.39 672.11"/><polygon class="cls-12" points="586.27 673.19 579.86 703.75 592.68 703.75 586.27 673.19"/><path class="cls-9" d="M670,438.13H643.12c-10.12,0-20.58,1.57-19.88-1.56s11.51.78,19.53-3.52,11.52-8.22,25.12-3.13,24.08,7.82,17.1,8.61A68.55,68.55,0,0,1,670,438.13Z"/></g><rect class="cls-13" x="198.82" y="126.45" width="402.36" height="583.14"/><rect class="cls-14" x="201.34" y="128.65" width="397.19" height="578.51"/><path class="cls-15" d="M667.94,209.32A72.23,72.23,0,0,0,646,194l-3.56-1.67v15.58l-30-49.29,30-30V153l1.44.67c19.37,9.09,30.47,22.64,30.47,37.18A31.25,31.25,0,0,1,667.94,209.32Z"/><path class="cls-16" d="M639.91,134.61v19.93l2.88,1.34c18.45,8.66,29,21.39,29,34.92a27.87,27.87,0,0,1-4.27,14.59A77,77,0,0,0,647,191.7l-7.12-3.34V199l-6.86-11.27L615.56,159l24.35-24.35m5-12.07L609.25,158.2l19.53,32.09,16.13,26.49V196.23c9.66,4.52,17.61,10.33,23.15,17,5.6-6.75,8.76-14.37,8.76-22.44,0-16.06-12.5-30.34-31.91-39.44V122.54Z"/><path class="cls-17" d="M556,264.68l31.79-36.76V243l2.41.09c1.5,0,3,.08,4.53.08,31.9,0,60.72-10.85,75.22-28.33a45.24,45.24,0,0,0,4.33-6.19v27c0,26.11-35.68,47.35-79.55,47.35-1.45,0-2.91,0-4.35-.08l-2.59-.1v18.88Z"/><path class="cls-16" d="M671.82,216.53v19.14c0,11.5-7.68,22.5-21.63,31-14.72,8.94-34.4,13.87-55.42,13.87-1.42,0-2.85,0-4.25-.08l-5.19-.2V295l-26-30.28,26-30.05V245.4l4.81.18c1.54,0,3.1.08,4.63.08,32.56,0,62.07-11.16,77.05-29.13m5-25.73c0,8.07-3.16,15.69-8.76,22.43-13.49,16.27-41.25,27.43-73.29,27.43-1.49,0-3,0-4.44-.08V221.21l-37.59,43.47,37.59,43.79v-23c1.48.06,2.95.09,4.44.09,45.31,0,82.05-22.31,82.05-49.85V190.8Z"/></svg>