<svg id="Calque_1" data-name="Calque 1" xmlns="http://www.w3.org/2000/svg" viewBox="0 0 800 800"><defs><style>.cls-1{fill:#e7e2da;}.cls-2{fill:#1a1a16;}</style></defs><title>bat papier</title><path class="cls-1" d="M539.75,485.44a65.49,65.49,0,0,1,20.81,3.39l14,2.66V188.79c0-9.6-7.53-17.38-16.82-17.38l-306.44.89c-9.29,0-16.82,7.78-16.82,17.38V565c0,9.6,7.53,17.38,16.82,17.38H470.94l7.28-7.6a65.82,65.82,0,0,1,61.53-89.33Z"/><path class="cls-2" d="M640.29,646.25l-45.46-45.46,4.91-6.9a73,73,0,0,0,13.78-42.59,73.78,73.78,0,1,0-73.77,73.78,73.11,73.11,0,0,0,42.59-13.78l6.9-4.92,45.46,45.47a4,4,0,0,0,6.75-2.8,3.92,3.92,0,0,0-1.16-2.79ZM539.75,617.17a65.87,65.87,0,1,1,65.86-65.87A65.95,65.95,0,0,1,539.75,617.17Z"/><path class="cls-2" d="M486.14,260.88H349.48a4.24,4.24,0,0,0,0,8.48H486.14a4.24,4.24,0,0,0,0-8.48Z"/><path class="cls-2" d="M303.93,260.88H281.15a4.24,4.24,0,1,0,0,8.48h22.78a4.24,4.24,0,0,0,0-8.48Z"/><path class="cls-2" d="M486.14,329.21H349.48a4.24,4.24,0,0,0,0,8.48H486.14a4.24,4.24,0,0,0,0-8.48Z"/><path class="cls-2" d="M303.93,329.21H281.15a4.24,4.24,0,1,0,0,8.48h22.78a4.24,4.24,0,0,0,0-8.48Z"/><path class="cls-2" d="M486.14,397.54H349.48a4.24,4.24,0,1,0,0,8.48H486.14a4.24,4.24,0,1,0,0-8.48Z"/><path class="cls-2" d="M303.93,397.54H281.15a4.24,4.24,0,1,0,0,8.48h22.78a4.24,4.24,0,1,0,0-8.48Z"/><path class="cls-2" d="M486.14,465.87H349.48a4.24,4.24,0,0,0,0,8.48H486.14a4.24,4.24,0,0,0,0-8.48Z"/><path class="cls-2" d="M303.93,465.87H281.15a4.24,4.24,0,1,0,0,8.48h22.78a4.24,4.24,0,0,0,0-8.48Z"/><path class="cls-2" d="M235.6,557a18.56,18.56,0,0,1-18.54-18.54V174a18.56,18.56,0,0,1,18.54-18.54H531.7A18.56,18.56,0,0,1,550.23,174V469.33a81.21,81.21,0,0,1,8.48,1.52V174a27,27,0,0,0-27-27H235.6a27,27,0,0,0-27,27V538.44a27,27,0,0,0,27,27H457.85a84.25,84.25,0,0,1-1-8.48Z"/><path class="cls-2" d="M577.53,546.1H544.9V513.47a5.16,5.16,0,1,0-10.31,0V546.1H502a5.16,5.16,0,0,0,0,10.31h32.63V589a5.16,5.16,0,1,0,10.31,0V556.41h32.63a5.16,5.16,0,1,0,0-10.31Z"/></svg>