<svg id="Calque_1" data-name="Calque 1" xmlns="http://www.w3.org/2000/svg" viewBox="0 0 800 800"><defs><style>.cls-1{fill:#1a1a16;}</style></defs><title>bat numérique</title><path class="cls-1" d="M406.32,442l5.61-7.88a86.93,86.93,0,0,0,16.4-50.68,87.78,87.78,0,1,0-87.78,87.78,87,87,0,0,0,50.68-16.39l7.88-5.62,53.59,53.59a5.11,5.11,0,0,0,7.21,0,5.12,5.12,0,0,0,0-7.21Zm-65.77,19a77.59,77.59,0,1,1,77.59-77.59A77.68,77.68,0,0,1,340.55,461.05Z"/><path class="cls-1" d="M542.07,420H509.44V387.39a5.16,5.16,0,1,0-10.31,0V420H466.5a5.16,5.16,0,1,0,0,10.31h32.63V463a5.16,5.16,0,1,0,10.31,0V430.33h32.63a5.16,5.16,0,0,0,0-10.31Z"/></svg>