<?xml version="1.0" encoding="UTF-8" standalone="no"?> <svg xmlns="http://www.w3.org/2000/svg" xmlns:xlink="http://www.w3.org/1999/xlink" xmlns:serif="http://www.serif.com/" width="100%" height="100%" viewBox="0 0 256 256" version="1.1" xml:space="preserve" style="fill-rule:evenodd;clip-rule:evenodd;stroke-linejoin:round;stroke-miterlimit:2;"> <g transform="matrix(1,0,0,1,-315.43,0)"> <g id="favicon-v4" serif:id="favicon v4" transform="matrix(1.4691,0,0,2.12698,314.798,366.585)"> <rect x="0.43" y="-172.35" width="174.257" height="120.358" style="fill:none;"></rect> <clipPath id="_clip1"> <rect x="0.43" y="-172.35" width="174.257" height="120.358"></rect> </clipPath> <g clip-path="url(#_clip1)"> <g transform="matrix(0.680689,0,0,0.47015,-214.28,-172.35)"> <circle cx="443.43" cy="128" r="128" style="fill:none;"></circle> <clipPath id="_clip2"> <circle cx="443.43" cy="128" r="128"></circle> </clipPath> <g clip-path="url(#_clip2)"> <path d="M440.817,256L433.86,144.195L315.43,201.938L315.43,204.8C315.43,233.058 338.372,256 366.63,256L440.817,256ZM571.43,201.938L453,144.195L446.044,256L520.23,256C548.488,256 571.43,233.058 571.43,204.8L571.43,201.938ZM571.43,57.66L571.43,198.34L462.57,128L571.43,57.66ZM424.29,128L315.43,198.34L315.43,57.66L424.29,128ZM446.044,0L453,111.805L571.43,54.062L571.43,51.2C571.43,22.942 548.488,0 520.23,0L446.044,0ZM433.86,111.805L440.817,0L366.63,0C338.372,0 315.43,22.942 315.43,51.2L315.43,54.062L433.86,111.805Z" style="fill:rgb(128,114,92);"></path> </g> </g> </g> </g> </g> </svg> 